G75*
G70*
%OFA0B0*%
%FSLAX24Y24*%
%IPPOS*%
%LPD*%
%AMOC8*
5,1,8,0,0,1.08239X$1,22.5*
%
%ADD10R,0.0512X0.0591*%
%ADD11R,0.0591X0.0512*%
%ADD12R,0.1181X0.0630*%
%ADD13R,0.2250X0.1900*%
%ADD14R,0.0236X0.0472*%
%ADD15R,0.0551X0.0433*%
%ADD16R,0.0984X0.0472*%
%ADD17R,0.0984X0.0669*%
%ADD18R,0.0394X0.0433*%
%ADD19R,0.0315X0.0118*%
%ADD20R,0.0260X0.0260*%
%ADD21R,0.0433X0.0394*%
%ADD22R,0.0260X0.0800*%
%ADD23R,0.0630X0.1181*%
%ADD24R,0.1900X0.2250*%
%ADD25R,0.0866X0.1024*%
%ADD26R,0.0591X0.0157*%
%ADD27R,0.0433X0.0551*%
%ADD28R,0.0670X0.0790*%
%ADD29R,0.0354X0.0472*%
%ADD30R,0.0866X0.0787*%
%ADD31R,0.0787X0.0866*%
%ADD32R,0.0315X0.0354*%
%ADD33R,0.0394X0.1181*%
%ADD34R,0.0630X0.0748*%
%ADD35R,0.0748X0.0630*%
D10*
X011306Y005925D03*
X011976Y005925D03*
X015105Y002480D03*
X015775Y002480D03*
X018795Y004340D03*
X019465Y004340D03*
X018245Y005950D03*
X017575Y005950D03*
X017625Y007460D03*
X018295Y007460D03*
X010085Y009880D03*
X009415Y009880D03*
X012615Y016230D03*
X013285Y016230D03*
X012555Y019600D03*
X011885Y019600D03*
X046685Y029000D03*
X047355Y029000D03*
D11*
X050220Y029055D03*
X050220Y028385D03*
X018030Y017445D03*
X018030Y016775D03*
X015060Y017695D03*
X015060Y018365D03*
X010810Y018575D03*
X010810Y017905D03*
X014850Y004990D03*
X014850Y004320D03*
X024060Y004275D03*
X024060Y004945D03*
X025580Y004765D03*
X025580Y004095D03*
D12*
X054209Y006892D03*
X054209Y008688D03*
X055049Y015552D03*
X055049Y017348D03*
X054329Y023602D03*
X054329Y025398D03*
D13*
X057045Y024500D03*
X057765Y016450D03*
X056925Y007790D03*
D14*
X022730Y010878D03*
X022230Y010878D03*
X021730Y010878D03*
X021230Y010878D03*
X020730Y010878D03*
X020230Y010878D03*
X019730Y010878D03*
X019230Y010878D03*
X019230Y013082D03*
X019730Y013082D03*
X020230Y013082D03*
X020730Y013082D03*
X021230Y013082D03*
X021730Y013082D03*
X022230Y013082D03*
X022730Y013082D03*
D15*
X025170Y016286D03*
X025170Y017074D03*
X028300Y019646D03*
X028300Y020434D03*
X029240Y020434D03*
X029240Y019646D03*
X033010Y021026D03*
X033010Y021814D03*
X030550Y022896D03*
X030550Y023684D03*
X041930Y022584D03*
X041930Y021796D03*
X037610Y012594D03*
X037610Y011806D03*
X036200Y011796D03*
X036200Y012584D03*
X034820Y012584D03*
X034820Y011796D03*
X028480Y008024D03*
X028480Y007236D03*
X010620Y014626D03*
X009760Y014606D03*
X009760Y015394D03*
X010620Y015414D03*
D16*
X023810Y016090D03*
X023810Y017390D03*
D17*
X029690Y008458D03*
X029690Y006962D03*
D18*
X024040Y010845D03*
X024040Y011515D03*
X022830Y008225D03*
X022830Y007555D03*
D19*
X017891Y003315D03*
X017891Y003118D03*
X017891Y002922D03*
X017891Y002725D03*
X016789Y002725D03*
X016789Y002922D03*
X016789Y003118D03*
X016789Y003315D03*
D20*
X017340Y003020D03*
D21*
X018795Y005150D03*
X019465Y005150D03*
D22*
X002230Y013170D03*
X001730Y013170D03*
X001230Y013170D03*
X000730Y013170D03*
X000730Y015590D03*
X001230Y015590D03*
X001730Y015590D03*
X002230Y015590D03*
X054220Y027940D03*
X054720Y027940D03*
X055220Y027940D03*
X055720Y027940D03*
X055720Y030360D03*
X055220Y030360D03*
X054720Y030360D03*
X054220Y030360D03*
D23*
X056642Y030371D03*
X058438Y030371D03*
X002858Y008609D03*
X001062Y008609D03*
D24*
X001960Y011325D03*
X057540Y027655D03*
D25*
X053070Y027706D03*
X053070Y029674D03*
X003240Y015284D03*
X003240Y013316D03*
D26*
X023853Y025817D03*
X023853Y026073D03*
X023853Y026328D03*
X023853Y026584D03*
X023853Y026840D03*
X023853Y027096D03*
X023853Y027352D03*
X023853Y027608D03*
X023853Y027864D03*
X023853Y028120D03*
X023853Y028376D03*
X023853Y028632D03*
X023853Y028887D03*
X023853Y029143D03*
X026707Y029143D03*
X026707Y028887D03*
X026707Y028632D03*
X026707Y028376D03*
X026707Y028120D03*
X026707Y027864D03*
X026707Y027608D03*
X026707Y027352D03*
X026707Y027096D03*
X026707Y026840D03*
X026707Y026584D03*
X026707Y026328D03*
X026707Y026073D03*
X026707Y025817D03*
X027913Y025887D03*
X027913Y026143D03*
X027913Y026398D03*
X027913Y026654D03*
X027913Y026910D03*
X027913Y027166D03*
X027913Y027422D03*
X027913Y027678D03*
X027913Y027934D03*
X027913Y028190D03*
X027913Y028446D03*
X027913Y028702D03*
X027913Y028957D03*
X027913Y029213D03*
X030767Y029213D03*
X030767Y028957D03*
X030767Y028702D03*
X030767Y028446D03*
X030767Y028190D03*
X030767Y027934D03*
X030767Y027678D03*
X030767Y027422D03*
X030767Y027166D03*
X030767Y026910D03*
X030767Y026654D03*
X030767Y026398D03*
X030767Y026143D03*
X030767Y025887D03*
D27*
X031526Y023940D03*
X032314Y023940D03*
X038506Y023320D03*
X039294Y023320D03*
X039294Y021690D03*
X038506Y021690D03*
X043146Y023690D03*
X043934Y023690D03*
X015794Y003303D03*
X015007Y003303D03*
D28*
X043525Y020895D03*
D29*
X027164Y013390D03*
X026664Y013390D03*
X025954Y013400D03*
X025454Y013400D03*
X025454Y010880D03*
X025954Y010880D03*
X026664Y010870D03*
X027164Y010870D03*
D30*
X013765Y005386D03*
X013765Y004204D03*
D31*
X014539Y007690D03*
X015721Y007690D03*
D32*
X031940Y020957D03*
X031566Y021784D03*
X032314Y021784D03*
X031930Y022467D03*
X031556Y023294D03*
X032304Y023294D03*
D33*
X030990Y030371D03*
X029990Y030371D03*
X028990Y030371D03*
X027990Y030371D03*
X026780Y030381D03*
X025780Y030381D03*
X024780Y030381D03*
X023780Y030381D03*
D34*
X051640Y029350D03*
X051640Y028050D03*
D35*
X048210Y027700D03*
X046910Y027700D03*
M02*
