G75*
G70*
%OFA0B0*%
%FSLAX24Y24*%
%IPPOS*%
%LPD*%
%AMOC8*
5,1,8,0,0,1.08239X$1,22.5*
%
%ADD10OC8,0.0720*%
%ADD11R,0.0218X0.0671*%
%ADD12R,0.0671X0.0218*%
%ADD13R,0.0552X0.0552*%
%ADD14R,0.0513X0.0631*%
%ADD15R,0.1694X0.0474*%
%ADD16R,0.0237X0.0671*%
%ADD17C,0.2180*%
%ADD18R,0.0631X0.0513*%
%ADD19C,0.0820*%
%ADD20R,0.0300X0.0580*%
%ADD21R,0.0580X0.0300*%
%ADD22C,0.0720*%
%ADD23C,0.0966*%
%ADD24R,0.1261X0.0710*%
%ADD25R,0.2330X0.1980*%
%ADD26R,0.0980X0.1180*%
%ADD27R,0.0552X0.0316*%
%ADD28R,0.0820X0.0820*%
%ADD29C,0.0907*%
%ADD30R,0.0710X0.0790*%
%ADD31R,0.0395X0.0552*%
%ADD32R,0.1202X0.1202*%
%ADD33C,0.1202*%
%ADD34R,0.1458X0.1064*%
%ADD35R,0.0635X0.0635*%
%ADD36C,0.0635*%
%ADD37R,0.0671X0.0237*%
%ADD38R,0.0434X0.0631*%
%ADD39R,0.1419X0.0828*%
%ADD40C,0.0720*%
%ADD41R,0.0671X0.0592*%
%ADD42R,0.0297X0.0552*%
%ADD43R,0.0513X0.0474*%
%ADD44R,0.0330X0.0580*%
%ADD45R,0.0592X0.0671*%
%ADD46R,0.0474X0.1891*%
%ADD47R,0.0710X0.1419*%
%ADD48R,0.0474X0.1694*%
%ADD49R,0.0552X0.0395*%
%ADD50C,0.0180*%
%ADD51R,0.1110X0.1110*%
%ADD52R,0.0580X0.0330*%
%ADD53OC8,0.0820*%
%ADD54R,0.0867X0.0474*%
%ADD55R,0.0474X0.0474*%
%ADD56R,0.0434X0.0395*%
%ADD57R,0.0434X0.0552*%
%ADD58R,0.0552X0.0297*%
%ADD59C,0.0640*%
%ADD60R,0.0946X0.0867*%
%ADD61R,0.0316X0.0552*%
%ADD62C,0.0631*%
%ADD63R,0.0474X0.1261*%
%ADD64R,0.0950X0.0320*%
%ADD65R,0.0430X0.0200*%
%ADD66R,0.0710X0.0237*%
%ADD67R,0.0474X0.0513*%
%ADD68R,0.0470X0.0200*%
%ADD69R,0.0680X0.0380*%
%ADD70R,0.0867X0.1025*%
%ADD71R,0.0277X0.0989*%
%ADD72C,0.0474*%
D10*
X016200Y013440D03*
X017200Y013440D03*
X017200Y014440D03*
X016200Y014440D03*
X018200Y014440D03*
X018200Y013440D03*
D11*
X015242Y014730D03*
X015045Y014730D03*
X014849Y014730D03*
X014652Y014730D03*
X014455Y014730D03*
X014258Y014730D03*
X014061Y014730D03*
X013864Y014730D03*
X013667Y014730D03*
X013471Y014730D03*
X013274Y014730D03*
X013077Y014730D03*
X012880Y014730D03*
X012683Y014730D03*
X012486Y014730D03*
X012289Y014730D03*
X012093Y014730D03*
X011896Y014730D03*
X011699Y014730D03*
X011502Y014730D03*
X011305Y014730D03*
X011108Y014730D03*
X010911Y014730D03*
X010715Y014730D03*
X010518Y014730D03*
X010518Y021030D03*
X010715Y021030D03*
X010911Y021030D03*
X011108Y021030D03*
X011305Y021030D03*
X011502Y021030D03*
X011699Y021030D03*
X011896Y021030D03*
X012093Y021030D03*
X012289Y021030D03*
X012486Y021030D03*
X012683Y021030D03*
X012880Y021030D03*
X013077Y021030D03*
X013274Y021030D03*
X013471Y021030D03*
X013667Y021030D03*
X013864Y021030D03*
X014061Y021030D03*
X014258Y021030D03*
X014455Y021030D03*
X014652Y021030D03*
X014849Y021030D03*
X015045Y021030D03*
X015242Y021030D03*
D12*
X016030Y020242D03*
X016030Y020045D03*
X016030Y019849D03*
X016030Y019652D03*
X016030Y019455D03*
X016030Y019258D03*
X016030Y019061D03*
X016030Y018864D03*
X016030Y018667D03*
X016030Y018471D03*
X016030Y018274D03*
X016030Y018077D03*
X016030Y017880D03*
X016030Y017683D03*
X016030Y017486D03*
X016030Y017289D03*
X016030Y017093D03*
X016030Y016896D03*
X016030Y016699D03*
X016030Y016502D03*
X016030Y016305D03*
X016030Y016108D03*
X016030Y015911D03*
X016030Y015715D03*
X016030Y015518D03*
X009730Y015518D03*
X009730Y015715D03*
X009730Y015911D03*
X009730Y016108D03*
X009730Y016305D03*
X009730Y016502D03*
X009730Y016699D03*
X009730Y016896D03*
X009730Y017093D03*
X009730Y017289D03*
X009730Y017486D03*
X009730Y017683D03*
X009730Y017880D03*
X009730Y018077D03*
X009730Y018274D03*
X009730Y018471D03*
X009730Y018667D03*
X009730Y018864D03*
X009730Y019061D03*
X009730Y019258D03*
X009730Y019455D03*
X009730Y019652D03*
X009730Y019849D03*
X009730Y020045D03*
X009730Y020242D03*
D13*
X019567Y014840D03*
X020393Y014840D03*
X011033Y013560D03*
X011013Y012820D03*
X010187Y012820D03*
X010207Y013560D03*
X014890Y003133D03*
X014890Y002307D03*
X023210Y002127D03*
X023210Y002953D03*
X031810Y009047D03*
X032660Y009027D03*
X032660Y009853D03*
X031810Y009873D03*
X034820Y013977D03*
X034820Y014803D03*
X036190Y014793D03*
X036190Y013967D03*
X037610Y013947D03*
X037610Y014773D03*
X020980Y027567D03*
X019980Y027567D03*
X019980Y028393D03*
X020980Y028393D03*
D14*
X026686Y023720D03*
X027474Y023720D03*
X026314Y018500D03*
X025526Y018500D03*
X018634Y015440D03*
X017846Y015440D03*
X018766Y012480D03*
X019554Y012480D03*
X029306Y009680D03*
X030094Y009680D03*
X049766Y013500D03*
X050554Y013500D03*
D15*
X017980Y016489D03*
X017980Y017080D03*
X017980Y017671D03*
D16*
X015432Y022493D03*
X015176Y022493D03*
X014920Y022493D03*
X014664Y022493D03*
X014408Y022493D03*
X014152Y022493D03*
X013896Y022493D03*
X013640Y022493D03*
X013384Y022493D03*
X013128Y022493D03*
X011542Y022453D03*
X011286Y022453D03*
X011030Y022453D03*
X010774Y022453D03*
X010518Y022453D03*
X010262Y022453D03*
X010006Y022453D03*
X009750Y022453D03*
X009494Y022453D03*
X009238Y022453D03*
X009238Y025307D03*
X009494Y025307D03*
X009750Y025307D03*
X010006Y025307D03*
X010262Y025307D03*
X010518Y025307D03*
X010774Y025307D03*
X011030Y025307D03*
X011286Y025307D03*
X011542Y025307D03*
X013128Y025347D03*
X013384Y025347D03*
X013640Y025347D03*
X013896Y025347D03*
X014152Y025347D03*
X014408Y025347D03*
X014664Y025347D03*
X014920Y025347D03*
X015176Y025347D03*
X015432Y025347D03*
D17*
X002660Y002720D03*
X030420Y017070D03*
X002180Y031880D03*
X061180Y031880D03*
X061180Y003180D03*
D18*
X034420Y017996D03*
X033560Y017996D03*
X033560Y018784D03*
X034420Y018784D03*
X029670Y022686D03*
X029670Y023474D03*
X020980Y029786D03*
X019980Y029786D03*
X019980Y030574D03*
X020980Y030574D03*
X039650Y031066D03*
X039650Y031854D03*
X044940Y031616D03*
X044940Y032404D03*
X032660Y011414D03*
X031820Y011414D03*
X031820Y010626D03*
X032660Y010626D03*
D19*
X030620Y011500D03*
X029620Y011500D03*
X033248Y006593D03*
X033248Y005593D03*
X033248Y004593D03*
X022110Y002510D03*
X010670Y008900D03*
X008890Y008900D03*
X008890Y011460D03*
X010670Y011460D03*
X012840Y013040D03*
X013840Y013040D03*
X015380Y011410D03*
X015380Y010270D03*
X018330Y009960D03*
X019330Y009960D03*
X008580Y013380D03*
X008680Y014380D03*
X008580Y015380D03*
X008290Y018800D03*
X008190Y019800D03*
X008290Y020800D03*
X019460Y021970D03*
X019460Y022970D03*
X019870Y019190D03*
X019870Y018190D03*
X019870Y017190D03*
X038940Y019070D03*
X039940Y019170D03*
X040940Y019070D03*
X042910Y018860D03*
X043910Y018860D03*
X044910Y018860D03*
X044920Y025780D03*
X045920Y025780D03*
X046920Y025780D03*
X049040Y025780D03*
X050040Y025780D03*
X051040Y025780D03*
X050580Y031720D03*
X049580Y031720D03*
X048580Y031720D03*
X047580Y031720D03*
X046580Y031720D03*
X046580Y032720D03*
X047580Y032720D03*
X048580Y032720D03*
X049580Y032720D03*
X050580Y032720D03*
X051580Y032720D03*
X052580Y032720D03*
X053580Y032720D03*
X054580Y032720D03*
X055580Y032720D03*
X056580Y032720D03*
X057580Y032720D03*
X058580Y032720D03*
X058580Y031720D03*
X057580Y031720D03*
X056580Y031720D03*
X055580Y031720D03*
X054580Y031720D03*
X053580Y031720D03*
X052580Y031720D03*
X051580Y031720D03*
D20*
X014972Y008350D03*
X014657Y008350D03*
X014342Y008350D03*
X014027Y008350D03*
X013713Y008350D03*
X013398Y008350D03*
X013083Y008350D03*
X012768Y008350D03*
X012768Y004970D03*
X013083Y004970D03*
X013398Y004970D03*
X013713Y004970D03*
X014027Y004970D03*
X014342Y004970D03*
X014657Y004970D03*
X014972Y004970D03*
D21*
X015560Y005558D03*
X015560Y005873D03*
X015560Y006188D03*
X015560Y006503D03*
X015560Y006817D03*
X015560Y007132D03*
X015560Y007447D03*
X015560Y007762D03*
X012180Y007762D03*
X012180Y007447D03*
X012180Y007132D03*
X012180Y006817D03*
X012180Y006503D03*
X012180Y006188D03*
X012180Y005873D03*
X012180Y005558D03*
D22*
X012240Y004000D03*
X011240Y004000D03*
X010240Y004000D03*
X010240Y003000D03*
X011240Y003000D03*
X012240Y003000D03*
D23*
X059827Y005894D02*
X060713Y005894D01*
X060713Y007863D02*
X059827Y007863D01*
X059827Y009831D02*
X060713Y009831D01*
X060713Y011800D02*
X059827Y011800D01*
X059878Y014300D02*
X060764Y014300D01*
X060764Y016268D02*
X059878Y016268D01*
X059878Y018237D02*
X060764Y018237D01*
X060764Y020205D02*
X059878Y020205D01*
X059837Y022584D02*
X060723Y022584D01*
X060723Y024553D02*
X059837Y024553D01*
X059837Y026521D02*
X060723Y026521D01*
X060723Y028490D02*
X059837Y028490D01*
D24*
X054179Y026428D03*
X054179Y024632D03*
X054229Y023518D03*
X054229Y021722D03*
X055079Y018708D03*
X055079Y016912D03*
X055069Y015838D03*
X055069Y014042D03*
X054189Y010168D03*
X054189Y008372D03*
X054219Y006898D03*
X054219Y005102D03*
D25*
X056935Y006000D03*
X056905Y009270D03*
X057785Y014940D03*
X057795Y017810D03*
X056945Y022620D03*
X056895Y025530D03*
D26*
X057336Y028350D03*
X055724Y028350D03*
X056794Y020090D03*
X058406Y020090D03*
X057486Y011750D03*
X055874Y011750D03*
D27*
X008982Y007830D03*
X008982Y007330D03*
X008982Y006830D03*
X008982Y006330D03*
X008982Y005830D03*
X008982Y005330D03*
X008982Y004830D03*
X008982Y004330D03*
X006778Y004330D03*
X006778Y004830D03*
X006778Y005330D03*
X006778Y005830D03*
X006778Y006330D03*
X006778Y006830D03*
X006778Y007330D03*
X006778Y007830D03*
D28*
X011840Y013040D03*
X028620Y011500D03*
X041910Y018860D03*
X047920Y025780D03*
X052040Y025780D03*
X019460Y023970D03*
X033248Y003593D03*
X021010Y002510D03*
D29*
X035450Y005947D02*
X035450Y006773D01*
X037450Y006773D02*
X037450Y005947D01*
X039800Y005967D02*
X039800Y006793D01*
X041800Y006793D02*
X041800Y005967D01*
X044080Y005967D02*
X044080Y006793D01*
X046080Y006793D02*
X046080Y005967D01*
X049180Y005967D02*
X049180Y006793D01*
X051180Y006793D02*
X051180Y005967D01*
D30*
X051680Y008480D03*
X050560Y008480D03*
X046640Y008480D03*
X045520Y008480D03*
X041640Y008580D03*
X040520Y008580D03*
X037310Y008490D03*
X036190Y008490D03*
D31*
X035314Y008490D03*
X034606Y008490D03*
X039026Y008580D03*
X039734Y008580D03*
X044126Y008480D03*
X044834Y008480D03*
X049226Y008480D03*
X049934Y008480D03*
X041004Y021480D03*
X040296Y021480D03*
X043276Y023820D03*
X043984Y023820D03*
D32*
X046787Y014453D03*
D33*
X045134Y014453D03*
X043480Y014453D03*
X041826Y014453D03*
X040173Y014453D03*
X040173Y016107D03*
X041826Y016107D03*
X043480Y016107D03*
X045134Y016107D03*
X046787Y016107D03*
D34*
X046460Y010880D03*
X048900Y010880D03*
X051460Y010880D03*
X043900Y010880D03*
X041460Y010880D03*
X038900Y010880D03*
X036460Y010880D03*
X033900Y010880D03*
D35*
X004180Y010124D03*
X004180Y018124D03*
X004824Y029180D03*
X012824Y029180D03*
X022570Y031585D03*
D36*
X022570Y030795D03*
X022570Y030005D03*
X022570Y029215D03*
X022570Y028425D03*
X022570Y027635D03*
X022570Y026845D03*
X022570Y026055D03*
X022570Y025265D03*
X022570Y024475D03*
X022570Y023685D03*
X022570Y022895D03*
X022570Y022105D03*
X022570Y021315D03*
X022570Y020525D03*
X022570Y019735D03*
X022570Y018945D03*
X022570Y018155D03*
X022570Y017365D03*
X022570Y016575D03*
X036790Y016575D03*
X036790Y017365D03*
X036790Y018155D03*
X036790Y018945D03*
X036790Y019735D03*
X036790Y020525D03*
X036790Y021315D03*
X036790Y022105D03*
X036790Y022895D03*
X036790Y023685D03*
X036790Y024475D03*
X036790Y025265D03*
X036790Y026055D03*
X036790Y026845D03*
X036790Y027635D03*
X036790Y028425D03*
X036790Y029215D03*
X036790Y030005D03*
X036790Y030795D03*
X036790Y031585D03*
X018336Y029180D03*
X017549Y029180D03*
X016761Y029180D03*
X015974Y029180D03*
X015186Y029180D03*
X014399Y029180D03*
X013611Y029180D03*
X013611Y028196D03*
X014399Y028196D03*
X015186Y028196D03*
X015974Y028196D03*
X016761Y028196D03*
X017549Y028196D03*
X018336Y028196D03*
X012824Y028196D03*
X010336Y028196D03*
X009549Y028196D03*
X008761Y028196D03*
X007974Y028196D03*
X007186Y028196D03*
X006399Y028196D03*
X005611Y028196D03*
X004824Y028196D03*
X005611Y029180D03*
X006399Y029180D03*
X007186Y029180D03*
X007974Y029180D03*
X008761Y029180D03*
X009549Y029180D03*
X010336Y029180D03*
X005164Y023636D03*
X005164Y022849D03*
X005164Y022061D03*
X005164Y021274D03*
X004180Y021274D03*
X004180Y022061D03*
X004180Y022849D03*
X004180Y023636D03*
X004180Y020486D03*
X004180Y019699D03*
X004180Y018911D03*
X005164Y018911D03*
X005164Y018124D03*
X005164Y019699D03*
X005164Y020486D03*
X005164Y015636D03*
X005164Y014849D03*
X004180Y014849D03*
X004180Y015636D03*
X004180Y014061D03*
X004180Y013274D03*
X004180Y012486D03*
X004180Y011699D03*
X005164Y011699D03*
X005164Y012486D03*
X005164Y013274D03*
X005164Y014061D03*
X005164Y010911D03*
X005164Y010124D03*
X004180Y010911D03*
D37*
X028313Y008723D03*
X028313Y008467D03*
X028313Y008212D03*
X028313Y007956D03*
X028313Y007700D03*
X028313Y007444D03*
X028313Y007188D03*
X028313Y006932D03*
X028313Y006676D03*
X028313Y006420D03*
X028313Y006164D03*
X028313Y005908D03*
X028313Y005653D03*
X028313Y005397D03*
X031167Y005397D03*
X031167Y005653D03*
X031167Y005908D03*
X031167Y006164D03*
X031167Y006420D03*
X031167Y006676D03*
X031167Y006932D03*
X031167Y007188D03*
X031167Y007444D03*
X031167Y007700D03*
X031167Y007956D03*
X031167Y008212D03*
X031167Y008467D03*
X031167Y008723D03*
D38*
X040430Y026402D03*
X040930Y026402D03*
X041430Y026402D03*
X041930Y026402D03*
X042430Y026402D03*
X042930Y026402D03*
X043430Y026402D03*
X043930Y026402D03*
X043930Y029638D03*
X043430Y029638D03*
X042930Y029638D03*
X042430Y029638D03*
X041930Y029638D03*
X041430Y029638D03*
X040930Y029638D03*
X040430Y029638D03*
D39*
X045580Y030108D03*
X045580Y028572D03*
D40*
X032090Y014500D02*
X032090Y013860D01*
X031090Y013960D02*
X031090Y014600D01*
X030090Y014500D02*
X030090Y013860D01*
X029090Y013960D02*
X029090Y014600D01*
X028090Y014500D02*
X028090Y013860D01*
X002600Y026880D02*
X001960Y026880D01*
X001860Y027880D02*
X002500Y027880D01*
X002600Y028880D02*
X001960Y028880D01*
X001860Y029880D02*
X002500Y029880D01*
X002500Y025880D02*
X001860Y025880D01*
D41*
X008280Y023615D03*
X008280Y022945D03*
X016480Y023645D03*
X016480Y024315D03*
X025520Y009825D03*
X025520Y009155D03*
X026490Y009165D03*
X026490Y009835D03*
X014070Y003135D03*
X014070Y002465D03*
D42*
X020696Y004138D03*
X021444Y004138D03*
X022526Y004158D03*
X023274Y004158D03*
X023274Y005182D03*
X022900Y005182D03*
X022526Y005182D03*
X021444Y005162D03*
X021070Y005162D03*
X020696Y005162D03*
D43*
X017835Y002290D03*
X017165Y002290D03*
D44*
X016710Y008030D03*
X016310Y008030D03*
D45*
X016505Y003030D03*
X017175Y003030D03*
D46*
X025146Y004187D03*
X025934Y004187D03*
D47*
X026879Y002139D03*
X024201Y002139D03*
D48*
X013151Y010300D03*
X012560Y010300D03*
X011969Y010300D03*
D49*
X042335Y020486D03*
X042335Y021194D03*
X043750Y022206D03*
X043750Y022914D03*
D50*
X043091Y022817D02*
X042791Y022817D01*
X042791Y023015D02*
X043091Y023015D01*
X043091Y023215D02*
X042791Y023215D01*
X042627Y023390D02*
X042627Y023690D01*
X042427Y023690D02*
X042427Y023390D01*
X042229Y023390D02*
X042229Y023690D01*
X042019Y023690D02*
X042019Y023390D01*
X041820Y023390D02*
X041820Y023690D01*
X041621Y023690D02*
X041621Y023390D01*
X041457Y023215D02*
X041157Y023215D01*
X041157Y023015D02*
X041457Y023015D01*
X041457Y022817D02*
X041157Y022817D01*
X041157Y022607D02*
X041457Y022607D01*
X041457Y022408D02*
X041157Y022408D01*
X041157Y022209D02*
X041457Y022209D01*
X041621Y022035D02*
X041621Y021735D01*
X041820Y021735D02*
X041820Y022035D01*
X042019Y022035D02*
X042019Y021735D01*
X042229Y021735D02*
X042229Y022035D01*
X042427Y022035D02*
X042427Y021735D01*
X042627Y021735D02*
X042627Y022035D01*
X042791Y022209D02*
X043091Y022209D01*
X043091Y022408D02*
X042791Y022408D01*
X042791Y022607D02*
X043091Y022607D01*
D51*
X042128Y022716D03*
D52*
X040420Y022890D03*
X040420Y022490D03*
X043090Y021050D03*
X043090Y020650D03*
X040973Y020433D03*
X040973Y020113D03*
X040973Y019793D03*
D53*
X040610Y030930D03*
X041610Y030930D03*
X042610Y030930D03*
X043610Y030930D03*
X043610Y031930D03*
X042610Y031930D03*
X041610Y031930D03*
X040610Y031930D03*
D54*
X024394Y013530D03*
X024382Y012530D03*
X024370Y011530D03*
X024394Y010530D03*
X020606Y010530D03*
X020591Y011530D03*
X020579Y012530D03*
X020567Y013530D03*
D55*
X024560Y009614D03*
X024560Y008826D03*
D56*
X039304Y022086D03*
X039304Y022834D03*
X039294Y023496D03*
X039294Y024244D03*
X038467Y023870D03*
X038477Y022460D03*
D57*
X027156Y013390D03*
X026656Y013390D03*
X025946Y013400D03*
X025446Y013400D03*
X025446Y010880D03*
X025946Y010880D03*
X026656Y010870D03*
X027156Y010870D03*
D58*
X017522Y010656D03*
X017522Y011404D03*
X016498Y011404D03*
X016498Y011030D03*
X016498Y010656D03*
D59*
X019970Y007080D02*
X019970Y006520D01*
X021970Y006520D02*
X021970Y007080D01*
X023970Y007080D02*
X023970Y006520D01*
X025970Y006520D02*
X025970Y007080D01*
D60*
X019570Y003501D03*
X019570Y002319D03*
D61*
X026180Y026458D03*
X026680Y026458D03*
X027180Y026458D03*
X027680Y026458D03*
X028180Y026458D03*
X028680Y026458D03*
X029180Y026458D03*
X029680Y026458D03*
X029680Y028662D03*
X029180Y028662D03*
X028680Y028662D03*
X028180Y028662D03*
X027680Y028662D03*
X027180Y028662D03*
X026680Y028662D03*
X026180Y028662D03*
D62*
X026280Y032350D03*
X025260Y032350D03*
X024280Y032350D03*
X027260Y032350D03*
X028490Y032340D03*
X029480Y032350D03*
X030490Y032340D03*
X031480Y032350D03*
D63*
X030980Y030381D03*
X031980Y030381D03*
X029980Y030381D03*
X028980Y030381D03*
X027760Y030381D03*
X026760Y030381D03*
X025760Y030381D03*
X024760Y030381D03*
D64*
X024210Y017670D03*
X024210Y017170D03*
X024210Y016670D03*
X024210Y016170D03*
X026270Y016170D03*
X026270Y016670D03*
X026270Y017170D03*
X026270Y017670D03*
D65*
X047289Y028266D03*
X047289Y028463D03*
X047289Y028660D03*
X047289Y028857D03*
X047289Y029054D03*
X048951Y029054D03*
X048951Y028857D03*
X048951Y028660D03*
X048951Y028463D03*
X048951Y028266D03*
X050169Y028246D03*
X050169Y028443D03*
X050169Y028640D03*
X050169Y028837D03*
X050169Y029034D03*
X051831Y029034D03*
X051831Y028837D03*
X051831Y028640D03*
X051831Y028443D03*
X051831Y028246D03*
D66*
X027921Y022676D03*
X027921Y022420D03*
X027921Y022164D03*
X027921Y021908D03*
X027921Y021652D03*
X027921Y021396D03*
X027921Y021141D03*
X027921Y020885D03*
X025598Y020885D03*
X025598Y021141D03*
X025598Y021396D03*
X025598Y021652D03*
X025598Y021908D03*
X025598Y022164D03*
X025598Y022420D03*
X025598Y022676D03*
D67*
X049000Y014255D03*
X049000Y013585D03*
D68*
X049761Y014237D03*
X049761Y014493D03*
X049761Y014748D03*
X049761Y015004D03*
X049761Y015260D03*
X049761Y015516D03*
X049761Y015772D03*
X049761Y016028D03*
X049761Y016284D03*
X049761Y016540D03*
X049761Y016796D03*
X049761Y017052D03*
X049761Y017307D03*
X049761Y017563D03*
X052059Y017563D03*
X052059Y017307D03*
X052059Y017052D03*
X052059Y016796D03*
X052059Y016540D03*
X052059Y016284D03*
X052059Y016028D03*
X052059Y015772D03*
X052059Y015516D03*
X052059Y015260D03*
X052059Y015004D03*
X052059Y014748D03*
X052059Y014493D03*
X052059Y014237D03*
D69*
X003725Y005978D03*
X001725Y005978D03*
X001725Y004478D03*
X003725Y004478D03*
D70*
X028053Y003825D03*
X031518Y003825D03*
X031518Y001660D03*
X028053Y001660D03*
D71*
X029156Y004048D03*
X029471Y004048D03*
X029785Y004048D03*
X030100Y004048D03*
X030415Y004048D03*
D72*
X030652Y002841D03*
X028919Y002841D03*
M02*
