%
M48
M72
T01C0.0197
T02C0.0236
T03C0.0315
T04C0.0320
T05C0.0354
T06C0.0394
T07C0.0400
T08C0.0551
T09C0.0591
T10C0.0748
T11C0.1102
%
T01
X25610Y7795
X41820Y20235
X43445Y20240
X27295Y27200
X23875Y29510
T02
X24930Y28410
X25780Y27850
X24860Y27380
X24740Y26280
X25590Y26290
X29175Y25895
X29320Y27420
X31400Y27340
X31560Y25970
X33220Y24740
X33840Y24060
X34340Y23290
X33720Y21700
X35360Y21120
X35000Y20220
X34620Y19500
X33450Y19950
X30930Y19730
X29240Y21060
X30900Y21900
X28620Y22160
X27300Y21540
X26680Y20980
X27240Y20640
X25330Y19750
X23760Y20620
X23230Y20480
X24590Y20970
X23180Y22480
X23780Y22820
X23210Y23170
X21330Y22790
X21130Y21210
X17220Y22620
X16370Y22610
X16050Y21050
X16920Y20240
X15030Y19470
X13280Y19780
X13270Y18230
X13280Y17120
X12760Y17080
X11470Y16330
X12060Y15980
X11215Y17098
X13660Y15570
X14340Y15660
X15040Y15860
X14870Y16500
X15310Y17000
X16830Y18290
X18770Y19070
X20710Y18370
X21900Y18940
X23240Y18760
X25526Y17774
X27180Y18360
X27460Y17740
X23385Y14740
X24055Y14328
X23925Y13030
X23390Y12915
X22510Y12390
X24915Y13035
X29335Y12245
X29440Y10420
X27680Y10140
X23890Y9720
X22580Y8760
X21610Y8900
X21160Y9270
X18970Y7450
X17265Y6720
X16240Y6220
X16670Y5330
X17320Y4750
X19070Y5960
X20950Y5740
X20950Y5740
X22100Y4260
X22080Y3510
X20435Y3330
X18710Y3470
X16500Y2280
X12890Y2240
X9130Y3890
X8720Y3440
X9720Y4750
X7760Y6960
X5905Y6928
X4845Y6018
X2180Y7180
X1880Y7740
X4745Y9288
X6290Y8650
X6870Y8500
X6750Y9970
X8845Y10345
X9725Y11235
X9520Y12980
X9650Y13600
X11760Y14130
X13330Y13630
X15510Y13990
X19040Y13990
X20310Y15610
X19120Y11620
X18390Y11320
X13760Y10540
X13895Y9615
X11980Y8430
X13410Y7590
X12830Y7280
X13785Y6620
X14565Y5900
X14945Y6433
X11400Y9420
X10040Y7950
X6220Y4330
X7960Y1960
X24010Y3530
X23990Y5645
X24350Y6055
X24860Y7070
X26740Y7660
X29700Y6140
X29035Y5350
X28155Y4858
X31340Y4860
X32280Y6150
X33650Y7550
X31770Y2690
X28910Y2015
X47840Y8980
X48520Y7740
X53380Y7580
X62330Y12020
X54380Y13180
X53945Y16758
X52020Y17990
X48445Y18288
X51400Y19930
X51470Y22845
X50655Y23308
X52880Y23380
X51350Y24880
X51500Y26620
X52580Y26650
X50620Y27260
X49600Y26580
X48455Y26578
X47540Y27100
X45540Y27080
X44740Y27780
X45940Y29320
X46680Y30320
X47580Y30180
X47560Y30880
X48540Y30130
X48420Y29100
X49540Y28680
X50880Y28620
X50840Y30170
X48120Y28580
X42405Y25820
X43390Y24590
X42240Y24270
X40870Y23920
X40630Y22000
X40915Y20923
X43420Y21650
X45170Y24090
X47980Y24950
X55140Y27220
X60740Y27380
X45660Y32680
X44860Y32980
X38100Y29490
X37510Y28270
X37290Y27230
X35900Y27810
X38550Y26370
X39480Y27070
X37540Y25250
X37960Y24230
X37990Y22270
X38420Y18010
X34120Y15980
X38500Y13880
X38845Y14908
X36190Y13310
X34810Y13360
X45835Y15228
X28100Y23520
X26720Y23040
X25520Y23060
X25200Y23700
X21680Y26980
X18860Y25780
X16220Y25290
X13430Y24330
X12340Y25320
X9730Y24030
X8570Y24950
X8570Y25480
X4270Y25350
X8040Y22040
X6970Y20310
X10690Y20190
X10720Y19460
X11880Y21660
X12360Y22040
X12360Y22650
X2260Y19420
X1180Y18680
X820Y14840
X810Y14040
X2180Y13970
X5865Y11308
X20480Y29080
T03
X18336Y29180
X17549Y29180
X16761Y29180
X15974Y29180
X15186Y29180
X14399Y29180
X13611Y29180
X12824Y29180
X12824Y28196
X13611Y28196
X14399Y28196
X15186Y28196
X15974Y28196
X16761Y28196
X17549Y28196
X18336Y28196
X22570Y28425
X22570Y27635
X22570Y26845
X22570Y26055
X22570Y25265
X22570Y24475
X22570Y23685
X22570Y22895
X22570Y22105
X22570Y21315
X22570Y20525
X22570Y19735
X22570Y18945
X22570Y18155
X22570Y17365
X22570Y16575
X36790Y16575
X36790Y17365
X36790Y18155
X36790Y18945
X36790Y19735
X36790Y20525
X36790Y21315
X36790Y22105
X36790Y22895
X36790Y23685
X36790Y24475
X36790Y25265
X36790Y26055
X36790Y26845
X36790Y27635
X36790Y28425
X36790Y29215
X36790Y30005
X36790Y30795
X36790Y31585
X22570Y31585
X22570Y30795
X22570Y30005
X22570Y29215
X10336Y29180
X9549Y29180
X8761Y29180
X7974Y29180
X7186Y29180
X6399Y29180
X5611Y29180
X4824Y29180
X4824Y28196
X5611Y28196
X6399Y28196
X7186Y28196
X7974Y28196
X8761Y28196
X9549Y28196
X10336Y28196
X5164Y23636
X5164Y22849
X5164Y22061
X5164Y21274
X4180Y21274
X4180Y22061
X4180Y22849
X4180Y23636
X4180Y20486
X4180Y19699
X4180Y18911
X4180Y18124
X5164Y18124
X5164Y18911
X5164Y19699
X5164Y20486
X5164Y15636
X5164Y14849
X4180Y14849
X4180Y15636
X4180Y14061
X4180Y13274
X4180Y12486
X4180Y11699
X5164Y11699
X5164Y12486
X5164Y13274
X5164Y14061
X5164Y10911
X5164Y10124
X4180Y10124
X4180Y10911
T04
X19970Y6800
X21970Y6800
X23970Y6800
X25970Y6800
T05
X12240Y4000
X11240Y4000
X10240Y4000
X10240Y3000
X11240Y3000
X12240Y3000
T06
X28919Y2841
X30652Y2841
T07
X33248Y3593
X33248Y4593
X33248Y5593
X33248Y6593
X30620Y11500
X29620Y11500
X28620Y11500
X28090Y14180
X29090Y14280
X30090Y14180
X31090Y14280
X32090Y14180
X38940Y19070
X39940Y19170
X40940Y19070
X41910Y18860
X42910Y18860
X43910Y18860
X44910Y18860
X44920Y25780
X45920Y25780
X46920Y25780
X47920Y25780
X49040Y25780
X50040Y25780
X51040Y25780
X52040Y25780
X43610Y30930
X42610Y30930
X41610Y30930
X40610Y30930
X40610Y31930
X41610Y31930
X42610Y31930
X43610Y31930
X46580Y31720
X47580Y31720
X48580Y31720
X49580Y31720
X50580Y31720
X51580Y31720
X52580Y31720
X53580Y31720
X54580Y31720
X55580Y31720
X56580Y31720
X57580Y31720
X58580Y31720
X58580Y32720
X57580Y32720
X56580Y32720
X55580Y32720
X54580Y32720
X53580Y32720
X52580Y32720
X51580Y32720
X50580Y32720
X49580Y32720
X48580Y32720
X47580Y32720
X46580Y32720
X19460Y23970
X19460Y22970
X19460Y21970
X19870Y19190
X19870Y18190
X19870Y17190
X18200Y14440
X18200Y13440
X17200Y13440
X16200Y13440
X16200Y14440
X17200Y14440
X13840Y13040
X12840Y13040
X11840Y13040
X10670Y11460
X8890Y11460
X8580Y13380
X8680Y14380
X8580Y15380
X8290Y18800
X8190Y19800
X8290Y20800
X2180Y25880
X2280Y26880
X2180Y27880
X2280Y28880
X2180Y29880
X15380Y11410
X15380Y10270
X18330Y9960
X19330Y9960
X10670Y8900
X8890Y8900
X21010Y2510
X22110Y2510
T08
X35450Y6360
X37450Y6360
X39800Y6380
X41800Y6380
X44080Y6380
X46080Y6380
X49180Y6380
X51180Y6380
X31480Y32350
X30490Y32340
X29480Y32350
X28490Y32340
X27260Y32350
X26280Y32350
X25260Y32350
X24280Y32350
T09
X60280Y28490
X60280Y26521
X60280Y24553
X60280Y22584
X60321Y20205
X60321Y18237
X60321Y16268
X60321Y14300
X60270Y11800
X60270Y9831
X60270Y7863
X60270Y5894
T10
X46787Y14453
X45134Y14453
X43480Y14453
X41826Y14453
X40173Y14453
X40173Y16107
X41826Y16107
X43480Y16107
X45134Y16107
X46787Y16107
T11
X2660Y2720
X30420Y17070
X2180Y31880
X61180Y31880
X61180Y3180
M30
