G75*
G70*
%OFA0B0*%
%FSLAX24Y24*%
%IPPOS*%
%LPD*%
%AMOC8*
5,1,8,0,0,1.08239X$1,22.5*
%
%ADD10R,0.0512X0.0630*%
%ADD11R,0.0472X0.0217*%
%ADD12R,0.0433X0.0551*%
%ADD13R,0.0551X0.0433*%
%ADD14R,0.0591X0.0512*%
%ADD15R,0.0512X0.0591*%
%ADD16R,0.0748X0.2677*%
%ADD17R,0.0630X0.0512*%
%ADD18R,0.1496X0.1102*%
%ADD19R,0.2126X0.2441*%
%ADD20R,0.0394X0.0630*%
%ADD21R,0.1024X0.0866*%
%ADD22R,0.0248X0.0327*%
%ADD23R,0.0551X0.0630*%
%ADD24R,0.0260X0.0800*%
%ADD25R,0.0472X0.0315*%
%ADD26R,0.0315X0.0472*%
D10*
X013287Y018427D03*
X014035Y018427D03*
X007874Y023617D03*
X007126Y023617D03*
D11*
X010988Y019201D03*
X010988Y018827D03*
X010988Y018453D03*
X012012Y018453D03*
X012012Y019201D03*
D12*
X005056Y002587D03*
X005844Y002587D03*
X006686Y002587D03*
X007474Y002587D03*
X022026Y004947D03*
X022814Y004947D03*
X027816Y005227D03*
X028604Y005227D03*
X028674Y013957D03*
X027886Y013957D03*
X013564Y024287D03*
X012776Y024287D03*
X011574Y024287D03*
X010786Y024287D03*
D13*
X022100Y013441D03*
X022100Y012653D03*
X021190Y012481D03*
X021190Y011693D03*
X027870Y011511D03*
X027870Y010723D03*
X030560Y008871D03*
X030560Y008083D03*
X035830Y009983D03*
X036630Y009983D03*
X037430Y009983D03*
X038230Y009983D03*
X038230Y010771D03*
X037430Y010771D03*
X036630Y010771D03*
X035830Y010771D03*
X038530Y004251D03*
X038530Y003463D03*
X027820Y002911D03*
X027820Y002123D03*
X021550Y002301D03*
X021550Y001513D03*
D14*
X021550Y003222D03*
X021550Y003892D03*
X027820Y003722D03*
X027820Y004392D03*
X022100Y011082D03*
X022100Y011752D03*
X027880Y012392D03*
X027880Y013062D03*
D15*
X028735Y013057D03*
X029405Y013057D03*
X029405Y012237D03*
X028735Y012237D03*
X028735Y011397D03*
X029405Y011397D03*
X029405Y010567D03*
X028735Y010567D03*
X023655Y011087D03*
X022985Y011087D03*
X022985Y011907D03*
X023655Y011907D03*
X023665Y012727D03*
X022995Y012727D03*
X022965Y013607D03*
X023635Y013607D03*
X028675Y004257D03*
X029345Y004257D03*
X029345Y003417D03*
X028675Y003417D03*
X028675Y002587D03*
X029345Y002587D03*
X029345Y001707D03*
X028675Y001707D03*
X023145Y001577D03*
X022475Y001577D03*
X022475Y002397D03*
X023145Y002397D03*
X023145Y003267D03*
X022475Y003267D03*
X022475Y004107D03*
X023145Y004107D03*
D16*
X034812Y002167D03*
X036348Y002167D03*
D17*
X007120Y024473D03*
X006180Y024473D03*
X006180Y025221D03*
X007120Y025221D03*
D18*
X015340Y008154D03*
X015340Y005240D03*
D19*
X006740Y016941D03*
D20*
X005842Y014067D03*
X007638Y014067D03*
D21*
X010026Y015327D03*
X011994Y015327D03*
D22*
X009393Y024297D03*
X008487Y024297D03*
D23*
X008599Y025187D03*
X009701Y025187D03*
D24*
X002460Y020177D03*
X001960Y020177D03*
X001460Y020177D03*
X000960Y020177D03*
X000960Y017757D03*
X001460Y017757D03*
X001960Y017757D03*
X002460Y017757D03*
D25*
X009570Y018853D03*
X009570Y019561D03*
D26*
X010166Y017307D03*
X010874Y017307D03*
M02*
