  0
SECTION
  2
HEADER
  9
$ACADVER
  1
AC1009
  9
$MEASUREMENT
 70
     1
  0
ENDSEC
  0
SECTION
  2
ENTITIES
  0
LWPOLYLINE
  8
0
 62
7
 90
5
 70
1
 10
129.054934
 20
21.443891
 10
129.054934
 20
22.343828
 10
127.458059
 20
22.343828
 10
127.458059
 20
20.543953
 10
129.054934
 20
20.543953
  0
LWPOLYLINE
  8
0
 62
7
 90
5
 70
1
 10
131.898934
 20
21.443891
 10
131.898934
 20
22.343828
 10
130.302059
 20
22.343828
 10
130.302059
 20
20.543953
 10
131.898934
 20
20.543953
  0
LWPOLYLINE
  8
0
 62
7
 90
5
 70
1
 10
116.253334
 20
21.443891
 10
116.253334
 20
22.343828
 10
114.656459
 20
22.343828
 10
114.656459
 20
20.543953
 10
116.253334
 20
20.543953
  0
LWPOLYLINE
  8
0
 62
7
 90
5
 70
1
 10
119.097334
 20
21.443891
 10
119.097334
 20
22.343828
 10
117.500459
 20
22.343828
 10
117.500459
 20
20.543953
 10
119.097334
 20
20.543953
  0
LWPOLYLINE
  8
0
 62
7
 90
5
 70
1
 10
103.553334
 20
21.697891
 10
103.553334
 20
22.597828
 10
101.956459
 20
22.597828
 10
101.956459
 20
20.797953
 10
103.553334
 20
20.797953
  0
LWPOLYLINE
  8
0
 62
7
 90
5
 70
1
 10
106.397334
 20
21.697891
 10
106.397334
 20
22.597828
 10
104.800459
 20
22.597828
 10
104.800459
 20
20.797953
 10
106.397334
 20
20.797953
  0
LWPOLYLINE
  8
0
 62
7
 90
5
 70
1
 10
92.555134
 20
21.469291
 10
92.555134
 20
22.369228
 10
90.958259
 20
22.369228
 10
90.958259
 20
20.569353
 10
92.555134
 20
20.569353
  0
LWPOLYLINE
  8
0
 62
7
 90
5
 70
1
 10
95.399134
 20
21.469291
 10
95.399134
 20
22.369228
 10
93.802259
 20
22.369228
 10
93.802259
 20
20.569353
 10
95.399134
 20
20.569353
  0
LWPOLYLINE
  8
0
 62
7
 90
5
 70
1
 10
49.532897
 20
36.999853
 10
50.131334
 20
36.999853
 10
50.131334
 20
38.196728
 10
48.934459
 20
38.196728
 10
48.934459
 20
36.999853
  0
LWPOLYLINE
  8
0
 62
7
 90
5
 70
1
 10
51.632897
 20
36.999853
 10
52.231334
 20
36.999853
 10
52.231334
 20
38.196728
 10
51.034459
 20
38.196728
 10
51.034459
 20
36.999853
  0
LWPOLYLINE
  8
0
 62
7
 90
5
 70
1
 10
122.292459
 20
27.539891
 10
122.292459
 20
26.291453
 10
125.789334
 20
26.291453
 10
125.789334
 20
28.788328
 10
122.292459
 20
28.788328
  0
LWPOLYLINE
  8
0
 62
7
 90
5
 70
1
 10
128.792459
 20
27.539891
 10
128.792459
 20
26.291453
 10
132.289334
 20
26.291453
 10
132.289334
 20
28.788328
 10
128.792459
 20
28.788328
  0
LWPOLYLINE
  8
0
 62
7
 90
5
 70
1
 10
109.592459
 20
27.539891
 10
109.592459
 20
26.291453
 10
113.089334
 20
26.291453
 10
113.089334
 20
28.788328
 10
109.592459
 20
28.788328
  0
LWPOLYLINE
  8
0
 62
7
 90
5
 70
1
 10
116.092459
 20
27.539891
 10
116.092459
 20
26.291453
 10
119.589334
 20
26.291453
 10
119.589334
 20
28.788328
 10
116.092459
 20
28.788328
  0
LWPOLYLINE
  8
0
 62
7
 90
5
 70
1
 10
106.889334
 20
27.539891
 10
106.889334
 20
28.788328
 10
103.392459
 20
28.788328
 10
103.392459
 20
26.291453
 10
106.889334
 20
26.291453
  0
LWPOLYLINE
  8
0
 62
7
 90
5
 70
1
 10
100.389334
 20
27.539891
 10
100.389334
 20
28.788328
 10
96.892459
 20
28.788328
 10
96.892459
 20
26.291453
 10
100.389334
 20
26.291453
  0
LWPOLYLINE
  8
0
 62
7
 90
5
 70
1
 10
94.189334
 20
27.539891
 10
94.189334
 20
28.788328
 10
90.692459
 20
28.788328
 10
90.692459
 20
26.291453
 10
94.189334
 20
26.291453
  0
LWPOLYLINE
  8
0
 62
7
 90
5
 70
1
 10
87.689334
 20
27.539891
 10
87.689334
 20
28.788328
 10
84.192459
 20
28.788328
 10
84.192459
 20
26.291453
 10
87.689334
 20
26.291453
  0
LWPOLYLINE
  8
0
 62
7
 90
5
 70
1
 10
74.820134
 20
24.491891
 10
74.820134
 20
25.190328
 10
73.723259
 20
25.190328
 10
73.723259
 20
23.793453
 10
74.820134
 20
23.793453
  0
LWPOLYLINE
  8
0
 62
7
 90
5
 70
1
 10
76.820134
 20
24.491891
 10
76.820134
 20
25.190328
 10
75.723259
 20
25.190328
 10
75.723259
 20
23.793453
 10
76.820134
 20
23.793453
  0
LWPOLYLINE
  8
0
 62
7
 90
5
 70
1
 10
115.606897
 20
75.429853
 10
117.305334
 20
75.429853
 10
117.305334
 20
77.326728
 10
113.908459
 20
77.326728
 10
113.908459
 20
75.429853
  0
LWPOLYLINE
  8
0
 62
7
 90
5
 70
1
 10
115.606897
 20
71.529853
 10
117.305334
 20
71.529853
 10
117.305334
 20
73.426728
 10
113.908459
 20
73.426728
 10
113.908459
 20
71.529853
  0
LWPOLYLINE
  8
0
 62
7
 90
5
 70
1
 10
44.585259
 20
5.721291
 10
44.585259
 20
5.222853
 10
45.682134
 20
5.222853
 10
45.682134
 20
6.219728
 10
44.585259
 20
6.219728
  0
LWPOLYLINE
  8
0
 62
7
 90
5
 70
1
 10
42.885259
 20
5.721291
 10
42.885259
 20
5.222853
 10
43.982134
 20
5.222853
 10
43.982134
 20
6.219728
 10
42.885259
 20
6.219728
  0
LWPOLYLINE
  8
0
 62
7
 90
5
 70
1
 10
49.541497
 20
9.794528
 10
48.443059
 20
9.794528
 10
48.443059
 20
7.797653
 10
50.639934
 20
7.797653
 10
50.639934
 20
9.794528
  0
LWPOLYLINE
  8
0
 62
7
 90
5
 70
1
 10
49.541497
 20
6.794528
 10
48.443059
 20
6.794528
 10
48.443059
 20
4.797653
 10
50.639934
 20
4.797653
 10
50.639934
 20
6.794528
  0
LWPOLYLINE
  8
0
 62
7
 90
5
 70
1
 10
20.864897
 20
58.834328
 10
20.116459
 20
58.834328
 10
20.116459
 20
57.537453
 10
21.613334
 20
57.537453
 10
21.613334
 20
58.834328
  0
LWPOLYLINE
  8
0
 62
7
 90
5
 70
1
 10
20.864897
 20
60.534328
 10
20.116459
 20
60.534328
 10
20.116459
 20
59.237453
 10
21.613334
 20
59.237453
 10
21.613334
 20
60.534328
  0
LWPOLYLINE
  8
0
 62
7
 90
5
 70
1
 10
41.692897
 20
60.612328
 10
40.944459
 20
60.612328
 10
40.944459
 20
59.315453
 10
42.441334
 20
59.315453
 10
42.441334
 20
60.612328
  0
LWPOLYLINE
  8
0
 62
7
 90
5
 70
1
 10
41.692897
 20
62.312328
 10
40.944459
 20
62.312328
 10
40.944459
 20
61.015453
 10
42.441334
 20
61.015453
 10
42.441334
 20
62.312328
  0
LWPOLYLINE
  8
0
 62
7
 90
5
 70
1
 10
107.364597
 20
53.339853
 10
107.963034
 20
53.339853
 10
107.963034
 20
54.136728
 10
106.766159
 20
54.136728
 10
106.766159
 20
53.339853
  0
LWPOLYLINE
  8
0
 62
7
 90
5
 70
1
 10
107.364597
 20
51.539853
 10
107.963034
 20
51.539853
 10
107.963034
 20
52.336728
 10
106.766159
 20
52.336728
 10
106.766159
 20
51.539853
  0
LWPOLYLINE
  8
0
 62
7
 90
5
 70
1
 10
110.152334
 20
60.407491
 10
110.152334
 20
61.005928
 10
109.355459
 20
61.005928
 10
109.355459
 20
59.809053
 10
110.152334
 20
59.809053
  0
LWPOLYLINE
  8
0
 62
7
 90
5
 70
1
 10
111.952334
 20
60.407491
 10
111.952334
 20
61.005928
 10
111.155459
 20
61.005928
 10
111.155459
 20
59.809053
 10
111.952334
 20
59.809053
  0
LWPOLYLINE
  8
0
 62
7
 90
5
 70
1
 10
110.958697
 20
56.705528
 10
110.360259
 20
56.705528
 10
110.360259
 20
55.908653
 10
111.557134
 20
55.908653
 10
111.557134
 20
56.705528
  0
LWPOLYLINE
  8
0
 62
7
 90
5
 70
1
 10
110.958697
 20
58.505528
 10
110.360259
 20
58.505528
 10
110.360259
 20
57.708653
 10
111.557134
 20
57.708653
 10
111.557134
 20
58.505528
  0
LWPOLYLINE
  8
0
 62
7
 90
5
 70
1
 10
103.586259
 20
54.463891
 10
103.586259
 20
53.865453
 10
104.383134
 20
53.865453
 10
104.383134
 20
55.062328
 10
103.586259
 20
55.062328
  0
LWPOLYLINE
  8
0
 62
7
 90
5
 70
1
 10
101.786259
 20
54.463891
 10
101.786259
 20
53.865453
 10
102.583134
 20
53.865453
 10
102.583134
 20
55.062328
 10
101.786259
 20
55.062328
  0
LWPOLYLINE
  8
0
 62
7
 90
5
 70
1
 10
69.068459
 20
60.153491
 10
69.068459
 20
59.455053
 10
70.165334
 20
59.455053
 10
70.165334
 20
60.851928
 10
69.068459
 20
60.851928
  0
LWPOLYLINE
  8
0
 62
7
 90
5
 70
1
 10
67.068459
 20
60.153491
 10
67.068459
 20
59.455053
 10
68.165334
 20
59.455053
 10
68.165334
 20
60.851928
 10
67.068459
 20
60.851928
  0
LWPOLYLINE
  8
0
 62
7
 90
5
 70
1
 10
124.293697
 20
35.563053
 10
124.792134
 20
35.563053
 10
124.792134
 20
36.659928
 10
123.795259
 20
36.659928
 10
123.795259
 20
35.563053
  0
LWPOLYLINE
  8
0
 62
7
 90
5
 70
1
 10
124.293697
 20
33.863053
 10
124.792134
 20
33.863053
 10
124.792134
 20
34.959928
 10
123.795259
 20
34.959928
 10
123.795259
 20
33.863053
  0
LWPOLYLINE
  8
0
 62
7
 90
5
 70
1
 10
58.787097
 20
4.707853
 10
59.385534
 20
4.707853
 10
59.385534
 20
5.904728
 10
58.188659
 20
5.904728
 10
58.188659
 20
4.707853
  0
LWPOLYLINE
  8
0
 62
7
 90
5
 70
1
 10
58.787097
 20
6.807853
 10
59.385534
 20
6.807853
 10
59.385534
 20
8.004728
 10
58.188659
 20
8.004728
 10
58.188659
 20
6.807853
  0
LWPOLYLINE
  8
0
 62
7
 90
5
 70
1
 10
75.240363
 20
10.185400
 10
75.240363
 20
9.032963
 10
75.737237
 20
9.032963
 10
75.737237
 20
11.337837
 10
75.240363
 20
11.337837
  0
LWPOLYLINE
  8
0
 62
7
 90
5
 70
1
 10
74.440363
 20
10.185400
 10
74.440363
 20
9.032963
 10
74.937237
 20
9.032963
 10
74.937237
 20
11.337837
 10
74.440363
 20
11.337837
  0
LWPOLYLINE
  8
0
 62
7
 90
5
 70
1
 10
76.840363
 20
10.185400
 10
76.840363
 20
9.032963
 10
77.337238
 20
9.032963
 10
77.337238
 20
11.337837
 10
76.840363
 20
11.337837
  0
LWPOLYLINE
  8
0
 62
7
 90
5
 70
1
 10
72.087238
 20
4.121400
 10
72.087238
 20
5.319838
 10
70.090363
 20
5.319838
 10
70.090363
 20
2.922963
 10
72.087238
 20
2.922963
  0
LWPOLYLINE
  8
0
 62
7
 90
5
 70
1
 10
72.087238
 20
9.621400
 10
72.087238
 20
10.819838
 10
70.090363
 20
10.819838
 10
70.090363
 20
8.422962
 10
72.087238
 20
8.422962
  0
LWPOLYLINE
  8
0
 62
7
 90
5
 70
1
 10
80.887237
 20
9.621400
 10
80.887237
 20
10.819838
 10
78.890363
 20
10.819838
 10
78.890363
 20
8.422962
 10
80.887237
 20
8.422962
  0
LWPOLYLINE
  8
0
 62
7
 90
5
 70
1
 10
80.887237
 20
4.121400
 10
80.887237
 20
5.319838
 10
78.890363
 20
5.319838
 10
78.890363
 20
2.922963
 10
80.887237
 20
2.922963
  0
LWPOLYLINE
  8
0
 62
7
 90
5
 70
1
 10
76.040363
 20
10.185400
 10
76.040363
 20
9.032963
 10
76.537237
 20
9.032963
 10
76.537237
 20
11.337837
 10
76.040363
 20
11.337837
  0
LWPOLYLINE
  8
0
 62
7
 90
5
 70
1
 10
73.640363
 20
10.185400
 10
73.640363
 20
9.032963
 10
74.137237
 20
9.032963
 10
74.137237
 20
11.337837
 10
73.640363
 20
11.337837
  0
LWPOLYLINE
  8
0
 62
7
 90
5
 70
1
 10
95.961534
 20
35.329091
 10
95.961534
 20
35.927528
 10
94.764659
 20
35.927528
 10
94.764659
 20
34.730653
 10
95.961534
 20
34.730653
  0
LWPOLYLINE
  8
0
 62
7
 90
5
 70
1
 10
95.961534
 20
37.429091
 10
95.961534
 20
38.027528
 10
94.764659
 20
38.027528
 10
94.764659
 20
36.830653
 10
95.961534
 20
36.830653
  0
LWPOLYLINE
  8
0
 62
7
 90
5
 70
1
 10
88.874934
 20
35.405291
 10
88.874934
 20
36.003728
 10
87.678059
 20
36.003728
 10
87.678059
 20
34.806853
 10
88.874934
 20
34.806853
  0
LWPOLYLINE
  8
0
 62
7
 90
5
 70
1
 10
88.874934
 20
37.505291
 10
88.874934
 20
38.103728
 10
87.678059
 20
38.103728
 10
87.678059
 20
36.906853
 10
88.874934
 20
36.906853
  0
LWPOLYLINE
  8
0
 62
7
 90
5
 70
1
 10
142.896334
 20
29.749691
 10
142.896334
 20
31.145128
 10
140.613459
 20
31.145128
 10
140.613459
 20
28.354253
 10
142.896334
 20
28.354253
  0
LWPOLYLINE
  8
0
 62
7
 90
5
 70
1
 10
146.988334
 20
29.749691
 10
146.988334
 20
31.145128
 10
144.705459
 20
31.145128
 10
144.705459
 20
28.354253
 10
146.988334
 20
28.354253
  0
LWPOLYLINE
  8
0
 62
7
 90
5
 70
1
 10
145.233134
 20
50.933291
 10
145.233134
 20
52.328728
 10
142.950259
 20
52.328728
 10
142.950259
 20
49.537853
 10
145.233134
 20
49.537853
  0
LWPOLYLINE
  8
0
 62
7
 90
5
 70
1
 10
149.325134
 20
50.933291
 10
149.325134
 20
52.328728
 10
147.042259
 20
52.328728
 10
147.042259
 20
49.537853
 10
149.325134
 20
49.537853
  0
LWPOLYLINE
  8
0
 62
7
 90
5
 70
1
 10
142.515334
 20
71.913691
 10
142.515334
 20
73.309128
 10
140.232459
 20
73.309128
 10
140.232459
 20
70.518253
 10
142.515334
 20
70.518253
  0
LWPOLYLINE
  8
0
 62
7
 90
5
 70
1
 10
146.607334
 20
71.913691
 10
146.607334
 20
73.309128
 10
144.324459
 20
73.309128
 10
144.324459
 20
70.518253
 10
146.607334
 20
70.518253
  0
LWPOLYLINE
  8
0
 62
7
 90
5
 70
1
 10
71.748297
 20
21.863653
 10
72.496734
 20
21.863653
 10
72.496734
 20
22.260528
 10
70.999859
 20
22.260528
 10
70.999859
 20
21.863653
  0
LWPOLYLINE
  8
0
 62
7
 90
5
 70
1
 10
71.748297
 20
21.213653
 10
72.496734
 20
21.213653
 10
72.496734
 20
21.610528
 10
70.999859
 20
21.610528
 10
70.999859
 20
21.213653
  0
LWPOLYLINE
  8
0
 62
7
 90
5
 70
1
 10
71.748297
 20
20.563653
 10
72.496734
 20
20.563653
 10
72.496734
 20
20.960528
 10
70.999859
 20
20.960528
 10
70.999859
 20
20.563653
  0
LWPOLYLINE
  8
0
 62
7
 90
5
 70
1
 10
71.748297
 20
19.913653
 10
72.496734
 20
19.913653
 10
72.496734
 20
20.310528
 10
70.999859
 20
20.310528
 10
70.999859
 20
19.913653
  0
LWPOLYLINE
  8
0
 62
7
 90
5
 70
1
 10
71.748297
 20
19.263653
 10
72.496734
 20
19.263653
 10
72.496734
 20
19.660528
 10
70.999859
 20
19.660528
 10
70.999859
 20
19.263653
  0
LWPOLYLINE
  8
0
 62
7
 90
5
 70
1
 10
71.748297
 20
18.613653
 10
72.496734
 20
18.613653
 10
72.496734
 20
19.010528
 10
70.999859
 20
19.010528
 10
70.999859
 20
18.613653
  0
LWPOLYLINE
  8
0
 62
7
 90
5
 70
1
 10
71.748297
 20
17.963653
 10
72.496734
 20
17.963653
 10
72.496734
 20
18.360528
 10
70.999859
 20
18.360528
 10
70.999859
 20
17.963653
  0
LWPOLYLINE
  8
0
 62
7
 90
5
 70
1
 10
71.748297
 20
17.313653
 10
72.496734
 20
17.313653
 10
72.496734
 20
17.710528
 10
70.999859
 20
17.710528
 10
70.999859
 20
17.313653
  0
LWPOLYLINE
  8
0
 62
7
 90
5
 70
1
 10
71.748297
 20
16.663653
 10
72.496734
 20
16.663653
 10
72.496734
 20
17.060528
 10
70.999859
 20
17.060528
 10
70.999859
 20
16.663653
  0
LWPOLYLINE
  8
0
 62
7
 90
5
 70
1
 10
71.748297
 20
16.013653
 10
72.496734
 20
16.013653
 10
72.496734
 20
16.410528
 10
70.999859
 20
16.410528
 10
70.999859
 20
16.013653
  0
LWPOLYLINE
  8
0
 62
7
 90
5
 70
1
 10
71.748297
 20
15.363653
 10
72.496734
 20
15.363653
 10
72.496734
 20
15.760528
 10
70.999859
 20
15.760528
 10
70.999859
 20
15.363653
  0
LWPOLYLINE
  8
0
 62
7
 90
5
 70
1
 10
71.748297
 20
14.713653
 10
72.496734
 20
14.713653
 10
72.496734
 20
15.110528
 10
70.999859
 20
15.110528
 10
70.999859
 20
14.713653
  0
LWPOLYLINE
  8
0
 62
7
 90
5
 70
1
 10
71.748297
 20
14.063653
 10
72.496734
 20
14.063653
 10
72.496734
 20
14.460528
 10
70.999859
 20
14.460528
 10
70.999859
 20
14.063653
  0
LWPOLYLINE
  8
0
 62
7
 90
5
 70
1
 10
71.748297
 20
13.413653
 10
72.496734
 20
13.413653
 10
72.496734
 20
13.810528
 10
70.999859
 20
13.810528
 10
70.999859
 20
13.413653
  0
LWPOLYLINE
  8
0
 62
7
 90
5
 70
1
 10
78.998297
 20
13.413653
 10
79.746734
 20
13.413653
 10
79.746734
 20
13.810528
 10
78.249859
 20
13.810528
 10
78.249859
 20
13.413653
  0
LWPOLYLINE
  8
0
 62
7
 90
5
 70
1
 10
78.998297
 20
14.063653
 10
79.746734
 20
14.063653
 10
79.746734
 20
14.460528
 10
78.249859
 20
14.460528
 10
78.249859
 20
14.063653
  0
LWPOLYLINE
  8
0
 62
7
 90
5
 70
1
 10
78.998297
 20
14.713653
 10
79.746734
 20
14.713653
 10
79.746734
 20
15.110528
 10
78.249859
 20
15.110528
 10
78.249859
 20
14.713653
  0
LWPOLYLINE
  8
0
 62
7
 90
5
 70
1
 10
78.998297
 20
15.363653
 10
79.746734
 20
15.363653
 10
79.746734
 20
15.760528
 10
78.249859
 20
15.760528
 10
78.249859
 20
15.363653
  0
LWPOLYLINE
  8
0
 62
7
 90
5
 70
1
 10
78.998297
 20
16.013653
 10
79.746734
 20
16.013653
 10
79.746734
 20
16.410528
 10
78.249859
 20
16.410528
 10
78.249859
 20
16.013653
  0
LWPOLYLINE
  8
0
 62
7
 90
5
 70
1
 10
78.998297
 20
16.663653
 10
79.746734
 20
16.663653
 10
79.746734
 20
17.060528
 10
78.249859
 20
17.060528
 10
78.249859
 20
16.663653
  0
LWPOLYLINE
  8
0
 62
7
 90
5
 70
1
 10
78.998297
 20
17.313653
 10
79.746734
 20
17.313653
 10
79.746734
 20
17.710528
 10
78.249859
 20
17.710528
 10
78.249859
 20
17.313653
  0
LWPOLYLINE
  8
0
 62
7
 90
5
 70
1
 10
78.998297
 20
17.963653
 10
79.746734
 20
17.963653
 10
79.746734
 20
18.360528
 10
78.249859
 20
18.360528
 10
78.249859
 20
17.963653
  0
LWPOLYLINE
  8
0
 62
7
 90
5
 70
1
 10
78.998297
 20
18.613653
 10
79.746734
 20
18.613653
 10
79.746734
 20
19.010528
 10
78.249859
 20
19.010528
 10
78.249859
 20
18.613653
  0
LWPOLYLINE
  8
0
 62
7
 90
5
 70
1
 10
78.998297
 20
19.263653
 10
79.746734
 20
19.263653
 10
79.746734
 20
19.660528
 10
78.249859
 20
19.660528
 10
78.249859
 20
19.263653
  0
LWPOLYLINE
  8
0
 62
7
 90
5
 70
1
 10
78.998297
 20
19.913653
 10
79.746734
 20
19.913653
 10
79.746734
 20
20.310528
 10
78.249859
 20
20.310528
 10
78.249859
 20
19.913653
  0
LWPOLYLINE
  8
0
 62
7
 90
5
 70
1
 10
78.998297
 20
20.563653
 10
79.746734
 20
20.563653
 10
79.746734
 20
20.960528
 10
78.249859
 20
20.960528
 10
78.249859
 20
20.563653
  0
LWPOLYLINE
  8
0
 62
7
 90
5
 70
1
 10
78.998297
 20
21.213653
 10
79.746734
 20
21.213653
 10
79.746734
 20
21.610528
 10
78.249859
 20
21.610528
 10
78.249859
 20
21.213653
  0
LWPOLYLINE
  8
0
 62
7
 90
5
 70
1
 10
78.998297
 20
21.863653
 10
79.746734
 20
21.863653
 10
79.746734
 20
22.260528
 10
78.249859
 20
22.260528
 10
78.249859
 20
21.863653
  0
LWPOLYLINE
  8
0
 62
7
 90
5
 70
1
 10
26.548897
 20
38.068328
 10
26.375459
 20
38.068328
 10
26.375459
 20
36.571453
 10
26.722334
 20
36.571453
 10
26.722334
 20
38.068328
  0
LWPOLYLINE
  8
0
 62
7
 90
5
 70
1
 10
27.048897
 20
38.068328
 10
26.875459
 20
38.068328
 10
26.875459
 20
36.571453
 10
27.222334
 20
36.571453
 10
27.222334
 20
38.068328
  0
LWPOLYLINE
  8
0
 62
7
 90
5
 70
1
 10
27.548897
 20
38.068328
 10
27.375459
 20
38.068328
 10
27.375459
 20
36.571453
 10
27.722334
 20
36.571453
 10
27.722334
 20
38.068328
  0
LWPOLYLINE
  8
0
 62
7
 90
5
 70
1
 10
28.048897
 20
38.068328
 10
27.875459
 20
38.068328
 10
27.875459
 20
36.571453
 10
28.222334
 20
36.571453
 10
28.222334
 20
38.068328
  0
LWPOLYLINE
  8
0
 62
7
 90
5
 70
1
 10
28.548897
 20
38.068328
 10
28.375459
 20
38.068328
 10
28.375459
 20
36.571453
 10
28.722334
 20
36.571453
 10
28.722334
 20
38.068328
  0
LWPOLYLINE
  8
0
 62
7
 90
5
 70
1
 10
29.048897
 20
38.068328
 10
28.875459
 20
38.068328
 10
28.875459
 20
36.571453
 10
29.222334
 20
36.571453
 10
29.222334
 20
38.068328
  0
LWPOLYLINE
  8
0
 62
7
 90
5
 70
1
 10
29.548897
 20
38.068328
 10
29.375459
 20
38.068328
 10
29.375459
 20
36.571453
 10
29.722334
 20
36.571453
 10
29.722334
 20
38.068328
  0
LWPOLYLINE
  8
0
 62
7
 90
5
 70
1
 10
30.048897
 20
38.068328
 10
29.875459
 20
38.068328
 10
29.875459
 20
36.571453
 10
30.222334
 20
36.571453
 10
30.222334
 20
38.068328
  0
LWPOLYLINE
  8
0
 62
7
 90
5
 70
1
 10
30.548897
 20
38.068328
 10
30.375459
 20
38.068328
 10
30.375459
 20
36.571453
 10
30.722334
 20
36.571453
 10
30.722334
 20
38.068328
  0
LWPOLYLINE
  8
0
 62
7
 90
5
 70
1
 10
31.048897
 20
38.068328
 10
30.875459
 20
38.068328
 10
30.875459
 20
36.571453
 10
31.222334
 20
36.571453
 10
31.222334
 20
38.068328
  0
LWPOLYLINE
  8
0
 62
7
 90
5
 70
1
 10
31.548897
 20
38.068328
 10
31.375459
 20
38.068328
 10
31.375459
 20
36.571453
 10
31.722334
 20
36.571453
 10
31.722334
 20
38.068328
  0
LWPOLYLINE
  8
0
 62
7
 90
5
 70
1
 10
32.048897
 20
38.068328
 10
31.875459
 20
38.068328
 10
31.875459
 20
36.571453
 10
32.222334
 20
36.571453
 10
32.222334
 20
38.068328
  0
LWPOLYLINE
  8
0
 62
7
 90
5
 70
1
 10
32.548897
 20
38.068328
 10
32.375459
 20
38.068328
 10
32.375459
 20
36.571453
 10
32.722334
 20
36.571453
 10
32.722334
 20
38.068328
  0
LWPOLYLINE
  8
0
 62
7
 90
5
 70
1
 10
33.048897
 20
38.068328
 10
32.875459
 20
38.068328
 10
32.875459
 20
36.571453
 10
33.222334
 20
36.571453
 10
33.222334
 20
38.068328
  0
LWPOLYLINE
  8
0
 62
7
 90
5
 70
1
 10
33.548897
 20
38.068328
 10
33.375459
 20
38.068328
 10
33.375459
 20
36.571453
 10
33.722334
 20
36.571453
 10
33.722334
 20
38.068328
  0
LWPOLYLINE
  8
0
 62
7
 90
5
 70
1
 10
34.048897
 20
38.068328
 10
33.875459
 20
38.068328
 10
33.875459
 20
36.571453
 10
34.222334
 20
36.571453
 10
34.222334
 20
38.068328
  0
LWPOLYLINE
  8
0
 62
7
 90
5
 70
1
 10
34.548897
 20
38.068328
 10
34.375459
 20
38.068328
 10
34.375459
 20
36.571453
 10
34.722334
 20
36.571453
 10
34.722334
 20
38.068328
  0
LWPOLYLINE
  8
0
 62
7
 90
5
 70
1
 10
35.048897
 20
38.068328
 10
34.875459
 20
38.068328
 10
34.875459
 20
36.571453
 10
35.222334
 20
36.571453
 10
35.222334
 20
38.068328
  0
LWPOLYLINE
  8
0
 62
7
 90
5
 70
1
 10
35.548897
 20
38.068328
 10
35.375459
 20
38.068328
 10
35.375459
 20
36.571453
 10
35.722334
 20
36.571453
 10
35.722334
 20
38.068328
  0
LWPOLYLINE
  8
0
 62
7
 90
5
 70
1
 10
36.048897
 20
38.068328
 10
35.875459
 20
38.068328
 10
35.875459
 20
36.571453
 10
36.222334
 20
36.571453
 10
36.222334
 20
38.068328
  0
LWPOLYLINE
  8
0
 62
7
 90
5
 70
1
 10
36.548897
 20
38.068328
 10
36.375459
 20
38.068328
 10
36.375459
 20
36.571453
 10
36.722334
 20
36.571453
 10
36.722334
 20
38.068328
  0
LWPOLYLINE
  8
0
 62
7
 90
5
 70
1
 10
37.048897
 20
38.068328
 10
36.875459
 20
38.068328
 10
36.875459
 20
36.571453
 10
37.222334
 20
36.571453
 10
37.222334
 20
38.068328
  0
LWPOLYLINE
  8
0
 62
7
 90
5
 70
1
 10
37.548897
 20
38.068328
 10
37.375459
 20
38.068328
 10
37.375459
 20
36.571453
 10
37.722334
 20
36.571453
 10
37.722334
 20
38.068328
  0
LWPOLYLINE
  8
0
 62
7
 90
5
 70
1
 10
38.048897
 20
38.068328
 10
37.875459
 20
38.068328
 10
37.875459
 20
36.571453
 10
38.222334
 20
36.571453
 10
38.222334
 20
38.068328
  0
LWPOLYLINE
  8
0
 62
7
 90
5
 70
1
 10
38.548897
 20
38.068328
 10
38.375459
 20
38.068328
 10
38.375459
 20
36.571453
 10
38.722334
 20
36.571453
 10
38.722334
 20
38.068328
  0
LWPOLYLINE
  8
0
 62
7
 90
5
 70
1
 10
40.548897
 20
39.493328
 10
39.800459
 20
39.493328
 10
39.800459
 20
39.146453
 10
41.297334
 20
39.146453
 10
41.297334
 20
39.493328
  0
LWPOLYLINE
  8
0
 62
7
 90
5
 70
1
 10
40.548897
 20
39.993328
 10
39.800459
 20
39.993328
 10
39.800459
 20
39.646453
 10
41.297334
 20
39.646453
 10
41.297334
 20
39.993328
  0
LWPOLYLINE
  8
0
 62
7
 90
5
 70
1
 10
40.548897
 20
40.493328
 10
39.800459
 20
40.493328
 10
39.800459
 20
40.146453
 10
41.297334
 20
40.146453
 10
41.297334
 20
40.493328
  0
LWPOLYLINE
  8
0
 62
7
 90
5
 70
1
 10
40.548897
 20
40.993328
 10
39.800459
 20
40.993328
 10
39.800459
 20
40.646453
 10
41.297334
 20
40.646453
 10
41.297334
 20
40.993328
  0
LWPOLYLINE
  8
0
 62
7
 90
5
 70
1
 10
40.548897
 20
41.493328
 10
39.800459
 20
41.493328
 10
39.800459
 20
41.146453
 10
41.297334
 20
41.146453
 10
41.297334
 20
41.493328
  0
LWPOLYLINE
  8
0
 62
7
 90
5
 70
1
 10
40.548897
 20
41.993328
 10
39.800459
 20
41.993328
 10
39.800459
 20
41.646453
 10
41.297334
 20
41.646453
 10
41.297334
 20
41.993328
  0
LWPOLYLINE
  8
0
 62
7
 90
5
 70
1
 10
40.548897
 20
42.493328
 10
39.800459
 20
42.493328
 10
39.800459
 20
42.146453
 10
41.297334
 20
42.146453
 10
41.297334
 20
42.493328
  0
LWPOLYLINE
  8
0
 62
7
 90
5
 70
1
 10
40.548897
 20
42.993328
 10
39.800459
 20
42.993328
 10
39.800459
 20
42.646453
 10
41.297334
 20
42.646453
 10
41.297334
 20
42.993328
  0
LWPOLYLINE
  8
0
 62
7
 90
5
 70
1
 10
40.548897
 20
43.493328
 10
39.800459
 20
43.493328
 10
39.800459
 20
43.146453
 10
41.297334
 20
43.146453
 10
41.297334
 20
43.493328
  0
LWPOLYLINE
  8
0
 62
7
 90
5
 70
1
 10
40.548897
 20
43.993328
 10
39.800459
 20
43.993328
 10
39.800459
 20
43.646453
 10
41.297334
 20
43.646453
 10
41.297334
 20
43.993328
  0
LWPOLYLINE
  8
0
 62
7
 90
5
 70
1
 10
40.548897
 20
44.493328
 10
39.800459
 20
44.493328
 10
39.800459
 20
44.146453
 10
41.297334
 20
44.146453
 10
41.297334
 20
44.493328
  0
LWPOLYLINE
  8
0
 62
7
 90
5
 70
1
 10
40.548897
 20
44.993328
 10
39.800459
 20
44.993328
 10
39.800459
 20
44.646453
 10
41.297334
 20
44.646453
 10
41.297334
 20
44.993328
  0
LWPOLYLINE
  8
0
 62
7
 90
5
 70
1
 10
40.548897
 20
45.493328
 10
39.800459
 20
45.493328
 10
39.800459
 20
45.146453
 10
41.297334
 20
45.146453
 10
41.297334
 20
45.493328
  0
LWPOLYLINE
  8
0
 62
7
 90
5
 70
1
 10
40.548897
 20
45.993328
 10
39.800459
 20
45.993328
 10
39.800459
 20
45.646453
 10
41.297334
 20
45.646453
 10
41.297334
 20
45.993328
  0
LWPOLYLINE
  8
0
 62
7
 90
5
 70
1
 10
40.548897
 20
46.493328
 10
39.800459
 20
46.493328
 10
39.800459
 20
46.146453
 10
41.297334
 20
46.146453
 10
41.297334
 20
46.493328
  0
LWPOLYLINE
  8
0
 62
7
 90
5
 70
1
 10
40.548897
 20
46.993328
 10
39.800459
 20
46.993328
 10
39.800459
 20
46.646453
 10
41.297334
 20
46.646453
 10
41.297334
 20
46.993328
  0
LWPOLYLINE
  8
0
 62
7
 90
5
 70
1
 10
40.548897
 20
47.493328
 10
39.800459
 20
47.493328
 10
39.800459
 20
47.146453
 10
41.297334
 20
47.146453
 10
41.297334
 20
47.493328
  0
LWPOLYLINE
  8
0
 62
7
 90
5
 70
1
 10
40.548897
 20
47.993328
 10
39.800459
 20
47.993328
 10
39.800459
 20
47.646453
 10
41.297334
 20
47.646453
 10
41.297334
 20
47.993328
  0
LWPOLYLINE
  8
0
 62
7
 90
5
 70
1
 10
40.548897
 20
48.493328
 10
39.800459
 20
48.493328
 10
39.800459
 20
48.146453
 10
41.297334
 20
48.146453
 10
41.297334
 20
48.493328
  0
LWPOLYLINE
  8
0
 62
7
 90
5
 70
1
 10
40.548897
 20
48.993328
 10
39.800459
 20
48.993328
 10
39.800459
 20
48.646453
 10
41.297334
 20
48.646453
 10
41.297334
 20
48.993328
  0
LWPOLYLINE
  8
0
 62
7
 90
5
 70
1
 10
40.548897
 20
49.493328
 10
39.800459
 20
49.493328
 10
39.800459
 20
49.146453
 10
41.297334
 20
49.146453
 10
41.297334
 20
49.493328
  0
LWPOLYLINE
  8
0
 62
7
 90
5
 70
1
 10
40.548897
 20
49.993328
 10
39.800459
 20
49.993328
 10
39.800459
 20
49.646453
 10
41.297334
 20
49.646453
 10
41.297334
 20
49.993328
  0
LWPOLYLINE
  8
0
 62
7
 90
5
 70
1
 10
40.548897
 20
50.493328
 10
39.800459
 20
50.493328
 10
39.800459
 20
50.146453
 10
41.297334
 20
50.146453
 10
41.297334
 20
50.493328
  0
LWPOLYLINE
  8
0
 62
7
 90
5
 70
1
 10
40.548897
 20
50.993328
 10
39.800459
 20
50.993328
 10
39.800459
 20
50.646453
 10
41.297334
 20
50.646453
 10
41.297334
 20
50.993328
  0
LWPOLYLINE
  8
0
 62
7
 90
5
 70
1
 10
40.548897
 20
51.493328
 10
39.800459
 20
51.493328
 10
39.800459
 20
51.146453
 10
41.297334
 20
51.146453
 10
41.297334
 20
51.493328
  0
LWPOLYLINE
  8
0
 62
7
 90
5
 70
1
 10
38.548897
 20
54.068328
 10
38.375459
 20
54.068328
 10
38.375459
 20
52.571453
 10
38.722334
 20
52.571453
 10
38.722334
 20
54.068328
  0
LWPOLYLINE
  8
0
 62
7
 90
5
 70
1
 10
38.048897
 20
54.068328
 10
37.875459
 20
54.068328
 10
37.875459
 20
52.571453
 10
38.222334
 20
52.571453
 10
38.222334
 20
54.068328
  0
LWPOLYLINE
  8
0
 62
7
 90
5
 70
1
 10
37.548897
 20
54.068328
 10
37.375459
 20
54.068328
 10
37.375459
 20
52.571453
 10
37.722334
 20
52.571453
 10
37.722334
 20
54.068328
  0
LWPOLYLINE
  8
0
 62
7
 90
5
 70
1
 10
37.048897
 20
54.068328
 10
36.875459
 20
54.068328
 10
36.875459
 20
52.571453
 10
37.222334
 20
52.571453
 10
37.222334
 20
54.068328
  0
LWPOLYLINE
  8
0
 62
7
 90
5
 70
1
 10
36.548897
 20
54.068328
 10
36.375459
 20
54.068328
 10
36.375459
 20
52.571453
 10
36.722334
 20
52.571453
 10
36.722334
 20
54.068328
  0
LWPOLYLINE
  8
0
 62
7
 90
5
 70
1
 10
36.048897
 20
54.068328
 10
35.875459
 20
54.068328
 10
35.875459
 20
52.571453
 10
36.222334
 20
52.571453
 10
36.222334
 20
54.068328
  0
LWPOLYLINE
  8
0
 62
7
 90
5
 70
1
 10
35.548897
 20
54.068328
 10
35.375459
 20
54.068328
 10
35.375459
 20
52.571453
 10
35.722334
 20
52.571453
 10
35.722334
 20
54.068328
  0
LWPOLYLINE
  8
0
 62
7
 90
5
 70
1
 10
35.048897
 20
54.068328
 10
34.875459
 20
54.068328
 10
34.875459
 20
52.571453
 10
35.222334
 20
52.571453
 10
35.222334
 20
54.068328
  0
LWPOLYLINE
  8
0
 62
7
 90
5
 70
1
 10
34.548897
 20
54.068328
 10
34.375459
 20
54.068328
 10
34.375459
 20
52.571453
 10
34.722334
 20
52.571453
 10
34.722334
 20
54.068328
  0
LWPOLYLINE
  8
0
 62
7
 90
5
 70
1
 10
34.048897
 20
54.068328
 10
33.875459
 20
54.068328
 10
33.875459
 20
52.571453
 10
34.222334
 20
52.571453
 10
34.222334
 20
54.068328
  0
LWPOLYLINE
  8
0
 62
7
 90
5
 70
1
 10
33.548897
 20
54.068328
 10
33.375459
 20
54.068328
 10
33.375459
 20
52.571453
 10
33.722334
 20
52.571453
 10
33.722334
 20
54.068328
  0
LWPOLYLINE
  8
0
 62
7
 90
5
 70
1
 10
33.048897
 20
54.068328
 10
32.875459
 20
54.068328
 10
32.875459
 20
52.571453
 10
33.222334
 20
52.571453
 10
33.222334
 20
54.068328
  0
LWPOLYLINE
  8
0
 62
7
 90
5
 70
1
 10
32.548897
 20
54.068328
 10
32.375459
 20
54.068328
 10
32.375459
 20
52.571453
 10
32.722334
 20
52.571453
 10
32.722334
 20
54.068328
  0
LWPOLYLINE
  8
0
 62
7
 90
5
 70
1
 10
32.048897
 20
54.068328
 10
31.875459
 20
54.068328
 10
31.875459
 20
52.571453
 10
32.222334
 20
52.571453
 10
32.222334
 20
54.068328
  0
LWPOLYLINE
  8
0
 62
7
 90
5
 70
1
 10
31.548897
 20
54.068328
 10
31.375459
 20
54.068328
 10
31.375459
 20
52.571453
 10
31.722334
 20
52.571453
 10
31.722334
 20
54.068328
  0
LWPOLYLINE
  8
0
 62
7
 90
5
 70
1
 10
31.048897
 20
54.068328
 10
30.875459
 20
54.068328
 10
30.875459
 20
52.571453
 10
31.222334
 20
52.571453
 10
31.222334
 20
54.068328
  0
LWPOLYLINE
  8
0
 62
7
 90
5
 70
1
 10
30.548897
 20
54.068328
 10
30.375459
 20
54.068328
 10
30.375459
 20
52.571453
 10
30.722334
 20
52.571453
 10
30.722334
 20
54.068328
  0
LWPOLYLINE
  8
0
 62
7
 90
5
 70
1
 10
30.048897
 20
54.068328
 10
29.875459
 20
54.068328
 10
29.875459
 20
52.571453
 10
30.222334
 20
52.571453
 10
30.222334
 20
54.068328
  0
LWPOLYLINE
  8
0
 62
7
 90
5
 70
1
 10
29.548897
 20
54.068328
 10
29.375459
 20
54.068328
 10
29.375459
 20
52.571453
 10
29.722334
 20
52.571453
 10
29.722334
 20
54.068328
  0
LWPOLYLINE
  8
0
 62
7
 90
5
 70
1
 10
29.048897
 20
54.068328
 10
28.875459
 20
54.068328
 10
28.875459
 20
52.571453
 10
29.222334
 20
52.571453
 10
29.222334
 20
54.068328
  0
LWPOLYLINE
  8
0
 62
7
 90
5
 70
1
 10
28.548897
 20
54.068328
 10
28.375459
 20
54.068328
 10
28.375459
 20
52.571453
 10
28.722334
 20
52.571453
 10
28.722334
 20
54.068328
  0
LWPOLYLINE
  8
0
 62
7
 90
5
 70
1
 10
28.048897
 20
54.068328
 10
27.875459
 20
54.068328
 10
27.875459
 20
52.571453
 10
28.222334
 20
52.571453
 10
28.222334
 20
54.068328
  0
LWPOLYLINE
  8
0
 62
7
 90
5
 70
1
 10
27.548897
 20
54.068328
 10
27.375459
 20
54.068328
 10
27.375459
 20
52.571453
 10
27.722334
 20
52.571453
 10
27.722334
 20
54.068328
  0
LWPOLYLINE
  8
0
 62
7
 90
5
 70
1
 10
27.048897
 20
54.068328
 10
26.875459
 20
54.068328
 10
26.875459
 20
52.571453
 10
27.222334
 20
52.571453
 10
27.222334
 20
54.068328
  0
LWPOLYLINE
  8
0
 62
7
 90
5
 70
1
 10
26.548897
 20
54.068328
 10
26.375459
 20
54.068328
 10
26.375459
 20
52.571453
 10
26.722334
 20
52.571453
 10
26.722334
 20
54.068328
  0
LWPOLYLINE
  8
0
 62
7
 90
5
 70
1
 10
24.548897
 20
51.493328
 10
23.800459
 20
51.493328
 10
23.800459
 20
51.146453
 10
25.297334
 20
51.146453
 10
25.297334
 20
51.493328
  0
LWPOLYLINE
  8
0
 62
7
 90
5
 70
1
 10
24.548897
 20
50.993328
 10
23.800459
 20
50.993328
 10
23.800459
 20
50.646453
 10
25.297334
 20
50.646453
 10
25.297334
 20
50.993328
  0
LWPOLYLINE
  8
0
 62
7
 90
5
 70
1
 10
24.548897
 20
50.493328
 10
23.800459
 20
50.493328
 10
23.800459
 20
50.146453
 10
25.297334
 20
50.146453
 10
25.297334
 20
50.493328
  0
LWPOLYLINE
  8
0
 62
7
 90
5
 70
1
 10
24.548897
 20
49.993328
 10
23.800459
 20
49.993328
 10
23.800459
 20
49.646453
 10
25.297334
 20
49.646453
 10
25.297334
 20
49.993328
  0
LWPOLYLINE
  8
0
 62
7
 90
5
 70
1
 10
24.548897
 20
49.493328
 10
23.800459
 20
49.493328
 10
23.800459
 20
49.146453
 10
25.297334
 20
49.146453
 10
25.297334
 20
49.493328
  0
LWPOLYLINE
  8
0
 62
7
 90
5
 70
1
 10
24.548897
 20
48.993328
 10
23.800459
 20
48.993328
 10
23.800459
 20
48.646453
 10
25.297334
 20
48.646453
 10
25.297334
 20
48.993328
  0
LWPOLYLINE
  8
0
 62
7
 90
5
 70
1
 10
24.548897
 20
48.493328
 10
23.800459
 20
48.493328
 10
23.800459
 20
48.146453
 10
25.297334
 20
48.146453
 10
25.297334
 20
48.493328
  0
LWPOLYLINE
  8
0
 62
7
 90
5
 70
1
 10
24.548897
 20
47.993328
 10
23.800459
 20
47.993328
 10
23.800459
 20
47.646453
 10
25.297334
 20
47.646453
 10
25.297334
 20
47.993328
  0
LWPOLYLINE
  8
0
 62
7
 90
5
 70
1
 10
24.548897
 20
47.493328
 10
23.800459
 20
47.493328
 10
23.800459
 20
47.146453
 10
25.297334
 20
47.146453
 10
25.297334
 20
47.493328
  0
LWPOLYLINE
  8
0
 62
7
 90
5
 70
1
 10
24.548897
 20
46.993328
 10
23.800459
 20
46.993328
 10
23.800459
 20
46.646453
 10
25.297334
 20
46.646453
 10
25.297334
 20
46.993328
  0
LWPOLYLINE
  8
0
 62
7
 90
5
 70
1
 10
24.548897
 20
46.493328
 10
23.800459
 20
46.493328
 10
23.800459
 20
46.146453
 10
25.297334
 20
46.146453
 10
25.297334
 20
46.493328
  0
LWPOLYLINE
  8
0
 62
7
 90
5
 70
1
 10
24.548897
 20
45.993328
 10
23.800459
 20
45.993328
 10
23.800459
 20
45.646453
 10
25.297334
 20
45.646453
 10
25.297334
 20
45.993328
  0
LWPOLYLINE
  8
0
 62
7
 90
5
 70
1
 10
24.548897
 20
45.493328
 10
23.800459
 20
45.493328
 10
23.800459
 20
45.146453
 10
25.297334
 20
45.146453
 10
25.297334
 20
45.493328
  0
LWPOLYLINE
  8
0
 62
7
 90
5
 70
1
 10
24.548897
 20
44.993328
 10
23.800459
 20
44.993328
 10
23.800459
 20
44.646453
 10
25.297334
 20
44.646453
 10
25.297334
 20
44.993328
  0
LWPOLYLINE
  8
0
 62
7
 90
5
 70
1
 10
24.548897
 20
44.493328
 10
23.800459
 20
44.493328
 10
23.800459
 20
44.146453
 10
25.297334
 20
44.146453
 10
25.297334
 20
44.493328
  0
LWPOLYLINE
  8
0
 62
7
 90
5
 70
1
 10
24.548897
 20
43.993328
 10
23.800459
 20
43.993328
 10
23.800459
 20
43.646453
 10
25.297334
 20
43.646453
 10
25.297334
 20
43.993328
  0
LWPOLYLINE
  8
0
 62
7
 90
5
 70
1
 10
24.548897
 20
43.493328
 10
23.800459
 20
43.493328
 10
23.800459
 20
43.146453
 10
25.297334
 20
43.146453
 10
25.297334
 20
43.493328
  0
LWPOLYLINE
  8
0
 62
7
 90
5
 70
1
 10
24.548897
 20
42.993328
 10
23.800459
 20
42.993328
 10
23.800459
 20
42.646453
 10
25.297334
 20
42.646453
 10
25.297334
 20
42.993328
  0
LWPOLYLINE
  8
0
 62
7
 90
5
 70
1
 10
24.548897
 20
42.493328
 10
23.800459
 20
42.493328
 10
23.800459
 20
42.146453
 10
25.297334
 20
42.146453
 10
25.297334
 20
42.493328
  0
LWPOLYLINE
  8
0
 62
7
 90
5
 70
1
 10
24.548897
 20
41.993328
 10
23.800459
 20
41.993328
 10
23.800459
 20
41.646453
 10
25.297334
 20
41.646453
 10
25.297334
 20
41.993328
  0
LWPOLYLINE
  8
0
 62
7
 90
5
 70
1
 10
24.548897
 20
41.493328
 10
23.800459
 20
41.493328
 10
23.800459
 20
41.146453
 10
25.297334
 20
41.146453
 10
25.297334
 20
41.493328
  0
LWPOLYLINE
  8
0
 62
7
 90
5
 70
1
 10
24.548897
 20
40.993328
 10
23.800459
 20
40.993328
 10
23.800459
 20
40.646453
 10
25.297334
 20
40.646453
 10
25.297334
 20
40.993328
  0
LWPOLYLINE
  8
0
 62
7
 90
5
 70
1
 10
24.548897
 20
40.493328
 10
23.800459
 20
40.493328
 10
23.800459
 20
40.146453
 10
25.297334
 20
40.146453
 10
25.297334
 20
40.493328
  0
LWPOLYLINE
  8
0
 62
7
 90
5
 70
1
 10
24.548897
 20
39.993328
 10
23.800459
 20
39.993328
 10
23.800459
 20
39.646453
 10
25.297334
 20
39.646453
 10
25.297334
 20
39.993328
  0
LWPOLYLINE
  8
0
 62
7
 90
5
 70
1
 10
24.548897
 20
39.493328
 10
23.800459
 20
39.493328
 10
23.800459
 20
39.146453
 10
25.297334
 20
39.146453
 10
25.297334
 20
39.493328
  0
LWPOLYLINE
  8
0
 62
7
 90
5
 70
1
 10
65.206859
 20
10.538891
 10
65.206859
 20
8.240453
 10
66.203734
 20
8.240453
 10
66.203734
 20
12.837328
 10
65.206859
 20
12.837328
  0
LWPOLYLINE
  8
0
 62
7
 90
5
 70
1
 10
63.206859
 20
10.538891
 10
63.206859
 20
8.240453
 10
64.203734
 20
8.240453
 10
64.203734
 20
12.837328
 10
63.206859
 20
12.837328
  0
LWPOLYLINE
  8
0
 62
7
 90
5
 70
1
 10
68.105297
 20
3.640453
 10
68.903734
 20
3.640453
 10
68.903734
 20
7.037328
 10
67.306859
 20
7.037328
 10
67.306859
 20
3.640453
  0
LWPOLYLINE
  8
0
 62
7
 90
5
 70
1
 10
61.305297
 20
3.640453
 10
62.103734
 20
3.640453
 10
62.103734
 20
7.037328
 10
60.506859
 20
7.037328
 10
60.506859
 20
3.640453
  0
LWPOLYLINE
  8
0
 62
7
 90
5
 70
1
 10
81.062897
 20
75.575253
 10
81.561334
 20
75.575253
 10
81.561334
 20
78.572128
 10
80.564459
 20
78.572128
 10
80.564459
 20
75.575253
  0
LWPOLYLINE
  8
0
 62
7
 90
5
 70
1
 10
78.522897
 20
75.575253
 10
79.021334
 20
75.575253
 10
79.021334
 20
78.572128
 10
78.024459
 20
78.572128
 10
78.024459
 20
75.575253
  0
LWPOLYLINE
  8
0
 62
7
 90
5
 70
1
 10
75.982897
 20
75.575253
 10
76.481334
 20
75.575253
 10
76.481334
 20
78.572128
 10
75.484459
 20
78.572128
 10
75.484459
 20
75.575253
  0
LWPOLYLINE
  8
0
 62
7
 90
5
 70
1
 10
73.442897
 20
75.575253
 10
73.941334
 20
75.575253
 10
73.941334
 20
78.572128
 10
72.944459
 20
78.572128
 10
72.944459
 20
75.575253
  0
LWPOLYLINE
  8
0
 62
7
 90
5
 70
1
 10
70.344097
 20
75.575253
 10
70.842534
 20
75.575253
 10
70.842534
 20
78.572128
 10
69.845659
 20
78.572128
 10
69.845659
 20
75.575253
  0
LWPOLYLINE
  8
0
 62
7
 90
5
 70
1
 10
67.804097
 20
75.575253
 10
68.302534
 20
75.575253
 10
68.302534
 20
78.572128
 10
67.305659
 20
78.572128
 10
67.305659
 20
75.575253
  0
LWPOLYLINE
  8
0
 62
7
 90
5
 70
1
 10
65.264097
 20
75.575253
 10
65.762534
 20
75.575253
 10
65.762534
 20
78.572128
 10
64.765659
 20
78.572128
 10
64.765659
 20
75.575253
  0
LWPOLYLINE
  8
0
 62
7
 90
5
 70
1
 10
62.724097
 20
75.575253
 10
63.222534
 20
75.575253
 10
63.222534
 20
78.572128
 10
62.225659
 20
78.572128
 10
62.225659
 20
75.575253
  0
LWPOLYLINE
  8
0
 62
7
 90
5
 70
1
 10
62.216097
 20
22.821928
 10
61.717659
 20
22.821928
 10
61.717659
 20
21.825053
 10
62.714534
 20
21.825053
 10
62.714534
 20
22.821928
  0
LWPOLYLINE
  8
0
 62
7
 90
5
 70
1
 10
62.216097
 20
24.821928
 10
61.717659
 20
24.821928
 10
61.717659
 20
23.825053
 10
62.714534
 20
23.825053
 10
62.714534
 20
24.821928
  0
LWPOLYLINE
  8
0
 62
7
 90
5
 70
1
 10
37.055859
 20
7.863491
 10
37.055859
 20
7.265053
 10
38.252734
 20
7.265053
 10
38.252734
 20
8.461928
 10
37.055859
 20
8.461928
  0
LWPOLYLINE
  8
0
 62
7
 90
5
 70
1
 10
37.055859
 20
5.763491
 10
37.055859
 20
5.165053
 10
38.252734
 20
5.165053
 10
38.252734
 20
6.361928
 10
37.055859
 20
6.361928
  0
LWPOLYLINE
  8
0
 62
7
 90
5
 70
1
 10
25.758497
 20
33.748653
 10
26.356934
 20
33.748653
 10
26.356934
 20
34.945528
 10
25.160059
 20
34.945528
 10
25.160059
 20
33.748653
  0
LWPOLYLINE
  8
0
 62
7
 90
5
 70
1
 10
27.858497
 20
33.748653
 10
28.456934
 20
33.748653
 10
28.456934
 20
34.945528
 10
27.260059
 20
34.945528
 10
27.260059
 20
33.748653
  0
LWPOLYLINE
  8
0
 62
7
 90
5
 70
1
 10
25.707697
 20
31.869053
 10
26.306134
 20
31.869053
 10
26.306134
 20
33.065928
 10
25.109259
 20
33.065928
 10
25.109259
 20
31.869053
  0
LWPOLYLINE
  8
0
 62
7
 90
5
 70
1
 10
27.807697
 20
31.869053
 10
28.406134
 20
31.869053
 10
28.406134
 20
33.065928
 10
27.209259
 20
33.065928
 10
27.209259
 20
31.869053
  0
LWPOLYLINE
  8
0
 62
7
 90
5
 70
1
 10
49.984459
 20
72.023891
 10
49.984459
 20
71.425453
 10
51.181334
 20
71.425453
 10
51.181334
 20
72.622328
 10
49.984459
 20
72.622328
  0
LWPOLYLINE
  8
0
 62
7
 90
5
 70
1
 10
49.984459
 20
69.923891
 10
49.984459
 20
69.325453
 10
51.181334
 20
69.325453
 10
51.181334
 20
70.522328
 10
49.984459
 20
70.522328
  0
LWPOLYLINE
  8
0
 62
7
 90
5
 70
1
 10
52.524459
 20
72.023891
 10
52.524459
 20
71.425453
 10
53.721334
 20
71.425453
 10
53.721334
 20
72.622328
 10
52.524459
 20
72.622328
  0
LWPOLYLINE
  8
0
 62
7
 90
5
 70
1
 10
52.524459
 20
69.923891
 10
52.524459
 20
69.325453
 10
53.721334
 20
69.325453
 10
53.721334
 20
70.522328
 10
52.524459
 20
70.522328
  0
LWPOLYLINE
  8
0
 62
7
 90
5
 70
1
 10
43.454459
 20
41.787891
 10
43.454459
 20
41.289453
 10
47.551334
 20
41.289453
 10
47.551334
 20
42.286328
 10
43.454459
 20
42.286328
  0
LWPOLYLINE
  8
0
 62
7
 90
5
 70
1
 10
43.454459
 20
43.287891
 10
43.454459
 20
42.789453
 10
47.551334
 20
42.789453
 10
47.551334
 20
43.786328
 10
43.454459
 20
43.786328
  0
LWPOLYLINE
  8
0
 62
7
 90
5
 70
1
 10
43.454459
 20
44.787891
 10
43.454459
 20
44.289453
 10
47.551334
 20
44.289453
 10
47.551334
 20
45.286328
 10
43.454459
 20
45.286328
  0
LWPOLYLINE
  8
0
 62
7
 90
5
 70
1
 10
137.474897
 20
24.932053
 10
138.973334
 20
24.932053
 10
138.973334
 20
26.528928
 10
135.976459
 20
26.528928
 10
135.976459
 20
24.932053
  0
LWPOLYLINE
  8
0
 62
7
 90
5
 70
1
 10
137.474897
 20
20.372053
 10
138.973334
 20
20.372053
 10
138.973334
 20
21.968928
 10
135.976459
 20
21.968928
 10
135.976459
 20
20.372053
  0
LWPOLYLINE
  8
0
 62
7
 90
5
 70
1
 10
144.372897
 20
21.039053
 10
147.228834
 20
21.039053
 10
147.228834
 20
25.861928
 10
141.516959
 20
25.861928
 10
141.516959
 20
21.039053
  0
LWPOLYLINE
  8
0
 62
7
 90
5
 70
1
 10
137.551097
 20
16.626253
 10
139.049534
 20
16.626253
 10
139.049534
 20
18.223128
 10
136.052659
 20
18.223128
 10
136.052659
 20
16.626253
  0
LWPOLYLINE
  8
0
 62
7
 90
5
 70
1
 10
137.551097
 20
12.066253
 10
139.049534
 20
12.066253
 10
139.049534
 20
13.663128
 10
136.052659
 20
13.663128
 10
136.052659
 20
12.066253
  0
LWPOLYLINE
  8
0
 62
7
 90
5
 70
1
 10
144.449097
 20
12.733253
 10
147.305034
 20
12.733253
 10
147.305034
 20
17.556128
 10
141.593159
 20
17.556128
 10
141.593159
 20
12.733253
  0
LWPOLYLINE
  8
0
 62
7
 90
5
 70
1
 10
139.735497
 20
46.623653
 10
141.233934
 20
46.623653
 10
141.233934
 20
48.220528
 10
138.237059
 20
48.220528
 10
138.237059
 20
46.623653
  0
LWPOLYLINE
  8
0
 62
7
 90
5
 70
1
 10
139.735497
 20
42.063653
 10
141.233934
 20
42.063653
 10
141.233934
 20
43.660528
 10
138.237059
 20
43.660528
 10
138.237059
 20
42.063653
  0
LWPOLYLINE
  8
0
 62
7
 90
5
 70
1
 10
146.633497
 20
42.730653
 10
149.489434
 20
42.730653
 10
149.489434
 20
47.553528
 10
143.777559
 20
47.553528
 10
143.777559
 20
42.730653
  0
LWPOLYLINE
  8
0
 62
7
 90
5
 70
1
 10
139.710097
 20
39.333853
 10
141.208534
 20
39.333853
 10
141.208534
 20
40.930728
 10
138.211659
 20
40.930728
 10
138.211659
 20
39.333853
  0
LWPOLYLINE
  8
0
 62
7
 90
5
 70
1
 10
139.710097
 20
34.773853
 10
141.208534
 20
34.773853
 10
141.208534
 20
36.370728
 10
138.211659
 20
36.370728
 10
138.211659
 20
34.773853
  0
LWPOLYLINE
  8
0
 62
7
 90
5
 70
1
 10
146.608097
 20
35.440853
 10
149.464034
 20
35.440853
 10
149.464034
 20
40.263728
 10
143.752159
 20
40.263728
 10
143.752159
 20
35.440853
  0
LWPOLYLINE
  8
0
 62
7
 90
5
 70
1
 10
137.449497
 20
66.232453
 10
138.947934
 20
66.232453
 10
138.947934
 20
67.829328
 10
135.951059
 20
67.829328
 10
135.951059
 20
66.232453
  0
LWPOLYLINE
  8
0
 62
7
 90
5
 70
1
 10
137.449497
 20
61.672453
 10
138.947934
 20
61.672453
 10
138.947934
 20
63.269328
 10
135.951059
 20
63.269328
 10
135.951059
 20
61.672453
  0
LWPOLYLINE
  8
0
 62
7
 90
5
 70
1
 10
144.347497
 20
62.339453
 10
147.203434
 20
62.339453
 10
147.203434
 20
67.162328
 10
141.491559
 20
67.162328
 10
141.491559
 20
62.339453
  0
LWPOLYLINE
  8
0
 62
7
 90
5
 70
1
 10
137.576497
 20
58.841053
 10
139.074934
 20
58.841053
 10
139.074934
 20
60.437928
 10
136.078059
 20
60.437928
 10
136.078059
 20
58.841053
  0
LWPOLYLINE
  8
0
 62
7
 90
5
 70
1
 10
137.576497
 20
54.281053
 10
139.074934
 20
54.281053
 10
139.074934
 20
55.877928
 10
136.078059
 20
55.877928
 10
136.078059
 20
54.281053
  0
LWPOLYLINE
  8
0
 62
7
 90
5
 70
1
 10
144.474497
 20
54.948053
 10
147.330434
 20
54.948053
 10
147.330434
 20
59.770928
 10
141.618559
 20
59.770928
 10
141.618559
 20
54.948053
  0
LWPOLYLINE
  8
0
 62
7
 90
5
 70
1
 10
99.639697
 20
59.982928
 10
99.191259
 20
59.982928
 10
99.191259
 20
59.186053
 10
100.088134
 20
59.186053
 10
100.088134
 20
59.982928
  0
LWPOLYLINE
  8
0
 62
7
 90
5
 70
1
 10
99.639697
 20
61.882928
 10
99.191259
 20
61.882928
 10
99.191259
 20
61.086053
 10
100.088134
 20
61.086053
 10
100.088134
 20
61.882928
  0
LWPOLYLINE
  8
0
 62
7
 90
5
 70
1
 10
97.539697
 20
60.932928
 10
97.091259
 20
60.932928
 10
97.091259
 20
60.136053
 10
97.988134
 20
60.136053
 10
97.988134
 20
60.932928
  0
LWPOLYLINE
  8
0
 62
7
 90
5
 70
1
 10
99.665097
 20
56.401528
 10
99.216659
 20
56.401528
 10
99.216659
 20
55.604653
 10
100.113534
 20
55.604653
 10
100.113534
 20
56.401528
  0
LWPOLYLINE
  8
0
 62
7
 90
5
 70
1
 10
99.665097
 20
58.301528
 10
99.216659
 20
58.301528
 10
99.216659
 20
57.504653
 10
100.113534
 20
57.504653
 10
100.113534
 20
58.301528
  0
LWPOLYLINE
  8
0
 62
7
 90
5
 70
1
 10
97.565097
 20
57.351528
 10
97.116659
 20
57.351528
 10
97.116659
 20
56.554653
 10
98.013534
 20
56.554653
 10
98.013534
 20
57.351528
  0
LWPOLYLINE
  8
0
 62
7
 90
5
 70
1
 10
66.559497
 20
41.279728
 10
65.456159
 20
41.279728
 10
65.456159
 20
40.673253
 10
67.662834
 20
40.673253
 10
67.662834
 20
41.279728
  0
LWPOLYLINE
  8
0
 62
7
 90
5
 70
1
 10
66.559497
 20
42.549728
 10
65.456159
 20
42.549728
 10
65.456159
 20
41.943253
 10
67.662834
 20
41.943253
 10
67.662834
 20
42.549728
  0
LWPOLYLINE
  8
0
 62
7
 90
5
 70
1
 10
66.559497
 20
43.819728
 10
65.456159
 20
43.819728
 10
65.456159
 20
43.213253
 10
67.662834
 20
43.213253
 10
67.662834
 20
43.819728
  0
LWPOLYLINE
  8
0
 62
7
 90
5
 70
1
 10
66.559497
 20
45.089728
 10
65.456159
 20
45.089728
 10
65.456159
 20
44.483253
 10
67.662834
 20
44.483253
 10
67.662834
 20
45.089728
  0
LWPOLYLINE
  8
0
 62
7
 90
5
 70
1
 10
61.327097
 20
45.089728
 10
60.223759
 20
45.089728
 10
60.223759
 20
44.483253
 10
62.430434
 20
44.483253
 10
62.430434
 20
45.089728
  0
LWPOLYLINE
  8
0
 62
7
 90
5
 70
1
 10
61.327097
 20
43.819728
 10
60.223759
 20
43.819728
 10
60.223759
 20
43.213253
 10
62.430434
 20
43.213253
 10
62.430434
 20
43.819728
  0
LWPOLYLINE
  8
0
 62
7
 90
5
 70
1
 10
61.327097
 20
42.549728
 10
60.223759
 20
42.549728
 10
60.223759
 20
41.943253
 10
62.430434
 20
41.943253
 10
62.430434
 20
42.549728
  0
LWPOLYLINE
  8
0
 62
7
 90
5
 70
1
 10
61.327097
 20
41.279728
 10
60.223759
 20
41.279728
 10
60.223759
 20
40.673253
 10
62.430434
 20
40.673253
 10
62.430434
 20
41.279728
  0
LWPOLYLINE
  8
0
 62
7
 90
5
 70
1
 10
66.122059
 20
46.894691
 10
66.122059
 20
46.196253
 10
67.218934
 20
46.196253
 10
67.218934
 20
47.593128
 10
66.122059
 20
47.593128
  0
LWPOLYLINE
  8
0
 62
7
 90
5
 70
1
 10
64.122059
 20
46.894691
 10
64.122059
 20
46.196253
 10
65.218934
 20
46.196253
 10
65.218934
 20
47.593128
 10
64.122059
 20
47.593128
  0
LWPOLYLINE
  8
0
 62
7
 90
5
 70
1
 10
126.788534
 20
34.194691
 10
126.788534
 20
34.893128
 10
125.691659
 20
34.893128
 10
125.691659
 20
33.496253
 10
126.788534
 20
33.496253
  0
LWPOLYLINE
  8
0
 62
7
 90
5
 70
1
 10
128.788534
 20
34.194691
 10
128.788534
 20
34.893128
 10
127.691659
 20
34.893128
 10
127.691659
 20
33.496253
 10
128.788534
 20
33.496253
  0
LWPOLYLINE
  8
0
 62
7
 90
5
 70
1
 10
82.790097
 20
28.347053
 10
83.488534
 20
28.347053
 10
83.488534
 20
29.443928
 10
82.091659
 20
29.443928
 10
82.091659
 20
28.347053
  0
LWPOLYLINE
  8
0
 62
7
 90
5
 70
1
 10
82.790097
 20
26.347053
 10
83.488534
 20
26.347053
 10
83.488534
 20
27.443928
 10
82.091659
 20
27.443928
 10
82.091659
 20
26.347053
  0
LWPOLYLINE
  8
0
 62
7
 90
5
 70
1
 10
80.656497
 20
28.347053
 10
81.354934
 20
28.347053
 10
81.354934
 20
29.443928
 10
79.958059
 20
29.443928
 10
79.958059
 20
28.347053
  0
LWPOLYLINE
  8
0
 62
7
 90
5
 70
1
 10
80.656497
 20
26.347053
 10
81.354934
 20
26.347053
 10
81.354934
 20
27.443928
 10
79.958059
 20
27.443928
 10
79.958059
 20
26.347053
  0
LWPOLYLINE
  8
0
 62
7
 90
5
 70
1
 10
113.981297
 20
81.661653
 10
114.679734
 20
81.661653
 10
114.679734
 20
82.758528
 10
113.282859
 20
82.758528
 10
113.282859
 20
81.661653
  0
LWPOLYLINE
  8
0
 62
7
 90
5
 70
1
 10
113.981297
 20
79.661653
 10
114.679734
 20
79.661653
 10
114.679734
 20
80.758528
 10
113.282859
 20
80.758528
 10
113.282859
 20
79.661653
  0
LWPOLYLINE
  8
0
 62
7
 90
5
 70
1
 10
100.544697
 20
80.264653
 10
101.243134
 20
80.264653
 10
101.243134
 20
81.361528
 10
99.846259
 20
81.361528
 10
99.846259
 20
80.264653
  0
LWPOLYLINE
  8
0
 62
7
 90
5
 70
1
 10
100.544697
 20
78.264653
 10
101.243134
 20
78.264653
 10
101.243134
 20
79.361528
 10
99.846259
 20
79.361528
 10
99.846259
 20
78.264653
  0
LWPOLYLINE
  8
0
 62
7
 90
5
 70
1
 10
112.311334
 20
21.443891
 10
112.311334
 20
22.042328
 10
111.514459
 20
22.042328
 10
111.514459
 20
20.845453
 10
112.311334
 20
20.845453
  0
LWPOLYLINE
  8
0
 62
7
 90
5
 70
1
 10
114.111334
 20
21.443891
 10
114.111334
 20
22.042328
 10
113.314459
 20
22.042328
 10
113.314459
 20
20.845453
 10
114.111334
 20
20.845453
  0
LWPOLYLINE
  8
0
 62
7
 90
5
 70
1
 10
125.265334
 20
21.443891
 10
125.265334
 20
22.042328
 10
124.468459
 20
22.042328
 10
124.468459
 20
20.845453
 10
125.265334
 20
20.845453
  0
LWPOLYLINE
  8
0
 62
7
 90
5
 70
1
 10
127.065334
 20
21.443891
 10
127.065334
 20
22.042328
 10
126.268459
 20
22.042328
 10
126.268459
 20
20.845453
 10
127.065334
 20
20.845453
  0
LWPOLYLINE
  8
0
 62
7
 90
5
 70
1
 10
99.357334
 20
21.697891
 10
99.357334
 20
22.296328
 10
98.560459
 20
22.296328
 10
98.560459
 20
21.099453
 10
99.357334
 20
21.099453
  0
LWPOLYLINE
  8
0
 62
7
 90
5
 70
1
 10
101.157334
 20
21.697891
 10
101.157334
 20
22.296328
 10
100.360459
 20
22.296328
 10
100.360459
 20
21.099453
 10
101.157334
 20
21.099453
  0
LWPOLYLINE
  8
0
 62
7
 90
5
 70
1
 10
35.571497
 20
6.815128
 10
34.823059
 20
6.815128
 10
34.823059
 20
5.518253
 10
36.319934
 20
5.518253
 10
36.319934
 20
6.815128
  0
LWPOLYLINE
  8
0
 62
7
 90
5
 70
1
 10
35.571497
 20
8.515128
 10
34.823059
 20
8.515128
 10
34.823059
 20
7.218253
 10
36.319934
 20
7.218253
 10
36.319934
 20
8.515128
  0
LWPOLYLINE
  8
0
 62
7
 90
5
 70
1
 10
88.130534
 20
21.469291
 10
88.130534
 20
22.067728
 10
87.333659
 20
22.067728
 10
87.333659
 20
20.870853
 10
88.130534
 20
20.870853
  0
LWPOLYLINE
  8
0
 62
7
 90
5
 70
1
 10
89.930534
 20
21.469291
 10
89.930534
 20
22.067728
 10
89.133659
 20
22.067728
 10
89.133659
 20
20.870853
 10
89.930534
 20
20.870853
  0
LWPOLYLINE
  8
0
 62
7
 90
5
 70
1
 10
75.195497
 20
58.076328
 10
74.497059
 20
58.076328
 10
74.497059
 20
56.979453
 10
75.893934
 20
56.979453
 10
75.893934
 20
58.076328
  0
LWPOLYLINE
  8
0
 62
7
 90
5
 70
1
 10
75.195497
 20
60.076328
 10
74.497059
 20
60.076328
 10
74.497059
 20
58.979453
 10
75.893934
 20
58.979453
 10
75.893934
 20
60.076328
  0
LWPOLYLINE
  8
0
 62
7
 90
5
 70
1
 10
45.711734
 20
39.122291
 10
45.711734
 20
39.820728
 10
44.614859
 20
39.820728
 10
44.614859
 20
38.423853
 10
45.711734
 20
38.423853
  0
LWPOLYLINE
  8
0
 62
7
 90
5
 70
1
 10
47.711734
 20
39.122291
 10
47.711734
 20
39.820728
 10
46.614859
 20
39.820728
 10
46.614859
 20
38.423853
 10
47.711734
 20
38.423853
  0
LWPOLYLINE
  8
0
 62
7
 90
5
 70
1
 10
48.048534
 20
31.603891
 10
48.048534
 20
32.302328
 10
46.951659
 20
32.302328
 10
46.951659
 20
30.905453
 10
48.048534
 20
30.905453
  0
LWPOLYLINE
  8
0
 62
7
 90
5
 70
1
 10
50.048534
 20
31.603891
 10
50.048534
 20
32.302328
 10
48.951659
 20
32.302328
 10
48.951659
 20
30.905453
 10
50.048534
 20
30.905453
  0
LWPOLYLINE
  8
0
 62
7
 90
5
 70
1
 10
42.808859
 20
7.600891
 10
42.808859
 20
6.852453
 10
44.105734
 20
6.852453
 10
44.105734
 20
8.349328
 10
42.808859
 20
8.349328
  0
LWPOLYLINE
  8
0
 62
7
 90
5
 70
1
 10
41.108859
 20
7.600891
 10
41.108859
 20
6.852453
 10
42.405734
 20
6.852453
 10
42.405734
 20
8.349328
 10
41.108859
 20
8.349328
  0
LWPOLYLINE
  8
0
 62
7
 90
5
 70
1
 10
50.582897
 20
76.110328
 10
49.884459
 20
76.110328
 10
49.884459
 20
75.013453
 10
51.281334
 20
75.013453
 10
51.281334
 20
76.110328
  0
LWPOLYLINE
  8
0
 62
7
 90
5
 70
1
 10
50.582897
 20
78.110328
 10
49.884459
 20
78.110328
 10
49.884459
 20
77.013453
 10
51.281334
 20
77.013453
 10
51.281334
 20
78.110328
  0
LWPOLYLINE
  8
0
 62
7
 90
5
 70
1
 10
53.122897
 20
76.110328
 10
52.424459
 20
76.110328
 10
52.424459
 20
75.013453
 10
53.821334
 20
75.013453
 10
53.821334
 20
76.110328
  0
LWPOLYLINE
  8
0
 62
7
 90
5
 70
1
 10
53.122897
 20
78.110328
 10
52.424459
 20
78.110328
 10
52.424459
 20
77.013453
 10
53.821334
 20
77.013453
 10
53.821334
 20
78.110328
  0
LWPOLYLINE
  8
0
 62
7
 90
5
 70
1
 10
85.076097
 20
46.163728
 10
84.377659
 20
46.163728
 10
84.377659
 20
45.066853
 10
85.774534
 20
45.066853
 10
85.774534
 20
46.163728
  0
LWPOLYLINE
  8
0
 62
7
 90
5
 70
1
 10
85.076097
 20
48.163728
 10
84.377659
 20
48.163728
 10
84.377659
 20
47.066853
 10
85.774534
 20
47.066853
 10
85.774534
 20
48.163728
  0
LWPOLYLINE
  8
0
 62
7
 90
5
 70
1
 10
87.260497
 20
46.163728
 10
86.562059
 20
46.163728
 10
86.562059
 20
45.066853
 10
87.958934
 20
45.066853
 10
87.958934
 20
46.163728
  0
LWPOLYLINE
  8
0
 62
7
 90
5
 70
1
 10
87.260497
 20
48.163728
 10
86.562059
 20
48.163728
 10
86.562059
 20
47.066853
 10
87.958934
 20
47.066853
 10
87.958934
 20
48.163728
  0
LWPOLYLINE
  8
0
 62
7
 90
5
 70
1
 10
67.118297
 20
24.236253
 10
67.866734
 20
24.236253
 10
67.866734
 20
25.533128
 10
66.369859
 20
25.533128
 10
66.369859
 20
24.236253
  0
LWPOLYLINE
  8
0
 62
7
 90
5
 70
1
 10
67.118297
 20
22.536253
 10
67.866734
 20
22.536253
 10
67.866734
 20
23.833128
 10
66.369859
 20
23.833128
 10
66.369859
 20
22.536253
  0
LWPOLYLINE
  8
0
 62
7
 90
5
 70
1
 10
64.654497
 20
24.210853
 10
65.402934
 20
24.210853
 10
65.402934
 20
25.507728
 10
63.906059
 20
25.507728
 10
63.906059
 20
24.210853
  0
LWPOLYLINE
  8
0
 62
7
 90
5
 70
1
 10
64.654497
 20
22.510853
 10
65.402934
 20
22.510853
 10
65.402934
 20
23.807728
 10
63.906059
 20
23.807728
 10
63.906059
 20
22.510853
  0
LWPOLYLINE
  8
0
 62
7
 90
5
 70
1
 10
82.191659
 20
24.932291
 10
82.191659
 20
24.333853
 10
83.388534
 20
24.333853
 10
83.388534
 20
25.530728
 10
82.191659
 20
25.530728
  0
LWPOLYLINE
  8
0
 62
7
 90
5
 70
1
 10
82.191659
 20
22.832291
 10
82.191659
 20
22.233853
 10
83.388534
 20
22.233853
 10
83.388534
 20
23.430728
 10
82.191659
 20
23.430728
  0
LWPOLYLINE
  8
0
 62
7
 90
5
 70
1
 10
9.296400
 20
10.898162
 10
10.056838
 20
10.898162
 10
10.056838
 20
11.657037
 10
8.535963
 20
11.657037
 10
8.535963
 20
10.898162
  0
LWPOLYLINE
  8
0
 62
7
 90
5
 70
1
 10
4.216400
 20
10.898162
 10
4.976838
 20
10.898162
 10
4.976838
 20
11.657037
 10
3.455963
 20
11.657037
 10
3.455963
 20
10.898162
  0
LWPOLYLINE
  8
0
 62
7
 90
5
 70
1
 10
9.296400
 20
14.708163
 10
10.056838
 20
14.708163
 10
10.056838
 20
15.467037
 10
8.535963
 20
15.467037
 10
8.535963
 20
14.708163
  0
LWPOLYLINE
  8
0
 62
7
 90
5
 70
1
 10
4.216400
 20
14.708163
 10
4.976838
 20
14.708163
 10
4.976838
 20
15.467037
 10
3.455963
 20
15.467037
 10
3.455963
 20
14.708163
  0
LWPOLYLINE
  8
0
 62
7
 90
5
 70
1
  0
LWPOLYLINE
  8
0
 62
7
 90
5
 70
1
 10
103.917691
 20
52.412541
 10
102.915953
 20
52.412541
 10
102.915953
 20
50.713866
 10
104.919428
 20
50.713866
 10
104.919428
 20
52.412541
  0
LWPOLYLINE
  8
0
 62
7
 90
5
 70
1
 10
52.073697
 20
33.772453
 10
53.072134
 20
33.772453
 10
53.072134
 20
34.769328
 10
51.075259
 20
34.769328
 10
51.075259
 20
33.772453
  0
LWPOLYLINE
  8
0
 62
7
 90
5
 70
1
 10
52.103697
 20
31.232453
 10
53.102134
 20
31.232453
 10
53.102134
 20
32.229328
 10
51.105259
 20
32.229328
 10
51.105259
 20
31.232453
  0
LWPOLYLINE
  8
0
 62
7
 90
5
 70
1
 10
52.133697
 20
28.692453
 10
53.132134
 20
28.692453
 10
53.132134
 20
29.689328
 10
51.135259
 20
29.689328
 10
51.135259
 20
28.692453
  0
LWPOLYLINE
  8
0
 62
7
 90
5
 70
1
 10
52.173697
 20
26.152453
 10
53.172134
 20
26.152453
 10
53.172134
 20
27.149328
 10
51.175259
 20
27.149328
 10
51.175259
 20
26.152453
  0
LWPOLYLINE
  8
0
 62
7
 90
5
 70
1
 10
61.793697
 20
26.152453
 10
62.792134
 20
26.152453
 10
62.792134
 20
27.149328
 10
60.795259
 20
27.149328
 10
60.795259
 20
26.152453
  0
LWPOLYLINE
  8
0
 62
7
 90
5
 70
1
 10
61.733697
 20
28.692453
 10
62.732134
 20
28.692453
 10
62.732134
 20
29.689328
 10
60.735259
 20
29.689328
 10
60.735259
 20
28.692453
  0
LWPOLYLINE
  8
0
 62
7
 90
5
 70
1
 10
61.763697
 20
31.232453
 10
62.762134
 20
31.232453
 10
62.762134
 20
32.229328
 10
60.765259
 20
32.229328
 10
60.765259
 20
31.232453
  0
LWPOLYLINE
  8
0
 62
7
 90
5
 70
1
 10
61.793697
 20
33.772453
 10
62.792134
 20
33.772453
 10
62.792134
 20
34.769328
 10
60.795259
 20
34.769328
 10
60.795259
 20
33.772453
  0
LWPOLYLINE
  8
0
 62
7
 90
5
 70
1
 10
80.032659
 20
24.983091
 10
80.032659
 20
24.384653
 10
81.229534
 20
24.384653
 10
81.229534
 20
25.581528
 10
80.032659
 20
25.581528
  0
LWPOLYLINE
  8
0
 62
7
 90
5
 70
1
 10
80.032659
 20
22.883091
 10
80.032659
 20
22.284653
 10
81.229534
 20
22.284653
 10
81.229534
 20
23.481528
 10
80.032659
 20
23.481528
  0
LWPOLYLINE
  8
0
 62
7
 90
5
 70
1
 10
67.092059
 20
27.514891
 10
67.092059
 20
26.916453
 10
67.988934
 20
26.916453
 10
67.988934
 20
28.113328
 10
67.092059
 20
28.113328
  0
LWPOLYLINE
  8
0
 62
7
 90
5
 70
1
 10
68.362059
 20
27.514891
 10
68.362059
 20
26.916453
 10
69.258934
 20
26.916453
 10
69.258934
 20
28.113328
 10
68.362059
 20
28.113328
  0
LWPOLYLINE
  8
0
 62
7
 90
5
 70
1
 10
68.362059
 20
33.914891
 10
68.362059
 20
33.316453
 10
69.258934
 20
33.316453
 10
69.258934
 20
34.513328
 10
68.362059
 20
34.513328
  0
LWPOLYLINE
  8
0
 62
7
 90
5
 70
1
 10
67.092059
 20
33.914891
 10
67.092059
 20
33.316453
 10
67.988934
 20
33.316453
 10
67.988934
 20
34.513328
 10
67.092059
 20
34.513328
  0
LWPOLYLINE
  8
0
 62
7
 90
5
 70
1
 10
64.018659
 20
27.540291
 10
64.018659
 20
26.941853
 10
64.915534
 20
26.941853
 10
64.915534
 20
28.138728
 10
64.018659
 20
28.138728
  0
LWPOLYLINE
  8
0
 62
7
 90
5
 70
1
 10
65.288659
 20
27.540291
 10
65.288659
 20
26.941853
 10
66.185534
 20
26.941853
 10
66.185534
 20
28.138728
 10
65.288659
 20
28.138728
  0
LWPOLYLINE
  8
0
 62
7
 90
5
 70
1
 10
65.288659
 20
33.940291
 10
65.288659
 20
33.341853
 10
66.185534
 20
33.341853
 10
66.185534
 20
34.538728
 10
65.288659
 20
34.538728
  0
LWPOLYLINE
  8
0
 62
7
 90
5
 70
1
 10
64.018659
 20
33.940291
 10
64.018659
 20
33.341853
 10
64.915534
 20
33.341853
 10
64.915534
 20
34.538728
 10
64.018659
 20
34.538728
  0
LWPOLYLINE
  8
0
 62
7
 90
5
 70
1
 10
132.062897
 20
36.216528
 10
131.569159
 20
36.216528
 10
131.569159
 20
35.914853
 10
132.556634
 20
35.914853
 10
132.556634
 20
36.216528
  0
LWPOLYLINE
  8
0
 62
7
 90
5
 70
1
 10
132.062897
 20
36.866528
 10
131.569159
 20
36.866528
 10
131.569159
 20
36.564853
 10
132.556634
 20
36.564853
 10
132.556634
 20
36.866528
  0
LWPOLYLINE
  8
0
 62
7
 90
5
 70
1
 10
132.062897
 20
37.516528
 10
131.569159
 20
37.516528
 10
131.569159
 20
37.214853
 10
132.556634
 20
37.214853
 10
132.556634
 20
37.516528
  0
LWPOLYLINE
  8
0
 62
7
 90
5
 70
1
 10
132.062897
 20
38.166528
 10
131.569159
 20
38.166528
 10
131.569159
 20
37.864853
 10
132.556634
 20
37.864853
 10
132.556634
 20
38.166528
  0
LWPOLYLINE
  8
0
 62
7
 90
5
 70
1
 10
132.062897
 20
38.816528
 10
131.569159
 20
38.816528
 10
131.569159
 20
38.514853
 10
132.556634
 20
38.514853
 10
132.556634
 20
38.816528
  0
LWPOLYLINE
  8
0
 62
7
 90
5
 70
1
 10
132.062897
 20
39.466528
 10
131.569159
 20
39.466528
 10
131.569159
 20
39.164853
 10
132.556634
 20
39.164853
 10
132.556634
 20
39.466528
  0
LWPOLYLINE
  8
0
 62
7
 90
5
 70
1
 10
132.062897
 20
40.116528
 10
131.569159
 20
40.116528
 10
131.569159
 20
39.814853
 10
132.556634
 20
39.814853
 10
132.556634
 20
40.116528
  0
LWPOLYLINE
  8
0
 62
7
 90
5
 70
1
 10
132.062897
 20
40.766528
 10
131.569159
 20
40.766528
 10
131.569159
 20
40.464853
 10
132.556634
 20
40.464853
 10
132.556634
 20
40.766528
  0
LWPOLYLINE
  8
0
 62
7
 90
5
 70
1
 10
132.062897
 20
41.416528
 10
131.569159
 20
41.416528
 10
131.569159
 20
41.114853
 10
132.556634
 20
41.114853
 10
132.556634
 20
41.416528
  0
LWPOLYLINE
  8
0
 62
7
 90
5
 70
1
 10
132.062897
 20
42.066528
 10
131.569159
 20
42.066528
 10
131.569159
 20
41.764853
 10
132.556634
 20
41.764853
 10
132.556634
 20
42.066528
  0
LWPOLYLINE
  8
0
 62
7
 90
5
 70
1
 10
132.062897
 20
42.716528
 10
131.569159
 20
42.716528
 10
131.569159
 20
42.414853
 10
132.556634
 20
42.414853
 10
132.556634
 20
42.716528
  0
LWPOLYLINE
  8
0
 62
7
 90
5
 70
1
 10
132.062897
 20
43.366528
 10
131.569159
 20
43.366528
 10
131.569159
 20
43.064853
 10
132.556634
 20
43.064853
 10
132.556634
 20
43.366528
  0
LWPOLYLINE
  8
0
 62
7
 90
5
 70
1
 10
132.062897
 20
44.016528
 10
131.569159
 20
44.016528
 10
131.569159
 20
43.714853
 10
132.556634
 20
43.714853
 10
132.556634
 20
44.016528
  0
LWPOLYLINE
  8
0
 62
7
 90
5
 70
1
 10
132.062897
 20
44.666528
 10
131.569159
 20
44.666528
 10
131.569159
 20
44.364853
 10
132.556634
 20
44.364853
 10
132.556634
 20
44.666528
  0
LWPOLYLINE
  8
0
 62
7
 90
5
 70
1
 10
126.227297
 20
44.666528
 10
125.733559
 20
44.666528
 10
125.733559
 20
44.364853
 10
126.721034
 20
44.364853
 10
126.721034
 20
44.666528
  0
LWPOLYLINE
  8
0
 62
7
 90
5
 70
1
 10
126.227297
 20
44.016528
 10
125.733559
 20
44.016528
 10
125.733559
 20
43.714853
 10
126.721034
 20
43.714853
 10
126.721034
 20
44.016528
  0
LWPOLYLINE
  8
0
 62
7
 90
5
 70
1
 10
126.227297
 20
43.366528
 10
125.733559
 20
43.366528
 10
125.733559
 20
43.064853
 10
126.721034
 20
43.064853
 10
126.721034
 20
43.366528
  0
LWPOLYLINE
  8
0
 62
7
 90
5
 70
1
 10
126.227297
 20
42.716528
 10
125.733559
 20
42.716528
 10
125.733559
 20
42.414853
 10
126.721034
 20
42.414853
 10
126.721034
 20
42.716528
  0
LWPOLYLINE
  8
0
 62
7
 90
5
 70
1
 10
126.227297
 20
42.066528
 10
125.733559
 20
42.066528
 10
125.733559
 20
41.764853
 10
126.721034
 20
41.764853
 10
126.721034
 20
42.066528
  0
LWPOLYLINE
  8
0
 62
7
 90
5
 70
1
 10
126.227297
 20
41.416528
 10
125.733559
 20
41.416528
 10
125.733559
 20
41.114853
 10
126.721034
 20
41.114853
 10
126.721034
 20
41.416528
  0
LWPOLYLINE
  8
0
 62
7
 90
5
 70
1
 10
126.227297
 20
40.766528
 10
125.733559
 20
40.766528
 10
125.733559
 20
40.464853
 10
126.721034
 20
40.464853
 10
126.721034
 20
40.766528
  0
LWPOLYLINE
  8
0
 62
7
 90
5
 70
1
 10
126.227297
 20
40.116528
 10
125.733559
 20
40.116528
 10
125.733559
 20
39.814853
 10
126.721034
 20
39.814853
 10
126.721034
 20
40.116528
  0
LWPOLYLINE
  8
0
 62
7
 90
5
 70
1
 10
126.227297
 20
39.466528
 10
125.733559
 20
39.466528
 10
125.733559
 20
39.164853
 10
126.721034
 20
39.164853
 10
126.721034
 20
39.466528
  0
LWPOLYLINE
  8
0
 62
7
 90
5
 70
1
 10
126.227297
 20
38.816528
 10
125.733559
 20
38.816528
 10
125.733559
 20
38.514853
 10
126.721034
 20
38.514853
 10
126.721034
 20
38.816528
  0
LWPOLYLINE
  8
0
 62
7
 90
5
 70
1
 10
126.227297
 20
38.166528
 10
125.733559
 20
38.166528
 10
125.733559
 20
37.864853
 10
126.721034
 20
37.864853
 10
126.721034
 20
38.166528
  0
LWPOLYLINE
  8
0
 62
7
 90
5
 70
1
 10
126.227297
 20
37.516528
 10
125.733559
 20
37.516528
 10
125.733559
 20
37.214853
 10
126.721034
 20
37.214853
 10
126.721034
 20
37.516528
  0
LWPOLYLINE
  8
0
 62
7
 90
5
 70
1
 10
126.227297
 20
36.866528
 10
125.733559
 20
36.866528
 10
125.733559
 20
36.564853
 10
126.721034
 20
36.564853
 10
126.721034
 20
36.866528
  0
LWPOLYLINE
  8
0
 62
7
 90
5
 70
1
 10
126.227297
 20
36.216528
 10
125.733559
 20
36.216528
 10
125.733559
 20
35.914853
 10
126.721034
 20
35.914853
 10
126.721034
 20
36.216528
  0
LWPOLYLINE
  8
0
 62
7
 90
5
 70
1
 10
37.863497
 20
20.480253
 10
38.141334
 20
20.480253
 10
38.141334
 20
21.747128
 10
37.585659
 20
21.747128
 10
37.585659
 20
20.480253
  0
LWPOLYLINE
  8
0
 62
7
 90
5
 70
1
 10
37.063497
 20
20.480253
 10
37.341334
 20
20.480253
 10
37.341334
 20
21.747128
 10
36.785659
 20
21.747128
 10
36.785659
 20
20.480253
  0
LWPOLYLINE
  8
0
 62
7
 90
5
 70
1
 10
36.263497
 20
20.480253
 10
36.541334
 20
20.480253
 10
36.541334
 20
21.747128
 10
35.985659
 20
21.747128
 10
35.985659
 20
20.480253
  0
LWPOLYLINE
  8
0
 62
7
 90
5
 70
1
 10
35.463497
 20
20.480253
 10
35.741334
 20
20.480253
 10
35.741334
 20
21.747128
 10
35.185659
 20
21.747128
 10
35.185659
 20
20.480253
  0
LWPOLYLINE
  8
0
 62
7
 90
5
 70
1
 10
34.663497
 20
20.480253
 10
34.941334
 20
20.480253
 10
34.941334
 20
21.747128
 10
34.385659
 20
21.747128
 10
34.385659
 20
20.480253
  0
LWPOLYLINE
  8
0
 62
7
 90
5
 70
1
 10
33.863497
 20
20.480253
 10
34.141334
 20
20.480253
 10
34.141334
 20
21.747128
 10
33.585659
 20
21.747128
 10
33.585659
 20
20.480253
  0
LWPOLYLINE
  8
0
 62
7
 90
5
 70
1
 10
33.063497
 20
20.480253
 10
33.341334
 20
20.480253
 10
33.341334
 20
21.747128
 10
32.785659
 20
21.747128
 10
32.785659
 20
20.480253
  0
LWPOLYLINE
  8
0
 62
7
 90
5
 70
1
 10
32.263497
 20
20.480253
 10
32.541334
 20
20.480253
 10
32.541334
 20
21.747128
 10
31.985659
 20
21.747128
 10
31.985659
 20
20.480253
  0
LWPOLYLINE
  8
0
 62
7
 90
5
 70
1
 10
30.770897
 20
19.343253
 10
31.404334
 20
19.343253
 10
31.404334
 20
19.898928
 10
30.137459
 20
19.898928
 10
30.137459
 20
19.343253
  0
LWPOLYLINE
  8
0
 62
7
 90
5
 70
1
 10
30.770897
 20
18.543253
 10
31.404334
 20
18.543253
 10
31.404334
 20
19.098928
 10
30.137459
 20
19.098928
 10
30.137459
 20
18.543253
  0
LWPOLYLINE
  8
0
 62
7
 90
5
 70
1
 10
30.770897
 20
17.743253
 10
31.404334
 20
17.743253
 10
31.404334
 20
18.298928
 10
30.137459
 20
18.298928
 10
30.137459
 20
17.743253
  0
LWPOLYLINE
  8
0
 62
7
 90
5
 70
1
 10
30.770897
 20
16.943253
 10
31.404334
 20
16.943253
 10
31.404334
 20
17.498928
 10
30.137459
 20
17.498928
 10
30.137459
 20
16.943253
  0
LWPOLYLINE
  8
0
 62
7
 90
5
 70
1
 10
30.770897
 20
16.143253
 10
31.404334
 20
16.143253
 10
31.404334
 20
16.698928
 10
30.137459
 20
16.698928
 10
30.137459
 20
16.143253
  0
LWPOLYLINE
  8
0
 62
7
 90
5
 70
1
 10
30.770897
 20
15.343253
 10
31.404334
 20
15.343253
 10
31.404334
 20
15.898928
 10
30.137459
 20
15.898928
 10
30.137459
 20
15.343253
  0
LWPOLYLINE
  8
0
 62
7
 90
5
 70
1
 10
30.770897
 20
14.543253
 10
31.404334
 20
14.543253
 10
31.404334
 20
15.098928
 10
30.137459
 20
15.098928
 10
30.137459
 20
14.543253
  0
LWPOLYLINE
  8
0
 62
7
 90
5
 70
1
 10
30.770897
 20
13.743253
 10
31.404334
 20
13.743253
 10
31.404334
 20
14.298928
 10
30.137459
 20
14.298928
 10
30.137459
 20
13.743253
  0
LWPOLYLINE
  8
0
 62
7
 90
5
 70
1
 10
32.263497
 20
11.895053
 10
32.541334
 20
11.895053
 10
32.541334
 20
13.161928
 10
31.985659
 20
13.161928
 10
31.985659
 20
11.895053
  0
LWPOLYLINE
  8
0
 62
7
 90
5
 70
1
 10
33.063497
 20
11.895053
 10
33.341334
 20
11.895053
 10
33.341334
 20
13.161928
 10
32.785659
 20
13.161928
 10
32.785659
 20
11.895053
  0
LWPOLYLINE
  8
0
 62
7
 90
5
 70
1
 10
33.863497
 20
11.895053
 10
34.141334
 20
11.895053
 10
34.141334
 20
13.161928
 10
33.585659
 20
13.161928
 10
33.585659
 20
11.895053
  0
LWPOLYLINE
  8
0
 62
7
 90
5
 70
1
 10
34.663497
 20
11.895053
 10
34.941334
 20
11.895053
 10
34.941334
 20
13.161928
 10
34.385659
 20
13.161928
 10
34.385659
 20
11.895053
  0
LWPOLYLINE
  8
0
 62
7
 90
5
 70
1
 10
35.463497
 20
11.895053
 10
35.741334
 20
11.895053
 10
35.741334
 20
13.161928
 10
35.185659
 20
13.161928
 10
35.185659
 20
11.895053
  0
LWPOLYLINE
  8
0
 62
7
 90
5
 70
1
 10
36.263497
 20
11.895053
 10
36.541334
 20
11.895053
 10
36.541334
 20
13.161928
 10
35.985659
 20
13.161928
 10
35.985659
 20
11.895053
  0
LWPOLYLINE
  8
0
 62
7
 90
5
 70
1
 10
37.063497
 20
11.895053
 10
37.341334
 20
11.895053
 10
37.341334
 20
13.161928
 10
36.785659
 20
13.161928
 10
36.785659
 20
11.895053
  0
LWPOLYLINE
  8
0
 62
7
 90
5
 70
1
 10
37.863497
 20
11.895053
 10
38.141334
 20
11.895053
 10
38.141334
 20
13.161928
 10
37.585659
 20
13.161928
 10
37.585659
 20
11.895053
  0
LWPOLYLINE
  8
0
 62
7
 90
5
 70
1
 10
39.356097
 20
13.743253
 10
39.989534
 20
13.743253
 10
39.989534
 20
14.298928
 10
38.722659
 20
14.298928
 10
38.722659
 20
13.743253
  0
LWPOLYLINE
  8
0
 62
7
 90
5
 70
1
 10
39.356097
 20
14.543253
 10
39.989534
 20
14.543253
 10
39.989534
 20
15.098928
 10
38.722659
 20
15.098928
 10
38.722659
 20
14.543253
  0
LWPOLYLINE
  8
0
 62
7
 90
5
 70
1
 10
39.356097
 20
15.343253
 10
39.989534
 20
15.343253
 10
39.989534
 20
15.898928
 10
38.722659
 20
15.898928
 10
38.722659
 20
15.343253
  0
LWPOLYLINE
  8
0
 62
7
 90
5
 70
1
 10
39.356097
 20
16.143253
 10
39.989534
 20
16.143253
 10
39.989534
 20
16.698928
 10
38.722659
 20
16.698928
 10
38.722659
 20
16.143253
  0
LWPOLYLINE
  8
0
 62
7
 90
5
 70
1
 10
39.356097
 20
16.943253
 10
39.989534
 20
16.943253
 10
39.989534
 20
17.498928
 10
38.722659
 20
17.498928
 10
38.722659
 20
16.943253
  0
LWPOLYLINE
  8
0
 62
7
 90
5
 70
1
 10
39.356097
 20
17.743253
 10
39.989534
 20
17.743253
 10
39.989534
 20
18.298928
 10
38.722659
 20
18.298928
 10
38.722659
 20
17.743253
  0
LWPOLYLINE
  8
0
 62
7
 90
5
 70
1
 10
39.356097
 20
18.543253
 10
39.989534
 20
18.543253
 10
39.989534
 20
19.098928
 10
38.722659
 20
19.098928
 10
38.722659
 20
18.543253
  0
LWPOLYLINE
  8
0
 62
7
 90
5
 70
1
 10
39.356097
 20
19.343253
 10
39.989534
 20
19.343253
 10
39.989534
 20
19.898928
 10
38.722659
 20
19.898928
 10
38.722659
 20
19.343253
  0
LWPOLYLINE
  8
0
 62
7
 90
5
 70
1
 10
22.648897
 20
11.201328
 10
22.050459
 20
11.201328
 10
22.050459
 20
10.604453
 10
23.247334
 20
10.604453
 10
23.247334
 20
11.201328
  0
LWPOLYLINE
  8
0
 62
7
 90
5
 70
1
 10
22.648897
 20
12.471328
 10
22.050459
 20
12.471328
 10
22.050459
 20
11.874453
 10
23.247334
 20
11.874453
 10
23.247334
 20
12.471328
  0
LWPOLYLINE
  8
0
 62
7
 90
5
 70
1
 10
22.648897
 20
13.741328
 10
22.050459
 20
13.741328
 10
22.050459
 20
13.144453
 10
23.247334
 20
13.144453
 10
23.247334
 20
13.741328
  0
LWPOLYLINE
  8
0
 62
7
 90
5
 70
1
 10
22.648897
 20
15.011328
 10
22.050459
 20
15.011328
 10
22.050459
 20
14.414453
 10
23.247334
 20
14.414453
 10
23.247334
 20
15.011328
  0
LWPOLYLINE
  8
0
 62
7
 90
5
 70
1
 10
22.648897
 20
16.281328
 10
22.050459
 20
16.281328
 10
22.050459
 20
15.684453
 10
23.247334
 20
15.684453
 10
23.247334
 20
16.281328
  0
LWPOLYLINE
  8
0
 62
7
 90
5
 70
1
 10
22.648897
 20
17.551328
 10
22.050459
 20
17.551328
 10
22.050459
 20
16.954453
 10
23.247334
 20
16.954453
 10
23.247334
 20
17.551328
  0
LWPOLYLINE
  8
0
 62
7
 90
5
 70
1
 10
22.648897
 20
18.821328
 10
22.050459
 20
18.821328
 10
22.050459
 20
18.224453
 10
23.247334
 20
18.224453
 10
23.247334
 20
18.821328
  0
LWPOLYLINE
  8
0
 62
7
 90
5
 70
1
 10
22.648897
 20
20.091328
 10
22.050459
 20
20.091328
 10
22.050459
 20
19.494453
 10
23.247334
 20
19.494453
 10
23.247334
 20
20.091328
  0
LWPOLYLINE
  8
0
 62
7
 90
5
 70
1
 10
17.048897
 20
20.091328
 10
16.450459
 20
20.091328
 10
16.450459
 20
19.494453
 10
17.647334
 20
19.494453
 10
17.647334
 20
20.091328
  0
LWPOLYLINE
  8
0
 62
7
 90
5
 70
1
 10
17.048897
 20
18.821328
 10
16.450459
 20
18.821328
 10
16.450459
 20
18.224453
 10
17.647334
 20
18.224453
 10
17.647334
 20
18.821328
  0
LWPOLYLINE
  8
0
 62
7
 90
5
 70
1
 10
17.048897
 20
17.551328
 10
16.450459
 20
17.551328
 10
16.450459
 20
16.954453
 10
17.647334
 20
16.954453
 10
17.647334
 20
17.551328
  0
LWPOLYLINE
  8
0
 62
7
 90
5
 70
1
 10
17.048897
 20
16.281328
 10
16.450459
 20
16.281328
 10
16.450459
 20
15.684453
 10
17.647334
 20
15.684453
 10
17.647334
 20
16.281328
  0
LWPOLYLINE
  8
0
 62
7
 90
5
 70
1
 10
17.048897
 20
15.011328
 10
16.450459
 20
15.011328
 10
16.450459
 20
14.414453
 10
17.647334
 20
14.414453
 10
17.647334
 20
15.011328
  0
LWPOLYLINE
  8
0
 62
7
 90
5
 70
1
 10
17.048897
 20
13.741328
 10
16.450459
 20
13.741328
 10
16.450459
 20
13.144453
 10
17.647334
 20
13.144453
 10
17.647334
 20
13.741328
  0
LWPOLYLINE
  8
0
 62
7
 90
5
 70
1
 10
17.048897
 20
12.471328
 10
16.450459
 20
12.471328
 10
16.450459
 20
11.874453
 10
17.647334
 20
11.874453
 10
17.647334
 20
12.471328
  0
LWPOLYLINE
  8
0
 62
7
 90
5
 70
1
 10
17.048897
 20
11.201328
 10
16.450459
 20
11.201328
 10
16.450459
 20
10.604453
 10
17.647334
 20
10.604453
 10
17.647334
 20
11.201328
  0
LWPOLYLINE
  8
0
 62
7
 90
5
 70
1
 10
58.676259
 20
13.066591
 10
58.676259
 20
12.468153
 10
59.223134
 20
12.468153
 10
59.223134
 20
13.665028
 10
58.676259
 20
13.665028
  0
LWPOLYLINE
  8
0
 62
7
 90
5
 70
1
 10
57.726259
 20
13.066591
 10
57.726259
 20
12.468153
 10
58.273134
 20
12.468153
 10
58.273134
 20
13.665028
 10
57.726259
 20
13.665028
  0
LWPOLYLINE
  8
0
 62
7
 90
5
 70
1
 10
56.776259
 20
13.066591
 10
56.776259
 20
12.468153
 10
57.323134
 20
12.468153
 10
57.323134
 20
13.665028
 10
56.776259
 20
13.665028
  0
LWPOLYLINE
  8
0
 62
7
 90
5
 70
1
 10
56.776259
 20
10.466391
 10
56.776259
 20
9.867953
 10
57.323134
 20
9.867953
 10
57.323134
 20
11.064828
 10
56.776259
 20
11.064828
  0
LWPOLYLINE
  8
0
 62
7
 90
5
 70
1
 10
58.676259
 20
10.466391
 10
58.676259
 20
9.867953
 10
59.223134
 20
9.867953
 10
59.223134
 20
11.064828
 10
58.676259
 20
11.064828
  0
LWPOLYLINE
  8
0
 62
7
 90
5
 70
1
 10
74.922459
 20
72.707091
 10
74.922459
 20
72.108653
 10
75.519334
 20
72.108653
 10
75.519334
 20
73.305528
 10
74.922459
 20
73.305528
  0
LWPOLYLINE
  8
0
 62
7
 90
5
 70
1
 10
73.652459
 20
72.707091
 10
73.652459
 20
72.108653
 10
74.249334
 20
72.108653
 10
74.249334
 20
73.305528
 10
73.652459
 20
73.305528
  0
LWPOLYLINE
  8
0
 62
7
 90
5
 70
1
 10
72.382459
 20
72.707091
 10
72.382459
 20
72.108653
 10
72.979334
 20
72.108653
 10
72.979334
 20
73.305528
 10
72.382459
 20
73.305528
  0
LWPOLYLINE
  8
0
 62
7
 90
5
 70
1
 10
71.112459
 20
72.707091
 10
71.112459
 20
72.108653
 10
71.709334
 20
72.108653
 10
71.709334
 20
73.305528
 10
71.112459
 20
73.305528
  0
LWPOLYLINE
  8
0
 62
7
 90
5
 70
1
 10
69.842459
 20
72.707091
 10
69.842459
 20
72.108653
 10
70.439334
 20
72.108653
 10
70.439334
 20
73.305528
 10
69.842459
 20
73.305528
  0
LWPOLYLINE
  8
0
 62
7
 90
5
 70
1
 10
68.572459
 20
72.707091
 10
68.572459
 20
72.108653
 10
69.169334
 20
72.108653
 10
69.169334
 20
73.305528
 10
68.572459
 20
73.305528
  0
LWPOLYLINE
  8
0
 62
7
 90
5
 70
1
 10
67.302459
 20
72.707091
 10
67.302459
 20
72.108653
 10
67.899334
 20
72.108653
 10
67.899334
 20
73.305528
 10
67.302459
 20
73.305528
  0
LWPOLYLINE
  8
0
 62
7
 90
5
 70
1
 10
66.032459
 20
72.707091
 10
66.032459
 20
72.108653
 10
66.629334
 20
72.108653
 10
66.629334
 20
73.305528
 10
66.032459
 20
73.305528
  0
LWPOLYLINE
  8
0
 62
7
 90
5
 70
1
 10
66.032459
 20
67.107091
 10
66.032459
 20
66.508653
 10
66.629334
 20
66.508653
 10
66.629334
 20
67.705528
 10
66.032459
 20
67.705528
  0
LWPOLYLINE
  8
0
 62
7
 90
5
 70
1
 10
67.302459
 20
67.107091
 10
67.302459
 20
66.508653
 10
67.899334
 20
66.508653
 10
67.899334
 20
67.705528
 10
67.302459
 20
67.705528
  0
LWPOLYLINE
  8
0
 62
7
 90
5
 70
1
 10
68.572459
 20
67.107091
 10
68.572459
 20
66.508653
 10
69.169334
 20
66.508653
 10
69.169334
 20
67.705528
 10
68.572459
 20
67.705528
  0
LWPOLYLINE
  8
0
 62
7
 90
5
 70
1
 10
69.842459
 20
67.107091
 10
69.842459
 20
66.508653
 10
70.439334
 20
66.508653
 10
70.439334
 20
67.705528
 10
69.842459
 20
67.705528
  0
LWPOLYLINE
  8
0
 62
7
 90
5
 70
1
 10
71.112459
 20
67.107091
 10
71.112459
 20
66.508653
 10
71.709334
 20
66.508653
 10
71.709334
 20
67.705528
 10
71.112459
 20
67.705528
  0
LWPOLYLINE
  8
0
 62
7
 90
5
 70
1
 10
72.382459
 20
67.107091
 10
72.382459
 20
66.508653
 10
72.979334
 20
66.508653
 10
72.979334
 20
67.705528
 10
72.382459
 20
67.705528
  0
LWPOLYLINE
  8
0
 62
7
 90
5
 70
1
 10
73.652459
 20
67.107091
 10
73.652459
 20
66.508653
 10
74.249334
 20
66.508653
 10
74.249334
 20
67.705528
 10
73.652459
 20
67.705528
  0
LWPOLYLINE
  8
0
 62
7
 90
5
 70
1
 10
74.922459
 20
67.107091
 10
74.922459
 20
66.508653
 10
75.519334
 20
66.508653
 10
75.519334
 20
67.705528
 10
74.922459
 20
67.705528
  0
LWPOLYLINE
  8
0
 62
7
 90
5
 70
1
 10
127.264197
 20
73.499353
 10
127.707134
 20
73.499353
 10
127.707134
 20
73.801228
 10
126.821259
 20
73.801228
 10
126.821259
 20
73.499353
  0
LWPOLYLINE
  8
0
 62
7
 90
5
 70
1
 10
127.264197
 20
72.999353
 10
127.707134
 20
72.999353
 10
127.707134
 20
73.301228
 10
126.821259
 20
73.301228
 10
126.821259
 20
72.999353
  0
LWPOLYLINE
  8
0
 62
7
 90
5
 70
1
 10
127.264197
 20
72.499353
 10
127.707134
 20
72.499353
 10
127.707134
 20
72.801228
 10
126.821259
 20
72.801228
 10
126.821259
 20
72.499353
  0
LWPOLYLINE
  8
0
 62
7
 90
5
 70
1
 10
127.264197
 20
71.999353
 10
127.707134
 20
71.999353
 10
127.707134
 20
72.301228
 10
126.821259
 20
72.301228
 10
126.821259
 20
71.999353
  0
LWPOLYLINE
  8
0
 62
7
 90
5
 70
1
 10
127.264197
 20
71.499353
 10
127.707134
 20
71.499353
 10
127.707134
 20
71.801228
 10
126.821259
 20
71.801228
 10
126.821259
 20
71.499353
  0
LWPOLYLINE
  8
0
 62
7
 90
5
 70
1
 10
131.483197
 20
71.499353
 10
131.926134
 20
71.499353
 10
131.926134
 20
71.801228
 10
131.040259
 20
71.801228
 10
131.040259
 20
71.499353
  0
LWPOLYLINE
  8
0
 62
7
 90
5
 70
1
 10
131.483197
 20
71.999353
 10
131.926134
 20
71.999353
 10
131.926134
 20
72.301228
 10
131.040259
 20
72.301228
 10
131.040259
 20
71.999353
  0
LWPOLYLINE
  8
0
 62
7
 90
5
 70
1
 10
131.483197
 20
72.499353
 10
131.926134
 20
72.499353
 10
131.926134
 20
72.801228
 10
131.040259
 20
72.801228
 10
131.040259
 20
72.499353
  0
LWPOLYLINE
  8
0
 62
7
 90
5
 70
1
 10
131.483197
 20
72.999353
 10
131.926134
 20
72.999353
 10
131.926134
 20
73.301228
 10
131.040259
 20
73.301228
 10
131.040259
 20
72.999353
  0
LWPOLYLINE
  8
0
 62
7
 90
5
 70
1
 10
131.483197
 20
73.499353
 10
131.926134
 20
73.499353
 10
131.926134
 20
73.801228
 10
131.040259
 20
73.801228
 10
131.040259
 20
73.499353
  0
LWPOLYLINE
  8
0
 62
7
 90
5
 70
1
 10
104.245859
 20
58.870191
 10
104.245859
 20
58.744753
 10
105.258734
 20
58.744753
 10
105.258734
 20
58.995628
 10
104.245859
 20
58.995628
  0
LWPOLYLINE
  8
0
 62
7
 90
5
 70
1
 10
104.245859
 20
58.363091
 10
104.245859
 20
58.237653
 10
105.258734
 20
58.237653
 10
105.258734
 20
58.488528
 10
104.245859
 20
58.488528
  0
LWPOLYLINE
  8
0
 62
7
 90
5
 70
1
 10
104.245859
 20
57.860991
 10
104.245859
 20
57.735553
 10
105.258734
 20
57.735553
 10
105.258734
 20
57.986428
 10
104.245859
 20
57.986428
  0
LWPOLYLINE
  8
0
 62
7
 90
5
 70
1
 10
104.245859
 20
57.325991
 10
104.245859
 20
57.200553
 10
105.258734
 20
57.200553
 10
105.258734
 20
57.451428
 10
104.245859
 20
57.451428
  0
LWPOLYLINE
  8
0
 62
7
 90
5
 70
1
 10
104.245859
 20
56.821391
 10
104.245859
 20
56.695953
 10
105.258734
 20
56.695953
 10
105.258734
 20
56.946828
 10
104.245859
 20
56.946828
  0
LWPOLYLINE
  8
0
 62
7
 90
5
 70
1
 10
104.245859
 20
56.316791
 10
104.245859
 20
56.191353
 10
105.258734
 20
56.191353
 10
105.258734
 20
56.442228
 10
104.245859
 20
56.442228
  0
LWPOLYLINE
  8
0
 62
7
 90
5
 70
1
 10
105.551797
 20
55.998328
 10
105.426359
 20
55.998328
 10
105.426359
 20
54.985453
 10
105.677234
 20
54.985453
 10
105.677234
 20
55.998328
  0
LWPOLYLINE
  8
0
 62
7
 90
5
 70
1
 10
106.056397
 20
55.998328
 10
105.930959
 20
55.998328
 10
105.930959
 20
54.985453
 10
106.181834
 20
54.985453
 10
106.181834
 20
55.998328
  0
LWPOLYLINE
  8
0
 62
7
 90
5
 70
1
 10
106.560997
 20
55.998328
 10
106.435559
 20
55.998328
 10
106.435559
 20
54.985453
 10
106.686434
 20
54.985453
 10
106.686434
 20
55.998328
  0
LWPOLYLINE
  8
0
 62
7
 90
5
 70
1
 10
107.095997
 20
55.998328
 10
106.970559
 20
55.998328
 10
106.970559
 20
54.985453
 10
107.221434
 20
54.985453
 10
107.221434
 20
55.998328
  0
LWPOLYLINE
  8
0
 62
7
 90
5
 70
1
 10
107.598097
 20
55.998328
 10
107.472659
 20
55.998328
 10
107.472659
 20
54.985453
 10
107.723534
 20
54.985453
 10
107.723534
 20
55.998328
  0
LWPOLYLINE
  8
0
 62
7
 90
5
 70
1
 10
108.105197
 20
55.998328
 10
107.979759
 20
55.998328
 10
107.979759
 20
54.985453
 10
108.230634
 20
54.985453
 10
108.230634
 20
55.998328
  0
LWPOLYLINE
  8
0
 62
7
 90
5
 70
1
 10
108.398259
 20
56.316791
 10
108.398259
 20
56.191353
 10
109.411134
 20
56.191353
 10
109.411134
 20
56.442228
 10
108.398259
 20
56.442228
  0
LWPOLYLINE
  8
0
 62
7
 90
5
 70
1
 10
108.398259
 20
56.821391
 10
108.398259
 20
56.695953
 10
109.411134
 20
56.695953
 10
109.411134
 20
56.946828
 10
108.398259
 20
56.946828
  0
LWPOLYLINE
  8
0
 62
7
 90
5
 70
1
 10
108.398259
 20
57.325991
 10
108.398259
 20
57.200553
 10
109.411134
 20
57.200553
 10
109.411134
 20
57.451428
 10
108.398259
 20
57.451428
  0
LWPOLYLINE
  8
0
 62
7
 90
5
 70
1
 10
108.398259
 20
57.860991
 10
108.398259
 20
57.735553
 10
109.411134
 20
57.735553
 10
109.411134
 20
57.986428
 10
108.398259
 20
57.986428
  0
LWPOLYLINE
  8
0
 62
7
 90
5
 70
1
 10
108.398259
 20
58.363091
 10
108.398259
 20
58.237653
 10
109.411134
 20
58.237653
 10
109.411134
 20
58.488528
 10
108.398259
 20
58.488528
  0
LWPOLYLINE
  8
0
 62
7
 90
5
 70
1
 10
108.398259
 20
58.870191
 10
108.398259
 20
58.744753
 10
109.411134
 20
58.744753
 10
109.411134
 20
58.995628
 10
108.398259
 20
58.995628
  0
LWPOLYLINE
  8
0
 62
7
 90
5
 70
1
 10
108.105197
 20
60.201528
 10
107.979759
 20
60.201528
 10
107.979759
 20
59.188653
 10
108.230634
 20
59.188653
 10
108.230634
 20
60.201528
  0
LWPOLYLINE
  8
0
 62
7
 90
5
 70
1
 10
107.598097
 20
60.201528
 10
107.472659
 20
60.201528
 10
107.472659
 20
59.188653
 10
107.723534
 20
59.188653
 10
107.723534
 20
60.201528
  0
LWPOLYLINE
  8
0
 62
7
 90
5
 70
1
 10
107.095997
 20
60.201528
 10
106.970559
 20
60.201528
 10
106.970559
 20
59.188653
 10
107.221434
 20
59.188653
 10
107.221434
 20
60.201528
  0
LWPOLYLINE
  8
0
 62
7
 90
5
 70
1
 10
106.560997
 20
60.201528
 10
106.435559
 20
60.201528
 10
106.435559
 20
59.188653
 10
106.686434
 20
59.188653
 10
106.686434
 20
60.201528
  0
LWPOLYLINE
  8
0
 62
7
 90
5
 70
1
 10
106.056397
 20
60.201528
 10
105.930959
 20
60.201528
 10
105.930959
 20
59.188653
 10
106.181834
 20
59.188653
 10
106.181834
 20
60.201528
  0
LWPOLYLINE
  8
0
 62
7
 90
5
 70
1
 10
105.551797
 20
60.201528
 10
105.426359
 20
60.201528
 10
105.426359
 20
59.188653
 10
105.677234
 20
59.188653
 10
105.677234
 20
60.201528
  0
LWPOLYLINE
  8
0
 62
7
 90
5
 70
1
  0
LWPOLYLINE
  8
0
 62
7
 90
5
 70
1
 10
106.461334
 20
58.184991
 10
106.461334
 20
58.424728
 10
105.981859
 20
58.424728
 10
105.981859
 20
57.945253
 10
106.461334
 20
57.945253
  0
LWPOLYLINE
  8
0
 62
7
 90
5
 70
1
  0
LWPOLYLINE
  8
0
 62
7
 90
5
 70
1
 10
107.731334
 20
58.184991
 10
107.731334
 20
58.424728
 10
107.251859
 20
58.424728
 10
107.251859
 20
57.945253
 10
107.731334
 20
57.945253
  0
LWPOLYLINE
  8
0
 62
7
 90
5
 70
1
  0
LWPOLYLINE
  8
0
 62
7
 90
5
 70
1
 10
106.474034
 20
56.978491
 10
106.474034
 20
57.218228
 10
105.994559
 20
57.218228
 10
105.994559
 20
56.738753
 10
106.474034
 20
56.738753
  0
LWPOLYLINE
  8
0
 62
7
 90
5
 70
1
  0
LWPOLYLINE
  8
0
 62
7
 90
5
 70
1
 10
107.693234
 20
56.978491
 10
107.693234
 20
57.218228
 10
107.213759
 20
57.218228
 10
107.213759
 20
56.738753
 10
107.693234
 20
56.738753
  0
LWPOLYLINE
  8
0
 62
7
 90
5
 70
1
 10
119.948997
 20
73.550153
 10
120.391934
 20
73.550153
 10
120.391934
 20
73.852028
 10
119.506059
 20
73.852028
 10
119.506059
 20
73.550153
  0
LWPOLYLINE
  8
0
 62
7
 90
5
 70
1
 10
119.948997
 20
73.050153
 10
120.391934
 20
73.050153
 10
120.391934
 20
73.352028
 10
119.506059
 20
73.352028
 10
119.506059
 20
73.050153
  0
LWPOLYLINE
  8
0
 62
7
 90
5
 70
1
 10
119.948997
 20
72.550153
 10
120.391934
 20
72.550153
 10
120.391934
 20
72.852028
 10
119.506059
 20
72.852028
 10
119.506059
 20
72.550153
  0
LWPOLYLINE
  8
0
 62
7
 90
5
 70
1
 10
119.948997
 20
72.050153
 10
120.391934
 20
72.050153
 10
120.391934
 20
72.352028
 10
119.506059
 20
72.352028
 10
119.506059
 20
72.050153
  0
LWPOLYLINE
  8
0
 62
7
 90
5
 70
1
 10
119.948997
 20
71.550153
 10
120.391934
 20
71.550153
 10
120.391934
 20
71.852028
 10
119.506059
 20
71.852028
 10
119.506059
 20
71.550153
  0
LWPOLYLINE
  8
0
 62
7
 90
5
 70
1
 10
124.167997
 20
71.550153
 10
124.610934
 20
71.550153
 10
124.610934
 20
71.852028
 10
123.725059
 20
71.852028
 10
123.725059
 20
71.550153
  0
LWPOLYLINE
  8
0
 62
7
 90
5
 70
1
 10
124.167997
 20
72.050153
 10
124.610934
 20
72.050153
 10
124.610934
 20
72.352028
 10
123.725059
 20
72.352028
 10
123.725059
 20
72.050153
  0
LWPOLYLINE
  8
0
 62
7
 90
5
 70
1
 10
124.167997
 20
72.550153
 10
124.610934
 20
72.550153
 10
124.610934
 20
72.852028
 10
123.725059
 20
72.852028
 10
123.725059
 20
72.550153
  0
LWPOLYLINE
  8
0
 62
7
 90
5
 70
1
 10
124.167997
 20
73.050153
 10
124.610934
 20
73.050153
 10
124.610934
 20
73.352028
 10
123.725059
 20
73.352028
 10
123.725059
 20
73.050153
  0
LWPOLYLINE
  8
0
 62
7
 90
5
 70
1
 10
124.167997
 20
73.550153
 10
124.610934
 20
73.550153
 10
124.610934
 20
73.852028
 10
123.725059
 20
73.852028
 10
123.725059
 20
73.550153
  0
LWPOLYLINE
  8
0
 62
7
 90
5
 70
1
 10
64.852497
 20
57.303253
 10
65.650934
 20
57.303253
 10
65.650934
 20
57.700128
 10
64.054059
 20
57.700128
 10
64.054059
 20
57.303253
  0
LWPOLYLINE
  8
0
 62
7
 90
5
 70
1
 10
64.852497
 20
56.653253
 10
65.650934
 20
56.653253
 10
65.650934
 20
57.050128
 10
64.054059
 20
57.050128
 10
64.054059
 20
56.653253
  0
LWPOLYLINE
  8
0
 62
7
 90
5
 70
1
 10
64.852497
 20
56.003253
 10
65.650934
 20
56.003253
 10
65.650934
 20
56.400128
 10
64.054059
 20
56.400128
 10
64.054059
 20
56.003253
  0
LWPOLYLINE
  8
0
 62
7
 90
5
 70
1
 10
64.852497
 20
55.353253
 10
65.650934
 20
55.353253
 10
65.650934
 20
55.750128
 10
64.054059
 20
55.750128
 10
64.054059
 20
55.353253
  0
LWPOLYLINE
  8
0
 62
7
 90
5
 70
1
 10
64.852497
 20
54.703253
 10
65.650934
 20
54.703253
 10
65.650934
 20
55.100128
 10
64.054059
 20
55.100128
 10
64.054059
 20
54.703253
  0
LWPOLYLINE
  8
0
 62
7
 90
5
 70
1
 10
64.852497
 20
54.053253
 10
65.650934
 20
54.053253
 10
65.650934
 20
54.450128
 10
64.054059
 20
54.450128
 10
64.054059
 20
54.053253
  0
LWPOLYLINE
  8
0
 62
7
 90
5
 70
1
 10
64.852497
 20
53.403253
 10
65.650934
 20
53.403253
 10
65.650934
 20
53.800128
 10
64.054059
 20
53.800128
 10
64.054059
 20
53.403253
  0
LWPOLYLINE
  8
0
 62
7
 90
5
 70
1
 10
64.852497
 20
52.753253
 10
65.650934
 20
52.753253
 10
65.650934
 20
53.150128
 10
64.054059
 20
53.150128
 10
64.054059
 20
52.753253
  0
LWPOLYLINE
  8
0
 62
7
 90
5
 70
1
 10
70.752497
 20
52.753253
 10
71.550934
 20
52.753253
 10
71.550934
 20
53.150128
 10
69.954059
 20
53.150128
 10
69.954059
 20
52.753253
  0
LWPOLYLINE
  8
0
 62
7
 90
5
 70
1
 10
70.752497
 20
53.403253
 10
71.550934
 20
53.403253
 10
71.550934
 20
53.800128
 10
69.954059
 20
53.800128
 10
69.954059
 20
53.403253
  0
LWPOLYLINE
  8
0
 62
7
 90
5
 70
1
 10
70.752497
 20
54.053253
 10
71.550934
 20
54.053253
 10
71.550934
 20
54.450128
 10
69.954059
 20
54.450128
 10
69.954059
 20
54.053253
  0
LWPOLYLINE
  8
0
 62
7
 90
5
 70
1
 10
70.752497
 20
54.703253
 10
71.550934
 20
54.703253
 10
71.550934
 20
55.100128
 10
69.954059
 20
55.100128
 10
69.954059
 20
54.703253
  0
LWPOLYLINE
  8
0
 62
7
 90
5
 70
1
 10
70.752497
 20
55.353253
 10
71.550934
 20
55.353253
 10
71.550934
 20
55.750128
 10
69.954059
 20
55.750128
 10
69.954059
 20
55.353253
  0
LWPOLYLINE
  8
0
 62
7
 90
5
 70
1
 10
70.752497
 20
56.003253
 10
71.550934
 20
56.003253
 10
71.550934
 20
56.400128
 10
69.954059
 20
56.400128
 10
69.954059
 20
56.003253
  0
LWPOLYLINE
  8
0
 62
7
 90
5
 70
1
 10
70.752497
 20
56.653253
 10
71.550934
 20
56.653253
 10
71.550934
 20
57.050128
 10
69.954059
 20
57.050128
 10
69.954059
 20
56.653253
  0
LWPOLYLINE
  8
0
 62
7
 90
5
 70
1
 10
70.752497
 20
57.303253
 10
71.550934
 20
57.303253
 10
71.550934
 20
57.700128
 10
69.954059
 20
57.700128
 10
69.954059
 20
57.303253
  0
LWPOLYLINE
  8
0
 62
7
 90
5
 70
1
 10
41.738997
 20
28.597453
 10
42.337434
 20
28.597453
 10
42.337434
 20
29.144328
 10
41.140559
 20
29.144328
 10
41.140559
 20
28.597453
  0
LWPOLYLINE
  8
0
 62
7
 90
5
 70
1
 10
41.738997
 20
27.647453
 10
42.337434
 20
27.647453
 10
42.337434
 20
28.194328
 10
41.140559
 20
28.194328
 10
41.140559
 20
27.647453
  0
LWPOLYLINE
  8
0
 62
7
 90
5
 70
1
 10
41.738997
 20
26.697453
 10
42.337434
 20
26.697453
 10
42.337434
 20
27.244328
 10
41.140559
 20
27.244328
 10
41.140559
 20
26.697453
  0
LWPOLYLINE
  8
0
 62
7
 90
5
 70
1
 10
44.339197
 20
26.697453
 10
44.937634
 20
26.697453
 10
44.937634
 20
27.244328
 10
43.740759
 20
27.244328
 10
43.740759
 20
26.697453
  0
LWPOLYLINE
  8
0
 62
7
 90
5
 70
1
 10
44.339197
 20
28.597453
 10
44.937634
 20
28.597453
 10
44.937634
 20
29.144328
 10
43.740759
 20
29.144328
 10
43.740759
 20
28.597453
  0
LWPOLYLINE
  8
0
 62
7
 90
5
 70
1
 10
28.950859
 20
64.184891
 10
28.950859
 20
63.436453
 10
29.347734
 20
63.436453
 10
29.347734
 20
64.933328
 10
28.950859
 20
64.933328
  0
LWPOLYLINE
  8
0
 62
7
 90
5
 70
1
 10
28.300859
 20
64.184891
 10
28.300859
 20
63.436453
 10
28.697734
 20
63.436453
 10
28.697734
 20
64.933328
 10
28.300859
 20
64.933328
  0
LWPOLYLINE
  8
0
 62
7
 90
5
 70
1
 10
27.650859
 20
64.184891
 10
27.650859
 20
63.436453
 10
28.047734
 20
63.436453
 10
28.047734
 20
64.933328
 10
27.650859
 20
64.933328
  0
LWPOLYLINE
  8
0
 62
7
 90
5
 70
1
 10
27.000859
 20
64.184891
 10
27.000859
 20
63.436453
 10
27.397734
 20
63.436453
 10
27.397734
 20
64.933328
 10
27.000859
 20
64.933328
  0
LWPOLYLINE
  8
0
 62
7
 90
5
 70
1
 10
26.350859
 20
64.184891
 10
26.350859
 20
63.436453
 10
26.747734
 20
63.436453
 10
26.747734
 20
64.933328
 10
26.350859
 20
64.933328
  0
LWPOLYLINE
  8
0
 62
7
 90
5
 70
1
 10
25.700859
 20
64.184891
 10
25.700859
 20
63.436453
 10
26.097734
 20
63.436453
 10
26.097734
 20
64.933328
 10
25.700859
 20
64.933328
  0
LWPOLYLINE
  8
0
 62
7
 90
5
 70
1
 10
25.050859
 20
64.184891
 10
25.050859
 20
63.436453
 10
25.447734
 20
63.436453
 10
25.447734
 20
64.933328
 10
25.050859
 20
64.933328
  0
LWPOLYLINE
  8
0
 62
7
 90
5
 70
1
 10
24.400859
 20
64.184891
 10
24.400859
 20
63.436453
 10
24.797734
 20
63.436453
 10
24.797734
 20
64.933328
 10
24.400859
 20
64.933328
  0
LWPOLYLINE
  8
0
 62
7
 90
5
 70
1
 10
23.750859
 20
64.184891
 10
23.750859
 20
63.436453
 10
24.147734
 20
63.436453
 10
24.147734
 20
64.933328
 10
23.750859
 20
64.933328
  0
LWPOLYLINE
  8
0
 62
7
 90
5
 70
1
 10
23.100859
 20
64.184891
 10
23.100859
 20
63.436453
 10
23.497734
 20
63.436453
 10
23.497734
 20
64.933328
 10
23.100859
 20
64.933328
  0
LWPOLYLINE
  8
0
 62
7
 90
5
 70
1
 10
23.100859
 20
56.934891
 10
23.100859
 20
56.186453
 10
23.497734
 20
56.186453
 10
23.497734
 20
57.683328
 10
23.100859
 20
57.683328
  0
LWPOLYLINE
  8
0
 62
7
 90
5
 70
1
 10
23.750859
 20
56.934891
 10
23.750859
 20
56.186453
 10
24.147734
 20
56.186453
 10
24.147734
 20
57.683328
 10
23.750859
 20
57.683328
  0
LWPOLYLINE
  8
0
 62
7
 90
5
 70
1
 10
24.400859
 20
56.934891
 10
24.400859
 20
56.186453
 10
24.797734
 20
56.186453
 10
24.797734
 20
57.683328
 10
24.400859
 20
57.683328
  0
LWPOLYLINE
  8
0
 62
7
 90
5
 70
1
 10
25.050859
 20
56.934891
 10
25.050859
 20
56.186453
 10
25.447734
 20
56.186453
 10
25.447734
 20
57.683328
 10
25.050859
 20
57.683328
  0
LWPOLYLINE
  8
0
 62
7
 90
5
 70
1
 10
25.700859
 20
56.934891
 10
25.700859
 20
56.186453
 10
26.097734
 20
56.186453
 10
26.097734
 20
57.683328
 10
25.700859
 20
57.683328
  0
LWPOLYLINE
  8
0
 62
7
 90
5
 70
1
 10
26.350859
 20
56.934891
 10
26.350859
 20
56.186453
 10
26.747734
 20
56.186453
 10
26.747734
 20
57.683328
 10
26.350859
 20
57.683328
  0
LWPOLYLINE
  8
0
 62
7
 90
5
 70
1
 10
27.000859
 20
56.934891
 10
27.000859
 20
56.186453
 10
27.397734
 20
56.186453
 10
27.397734
 20
57.683328
 10
27.000859
 20
57.683328
  0
LWPOLYLINE
  8
0
 62
7
 90
5
 70
1
 10
27.650859
 20
56.934891
 10
27.650859
 20
56.186453
 10
28.047734
 20
56.186453
 10
28.047734
 20
57.683328
 10
27.650859
 20
57.683328
  0
LWPOLYLINE
  8
0
 62
7
 90
5
 70
1
 10
28.300859
 20
56.934891
 10
28.300859
 20
56.186453
 10
28.697734
 20
56.186453
 10
28.697734
 20
57.683328
 10
28.300859
 20
57.683328
  0
LWPOLYLINE
  8
0
 62
7
 90
5
 70
1
 10
28.950859
 20
56.934891
 10
28.950859
 20
56.186453
 10
29.347734
 20
56.186453
 10
29.347734
 20
57.683328
 10
28.950859
 20
57.683328
  0
LWPOLYLINE
  8
0
 62
7
 90
5
 70
1
 10
38.831459
 20
64.286491
 10
38.831459
 20
63.538053
 10
39.228334
 20
63.538053
 10
39.228334
 20
65.034928
 10
38.831459
 20
65.034928
  0
LWPOLYLINE
  8
0
 62
7
 90
5
 70
1
 10
38.181459
 20
64.286491
 10
38.181459
 20
63.538053
 10
38.578334
 20
63.538053
 10
38.578334
 20
65.034928
 10
38.181459
 20
65.034928
  0
LWPOLYLINE
  8
0
 62
7
 90
5
 70
1
 10
37.531459
 20
64.286491
 10
37.531459
 20
63.538053
 10
37.928334
 20
63.538053
 10
37.928334
 20
65.034928
 10
37.531459
 20
65.034928
  0
LWPOLYLINE
  8
0
 62
7
 90
5
 70
1
 10
36.881459
 20
64.286491
 10
36.881459
 20
63.538053
 10
37.278334
 20
63.538053
 10
37.278334
 20
65.034928
 10
36.881459
 20
65.034928
  0
LWPOLYLINE
  8
0
 62
7
 90
5
 70
1
 10
36.231459
 20
64.286491
 10
36.231459
 20
63.538053
 10
36.628334
 20
63.538053
 10
36.628334
 20
65.034928
 10
36.231459
 20
65.034928
  0
LWPOLYLINE
  8
0
 62
7
 90
5
 70
1
 10
35.581459
 20
64.286491
 10
35.581459
 20
63.538053
 10
35.978334
 20
63.538053
 10
35.978334
 20
65.034928
 10
35.581459
 20
65.034928
  0
LWPOLYLINE
  8
0
 62
7
 90
5
 70
1
 10
34.931459
 20
64.286491
 10
34.931459
 20
63.538053
 10
35.328334
 20
63.538053
 10
35.328334
 20
65.034928
 10
34.931459
 20
65.034928
  0
LWPOLYLINE
  8
0
 62
7
 90
5
 70
1
 10
34.281459
 20
64.286491
 10
34.281459
 20
63.538053
 10
34.678334
 20
63.538053
 10
34.678334
 20
65.034928
 10
34.281459
 20
65.034928
  0
LWPOLYLINE
  8
0
 62
7
 90
5
 70
1
 10
33.631459
 20
64.286491
 10
33.631459
 20
63.538053
 10
34.028334
 20
63.538053
 10
34.028334
 20
65.034928
 10
33.631459
 20
65.034928
  0
LWPOLYLINE
  8
0
 62
7
 90
5
 70
1
 10
32.981459
 20
64.286491
 10
32.981459
 20
63.538053
 10
33.378334
 20
63.538053
 10
33.378334
 20
65.034928
 10
32.981459
 20
65.034928
  0
LWPOLYLINE
  8
0
 62
7
 90
5
 70
1
 10
32.981459
 20
57.036491
 10
32.981459
 20
56.288053
 10
33.378334
 20
56.288053
 10
33.378334
 20
57.784928
 10
32.981459
 20
57.784928
  0
LWPOLYLINE
  8
0
 62
7
 90
5
 70
1
 10
33.631459
 20
57.036491
 10
33.631459
 20
56.288053
 10
34.028334
 20
56.288053
 10
34.028334
 20
57.784928
 10
33.631459
 20
57.784928
  0
LWPOLYLINE
  8
0
 62
7
 90
5
 70
1
 10
34.281459
 20
57.036491
 10
34.281459
 20
56.288053
 10
34.678334
 20
56.288053
 10
34.678334
 20
57.784928
 10
34.281459
 20
57.784928
  0
LWPOLYLINE
  8
0
 62
7
 90
5
 70
1
 10
34.931459
 20
57.036491
 10
34.931459
 20
56.288053
 10
35.328334
 20
56.288053
 10
35.328334
 20
57.784928
 10
34.931459
 20
57.784928
  0
LWPOLYLINE
  8
0
 62
7
 90
5
 70
1
 10
35.581459
 20
57.036491
 10
35.581459
 20
56.288053
 10
35.978334
 20
56.288053
 10
35.978334
 20
57.784928
 10
35.581459
 20
57.784928
  0
LWPOLYLINE
  8
0
 62
7
 90
5
 70
1
 10
36.231459
 20
57.036491
 10
36.231459
 20
56.288053
 10
36.628334
 20
56.288053
 10
36.628334
 20
57.784928
 10
36.231459
 20
57.784928
  0
LWPOLYLINE
  8
0
 62
7
 90
5
 70
1
 10
36.881459
 20
57.036491
 10
36.881459
 20
56.288053
 10
37.278334
 20
56.288053
 10
37.278334
 20
57.784928
 10
36.881459
 20
57.784928
  0
LWPOLYLINE
  8
0
 62
7
 90
5
 70
1
 10
37.531459
 20
57.036491
 10
37.531459
 20
56.288053
 10
37.928334
 20
56.288053
 10
37.928334
 20
57.784928
 10
37.531459
 20
57.784928
  0
LWPOLYLINE
  8
0
 62
7
 90
5
 70
1
 10
38.181459
 20
57.036491
 10
38.181459
 20
56.288053
 10
38.578334
 20
56.288053
 10
38.578334
 20
57.784928
 10
38.181459
 20
57.784928
  0
LWPOLYLINE
  8
0
 62
7
 90
5
 70
1
 10
38.831459
 20
57.036491
 10
38.831459
 20
56.288053
 10
39.228334
 20
56.288053
 10
39.228334
 20
57.784928
 10
38.831459
 20
57.784928
  0
LWPOLYLINE
  8
0
 62
7
 90
5
 70
1
 10
54.028059
 20
13.015791
 10
54.028059
 20
12.417353
 10
54.574934
 20
12.417353
 10
54.574934
 20
13.614228
 10
54.028059
 20
13.614228
  0
LWPOLYLINE
  8
0
 62
7
 90
5
 70
1
 10
53.078059
 20
13.015791
 10
53.078059
 20
12.417353
 10
53.624934
 20
12.417353
 10
53.624934
 20
13.614228
 10
53.078059
 20
13.614228
  0
LWPOLYLINE
  8
0
 62
7
 90
5
 70
1
 10
52.128059
 20
13.015791
 10
52.128059
 20
12.417353
 10
52.674934
 20
12.417353
 10
52.674934
 20
13.614228
 10
52.128059
 20
13.614228
  0
LWPOLYLINE
  8
0
 62
7
 90
5
 70
1
 10
52.128059
 20
10.415591
 10
52.128059
 20
9.817153
 10
52.674934
 20
9.817153
 10
52.674934
 20
11.014028
 10
52.128059
 20
11.014028
  0
LWPOLYLINE
  8
0
 62
7
 90
5
 70
1
 10
54.028059
 20
10.415591
 10
54.028059
 20
9.817153
 10
54.574934
 20
9.817153
 10
54.574934
 20
11.014028
 10
54.028059
 20
11.014028
  0
LWPOLYLINE
  8
0
 62
7
 90
5
 70
1
 10
92.354734
 20
35.379891
 10
92.354734
 20
35.978328
 10
91.157859
 20
35.978328
 10
91.157859
 20
34.781453
 10
92.354734
 20
34.781453
  0
LWPOLYLINE
  8
0
 62
7
 90
5
 70
1
 10
92.354734
 20
37.479891
 10
92.354734
 20
38.078328
 10
91.157859
 20
38.078328
 10
91.157859
 20
36.881453
 10
92.354734
 20
36.881453
  0
LWPOLYLINE
  8
0
 62
7
 90
5
 70
1
 10
102.974334
 20
66.965491
 10
102.974334
 20
67.663928
 10
102.077459
 20
67.663928
 10
102.077459
 20
66.267053
 10
102.974334
 20
66.267053
  0
LWPOLYLINE
  8
0
 62
7
 90
5
 70
1
 10
104.244334
 20
66.965491
 10
104.244334
 20
67.663928
 10
103.347459
 20
67.663928
 10
103.347459
 20
66.267053
 10
104.244334
 20
66.267053
  0
LWPOLYLINE
  8
0
 62
7
 90
5
 70
1
 10
105.514334
 20
66.965491
 10
105.514334
 20
67.663928
 10
104.617459
 20
67.663928
 10
104.617459
 20
66.267053
 10
105.514334
 20
66.267053
  0
LWPOLYLINE
  8
0
 62
7
 90
5
 70
1
 10
106.784334
 20
66.965491
 10
106.784334
 20
67.663928
 10
105.887459
 20
67.663928
 10
105.887459
 20
66.267053
 10
106.784334
 20
66.267053
  0
LWPOLYLINE
  8
0
 62
7
 90
5
 70
1
 10
108.054334
 20
66.965491
 10
108.054334
 20
67.663928
 10
107.157459
 20
67.663928
 10
107.157459
 20
66.267053
 10
108.054334
 20
66.267053
  0
LWPOLYLINE
  8
0
 62
7
 90
5
 70
1
 10
109.324334
 20
66.965491
 10
109.324334
 20
67.663928
 10
108.427459
 20
67.663928
 10
108.427459
 20
66.267053
 10
109.324334
 20
66.267053
  0
LWPOLYLINE
  8
0
 62
7
 90
5
 70
1
 10
110.594334
 20
66.965491
 10
110.594334
 20
67.663928
 10
109.697459
 20
67.663928
 10
109.697459
 20
66.267053
 10
110.594334
 20
66.267053
  0
LWPOLYLINE
  8
0
 62
7
 90
5
 70
1
 10
111.864334
 20
66.965491
 10
111.864334
 20
67.663928
 10
110.967459
 20
67.663928
 10
110.967459
 20
66.267053
 10
111.864334
 20
66.267053
  0
LWPOLYLINE
  8
0
 62
7
 90
5
 70
1
 10
111.864334
 20
75.185491
 10
111.864334
 20
75.883928
 10
110.967459
 20
75.883928
 10
110.967459
 20
74.487053
 10
111.864334
 20
74.487053
  0
LWPOLYLINE
  8
0
 62
7
 90
5
 70
1
 10
110.594334
 20
75.185491
 10
110.594334
 20
75.883928
 10
109.697459
 20
75.883928
 10
109.697459
 20
74.487053
 10
110.594334
 20
74.487053
  0
LWPOLYLINE
  8
0
 62
7
 90
5
 70
1
 10
109.324334
 20
75.185491
 10
109.324334
 20
75.883928
 10
108.427459
 20
75.883928
 10
108.427459
 20
74.487053
 10
109.324334
 20
74.487053
  0
LWPOLYLINE
  8
0
 62
7
 90
5
 70
1
 10
108.054334
 20
75.185491
 10
108.054334
 20
75.883928
 10
107.157459
 20
75.883928
 10
107.157459
 20
74.487053
 10
108.054334
 20
74.487053
  0
LWPOLYLINE
  8
0
 62
7
 90
5
 70
1
 10
106.784334
 20
75.185491
 10
106.784334
 20
75.883928
 10
105.887459
 20
75.883928
 10
105.887459
 20
74.487053
 10
106.784334
 20
74.487053
  0
LWPOLYLINE
  8
0
 62
7
 90
5
 70
1
 10
105.514334
 20
75.185491
 10
105.514334
 20
75.883928
 10
104.617459
 20
75.883928
 10
104.617459
 20
74.487053
 10
105.514334
 20
74.487053
  0
LWPOLYLINE
  8
0
 62
7
 90
5
 70
1
 10
104.244334
 20
75.185491
 10
104.244334
 20
75.883928
 10
103.347459
 20
75.883928
 10
103.347459
 20
74.487053
 10
104.244334
 20
74.487053
  0
LWPOLYLINE
  8
0
 62
7
 90
5
 70
1
 10
102.974334
 20
75.185491
 10
102.974334
 20
75.883928
 10
102.077459
 20
75.883928
 10
102.077459
 20
74.487053
 10
102.974334
 20
74.487053
  0
LWPOLYLINE
  8
0
 62
7
 90
5
 70
1
 10
33.236097
 20
24.018253
 10
33.734534
 20
24.018253
 10
33.734534
 20
28.115128
 10
32.737659
 20
28.115128
 10
32.737659
 20
24.018253
  0
LWPOLYLINE
  8
0
 62
7
 90
5
 70
1
 10
31.736097
 20
24.018253
 10
32.234534
 20
24.018253
 10
32.234534
 20
28.115128
 10
31.237659
 20
28.115128
 10
31.237659
 20
24.018253
  0
LWPOLYLINE
  8
0
 62
7
 90
5
 70
1
 10
30.236097
 20
24.018253
 10
30.734534
 20
24.018253
 10
30.734534
 20
28.115128
 10
29.737659
 20
28.115128
 10
29.737659
 20
24.018253
  0
ENDSEC
  0
EOF
