  0
SECTION
  2
HEADER
  9
$ACADVER
  1
AC1009
  9
$MEASUREMENT
 70
     1
  0
ENDSEC
  0
SECTION
  2
ENTITIES
  0
LWPOLYLINE
  8
0
 62
7
 90
5
 70
1
 10
72.172897
 20
18.833328
 10
71.474459
 20
18.833328
 10
71.474459
 20
17.736453
 10
72.871334
 20
17.736453
 10
72.871334
 20
18.833328
  0
LWPOLYLINE
  8
0
 62
7
 90
5
 70
1
 10
72.172897
 20
20.833328
 10
71.474459
 20
20.833328
 10
71.474459
 20
19.736453
 10
72.871334
 20
19.736453
 10
72.871334
 20
20.833328
  0
LWPOLYLINE
  8
0
 62
7
 90
5
 70
1
 10
63.765497
 20
42.723453
 10
64.463934
 20
42.723453
 10
64.463934
 20
43.820328
 10
63.067059
 20
43.820328
 10
63.067059
 20
42.723453
  0
LWPOLYLINE
  8
0
 62
7
 90
5
 70
1
 10
63.765497
 20
40.723453
 10
64.463934
 20
40.723453
 10
64.463934
 20
41.820328
 10
63.067059
 20
41.820328
 10
63.067059
 20
40.723453
  0
LWPOLYLINE
  8
0
 62
7
 90
5
 70
1
 10
61.559534
 20
44.074291
 10
61.559534
 20
44.672728
 10
59.062659
 20
44.672728
 10
59.062659
 20
43.475853
 10
61.559534
 20
43.475853
  0
LWPOLYLINE
  8
0
 62
7
 90
5
 70
1
 10
61.559534
 20
40.774291
 10
61.559534
 20
41.372728
 10
59.062659
 20
41.372728
 10
59.062659
 20
40.175853
 10
61.559534
 20
40.175853
  0
LWPOLYLINE
  8
0
 62
7
 90
5
 70
1
 10
75.246297
 20
16.739653
 10
76.494734
 20
16.739653
 10
76.494734
 20
18.436528
 10
73.997859
 20
18.436528
 10
73.997859
 20
16.739653
  0
LWPOLYLINE
  8
0
 62
7
 90
5
 70
1
 10
75.246297
 20
20.539653
 10
76.494734
 20
20.539653
 10
76.494734
 20
22.236528
 10
73.997859
 20
22.236528
 10
73.997859
 20
20.539653
  0
LWPOLYLINE
  8
0
 62
7
 90
5
 70
1
 10
57.821897
 20
19.643728
 10
57.323459
 20
19.643728
 10
57.323459
 20
18.546853
 10
58.320334
 20
18.546853
 10
58.320334
 20
19.643728
  0
LWPOLYLINE
  8
0
 62
7
 90
5
 70
1
 10
57.821897
 20
21.343728
 10
57.323459
 20
21.343728
 10
57.323459
 20
20.246853
 10
58.320334
 20
20.246853
 10
58.320334
 20
21.343728
  0
LWPOLYLINE
  8
0
 62
7
 90
5
 70
1
 10
34.796797
 20
9.585553
 10
35.895234
 20
9.585553
 10
35.895234
 20
11.582428
 10
33.698359
 20
11.582428
 10
33.698359
 20
9.585553
  0
LWPOLYLINE
  8
0
 62
7
 90
5
 70
1
 10
34.796797
 20
12.585553
 10
35.895234
 20
12.585553
 10
35.895234
 20
14.582428
 10
33.698359
 20
14.582428
 10
33.698359
 20
12.585553
  0
LWPOLYLINE
  8
0
 62
7
 90
5
 70
1
 10
35.765459
 20
19.437291
 10
35.765459
 20
18.338853
 10
37.762334
 20
18.338853
 10
37.762334
 20
20.535728
 10
35.765459
 20
20.535728
  0
LWPOLYLINE
  8
0
 62
7
 90
5
 70
1
 10
38.765459
 20
19.437291
 10
38.765459
 20
18.338853
 10
40.762334
 20
18.338853
 10
40.762334
 20
20.535728
 10
38.765459
 20
20.535728
  0
LWPOLYLINE
  8
0
 62
7
 90
5
 70
1
 10
37.552697
 20
11.526828
 10
36.804259
 20
11.526828
 10
36.804259
 20
10.229953
 10
38.301134
 20
10.229953
 10
38.301134
 20
11.526828
  0
LWPOLYLINE
  8
0
 62
7
 90
5
 70
1
 10
37.552697
 20
13.226828
 10
36.804259
 20
13.226828
 10
36.804259
 20
11.929953
 10
38.301134
 20
11.929953
 10
38.301134
 20
13.226828
  0
LWPOLYLINE
  8
0
 62
7
 90
5
 70
1
 10
29.603266
 20
14.954309
 10
29.603266
 20
14.205872
 10
30.900141
 20
14.205872
 10
30.900141
 20
15.702747
 10
29.603266
 20
15.702747
  0
LWPOLYLINE
  8
0
 62
7
 90
5
 70
1
 10
27.903266
 20
14.954309
 10
27.903266
 20
14.205872
 10
29.200141
 20
14.205872
 10
29.200141
 20
15.702747
 10
27.903266
 20
15.702747
  0
LWPOLYLINE
  8
0
 62
7
 90
5
 70
1
 10
27.291097
 20
46.435853
 10
28.039534
 20
46.435853
 10
28.039534
 20
47.732728
 10
26.542659
 20
47.732728
 10
26.542659
 20
46.435853
  0
LWPOLYLINE
  8
0
 62
7
 90
5
 70
1
 10
27.291097
 20
44.735853
 10
28.039534
 20
44.735853
 10
28.039534
 20
46.032728
 10
26.542659
 20
46.032728
 10
26.542659
 20
44.735853
  0
LWPOLYLINE
  8
0
 62
7
 90
5
 70
1
 10
32.525134
 20
41.128891
 10
32.525134
 20
41.877328
 10
31.228259
 20
41.877328
 10
31.228259
 20
40.380453
 10
32.525134
 20
40.380453
  0
LWPOLYLINE
  8
0
 62
7
 90
5
 70
1
 10
34.225134
 20
41.128891
 10
34.225134
 20
41.877328
 10
32.928259
 20
41.877328
 10
32.928259
 20
40.380453
 10
34.225134
 20
40.380453
  0
LWPOLYLINE
  8
0
 62
7
 90
5
 70
1
 10
31.074059
 20
49.688691
 10
31.074059
 20
48.940253
 10
32.370934
 20
48.940253
 10
32.370934
 20
50.437128
 10
31.074059
 20
50.437128
  0
LWPOLYLINE
  8
0
 62
7
 90
5
 70
1
 10
29.374059
 20
49.688691
 10
29.374059
 20
48.940253
 10
30.670934
 20
48.940253
 10
30.670934
 20
50.437128
 10
29.374059
 20
50.437128
  0
LWPOLYLINE
  8
0
 62
7
 90
5
 70
1
 10
38.086097
 20
45.499328
 10
37.337659
 20
45.499328
 10
37.337659
 20
44.202453
 10
38.834534
 20
44.202453
 10
38.834534
 20
45.499328
  0
LWPOLYLINE
  8
0
 62
7
 90
5
 70
1
 10
38.086097
 20
47.199328
 10
37.337659
 20
47.199328
 10
37.337659
 20
45.902453
 10
38.834534
 20
45.902453
 10
38.834534
 20
47.199328
  0
LWPOLYLINE
  8
0
 62
7
 90
5
 70
1
 10
45.629897
 20
43.162528
 10
44.881459
 20
43.162528
 10
44.881459
 20
41.865653
 10
46.378334
 20
41.865653
 10
46.378334
 20
43.162528
  0
LWPOLYLINE
  8
0
 62
7
 90
5
 70
1
 10
45.629897
 20
44.862528
 10
44.881459
 20
44.862528
 10
44.881459
 20
43.565653
 10
46.378334
 20
43.565653
 10
46.378334
 20
44.862528
  0
LWPOLYLINE
  8
0
 62
7
 90
5
 70
1
 10
48.122334
 20
12.985691
 10
48.122334
 20
13.484128
 10
47.025459
 20
13.484128
 10
47.025459
 20
12.487253
 10
48.122334
 20
12.487253
  0
LWPOLYLINE
  8
0
 62
7
 90
5
 70
1
 10
49.822334
 20
12.985691
 10
49.822334
 20
13.484128
 10
48.725459
 20
13.484128
 10
48.725459
 20
12.487253
 10
49.822334
 20
12.487253
  0
LWPOLYLINE
  8
0
 62
7
 90
5
 70
1
 10
134.631497
 20
68.978853
 10
135.729934
 20
68.978853
 10
135.729934
 20
71.575728
 10
133.533059
 20
71.575728
 10
133.533059
 20
68.978853
  0
LWPOLYLINE
  8
0
 62
7
 90
5
 70
1
 10
134.631497
 20
73.978853
 10
135.729934
 20
73.978853
 10
135.729934
 20
76.575728
 10
133.533059
 20
76.575728
 10
133.533059
 20
73.978853
  0
LWPOLYLINE
  8
0
 62
7
 90
5
 70
1
 10
60.895297
 20
28.000328
 10
60.396859
 20
28.000328
 10
60.396859
 20
26.903453
 10
61.393734
 20
26.903453
 10
61.393734
 20
28.000328
  0
LWPOLYLINE
  8
0
 62
7
 90
5
 70
1
 10
60.895297
 20
29.700328
 10
60.396859
 20
29.700328
 10
60.396859
 20
28.603453
 10
61.393734
 20
28.603453
 10
61.393734
 20
29.700328
  0
LWPOLYLINE
  8
0
 62
7
 90
5
 70
1
 10
130.999297
 20
70.204253
 10
131.797734
 20
70.204253
 10
131.797734
 20
72.101128
 10
130.200859
 20
72.101128
 10
130.200859
 20
70.204253
  0
LWPOLYLINE
  8
0
 62
7
 90
5
 70
1
 10
130.999297
 20
73.504253
 10
131.797734
 20
73.504253
 10
131.797734
 20
75.401128
 10
130.200859
 20
75.401128
 10
130.200859
 20
73.504253
  0
LWPOLYLINE
  8
0
 62
7
 90
5
 70
1
 10
127.392497
 20
72.651928
 10
126.644059
 20
72.651928
 10
126.644059
 20
71.355053
 10
128.140934
 20
71.355053
 10
128.140934
 20
72.651928
  0
LWPOLYLINE
  8
0
 62
7
 90
5
 70
1
 10
127.392497
 20
74.351928
 10
126.644059
 20
74.351928
 10
126.644059
 20
73.055053
 10
128.140934
 20
73.055053
 10
128.140934
 20
74.351928
  0
LWPOLYLINE
  8
0
 62
7
 90
5
 70
1
 10
123.234534
 20
70.262691
 10
123.234534
 20
71.061128
 10
121.337659
 20
71.061128
 10
121.337659
 20
69.464253
 10
123.234534
 20
69.464253
  0
LWPOLYLINE
  8
0
 62
7
 90
5
 70
1
 10
119.934534
 20
70.262691
 10
119.934534
 20
71.061128
 10
118.037659
 20
71.061128
 10
118.037659
 20
69.464253
 10
119.934534
 20
69.464253
  0
LWPOLYLINE
  8
0
 62
7
 90
5
 70
1
 10
119.466059
 20
73.564691
 10
119.466059
 20
72.816253
 10
120.762934
 20
72.816253
 10
120.762934
 20
74.313128
 10
119.466059
 20
74.313128
  0
LWPOLYLINE
  8
0
 62
7
 90
5
 70
1
 10
117.766059
 20
73.564691
 10
117.766059
 20
72.816253
 10
119.062934
 20
72.816253
 10
119.062934
 20
74.313128
 10
117.766059
 20
74.313128
  0
LWPOLYLINE
  8
0
 62
7
 90
5
 70
1
 10
8.063297
 20
32.428253
 10
9.161734
 20
32.428253
 10
9.161734
 20
35.025128
 10
6.964859
 20
35.025128
 10
6.964859
 20
32.428253
  0
LWPOLYLINE
  8
0
 62
7
 90
5
 70
1
 10
8.063297
 20
37.428253
 10
9.161734
 20
37.428253
 10
9.161734
 20
40.025128
 10
6.964859
 20
40.025128
 10
6.964859
 20
37.428253
  0
LWPOLYLINE
  8
0
 62
7
 90
5
 70
1
 10
60.419897
 20
65.677328
 10
59.671459
 20
65.677328
 10
59.671459
 20
65.280453
 10
61.168334
 20
65.280453
 10
61.168334
 20
65.677328
  0
LWPOLYLINE
  8
0
 62
7
 90
5
 70
1
 10
60.419897
 20
66.327328
 10
59.671459
 20
66.327328
 10
59.671459
 20
65.930453
 10
61.168334
 20
65.930453
 10
61.168334
 20
66.327328
  0
LWPOLYLINE
  8
0
 62
7
 90
5
 70
1
 10
60.419897
 20
66.977328
 10
59.671459
 20
66.977328
 10
59.671459
 20
66.580453
 10
61.168334
 20
66.580453
 10
61.168334
 20
66.977328
  0
LWPOLYLINE
  8
0
 62
7
 90
5
 70
1
 10
60.419897
 20
67.627328
 10
59.671459
 20
67.627328
 10
59.671459
 20
67.230453
 10
61.168334
 20
67.230453
 10
61.168334
 20
67.627328
  0
LWPOLYLINE
  8
0
 62
7
 90
5
 70
1
 10
60.419897
 20
68.277328
 10
59.671459
 20
68.277328
 10
59.671459
 20
67.880453
 10
61.168334
 20
67.880453
 10
61.168334
 20
68.277328
  0
LWPOLYLINE
  8
0
 62
7
 90
5
 70
1
 10
60.419897
 20
68.927328
 10
59.671459
 20
68.927328
 10
59.671459
 20
68.530453
 10
61.168334
 20
68.530453
 10
61.168334
 20
68.927328
  0
LWPOLYLINE
  8
0
 62
7
 90
5
 70
1
 10
60.419897
 20
69.577328
 10
59.671459
 20
69.577328
 10
59.671459
 20
69.180453
 10
61.168334
 20
69.180453
 10
61.168334
 20
69.577328
  0
LWPOLYLINE
  8
0
 62
7
 90
5
 70
1
 10
60.419897
 20
70.227328
 10
59.671459
 20
70.227328
 10
59.671459
 20
69.830453
 10
61.168334
 20
69.830453
 10
61.168334
 20
70.227328
  0
LWPOLYLINE
  8
0
 62
7
 90
5
 70
1
 10
60.419897
 20
70.877328
 10
59.671459
 20
70.877328
 10
59.671459
 20
70.480453
 10
61.168334
 20
70.480453
 10
61.168334
 20
70.877328
  0
LWPOLYLINE
  8
0
 62
7
 90
5
 70
1
 10
60.419897
 20
71.527328
 10
59.671459
 20
71.527328
 10
59.671459
 20
71.130453
 10
61.168334
 20
71.130453
 10
61.168334
 20
71.527328
  0
LWPOLYLINE
  8
0
 62
7
 90
5
 70
1
 10
60.419897
 20
72.177328
 10
59.671459
 20
72.177328
 10
59.671459
 20
71.780453
 10
61.168334
 20
71.780453
 10
61.168334
 20
72.177328
  0
LWPOLYLINE
  8
0
 62
7
 90
5
 70
1
 10
60.419897
 20
72.827328
 10
59.671459
 20
72.827328
 10
59.671459
 20
72.430453
 10
61.168334
 20
72.430453
 10
61.168334
 20
72.827328
  0
LWPOLYLINE
  8
0
 62
7
 90
5
 70
1
 10
60.419897
 20
73.477328
 10
59.671459
 20
73.477328
 10
59.671459
 20
73.080453
 10
61.168334
 20
73.080453
 10
61.168334
 20
73.477328
  0
LWPOLYLINE
  8
0
 62
7
 90
5
 70
1
 10
60.419897
 20
74.127328
 10
59.671459
 20
74.127328
 10
59.671459
 20
73.730453
 10
61.168334
 20
73.730453
 10
61.168334
 20
74.127328
  0
LWPOLYLINE
  8
0
 62
7
 90
5
 70
1
 10
67.669897
 20
74.127328
 10
66.921459
 20
74.127328
 10
66.921459
 20
73.730453
 10
68.418334
 20
73.730453
 10
68.418334
 20
74.127328
  0
LWPOLYLINE
  8
0
 62
7
 90
5
 70
1
 10
67.669897
 20
73.477328
 10
66.921459
 20
73.477328
 10
66.921459
 20
73.080453
 10
68.418334
 20
73.080453
 10
68.418334
 20
73.477328
  0
LWPOLYLINE
  8
0
 62
7
 90
5
 70
1
 10
67.669897
 20
72.827328
 10
66.921459
 20
72.827328
 10
66.921459
 20
72.430453
 10
68.418334
 20
72.430453
 10
68.418334
 20
72.827328
  0
LWPOLYLINE
  8
0
 62
7
 90
5
 70
1
 10
67.669897
 20
72.177328
 10
66.921459
 20
72.177328
 10
66.921459
 20
71.780453
 10
68.418334
 20
71.780453
 10
68.418334
 20
72.177328
  0
LWPOLYLINE
  8
0
 62
7
 90
5
 70
1
 10
67.669897
 20
71.527328
 10
66.921459
 20
71.527328
 10
66.921459
 20
71.130453
 10
68.418334
 20
71.130453
 10
68.418334
 20
71.527328
  0
LWPOLYLINE
  8
0
 62
7
 90
5
 70
1
 10
67.669897
 20
70.877328
 10
66.921459
 20
70.877328
 10
66.921459
 20
70.480453
 10
68.418334
 20
70.480453
 10
68.418334
 20
70.877328
  0
LWPOLYLINE
  8
0
 62
7
 90
5
 70
1
 10
67.669897
 20
70.227328
 10
66.921459
 20
70.227328
 10
66.921459
 20
69.830453
 10
68.418334
 20
69.830453
 10
68.418334
 20
70.227328
  0
LWPOLYLINE
  8
0
 62
7
 90
5
 70
1
 10
67.669897
 20
69.577328
 10
66.921459
 20
69.577328
 10
66.921459
 20
69.180453
 10
68.418334
 20
69.180453
 10
68.418334
 20
69.577328
  0
LWPOLYLINE
  8
0
 62
7
 90
5
 70
1
 10
67.669897
 20
68.927328
 10
66.921459
 20
68.927328
 10
66.921459
 20
68.530453
 10
68.418334
 20
68.530453
 10
68.418334
 20
68.927328
  0
LWPOLYLINE
  8
0
 62
7
 90
5
 70
1
 10
67.669897
 20
68.277328
 10
66.921459
 20
68.277328
 10
66.921459
 20
67.880453
 10
68.418334
 20
67.880453
 10
68.418334
 20
68.277328
  0
LWPOLYLINE
  8
0
 62
7
 90
5
 70
1
 10
67.669897
 20
67.627328
 10
66.921459
 20
67.627328
 10
66.921459
 20
67.230453
 10
68.418334
 20
67.230453
 10
68.418334
 20
67.627328
  0
LWPOLYLINE
  8
0
 62
7
 90
5
 70
1
 10
67.669897
 20
66.977328
 10
66.921459
 20
66.977328
 10
66.921459
 20
66.580453
 10
68.418334
 20
66.580453
 10
68.418334
 20
66.977328
  0
LWPOLYLINE
  8
0
 62
7
 90
5
 70
1
 10
67.669897
 20
66.327328
 10
66.921459
 20
66.327328
 10
66.921459
 20
65.930453
 10
68.418334
 20
65.930453
 10
68.418334
 20
66.327328
  0
LWPOLYLINE
  8
0
 62
7
 90
5
 70
1
 10
67.669897
 20
65.677328
 10
66.921459
 20
65.677328
 10
66.921459
 20
65.280453
 10
68.418334
 20
65.280453
 10
68.418334
 20
65.677328
  0
LWPOLYLINE
  8
0
 62
7
 90
5
 70
1
 10
70.732297
 20
65.855128
 10
69.983859
 20
65.855128
 10
69.983859
 20
65.458253
 10
71.480734
 20
65.458253
 10
71.480734
 20
65.855128
  0
LWPOLYLINE
  8
0
 62
7
 90
5
 70
1
 10
70.732297
 20
66.505128
 10
69.983859
 20
66.505128
 10
69.983859
 20
66.108253
 10
71.480734
 20
66.108253
 10
71.480734
 20
66.505128
  0
LWPOLYLINE
  8
0
 62
7
 90
5
 70
1
 10
70.732297
 20
67.155128
 10
69.983859
 20
67.155128
 10
69.983859
 20
66.758253
 10
71.480734
 20
66.758253
 10
71.480734
 20
67.155128
  0
LWPOLYLINE
  8
0
 62
7
 90
5
 70
1
 10
70.732297
 20
67.805128
 10
69.983859
 20
67.805128
 10
69.983859
 20
67.408253
 10
71.480734
 20
67.408253
 10
71.480734
 20
67.805128
  0
LWPOLYLINE
  8
0
 62
7
 90
5
 70
1
 10
70.732297
 20
68.455128
 10
69.983859
 20
68.455128
 10
69.983859
 20
68.058253
 10
71.480734
 20
68.058253
 10
71.480734
 20
68.455128
  0
LWPOLYLINE
  8
0
 62
7
 90
5
 70
1
 10
70.732297
 20
69.105128
 10
69.983859
 20
69.105128
 10
69.983859
 20
68.708253
 10
71.480734
 20
68.708253
 10
71.480734
 20
69.105128
  0
LWPOLYLINE
  8
0
 62
7
 90
5
 70
1
 10
70.732297
 20
69.755128
 10
69.983859
 20
69.755128
 10
69.983859
 20
69.358253
 10
71.480734
 20
69.358253
 10
71.480734
 20
69.755128
  0
LWPOLYLINE
  8
0
 62
7
 90
5
 70
1
 10
70.732297
 20
70.405128
 10
69.983859
 20
70.405128
 10
69.983859
 20
70.008253
 10
71.480734
 20
70.008253
 10
71.480734
 20
70.405128
  0
LWPOLYLINE
  8
0
 62
7
 90
5
 70
1
 10
70.732297
 20
71.055128
 10
69.983859
 20
71.055128
 10
69.983859
 20
70.658253
 10
71.480734
 20
70.658253
 10
71.480734
 20
71.055128
  0
LWPOLYLINE
  8
0
 62
7
 90
5
 70
1
 10
70.732297
 20
71.705128
 10
69.983859
 20
71.705128
 10
69.983859
 20
71.308253
 10
71.480734
 20
71.308253
 10
71.480734
 20
71.705128
  0
LWPOLYLINE
  8
0
 62
7
 90
5
 70
1
 10
70.732297
 20
72.355128
 10
69.983859
 20
72.355128
 10
69.983859
 20
71.958253
 10
71.480734
 20
71.958253
 10
71.480734
 20
72.355128
  0
LWPOLYLINE
  8
0
 62
7
 90
5
 70
1
 10
70.732297
 20
73.005128
 10
69.983859
 20
73.005128
 10
69.983859
 20
72.608253
 10
71.480734
 20
72.608253
 10
71.480734
 20
73.005128
  0
LWPOLYLINE
  8
0
 62
7
 90
5
 70
1
 10
70.732297
 20
73.655128
 10
69.983859
 20
73.655128
 10
69.983859
 20
73.258253
 10
71.480734
 20
73.258253
 10
71.480734
 20
73.655128
  0
LWPOLYLINE
  8
0
 62
7
 90
5
 70
1
 10
70.732297
 20
74.305128
 10
69.983859
 20
74.305128
 10
69.983859
 20
73.908253
 10
71.480734
 20
73.908253
 10
71.480734
 20
74.305128
  0
LWPOLYLINE
  8
0
 62
7
 90
5
 70
1
 10
77.982297
 20
74.305128
 10
77.233859
 20
74.305128
 10
77.233859
 20
73.908253
 10
78.730734
 20
73.908253
 10
78.730734
 20
74.305128
  0
LWPOLYLINE
  8
0
 62
7
 90
5
 70
1
 10
77.982297
 20
73.655128
 10
77.233859
 20
73.655128
 10
77.233859
 20
73.258253
 10
78.730734
 20
73.258253
 10
78.730734
 20
73.655128
  0
LWPOLYLINE
  8
0
 62
7
 90
5
 70
1
 10
77.982297
 20
73.005128
 10
77.233859
 20
73.005128
 10
77.233859
 20
72.608253
 10
78.730734
 20
72.608253
 10
78.730734
 20
73.005128
  0
LWPOLYLINE
  8
0
 62
7
 90
5
 70
1
 10
77.982297
 20
72.355128
 10
77.233859
 20
72.355128
 10
77.233859
 20
71.958253
 10
78.730734
 20
71.958253
 10
78.730734
 20
72.355128
  0
LWPOLYLINE
  8
0
 62
7
 90
5
 70
1
 10
77.982297
 20
71.705128
 10
77.233859
 20
71.705128
 10
77.233859
 20
71.308253
 10
78.730734
 20
71.308253
 10
78.730734
 20
71.705128
  0
LWPOLYLINE
  8
0
 62
7
 90
5
 70
1
 10
77.982297
 20
71.055128
 10
77.233859
 20
71.055128
 10
77.233859
 20
70.658253
 10
78.730734
 20
70.658253
 10
78.730734
 20
71.055128
  0
LWPOLYLINE
  8
0
 62
7
 90
5
 70
1
 10
77.982297
 20
70.405128
 10
77.233859
 20
70.405128
 10
77.233859
 20
70.008253
 10
78.730734
 20
70.008253
 10
78.730734
 20
70.405128
  0
LWPOLYLINE
  8
0
 62
7
 90
5
 70
1
 10
77.982297
 20
69.755128
 10
77.233859
 20
69.755128
 10
77.233859
 20
69.358253
 10
78.730734
 20
69.358253
 10
78.730734
 20
69.755128
  0
LWPOLYLINE
  8
0
 62
7
 90
5
 70
1
 10
77.982297
 20
69.105128
 10
77.233859
 20
69.105128
 10
77.233859
 20
68.708253
 10
78.730734
 20
68.708253
 10
78.730734
 20
69.105128
  0
LWPOLYLINE
  8
0
 62
7
 90
5
 70
1
 10
77.982297
 20
68.455128
 10
77.233859
 20
68.455128
 10
77.233859
 20
68.058253
 10
78.730734
 20
68.058253
 10
78.730734
 20
68.455128
  0
LWPOLYLINE
  8
0
 62
7
 90
5
 70
1
 10
77.982297
 20
67.805128
 10
77.233859
 20
67.805128
 10
77.233859
 20
67.408253
 10
78.730734
 20
67.408253
 10
78.730734
 20
67.805128
  0
LWPOLYLINE
  8
0
 62
7
 90
5
 70
1
 10
77.982297
 20
67.155128
 10
77.233859
 20
67.155128
 10
77.233859
 20
66.758253
 10
78.730734
 20
66.758253
 10
78.730734
 20
67.155128
  0
LWPOLYLINE
  8
0
 62
7
 90
5
 70
1
 10
77.982297
 20
66.505128
 10
77.233859
 20
66.505128
 10
77.233859
 20
66.108253
 10
78.730734
 20
66.108253
 10
78.730734
 20
66.505128
  0
LWPOLYLINE
  8
0
 62
7
 90
5
 70
1
 10
77.982297
 20
65.855128
 10
77.233859
 20
65.855128
 10
77.233859
 20
65.458253
 10
78.730734
 20
65.458253
 10
78.730734
 20
65.855128
  0
LWPOLYLINE
  8
0
 62
7
 90
5
 70
1
 10
60.234897
 20
75.575253
 10
60.733334
 20
75.575253
 10
60.733334
 20
78.572128
 10
59.736459
 20
78.572128
 10
59.736459
 20
75.575253
  0
LWPOLYLINE
  8
0
 62
7
 90
5
 70
1
 10
62.774897
 20
75.575253
 10
63.273334
 20
75.575253
 10
63.273334
 20
78.572128
 10
62.276459
 20
78.572128
 10
62.276459
 20
75.575253
  0
LWPOLYLINE
  8
0
 62
7
 90
5
 70
1
 10
65.314897
 20
75.575253
 10
65.813334
 20
75.575253
 10
65.813334
 20
78.572128
 10
64.816459
 20
78.572128
 10
64.816459
 20
75.575253
  0
LWPOLYLINE
  8
0
 62
7
 90
5
 70
1
 10
67.854897
 20
75.575253
 10
68.353334
 20
75.575253
 10
68.353334
 20
78.572128
 10
67.356459
 20
78.572128
 10
67.356459
 20
75.575253
  0
LWPOLYLINE
  8
0
 62
7
 90
5
 70
1
 10
70.928297
 20
75.549853
 10
71.426734
 20
75.549853
 10
71.426734
 20
78.546728
 10
70.429859
 20
78.546728
 10
70.429859
 20
75.549853
  0
LWPOLYLINE
  8
0
 62
7
 90
5
 70
1
 10
73.468297
 20
75.549853
 10
73.966734
 20
75.549853
 10
73.966734
 20
78.546728
 10
72.969859
 20
78.546728
 10
72.969859
 20
75.549853
  0
LWPOLYLINE
  8
0
 62
7
 90
5
 70
1
 10
76.008297
 20
75.549853
 10
76.506734
 20
75.549853
 10
76.506734
 20
78.546728
 10
75.509859
 20
78.546728
 10
75.509859
 20
75.549853
  0
LWPOLYLINE
  8
0
 62
7
 90
5
 70
1
 10
78.548297
 20
75.549853
 10
79.046734
 20
75.549853
 10
79.046734
 20
78.546728
 10
78.049859
 20
78.546728
 10
78.049859
 20
75.549853
  0
LWPOLYLINE
  8
0
 62
7
 90
5
 70
1
 10
137.525697
 20
18.209728
 10
136.027259
 20
18.209728
 10
136.027259
 20
16.612853
 10
139.024134
 20
16.612853
 10
139.024134
 20
18.209728
  0
LWPOLYLINE
  8
0
 62
7
 90
5
 70
1
 10
137.525697
 20
22.769728
 10
136.027259
 20
22.769728
 10
136.027259
 20
21.172853
 10
139.024134
 20
21.172853
 10
139.024134
 20
22.769728
  0
LWPOLYLINE
  8
0
 62
7
 90
5
 70
1
 10
144.423697
 20
22.102728
 10
141.567759
 20
22.102728
 10
141.567759
 20
17.279853
 10
147.279634
 20
17.279853
 10
147.279634
 20
22.102728
  0
LWPOLYLINE
  8
0
 62
7
 90
5
 70
1
 10
139.659297
 20
40.206128
 10
138.160859
 20
40.206128
 10
138.160859
 20
38.609253
 10
141.157734
 20
38.609253
 10
141.157734
 20
40.206128
  0
LWPOLYLINE
  8
0
 62
7
 90
5
 70
1
 10
139.659297
 20
44.766128
 10
138.160859
 20
44.766128
 10
138.160859
 20
43.169253
 10
141.157734
 20
43.169253
 10
141.157734
 20
44.766128
  0
LWPOLYLINE
  8
0
 62
7
 90
5
 70
1
 10
146.557297
 20
44.099128
 10
143.701359
 20
44.099128
 10
143.701359
 20
39.276253
 10
149.413234
 20
39.276253
 10
149.413234
 20
44.099128
  0
LWPOLYLINE
  8
0
 62
7
 90
5
 70
1
 10
137.830497
 20
60.653128
 10
136.332059
 20
60.653128
 10
136.332059
 20
59.056253
 10
139.328934
 20
59.056253
 10
139.328934
 20
60.653128
  0
LWPOLYLINE
  8
0
 62
7
 90
5
 70
1
 10
137.830497
 20
65.213128
 10
136.332059
 20
65.213128
 10
136.332059
 20
63.616253
 10
139.328934
 20
63.616253
 10
139.328934
 20
65.213128
  0
LWPOLYLINE
  8
0
 62
7
 90
5
 70
1
 10
144.728497
 20
64.546128
 10
141.872559
 20
64.546128
 10
141.872559
 20
59.723253
 10
147.584434
 20
59.723253
 10
147.584434
 20
64.546128
  0
LWPOLYLINE
  8
0
 62
7
 90
5
 70
1
 10
144.503734
 20
77.045891
 10
144.503734
 20
78.544328
 10
142.906859
 20
78.544328
 10
142.906859
 20
75.547453
 10
144.503734
 20
75.547453
  0
LWPOLYLINE
  8
0
 62
7
 90
5
 70
1
 10
149.063734
 20
77.045891
 10
149.063734
 20
78.544328
 10
147.466859
 20
78.544328
 10
147.466859
 20
75.547453
 10
149.063734
 20
75.547453
  0
LWPOLYLINE
  8
0
 62
7
 90
5
 70
1
 10
148.396734
 20
70.147891
 10
148.396734
 20
73.003828
 10
143.573859
 20
73.003828
 10
143.573859
 20
67.291953
 10
148.396734
 20
67.291953
  0
LWPOLYLINE
  8
0
 62
7
 90
5
 70
1
 10
80.409734
 20
55.235291
 10
80.409734
 20
55.683728
 10
79.612859
 20
55.683728
 10
79.612859
 20
54.786853
 10
80.409734
 20
54.786853
  0
LWPOLYLINE
  8
0
 62
7
 90
5
 70
1
 10
82.309734
 20
55.235291
 10
82.309734
 20
55.683728
 10
81.512859
 20
55.683728
 10
81.512859
 20
54.786853
 10
82.309734
 20
54.786853
  0
LWPOLYLINE
  8
0
 62
7
 90
5
 70
1
 10
81.359734
 20
53.135291
 10
81.359734
 20
53.583728
 10
80.562859
 20
53.583728
 10
80.562859
 20
52.686853
 10
81.359734
 20
52.686853
  0
LWPOLYLINE
  8
0
 62
7
 90
5
 70
1
 10
80.384334
 20
59.070691
 10
80.384334
 20
59.519128
 10
79.587459
 20
59.519128
 10
79.587459
 20
58.622253
 10
80.384334
 20
58.622253
  0
LWPOLYLINE
  8
0
 62
7
 90
5
 70
1
 10
82.284334
 20
59.070691
 10
82.284334
 20
59.519128
 10
81.487459
 20
59.519128
 10
81.487459
 20
58.622253
 10
82.284334
 20
58.622253
  0
LWPOLYLINE
  8
0
 62
7
 90
5
 70
1
 10
81.334334
 20
56.970691
 10
81.334334
 20
57.419128
 10
80.537459
 20
57.419128
 10
80.537459
 20
56.522253
 10
81.334334
 20
56.522253
  0
LWPOLYLINE
  8
0
 62
7
 90
5
 70
1
 10
6.293659
 20
21.772691
 10
6.293659
 20
20.274253
 10
7.890534
 20
20.274253
 10
7.890534
 20
23.271128
 10
6.293659
 20
23.271128
  0
LWPOLYLINE
  8
0
 62
7
 90
5
 70
1
 10
1.733659
 20
21.772691
 10
1.733659
 20
20.274253
 10
3.330534
 20
20.274253
 10
3.330534
 20
23.271128
 10
1.733659
 20
23.271128
  0
LWPOLYLINE
  8
0
 62
7
 90
5
 70
1
 10
2.400659
 20
28.670691
 10
2.400659
 20
25.814753
 10
7.223534
 20
25.814753
 10
7.223534
 20
31.526628
 10
2.400659
 20
31.526628
  0
LWPOLYLINE
  8
0
 62
7
 90
5
 70
1
 10
91.781697
 20
30.415728
 10
91.083259
 20
30.415728
 10
91.083259
 20
29.318853
 10
92.480134
 20
29.318853
 10
92.480134
 20
30.415728
  0
LWPOLYLINE
  8
0
 62
7
 90
5
 70
1
 10
91.781697
 20
32.415728
 10
91.083259
 20
32.415728
 10
91.083259
 20
31.318853
 10
92.480134
 20
31.318853
 10
92.480134
 20
32.415728
  0
LWPOLYLINE
  8
0
 62
7
 90
5
 70
1
 10
95.363097
 20
30.441128
 10
94.664659
 20
30.441128
 10
94.664659
 20
29.344253
 10
96.061534
 20
29.344253
 10
96.061534
 20
30.441128
  0
LWPOLYLINE
  8
0
 62
7
 90
5
 70
1
 10
95.363097
 20
32.441128
 10
94.664659
 20
32.441128
 10
94.664659
 20
31.344253
 10
96.061534
 20
31.344253
 10
96.061534
 20
32.441128
  0
LWPOLYLINE
  8
0
 62
7
 90
5
 70
1
 10
88.276497
 20
30.415728
 10
87.578059
 20
30.415728
 10
87.578059
 20
29.318853
 10
88.974934
 20
29.318853
 10
88.974934
 20
30.415728
  0
LWPOLYLINE
  8
0
 62
7
 90
5
 70
1
 10
88.276497
 20
32.415728
 10
87.578059
 20
32.415728
 10
87.578059
 20
31.318853
 10
88.974934
 20
31.318853
 10
88.974934
 20
32.415728
  0
LWPOLYLINE
  8
0
 62
7
 90
5
 70
1
 10
24.800259
 20
24.999891
 10
24.800259
 20
24.251453
 10
26.097134
 20
24.251453
 10
26.097134
 20
25.748328
 10
24.800259
 20
25.748328
  0
LWPOLYLINE
  8
0
 62
7
 90
5
 70
1
 10
23.100259
 20
24.999891
 10
23.100259
 20
24.251453
 10
24.397134
 20
24.251453
 10
24.397134
 20
25.748328
 10
23.100259
 20
25.748328
  0
LWPOLYLINE
  8
0
 62
7
 90
5
 70
1
 10
39.402462
 20
8.293100
 10
39.402462
 20
7.594663
 10
40.499337
 20
7.594663
 10
40.499337
 20
8.991538
 10
39.402462
 20
8.991538
  0
LWPOLYLINE
  8
0
 62
7
 90
5
 70
1
 10
37.402462
 20
8.293100
 10
37.402462
 20
7.594663
 10
38.499337
 20
7.594663
 10
38.499337
 20
8.991538
 10
37.402462
 20
8.991538
  0
LWPOLYLINE
  8
0
 62
7
 90
5
 70
1
 10
60.946097
 20
11.412528
 10
60.197659
 20
11.412528
 10
60.197659
 20
10.115653
 10
61.694534
 20
10.115653
 10
61.694534
 20
11.412528
  0
LWPOLYLINE
  8
0
 62
7
 90
5
 70
1
 10
60.946097
 20
13.112528
 10
60.197659
 20
13.112528
 10
60.197659
 20
11.815653
 10
61.694534
 20
11.815653
 10
61.694534
 20
13.112528
  0
LWPOLYLINE
  8
0
 62
7
 90
5
 70
1
 10
39.252859
 20
6.203891
 10
39.252859
 20
5.455453
 10
40.549734
 20
5.455453
 10
40.549734
 20
6.952328
 10
39.252859
 20
6.952328
  0
LWPOLYLINE
  8
0
 62
7
 90
5
 70
1
 10
37.552859
 20
6.203891
 10
37.552859
 20
5.455453
 10
38.849734
 20
5.455453
 10
38.849734
 20
6.952328
 10
37.552859
 20
6.952328
  0
LWPOLYLINE
  8
0
 62
7
 90
5
 70
1
 10
64.806897
 20
10.955328
 10
64.058459
 20
10.955328
 10
64.058459
 20
9.658453
 10
65.555334
 20
9.658453
 10
65.555334
 20
10.955328
  0
LWPOLYLINE
  8
0
 62
7
 90
5
 70
1
 10
64.806897
 20
12.655328
 10
64.058459
 20
12.655328
 10
64.058459
 20
11.358453
 10
65.555334
 20
11.358453
 10
65.555334
 20
12.655328
  0
LWPOLYLINE
  8
0
 62
7
 90
5
 70
1
 10
83.679097
 20
54.763053
 10
84.377534
 20
54.763053
 10
84.377534
 20
55.859928
 10
82.980659
 20
55.859928
 10
82.980659
 20
54.763053
  0
LWPOLYLINE
  8
0
 62
7
 90
5
 70
1
 10
83.679097
 20
52.763053
 10
84.377534
 20
52.763053
 10
84.377534
 20
53.859928
 10
82.980659
 20
53.859928
 10
82.980659
 20
52.763053
  0
LWPOLYLINE
  8
0
 62
7
 90
5
 70
1
 10
81.362059
 20
60.712291
 10
81.362059
 20
60.013853
 10
82.458934
 20
60.013853
 10
82.458934
 20
61.410728
 10
81.362059
 20
61.410728
  0
LWPOLYLINE
  8
0
 62
7
 90
5
 70
1
 10
79.362059
 20
60.712291
 10
79.362059
 20
60.013853
 10
80.458934
 20
60.013853
 10
80.458934
 20
61.410728
 10
79.362059
 20
61.410728
  0
LWPOLYLINE
  8
0
 62
7
 90
5
 70
1
 10
77.430697
 20
58.609728
 10
76.732259
 20
58.609728
 10
76.732259
 20
57.512853
 10
78.129134
 20
57.512853
 10
78.129134
 20
58.609728
  0
LWPOLYLINE
  8
0
 62
7
 90
5
 70
1
 10
77.430697
 20
60.609728
 10
76.732259
 20
60.609728
 10
76.732259
 20
59.512853
 10
78.129134
 20
59.512853
 10
78.129134
 20
60.609728
  0
LWPOLYLINE
  8
0
 62
7
 90
5
 70
1
 10
71.715697
 20
51.257853
 10
72.414134
 20
51.257853
 10
72.414134
 20
52.354728
 10
71.017259
 20
52.354728
 10
71.017259
 20
51.257853
  0
LWPOLYLINE
  8
0
 62
7
 90
5
 70
1
 10
71.715697
 20
49.257853
 10
72.414134
 20
49.257853
 10
72.414134
 20
50.354728
 10
71.017259
 20
50.354728
 10
71.017259
 20
49.257853
  0
LWPOLYLINE
  8
0
 62
7
 90
5
 70
1
 10
74.103297
 20
51.257853
 10
74.801734
 20
51.257853
 10
74.801734
 20
52.354728
 10
73.404859
 20
52.354728
 10
73.404859
 20
51.257853
  0
LWPOLYLINE
  8
0
 62
7
 90
5
 70
1
 10
74.103297
 20
49.257853
 10
74.801734
 20
49.257853
 10
74.801734
 20
50.354728
 10
73.404859
 20
50.354728
 10
73.404859
 20
49.257853
  0
LWPOLYLINE
  8
0
 62
7
 90
5
 70
1
 10
48.222334
 20
10.928291
 10
48.222334
 20
11.676728
 10
46.925459
 20
11.676728
 10
46.925459
 20
10.179853
 10
48.222334
 20
10.179853
  0
LWPOLYLINE
  8
0
 62
7
 90
5
 70
1
 10
49.922334
 20
10.928291
 10
49.922334
 20
11.676728
 10
48.625459
 20
11.676728
 10
48.625459
 20
10.179853
 10
49.922334
 20
10.179853
  0
LWPOLYLINE
  8
0
 62
7
 90
5
 70
1
 10
26.808497
 20
37.603928
 10
26.110059
 20
37.603928
 10
26.110059
 20
36.507053
 10
27.506934
 20
36.507053
 10
27.506934
 20
37.603928
  0
LWPOLYLINE
  8
0
 62
7
 90
5
 70
1
 10
26.808497
 20
39.603928
 10
26.110059
 20
39.603928
 10
26.110059
 20
38.507053
 10
27.506934
 20
38.507053
 10
27.506934
 20
39.603928
  0
LWPOLYLINE
  8
0
 62
7
 90
5
 70
1
 10
24.624097
 20
37.553128
 10
23.925659
 20
37.553128
 10
23.925659
 20
36.456253
 10
25.322534
 20
36.456253
 10
25.322534
 20
37.553128
  0
LWPOLYLINE
  8
0
 62
7
 90
5
 70
1
 10
24.624097
 20
39.553128
 10
23.925659
 20
39.553128
 10
23.925659
 20
38.456253
 10
25.322534
 20
38.456253
 10
25.322534
 20
39.553128
  0
LWPOLYLINE
  8
0
 62
7
 90
5
 70
1
 10
98.188134
 20
59.137491
 10
98.188134
 20
59.835928
 10
97.091259
 20
59.835928
 10
97.091259
 20
58.439053
 10
98.188134
 20
58.439053
  0
LWPOLYLINE
  8
0
 62
7
 90
5
 70
1
 10
100.188134
 20
59.137491
 10
100.188134
 20
59.835928
 10
99.091259
 20
59.835928
 10
99.091259
 20
58.439053
 10
100.188134
 20
58.439053
  0
LWPOLYLINE
  8
0
 62
7
 90
5
 70
1
 10
106.335897
 20
56.718853
 10
107.034334
 20
56.718853
 10
107.034334
 20
57.815728
 10
105.637459
 20
57.815728
 10
105.637459
 20
56.718853
  0
LWPOLYLINE
  8
0
 62
7
 90
5
 70
1
 10
106.335897
 20
54.718853
 10
107.034334
 20
54.718853
 10
107.034334
 20
55.815728
 10
105.637459
 20
55.815728
 10
105.637459
 20
54.718853
  0
LWPOLYLINE
  8
0
 62
7
 90
5
 70
1
 10
98.188134
 20
54.997291
 10
98.188134
 20
55.695728
 10
97.091259
 20
55.695728
 10
97.091259
 20
54.298853
 10
98.188134
 20
54.298853
  0
LWPOLYLINE
  8
0
 62
7
 90
5
 70
1
 10
100.188134
 20
54.997291
 10
100.188134
 20
55.695728
 10
99.091259
 20
55.695728
 10
99.091259
 20
54.298853
 10
100.188134
 20
54.298853
  0
LWPOLYLINE
  8
0
 62
7
 90
5
 70
1
 10
109.973734
 20
60.077291
 10
109.973734
 20
60.775728
 10
108.876859
 20
60.775728
 10
108.876859
 20
59.378853
 10
109.973734
 20
59.378853
  0
LWPOLYLINE
  8
0
 62
7
 90
5
 70
1
 10
111.973734
 20
60.077291
 10
111.973734
 20
60.775728
 10
110.876859
 20
60.775728
 10
110.876859
 20
59.378853
 10
111.973734
 20
59.378853
  0
LWPOLYLINE
  8
0
 62
7
 90
5
 70
1
 10
45.653659
 20
18.853091
 10
45.653659
 20
18.104653
 10
46.950534
 20
18.104653
 10
46.950534
 20
19.601528
 10
45.653659
 20
19.601528
  0
LWPOLYLINE
  8
0
 62
7
 90
5
 70
1
 10
43.953659
 20
18.853091
 10
43.953659
 20
18.104653
 10
45.250534
 20
18.104653
 10
45.250534
 20
19.601528
 10
43.953659
 20
19.601528
  0
LWPOLYLINE
  8
0
 62
7
 90
5
 70
1
 10
45.526659
 20
15.017691
 10
45.526659
 20
14.269253
 10
46.823534
 20
14.269253
 10
46.823534
 20
15.766128
 10
45.526659
 20
15.766128
  0
LWPOLYLINE
  8
0
 62
7
 90
5
 70
1
 10
43.826659
 20
15.017691
 10
43.826659
 20
14.269253
 10
45.123534
 20
14.269253
 10
45.123534
 20
15.766128
 10
43.826659
 20
15.766128
  0
LWPOLYLINE
  8
0
 62
7
 90
5
 70
1
 10
66.204734
 20
27.540291
 10
66.204734
 20
28.138728
 10
65.307859
 20
28.138728
 10
65.307859
 20
26.941853
 10
66.204734
 20
26.941853
  0
LWPOLYLINE
  8
0
 62
7
 90
5
 70
1
 10
64.934734
 20
27.540291
 10
64.934734
 20
28.138728
 10
64.037859
 20
28.138728
 10
64.037859
 20
26.941853
 10
64.934734
 20
26.941853
  0
LWPOLYLINE
  8
0
 62
7
 90
5
 70
1
 10
64.934734
 20
33.940291
 10
64.934734
 20
34.538728
 10
64.037859
 20
34.538728
 10
64.037859
 20
33.341853
 10
64.934734
 20
33.341853
  0
LWPOLYLINE
  8
0
 62
7
 90
5
 70
1
 10
66.204734
 20
33.940291
 10
66.204734
 20
34.538728
 10
65.307859
 20
34.538728
 10
65.307859
 20
33.341853
 10
66.204734
 20
33.341853
  0
LWPOLYLINE
  8
0
 62
7
 90
5
 70
1
 10
69.278134
 20
27.514891
 10
69.278134
 20
28.113328
 10
68.381259
 20
28.113328
 10
68.381259
 20
26.916453
 10
69.278134
 20
26.916453
  0
LWPOLYLINE
  8
0
 62
7
 90
5
 70
1
 10
68.008134
 20
27.514891
 10
68.008134
 20
28.113328
 10
67.111259
 20
28.113328
 10
67.111259
 20
26.916453
 10
68.008134
 20
26.916453
  0
LWPOLYLINE
  8
0
 62
7
 90
5
 70
1
 10
68.008134
 20
33.914891
 10
68.008134
 20
34.513328
 10
67.111259
 20
34.513328
 10
67.111259
 20
33.316453
 10
68.008134
 20
33.316453
  0
LWPOLYLINE
  8
0
 62
7
 90
5
 70
1
 10
69.278134
 20
33.914891
 10
69.278134
 20
34.513328
 10
68.381259
 20
34.513328
 10
68.381259
 20
33.316453
 10
69.278134
 20
33.316453
  0
LWPOLYLINE
  8
0
 62
7
 90
5
 70
1
 10
48.976334
 20
33.133891
 10
48.976334
 20
33.732328
 10
48.379459
 20
33.732328
 10
48.379459
 20
32.535453
 10
48.976334
 20
32.535453
  0
LWPOLYLINE
  8
0
 62
7
 90
5
 70
1
 10
50.246334
 20
33.133891
 10
50.246334
 20
33.732328
 10
49.649459
 20
33.732328
 10
49.649459
 20
32.535453
 10
50.246334
 20
32.535453
  0
LWPOLYLINE
  8
0
 62
7
 90
5
 70
1
 10
51.516334
 20
33.133891
 10
51.516334
 20
33.732328
 10
50.919459
 20
33.732328
 10
50.919459
 20
32.535453
 10
51.516334
 20
32.535453
  0
LWPOLYLINE
  8
0
 62
7
 90
5
 70
1
 10
52.786334
 20
33.133891
 10
52.786334
 20
33.732328
 10
52.189459
 20
33.732328
 10
52.189459
 20
32.535453
 10
52.786334
 20
32.535453
  0
LWPOLYLINE
  8
0
 62
7
 90
5
 70
1
 10
54.056334
 20
33.133891
 10
54.056334
 20
33.732328
 10
53.459459
 20
33.732328
 10
53.459459
 20
32.535453
 10
54.056334
 20
32.535453
  0
LWPOLYLINE
  8
0
 62
7
 90
5
 70
1
 10
55.326334
 20
33.133891
 10
55.326334
 20
33.732328
 10
54.729459
 20
33.732328
 10
54.729459
 20
32.535453
 10
55.326334
 20
32.535453
  0
LWPOLYLINE
  8
0
 62
7
 90
5
 70
1
 10
56.596334
 20
33.133891
 10
56.596334
 20
33.732328
 10
55.999459
 20
33.732328
 10
55.999459
 20
32.535453
 10
56.596334
 20
32.535453
  0
LWPOLYLINE
  8
0
 62
7
 90
5
 70
1
 10
57.866334
 20
33.133891
 10
57.866334
 20
33.732328
 10
57.269459
 20
33.732328
 10
57.269459
 20
32.535453
 10
57.866334
 20
32.535453
  0
LWPOLYLINE
  8
0
 62
7
 90
5
 70
1
 10
57.866334
 20
27.533891
 10
57.866334
 20
28.132328
 10
57.269459
 20
28.132328
 10
57.269459
 20
26.935453
 10
57.866334
 20
26.935453
  0
LWPOLYLINE
  8
0
 62
7
 90
5
 70
1
 10
56.596334
 20
27.533891
 10
56.596334
 20
28.132328
 10
55.999459
 20
28.132328
 10
55.999459
 20
26.935453
 10
56.596334
 20
26.935453
  0
LWPOLYLINE
  8
0
 62
7
 90
5
 70
1
 10
55.326334
 20
27.533891
 10
55.326334
 20
28.132328
 10
54.729459
 20
28.132328
 10
54.729459
 20
26.935453
 10
55.326334
 20
26.935453
  0
LWPOLYLINE
  8
0
 62
7
 90
5
 70
1
 10
54.056334
 20
27.533891
 10
54.056334
 20
28.132328
 10
53.459459
 20
28.132328
 10
53.459459
 20
26.935453
 10
54.056334
 20
26.935453
  0
LWPOLYLINE
  8
0
 62
7
 90
5
 70
1
 10
52.786334
 20
27.533891
 10
52.786334
 20
28.132328
 10
52.189459
 20
28.132328
 10
52.189459
 20
26.935453
 10
52.786334
 20
26.935453
  0
LWPOLYLINE
  8
0
 62
7
 90
5
 70
1
 10
51.516334
 20
27.533891
 10
51.516334
 20
28.132328
 10
50.919459
 20
28.132328
 10
50.919459
 20
26.935453
 10
51.516334
 20
26.935453
  0
LWPOLYLINE
  8
0
 62
7
 90
5
 70
1
 10
50.246334
 20
27.533891
 10
50.246334
 20
28.132328
 10
49.649459
 20
28.132328
 10
49.649459
 20
26.935453
 10
50.246334
 20
26.935453
  0
LWPOLYLINE
  8
0
 62
7
 90
5
 70
1
 10
48.976334
 20
27.533891
 10
48.976334
 20
28.132328
 10
48.379459
 20
28.132328
 10
48.379459
 20
26.935453
 10
48.976334
 20
26.935453
  0
LWPOLYLINE
  8
0
 62
7
 90
5
 70
1
 10
141.033859
 20
70.872291
 10
141.033859
 20
69.857853
 10
141.691134
 20
69.857853
 10
141.691134
 20
71.886728
 10
141.033859
 20
71.886728
  0
LWPOLYLINE
  8
0
 62
7
 90
5
 70
1
 10
139.763859
 20
70.872291
 10
139.763859
 20
69.857853
 10
140.421134
 20
69.857853
 10
140.421134
 20
71.886728
 10
139.763859
 20
71.886728
  0
LWPOLYLINE
  8
0
 62
7
 90
5
 70
1
 10
138.493859
 20
70.872291
 10
138.493859
 20
69.857853
 10
139.151134
 20
69.857853
 10
139.151134
 20
71.886728
 10
138.493859
 20
71.886728
  0
LWPOLYLINE
  8
0
 62
7
 90
5
 70
1
 10
137.223859
 20
70.872291
 10
137.223859
 20
69.857853
 10
137.881134
 20
69.857853
 10
137.881134
 20
71.886728
 10
137.223859
 20
71.886728
  0
LWPOLYLINE
  8
0
 62
7
 90
5
 70
1
 10
137.223859
 20
77.019091
 10
137.223859
 20
76.004653
 10
137.881134
 20
76.004653
 10
137.881134
 20
78.033528
 10
137.223859
 20
78.033528
  0
LWPOLYLINE
  8
0
 62
7
 90
5
 70
1
 10
138.493859
 20
77.019091
 10
138.493859
 20
76.004653
 10
139.151134
 20
76.004653
 10
139.151134
 20
78.033528
 10
138.493859
 20
78.033528
  0
LWPOLYLINE
  8
0
 62
7
 90
5
 70
1
 10
139.763859
 20
77.019091
 10
139.763859
 20
76.004653
 10
140.421134
 20
76.004653
 10
140.421134
 20
78.033528
 10
139.763859
 20
78.033528
  0
LWPOLYLINE
  8
0
 62
7
 90
5
 70
1
 10
141.033859
 20
77.019091
 10
141.033859
 20
76.004653
 10
141.691134
 20
76.004653
 10
141.691134
 20
78.033528
 10
141.033859
 20
78.033528
  0
LWPOLYLINE
  8
0
 62
7
 90
5
 70
1
 10
5.169259
 20
33.356491
 10
5.169259
 20
32.342053
 10
5.826534
 20
32.342053
 10
5.826534
 20
34.370928
 10
5.169259
 20
34.370928
  0
LWPOLYLINE
  8
0
 62
7
 90
5
 70
1
 10
3.899259
 20
33.356491
 10
3.899259
 20
32.342053
 10
4.556534
 20
32.342053
 10
4.556534
 20
34.370928
 10
3.899259
 20
34.370928
  0
LWPOLYLINE
  8
0
 62
7
 90
5
 70
1
 10
2.629259
 20
33.356491
 10
2.629259
 20
32.342053
 10
3.286534
 20
32.342053
 10
3.286534
 20
34.370928
 10
2.629259
 20
34.370928
  0
LWPOLYLINE
  8
0
 62
7
 90
5
 70
1
 10
1.359259
 20
33.356491
 10
1.359259
 20
32.342053
 10
2.016534
 20
32.342053
 10
2.016534
 20
34.370928
 10
1.359259
 20
34.370928
  0
LWPOLYLINE
  8
0
 62
7
 90
5
 70
1
 10
1.359259
 20
39.503291
 10
1.359259
 20
38.488853
 10
2.016534
 20
38.488853
 10
2.016534
 20
40.517728
 10
1.359259
 20
40.517728
  0
LWPOLYLINE
  8
0
 62
7
 90
5
 70
1
 10
2.629259
 20
39.503291
 10
2.629259
 20
38.488853
 10
3.286534
 20
38.488853
 10
3.286534
 20
40.517728
 10
2.629259
 20
40.517728
  0
LWPOLYLINE
  8
0
 62
7
 90
5
 70
1
 10
3.899259
 20
39.503291
 10
3.899259
 20
38.488853
 10
4.556534
 20
38.488853
 10
4.556534
 20
40.517728
 10
3.899259
 20
40.517728
  0
LWPOLYLINE
  8
0
 62
7
 90
5
 70
1
 10
5.169259
 20
39.503291
 10
5.169259
 20
38.488853
 10
5.826534
 20
38.488853
 10
5.826534
 20
40.517728
 10
5.169259
 20
40.517728
  0
ENDSEC
  0
EOF
