%
M48
M72
T01C0.0236
T02C0.0315
T03C0.0354
T04C0.0400
T05C0.0472
T06C0.0512
T07C0.0551
T08C0.0591
T09C0.0790
T10C0.1102
%
T01
X9016Y8629
X10176Y10859
X13156Y12019
X13944Y10969
X16436Y12559
X16356Y15139
X16326Y16159
X15706Y16119
X16996Y16209
X15946Y17509
X16136Y18039
X15596Y18299
X16146Y18949
X16066Y19859
X15506Y19949
X13456Y18829
X12976Y19329
X11666Y19389
X10906Y19859
X10416Y19619
X10066Y19179
X9696Y18809
X7296Y19189
X8186Y20709
X8806Y20589
X10356Y21689
X11766Y21309
X14986Y21459
X14976Y22859
X18376Y22999
X18496Y22209
X23136Y21819
X25356Y21449
X29596Y25919
X29836Y28099
X31966Y28049
X33536Y27599
X36566Y27909
X36536Y29779
X36226Y25609
X36046Y24719
X35086Y24629
X34366Y25639
X22576Y26309
X19736Y26559
X20016Y29079
X3226Y19809
X1826Y20169
X5156Y17009
X4896Y16239
X7486Y14379
X8716Y14449
X9936Y15079
X12506Y17619
X14146Y18169
X3496Y13859
X1716Y15229
X25976Y7529
X27346Y11779
T02
X16796Y17144
X16796Y17934
X16796Y18724
X16796Y19514
X16796Y20304
X16796Y21094
X16796Y21884
X16796Y22674
X16796Y23464
X16796Y24254
X16796Y25044
X16796Y25834
X16796Y26624
X16796Y27414
X16796Y28204
X16796Y28994
X16796Y29784
X16796Y30574
X16796Y31364
X16796Y32154
X2576Y32154
X2576Y31364
X2576Y30574
X2576Y29784
X2576Y28994
X2576Y28204
X2576Y27414
X2576Y26624
X2576Y25834
X2576Y25044
X2576Y24254
X2576Y23464
X2576Y22674
X2576Y21884
X2576Y21094
X2576Y20304
X2576Y19514
X2576Y18724
X2576Y17934
X2576Y17144
X4586Y14705
X5570Y14705
X5570Y13917
X4586Y13917
X4586Y13130
X5570Y13130
X5570Y12343
X4586Y12343
X4586Y11555
X5570Y11555
X5570Y10768
X4586Y10768
X4586Y9980
X5570Y9980
X5570Y9193
X4586Y9193
X7030Y5623
X7817Y5623
X8604Y5623
X9392Y5623
X10179Y5623
X10967Y5623
X11754Y5623
X12541Y5623
X12541Y4639
X11754Y4639
X10967Y4639
X10179Y4639
X9392Y4639
X8604Y4639
X7817Y4639
X7030Y4639
X14800Y4639
X15587Y4639
X16374Y4639
X17162Y4639
X17949Y4639
X18737Y4639
X19524Y4639
X20311Y4639
X20311Y5623
X19524Y5623
X18737Y5623
X17949Y5623
X17162Y5623
X16374Y5623
X15587Y5623
X14800Y5623
T03
X33179Y31725
X34912Y31725
T04
X34676Y29459
X35676Y29359
X33676Y29359
X32676Y29459
X22776Y31679
X21776Y31679
X21776Y32679
X22776Y32679
X20776Y32679
X19776Y32679
X19776Y31679
X20776Y31679
X35716Y21539
X35616Y20539
X35716Y19539
X21376Y19759
X21376Y18759
X21376Y17759
X18176Y14659
X17176Y14659
X17176Y13659
X18176Y13659
X18176Y12659
X17176Y12659
X4756Y7369
X2196Y7369
X2196Y5589
X4756Y5589
T05
X40326Y5839
X40326Y13739
X61826Y16689
X61776Y9589
T06
X39836Y20209
X39836Y28109
X58336Y31009
X58336Y24099
T07
X61176Y24019
X61176Y26019
X36916Y5859
X34916Y5859
X32806Y5879
X30806Y5879
X28736Y5909
X26736Y5909
X24656Y5929
X22656Y5929
T08
X24626Y26129
X26626Y26129
X28626Y26129
X30626Y26129
X30581Y29469
X28613Y29469
X26644Y29469
X24676Y29469
T09
X33006Y15239
X33006Y11239
T10
X2986Y3019
X5516Y31339
X62056Y20549
M30
