G75*
G70*
%OFA0B0*%
%FSLAX24Y24*%
%IPPOS*%
%LPD*%
%AMOC8*
5,1,8,0,0,1.08239X$1,22.5*
%
%ADD10R,0.0138X0.0591*%
%ADD11R,0.0591X0.0138*%
%ADD12R,0.0472X0.0472*%
%ADD13R,0.0512X0.0591*%
%ADD14R,0.0551X0.0433*%
%ADD15R,0.0591X0.0512*%
%ADD16R,0.0394X0.1614*%
%ADD17R,0.0157X0.0591*%
%ADD18R,0.0630X0.0710*%
%ADD19R,0.0315X0.0472*%
%ADD20R,0.0240X0.0600*%
%ADD21R,0.0787X0.0945*%
%ADD22R,0.0197X0.0909*%
%ADD23R,0.0591X0.0157*%
%ADD24R,0.0433X0.0551*%
%ADD25R,0.0354X0.0551*%
%ADD26R,0.0315X0.0630*%
%ADD27R,0.0630X0.0315*%
%ADD28R,0.0472X0.0315*%
%ADD29R,0.2126X0.2441*%
%ADD30R,0.0394X0.0630*%
%ADD31R,0.0787X0.0866*%
%ADD32R,0.0866X0.0787*%
D10*
X009383Y014379D03*
X009580Y014379D03*
X009777Y014379D03*
X009974Y014379D03*
X010171Y014379D03*
X010368Y014379D03*
X010564Y014379D03*
X010761Y014379D03*
X010958Y014379D03*
X011155Y014379D03*
X011352Y014379D03*
X011549Y014379D03*
X011746Y014379D03*
X011942Y014379D03*
X012139Y014379D03*
X012336Y014379D03*
X012533Y014379D03*
X012730Y014379D03*
X012927Y014379D03*
X013124Y014379D03*
X013320Y014379D03*
X013517Y014379D03*
X013714Y014379D03*
X013911Y014379D03*
X014108Y014379D03*
X014108Y020679D03*
X013911Y020679D03*
X013714Y020679D03*
X013517Y020679D03*
X013320Y020679D03*
X013124Y020679D03*
X012927Y020679D03*
X012730Y020679D03*
X012533Y020679D03*
X012336Y020679D03*
X012139Y020679D03*
X011942Y020679D03*
X011746Y020679D03*
X011549Y020679D03*
X011352Y020679D03*
X011155Y020679D03*
X010958Y020679D03*
X010761Y020679D03*
X010564Y020679D03*
X010368Y020679D03*
X010171Y020679D03*
X009974Y020679D03*
X009777Y020679D03*
X009580Y020679D03*
X009383Y020679D03*
D11*
X008596Y019891D03*
X008596Y019694D03*
X008596Y019497D03*
X008596Y019301D03*
X008596Y019104D03*
X008596Y018907D03*
X008596Y018710D03*
X008596Y018513D03*
X008596Y018316D03*
X008596Y018119D03*
X008596Y017923D03*
X008596Y017726D03*
X008596Y017529D03*
X008596Y017332D03*
X008596Y017135D03*
X008596Y016938D03*
X008596Y016741D03*
X008596Y016545D03*
X008596Y016348D03*
X008596Y016151D03*
X008596Y015954D03*
X008596Y015757D03*
X008596Y015560D03*
X008596Y015364D03*
X008596Y015167D03*
X014895Y015167D03*
X014895Y015364D03*
X014895Y015560D03*
X014895Y015757D03*
X014895Y015954D03*
X014895Y016151D03*
X014895Y016348D03*
X014895Y016545D03*
X014895Y016741D03*
X014895Y016938D03*
X014895Y017135D03*
X014895Y017332D03*
X014895Y017529D03*
X014895Y017726D03*
X014895Y017923D03*
X014895Y018119D03*
X014895Y018316D03*
X014895Y018513D03*
X014895Y018710D03*
X014895Y018907D03*
X014895Y019104D03*
X014895Y019301D03*
X014895Y019497D03*
X014895Y019694D03*
X014895Y019891D03*
D12*
X019626Y022806D03*
X021066Y022786D03*
X022466Y022826D03*
X022466Y023652D03*
X021066Y023612D03*
X019626Y023632D03*
X026712Y016389D03*
X027539Y016389D03*
X027559Y015459D03*
X026732Y015459D03*
X033772Y023169D03*
X034599Y023169D03*
X034609Y024089D03*
X033782Y024089D03*
X008636Y012062D03*
X008636Y011236D03*
D13*
X006300Y019189D03*
X005631Y019189D03*
X012541Y021539D03*
X013210Y021539D03*
D14*
X007416Y020793D03*
X007416Y020005D03*
X008636Y013753D03*
X008636Y012965D03*
X019626Y020825D03*
X019626Y021613D03*
X021056Y021593D03*
X021056Y020805D03*
X022446Y020825D03*
X022446Y021613D03*
D15*
X006556Y020744D03*
X006556Y020074D03*
X009006Y010284D03*
X009006Y009614D03*
X017146Y009694D03*
X017146Y010364D03*
D16*
X007706Y017569D03*
X007116Y017569D03*
X006525Y017569D03*
D17*
X010184Y008902D03*
X010440Y008902D03*
X010696Y008902D03*
X010952Y008902D03*
X011208Y008902D03*
X011464Y008902D03*
X011719Y008902D03*
X011975Y008902D03*
X012231Y008902D03*
X012487Y008902D03*
X013944Y008862D03*
X014200Y008862D03*
X014456Y008862D03*
X014712Y008862D03*
X014968Y008862D03*
X015224Y008862D03*
X015479Y008862D03*
X015735Y008862D03*
X015991Y008862D03*
X016247Y008862D03*
X016247Y011716D03*
X015991Y011716D03*
X015735Y011716D03*
X015479Y011716D03*
X015224Y011716D03*
X014968Y011716D03*
X014712Y011716D03*
X014456Y011716D03*
X014200Y011716D03*
X013944Y011716D03*
X012487Y011756D03*
X012231Y011756D03*
X011975Y011756D03*
X011719Y011756D03*
X011464Y011756D03*
X011208Y011756D03*
X010952Y011756D03*
X010696Y011756D03*
X010440Y011756D03*
X010184Y011756D03*
D18*
X019526Y014889D03*
X020645Y014889D03*
X020685Y016379D03*
X019566Y016379D03*
X019596Y013069D03*
X020715Y013069D03*
X034686Y007339D03*
X035805Y007339D03*
D19*
X022270Y013079D03*
X021561Y013079D03*
X021621Y014839D03*
X022330Y014839D03*
X025401Y015459D03*
X026110Y015459D03*
X026050Y016389D03*
X025341Y016389D03*
X022270Y016379D03*
X021561Y016379D03*
D20*
X025066Y010759D03*
X025566Y010759D03*
X026066Y010759D03*
X026566Y010759D03*
X026566Y008599D03*
X026066Y008599D03*
X025566Y008599D03*
X025066Y008599D03*
D21*
X032313Y030741D03*
X035778Y030741D03*
X035778Y032906D03*
X032313Y032906D03*
D22*
X033416Y030519D03*
X033731Y030519D03*
X034046Y030519D03*
X034361Y030519D03*
X034675Y030519D03*
D23*
X035513Y028352D03*
X035513Y028096D03*
X035513Y027840D03*
X035513Y027585D03*
X035513Y027329D03*
X035513Y027073D03*
X035513Y026817D03*
X035513Y026561D03*
X035513Y026305D03*
X035513Y026049D03*
X035513Y025793D03*
X035513Y025537D03*
X035513Y025281D03*
X035513Y025026D03*
X032658Y025026D03*
X032658Y025281D03*
X032658Y025537D03*
X032658Y025793D03*
X032658Y026049D03*
X032658Y026305D03*
X032658Y026561D03*
X032658Y026817D03*
X032658Y027073D03*
X032658Y027329D03*
X032658Y027585D03*
X032658Y027840D03*
X032658Y028096D03*
X032658Y028352D03*
D24*
X035612Y024089D03*
X036399Y024089D03*
X036399Y023169D03*
X035612Y023169D03*
D25*
X023056Y027191D03*
X022556Y027191D03*
X022056Y027191D03*
X021556Y027191D03*
X021056Y027191D03*
X020556Y027191D03*
X020056Y027191D03*
X019556Y027191D03*
X019556Y030427D03*
X020056Y030427D03*
X020556Y030427D03*
X021056Y030427D03*
X021556Y030427D03*
X022056Y030427D03*
X022556Y030427D03*
X023056Y030427D03*
D26*
X024857Y022397D03*
X025330Y022397D03*
X025802Y022397D03*
X026274Y022397D03*
X026747Y022397D03*
X027219Y022397D03*
X027692Y022397D03*
X028164Y022397D03*
X028637Y022397D03*
X029109Y022397D03*
X029582Y022397D03*
X030054Y022397D03*
X030054Y017200D03*
X029582Y017200D03*
X029109Y017200D03*
X028637Y017200D03*
X028164Y017200D03*
X027692Y017200D03*
X027219Y017200D03*
X026747Y017200D03*
X026274Y017200D03*
X025802Y017200D03*
X025330Y017200D03*
X024857Y017200D03*
D27*
X023755Y018176D03*
X023755Y018578D03*
X023755Y019051D03*
X023755Y019523D03*
X023755Y020074D03*
X023755Y020547D03*
X023755Y021019D03*
X023755Y021422D03*
X031156Y019169D03*
X031156Y018539D03*
X031156Y017909D03*
D28*
X029176Y016353D03*
X029176Y015645D03*
X033186Y008623D03*
X033186Y007915D03*
D29*
X029056Y008535D03*
D30*
X029953Y011409D03*
X028158Y011409D03*
D31*
X028415Y013129D03*
X029596Y013129D03*
X026636Y013059D03*
X025455Y013059D03*
D32*
X022986Y010749D03*
X022986Y009568D03*
M02*
