G75*
G70*
%OFA0B0*%
%FSLAX24Y24*%
%IPPOS*%
%LPD*%
%AMOC8*
5,1,8,0,0,1.08239X$1,22.5*
%
%ADD10C,0.0720*%
%ADD11R,0.0592X0.0710*%
%ADD12C,0.1380*%
%ADD13R,0.0552X0.0297*%
%ADD14C,0.0820*%
%ADD15R,0.0513X0.0631*%
%ADD16R,0.0631X0.0513*%
%ADD17R,0.0671X0.0592*%
%ADD18R,0.0592X0.0671*%
%ADD19R,0.0828X0.2757*%
%ADD20R,0.1202X0.1202*%
%ADD21C,0.1202*%
%ADD22C,0.0820*%
%ADD23R,0.0710X0.0592*%
%ADD24C,0.0966*%
%ADD25C,0.0907*%
%ADD26R,0.1576X0.1182*%
%ADD27R,0.2206X0.2521*%
%ADD28R,0.0474X0.0710*%
%ADD29R,0.1104X0.0946*%
%ADD30R,0.0820X0.0820*%
%ADD31R,0.0328X0.0407*%
%ADD32R,0.0631X0.0710*%
%ADD33R,0.0340X0.0880*%
%ADD34R,0.0552X0.0395*%
%ADD35R,0.0395X0.0552*%
%ADD36C,0.0476*%
%ADD37R,0.0476X0.0476*%
D10*
X015031Y018445D03*
X016031Y018445D03*
X016031Y019445D03*
X015031Y019445D03*
X015031Y020445D03*
X016031Y020445D03*
D11*
X014035Y018427D03*
X013287Y018427D03*
X007874Y023617D03*
X007126Y023617D03*
D12*
X001500Y001547D03*
X001500Y024907D03*
X039110Y024957D03*
X038970Y001637D03*
D13*
X012012Y018453D03*
X012012Y019201D03*
X010988Y019201D03*
X010988Y018827D03*
X010988Y018453D03*
D14*
X014670Y016617D03*
X014670Y014837D03*
X017230Y014837D03*
X017230Y016617D03*
X030880Y024787D03*
X031880Y024787D03*
X032880Y024787D03*
D15*
X028674Y013957D03*
X027886Y013957D03*
X027816Y005227D03*
X028604Y005227D03*
X022814Y004947D03*
X022026Y004947D03*
X007474Y002587D03*
X006686Y002587D03*
X005844Y002587D03*
X005056Y002587D03*
X010786Y024287D03*
X011574Y024287D03*
X012776Y024287D03*
X013564Y024287D03*
D16*
X022100Y013441D03*
X022100Y012653D03*
X021190Y012481D03*
X021190Y011693D03*
X027870Y011511D03*
X027870Y010723D03*
X030560Y008871D03*
X030560Y008083D03*
X035830Y009983D03*
X036630Y009983D03*
X037430Y009983D03*
X038230Y009983D03*
X038230Y010771D03*
X037430Y010771D03*
X036630Y010771D03*
X035830Y010771D03*
X038530Y004251D03*
X038530Y003463D03*
X027820Y002911D03*
X027820Y002123D03*
X021550Y002301D03*
X021550Y001513D03*
D17*
X021550Y003222D03*
X021550Y003892D03*
X027820Y003722D03*
X027820Y004392D03*
X022100Y011082D03*
X022100Y011752D03*
X027880Y012392D03*
X027880Y013062D03*
D18*
X028735Y013057D03*
X029405Y013057D03*
X029405Y012237D03*
X028735Y012237D03*
X028735Y011397D03*
X029405Y011397D03*
X029405Y010567D03*
X028735Y010567D03*
X023655Y011087D03*
X022985Y011087D03*
X022985Y011907D03*
X023655Y011907D03*
X023665Y012727D03*
X022995Y012727D03*
X022965Y013607D03*
X023635Y013607D03*
X028675Y004257D03*
X029345Y004257D03*
X029345Y003417D03*
X028675Y003417D03*
X028675Y002587D03*
X029345Y002587D03*
X029345Y001707D03*
X028675Y001707D03*
X023145Y001577D03*
X022475Y001577D03*
X022475Y002397D03*
X023145Y002397D03*
X023145Y003267D03*
X022475Y003267D03*
X022475Y004107D03*
X023145Y004107D03*
D19*
X034812Y002167D03*
X036348Y002167D03*
D20*
X027237Y021450D03*
D21*
X025584Y021450D03*
X023930Y021450D03*
X022276Y021450D03*
X020623Y021450D03*
X020623Y023104D03*
X022276Y023104D03*
X023930Y023104D03*
X025584Y023104D03*
X027237Y023104D03*
D22*
X031560Y007377D02*
X032300Y007377D01*
X032300Y006377D02*
X031560Y006377D01*
X031560Y005377D02*
X032300Y005377D01*
X032300Y004377D02*
X031560Y004377D01*
X031560Y003377D02*
X032300Y003377D01*
D23*
X007120Y024473D03*
X006180Y024473D03*
X006180Y025221D03*
X007120Y025221D03*
D24*
X006160Y022710D02*
X006160Y021824D01*
X008160Y021824D02*
X008160Y022710D01*
X011180Y022670D02*
X011180Y021784D01*
X013180Y021784D02*
X013180Y022670D01*
X015180Y022670D02*
X015180Y021784D01*
X004573Y020133D02*
X003687Y020133D01*
X004160Y021824D02*
X004160Y022710D01*
X004573Y018164D02*
X003687Y018164D01*
X003687Y016196D02*
X004573Y016196D01*
X004573Y014227D02*
X003687Y014227D01*
D25*
X003717Y011427D02*
X004543Y011427D01*
X004543Y009427D02*
X003717Y009427D01*
X005380Y004500D02*
X005380Y003674D01*
X007380Y003674D02*
X007380Y004500D01*
X009970Y004500D02*
X009970Y003674D01*
X011970Y003674D02*
X011970Y004500D01*
X034580Y004204D02*
X034580Y005030D01*
X036580Y005030D02*
X036580Y004204D01*
D26*
X015340Y005240D03*
X015340Y008154D03*
D27*
X006740Y016941D03*
D28*
X005842Y014067D03*
X007638Y014067D03*
D29*
X010026Y015327D03*
X011994Y015327D03*
D30*
X033880Y024787D03*
D31*
X009393Y024297D03*
X008487Y024297D03*
D32*
X008599Y025187D03*
X009701Y025187D03*
D33*
X002460Y020177D03*
X001960Y020177D03*
X001460Y020177D03*
X000960Y020177D03*
X000960Y017757D03*
X001460Y017757D03*
X001960Y017757D03*
X002460Y017757D03*
D34*
X009570Y018853D03*
X009570Y019561D03*
D35*
X010166Y017307D03*
X010874Y017307D03*
D36*
X011980Y017477D03*
X010440Y018267D03*
X008990Y018277D03*
X008620Y017647D03*
X008510Y015067D03*
X006960Y014067D03*
X005870Y014887D03*
X012540Y019327D03*
X013870Y019677D03*
X013850Y020907D03*
X010030Y020827D03*
X009500Y020217D03*
X009100Y021537D03*
X015710Y024067D03*
X018340Y025317D03*
X019450Y025487D03*
X019140Y023327D03*
X019070Y022537D03*
X023450Y018737D03*
X026030Y017777D03*
X025920Y017227D03*
X023780Y016367D03*
X023130Y015277D03*
X027020Y012827D03*
X030370Y009777D03*
X027320Y008417D03*
X030130Y006537D03*
X030500Y007227D03*
X026800Y005397D03*
X026960Y003487D03*
X022800Y006527D03*
X019600Y008227D03*
X022230Y010077D03*
X019020Y005447D03*
X017970Y003927D03*
X017970Y003327D03*
X015350Y004957D03*
X015340Y005527D03*
X011270Y008184D03*
X007905Y006512D03*
X002490Y006467D03*
X001900Y006467D03*
X001330Y006467D03*
X019900Y001027D03*
X020830Y000977D03*
X038230Y005877D03*
X038430Y005277D03*
X038630Y007077D03*
X038430Y007777D03*
X039130Y009277D03*
X039480Y003127D03*
X029530Y015877D03*
X030530Y016327D03*
X035180Y017077D03*
X037930Y016877D03*
X038260Y023187D03*
X038900Y023497D03*
X033380Y023357D03*
X030850Y023227D03*
X029780Y023417D03*
X025180Y023967D03*
X001920Y021887D03*
D37*
X021330Y008277D03*
X021330Y007677D03*
X021330Y007077D03*
X024730Y006477D03*
X024730Y005477D03*
X024730Y004577D03*
M02*
