G75*
G70*
%OFA0B0*%
%FSLAX24Y24*%
%IPPOS*%
%LPD*%
%AMOC8*
5,1,8,0,0,1.08239X$1,22.5*
%
%ADD10C,0.0720*%
%ADD11R,0.0300X0.0580*%
%ADD12R,0.0580X0.0300*%
%ADD13R,0.0474X0.1694*%
%ADD14C,0.1380*%
%ADD15R,0.0552X0.0552*%
%ADD16R,0.0710X0.0592*%
%ADD17C,0.0820*%
%ADD18R,0.0592X0.0671*%
%ADD19R,0.0789X0.0749*%
%ADD20R,0.3545X0.3860*%
%ADD21R,0.0474X0.0513*%
%ADD22R,0.1041X0.0761*%
%ADD23R,0.0761X0.1041*%
%ADD24R,0.0320X0.0950*%
%ADD25R,0.1025X0.1025*%
%ADD26R,0.0513X0.0474*%
%ADD27R,0.1202X0.1202*%
%ADD28C,0.1202*%
%ADD29C,0.0820*%
%ADD30R,0.0580X0.0330*%
%ADD31C,0.0966*%
%ADD32R,0.4332X0.4178*%
%ADD33R,0.0500X0.0930*%
%ADD34R,0.1222X0.2206*%
%ADD35R,0.0552X0.0297*%
%ADD36R,0.0710X0.0789*%
%ADD37R,0.1261X0.0710*%
%ADD38R,0.2330X0.1980*%
%ADD39C,0.0907*%
%ADD40R,0.0434X0.0552*%
%ADD41R,0.0552X0.0395*%
%ADD42R,0.0395X0.0552*%
%ADD43R,0.1080X0.1080*%
%ADD44R,0.0946X0.1104*%
%ADD45R,0.0790X0.0710*%
%ADD46R,0.0820X0.0820*%
%ADD47R,0.0631X0.0513*%
%ADD48R,0.0710X0.1615*%
%ADD49R,0.1084X0.1143*%
%ADD50C,0.0476*%
%ADD51R,0.0476X0.0476*%
D10*
X015031Y018445D03*
X016031Y018445D03*
X016031Y019445D03*
X015031Y019445D03*
X015031Y020445D03*
X016031Y020445D03*
D11*
X012610Y020109D03*
X012295Y020109D03*
X011980Y020109D03*
X011665Y020109D03*
X011351Y020109D03*
X011036Y020109D03*
X010721Y020109D03*
X010406Y020109D03*
X010406Y016729D03*
X010721Y016729D03*
X011036Y016729D03*
X011351Y016729D03*
X011665Y016729D03*
X011980Y016729D03*
X012295Y016729D03*
X012610Y016729D03*
D12*
X013198Y017317D03*
X013198Y017632D03*
X013198Y017947D03*
X013198Y018262D03*
X013198Y018576D03*
X013198Y018891D03*
X013198Y019206D03*
X013198Y019521D03*
X009818Y019521D03*
X009818Y019206D03*
X009818Y018891D03*
X009818Y018576D03*
X009818Y018262D03*
X009818Y017947D03*
X009818Y017632D03*
X009818Y017317D03*
D13*
X011870Y015083D03*
X012461Y015083D03*
X013052Y015083D03*
D14*
X001500Y001547D03*
X001500Y024907D03*
X039110Y024957D03*
X038970Y001637D03*
D15*
X039217Y005397D03*
X040043Y005397D03*
X040043Y006267D03*
X039217Y006267D03*
X039197Y007067D03*
X039177Y007757D03*
X040003Y007757D03*
X040023Y007067D03*
X039993Y008517D03*
X039167Y008517D03*
X017100Y021174D03*
X017100Y022000D03*
X007183Y005707D03*
X006357Y005707D03*
D16*
X017100Y019653D03*
X017100Y020401D03*
D17*
X017230Y016617D03*
X017230Y014837D03*
X014670Y014837D03*
X014670Y016617D03*
X030880Y024787D03*
X031880Y024787D03*
X032880Y024787D03*
D18*
X031475Y017027D03*
X030805Y017027D03*
X030825Y015527D03*
X031495Y015527D03*
D19*
X034873Y006907D03*
X036487Y006907D03*
D20*
X038596Y012607D03*
X033044Y012607D03*
X033044Y019877D03*
X038596Y019877D03*
D21*
X037360Y006902D03*
X037360Y006232D03*
X034010Y006262D03*
X034010Y006932D03*
D22*
X029332Y010781D03*
X023332Y010781D03*
X023332Y001781D03*
X029332Y001781D03*
D23*
X025930Y001897D03*
X025930Y003577D03*
X025930Y005177D03*
X025930Y006757D03*
X023430Y008677D03*
X025930Y010897D03*
X025930Y012577D03*
X025930Y014177D03*
X025930Y015757D03*
X023430Y017677D03*
X019930Y015757D03*
X019930Y014177D03*
X019930Y012577D03*
X019930Y010897D03*
X019930Y006757D03*
X019930Y005177D03*
X019930Y003577D03*
X019930Y001897D03*
X029430Y008677D03*
X029430Y017677D03*
D24*
X029320Y019977D03*
X029820Y019977D03*
X030320Y019977D03*
X030820Y019977D03*
X030820Y022037D03*
X030320Y022037D03*
X029820Y022037D03*
X029320Y022037D03*
D25*
X034804Y008197D03*
X036536Y008197D03*
D26*
X036015Y006057D03*
X035345Y006057D03*
D27*
X027237Y021450D03*
D28*
X025584Y021450D03*
X023930Y021450D03*
X022276Y021450D03*
X020623Y021450D03*
X020623Y023104D03*
X022276Y023104D03*
X023930Y023104D03*
X025584Y023104D03*
X027237Y023104D03*
D29*
X031560Y007377D02*
X032300Y007377D01*
X032300Y006377D02*
X031560Y006377D01*
X031560Y005377D02*
X032300Y005377D01*
X032300Y004377D02*
X031560Y004377D01*
X031560Y003377D02*
X032300Y003377D01*
D30*
X018140Y023720D03*
X018140Y024074D03*
D31*
X015180Y022670D02*
X015180Y021784D01*
X013180Y021784D02*
X013180Y022670D01*
X011180Y022670D02*
X011180Y021784D01*
X008160Y021824D02*
X008160Y022710D01*
X006160Y022710D02*
X006160Y021824D01*
X004160Y021824D02*
X004160Y022710D01*
X004573Y020133D02*
X003687Y020133D01*
X003687Y018164D02*
X004573Y018164D01*
X004573Y016196D02*
X003687Y016196D01*
X003687Y014227D02*
X004573Y014227D01*
D32*
X015990Y010187D03*
D33*
X015990Y006907D03*
X016660Y006907D03*
X017330Y006907D03*
X015320Y006907D03*
X014650Y006907D03*
D34*
X014061Y003597D03*
X017959Y003597D03*
D35*
X006942Y009303D03*
X006942Y009677D03*
X006942Y010051D03*
X005918Y010051D03*
X005918Y009303D03*
D36*
X005979Y008287D03*
X007081Y008287D03*
D37*
X004491Y007365D03*
X004491Y005569D03*
D38*
X001775Y006467D03*
D39*
X005380Y004500D02*
X005380Y003674D01*
X007380Y003674D02*
X007380Y004500D01*
X009970Y004500D02*
X009970Y003674D01*
X011970Y003674D02*
X011970Y004500D01*
X004543Y009427D02*
X003717Y009427D01*
X003717Y011427D02*
X004543Y011427D01*
X034580Y005030D02*
X034580Y004204D01*
X036580Y004204D02*
X036580Y005030D01*
D40*
X008624Y011747D03*
X008124Y011747D03*
X008124Y014267D03*
X008624Y014267D03*
D41*
X007970Y009671D03*
X007970Y008963D03*
D42*
X007054Y006937D03*
X006346Y006937D03*
X009226Y013437D03*
X009934Y013437D03*
X009934Y014117D03*
X009226Y014117D03*
X001754Y022587D03*
X001046Y022587D03*
D43*
X005910Y018332D03*
X005910Y016482D03*
D44*
X007480Y016483D03*
X007480Y018451D03*
D45*
X006000Y019637D03*
X006000Y020757D03*
D46*
X033880Y024787D03*
D47*
X028110Y019611D03*
X028110Y018823D03*
X030720Y008891D03*
X030720Y008103D03*
X024730Y007713D03*
X024730Y008501D03*
D48*
X011270Y008184D03*
X011270Y011530D03*
D49*
X012448Y006147D03*
X009952Y006147D03*
D50*
X007905Y006512D03*
X011270Y008184D03*
X015340Y005527D03*
X015350Y004957D03*
X017970Y003927D03*
X017970Y003327D03*
X019020Y005447D03*
X022800Y006527D03*
X019600Y008227D03*
X022230Y010077D03*
X027320Y008417D03*
X030130Y006537D03*
X030500Y007227D03*
X026800Y005397D03*
X026960Y003487D03*
X020830Y000977D03*
X019900Y001027D03*
X030370Y009777D03*
X027020Y012827D03*
X023130Y015277D03*
X023780Y016367D03*
X025920Y017227D03*
X026030Y017777D03*
X023450Y018737D03*
X019070Y022537D03*
X019140Y023327D03*
X018340Y025317D03*
X019450Y025487D03*
X015710Y024067D03*
X013850Y020907D03*
X013870Y019677D03*
X012540Y019327D03*
X010440Y018267D03*
X008990Y018277D03*
X008620Y017647D03*
X011980Y017477D03*
X008510Y015067D03*
X006960Y014067D03*
X005870Y014887D03*
X009500Y020217D03*
X010030Y020827D03*
X009100Y021537D03*
X001920Y021887D03*
X025180Y023967D03*
X029780Y023417D03*
X030850Y023227D03*
X033380Y023357D03*
X038260Y023187D03*
X038900Y023497D03*
X035180Y017077D03*
X037930Y016877D03*
X030530Y016327D03*
X029530Y015877D03*
X039130Y009277D03*
X038430Y007777D03*
X038630Y007077D03*
X038230Y005877D03*
X038430Y005277D03*
X039480Y003127D03*
X002490Y006467D03*
X001900Y006467D03*
X001330Y006467D03*
D51*
X021330Y007077D03*
X021330Y007677D03*
X021330Y008277D03*
X024730Y006477D03*
X024730Y005477D03*
X024730Y004577D03*
M02*
