G75*
G70*
%OFA0B0*%
%FSLAX24Y24*%
%IPPOS*%
%LPD*%
%AMOC8*
5,1,8,0,0,1.08239X$1,22.5*
%
%ADD10C,0.0100*%
%ADD11C,0.0050*%
%ADD12C,0.0080*%
%ADD13R,0.2441X0.0492*%
%ADD14R,0.0340X0.0300*%
%ADD15C,0.0090*%
%ADD16C,0.0000*%
D10*
X000180Y000227D02*
X000180Y026227D01*
X040680Y026227D01*
X040680Y000227D01*
X000180Y000227D01*
X000180Y026227D01*
X040680Y026227D01*
X040680Y000227D01*
X000180Y000227D01*
X004812Y001704D02*
X004879Y001637D01*
X005012Y001637D01*
X005079Y001704D01*
X005079Y001770D01*
X005012Y001837D01*
X004879Y001837D01*
X004812Y001770D01*
X004812Y001704D01*
X004879Y001837D02*
X004812Y001904D01*
X004812Y001971D01*
X004879Y002037D01*
X005012Y002037D01*
X005079Y001971D01*
X005079Y001904D01*
X005012Y001837D01*
X005273Y001770D02*
X005273Y001704D01*
X005339Y001637D01*
X005473Y001637D01*
X005540Y001704D01*
X005406Y001837D02*
X005339Y001837D01*
X005273Y001770D01*
X005339Y001837D02*
X005273Y001904D01*
X005273Y001971D01*
X005339Y002037D01*
X005473Y002037D01*
X005540Y001971D01*
X005733Y001971D02*
X005733Y001837D01*
X005800Y001770D01*
X006000Y001770D01*
X006000Y001637D02*
X006000Y002037D01*
X005800Y002037D01*
X005733Y001971D01*
X005867Y001770D02*
X005733Y001637D01*
X013472Y006295D02*
X013472Y006495D01*
X013539Y006562D01*
X013806Y006562D01*
X013873Y006495D01*
X013873Y006295D01*
X013472Y006295D01*
X013472Y006756D02*
X013472Y007022D01*
X013472Y006889D02*
X013873Y006889D01*
X013739Y006756D01*
X014946Y006911D02*
X015734Y006911D01*
X015340Y006370D01*
X014946Y006911D01*
X014118Y008099D02*
X014118Y005295D01*
X016562Y005295D02*
X016562Y008099D01*
X020452Y010517D02*
X020719Y010517D01*
X020586Y010517D02*
X020586Y010917D01*
X020719Y010784D01*
X020913Y010517D02*
X021180Y010517D01*
X021046Y010517D02*
X021046Y010917D01*
X021180Y010784D01*
X021373Y010851D02*
X021440Y010917D01*
X021573Y010917D01*
X021640Y010851D01*
X021640Y010584D01*
X021573Y010517D01*
X021440Y010517D01*
X021373Y010584D01*
X020700Y011276D02*
X020700Y011476D01*
X020634Y011543D01*
X020500Y011543D01*
X020433Y011476D01*
X020433Y011276D01*
X020300Y011276D02*
X020700Y011276D01*
X020433Y011409D02*
X020300Y011543D01*
X020300Y011736D02*
X020300Y012003D01*
X020300Y011870D02*
X020700Y011870D01*
X020567Y011736D01*
X020954Y011969D02*
X020954Y012205D01*
X020700Y012263D02*
X020700Y012397D01*
X020634Y012464D01*
X020567Y012464D01*
X020500Y012397D01*
X020500Y012263D01*
X020567Y012197D01*
X020634Y012197D01*
X020700Y012263D01*
X020500Y012263D02*
X020433Y012197D01*
X020367Y012197D01*
X020300Y012263D01*
X020300Y012397D01*
X020367Y012464D01*
X020433Y012464D01*
X020500Y012397D01*
X021404Y012205D02*
X021404Y011969D01*
X021844Y011435D02*
X021844Y011399D01*
X022354Y011399D02*
X022354Y011435D01*
X023302Y011331D02*
X023338Y011331D01*
X023338Y010851D02*
X023302Y010851D01*
X024164Y010887D02*
X024430Y010887D01*
X024297Y010887D02*
X024297Y011287D01*
X024430Y011154D01*
X024624Y011154D02*
X024691Y011087D01*
X024624Y011020D01*
X024624Y010954D01*
X024691Y010887D01*
X024824Y010887D01*
X024891Y010954D01*
X024757Y011087D02*
X024691Y011087D01*
X024624Y011154D02*
X024624Y011221D01*
X024691Y011287D01*
X024824Y011287D01*
X024891Y011221D01*
X025084Y011221D02*
X025151Y011287D01*
X025284Y011287D01*
X025351Y011221D01*
X025351Y010954D01*
X025284Y010887D01*
X025151Y010887D01*
X025084Y010954D01*
X024971Y011687D02*
X024704Y011687D01*
X024510Y011754D02*
X024510Y011820D01*
X024444Y011887D01*
X024310Y011887D01*
X024244Y011820D01*
X024244Y011754D01*
X024310Y011687D01*
X024444Y011687D01*
X024510Y011754D01*
X024444Y011887D02*
X024510Y011954D01*
X024510Y012021D01*
X024444Y012087D01*
X024310Y012087D01*
X024244Y012021D01*
X024244Y011954D01*
X024310Y011887D01*
X024704Y011954D02*
X024704Y012021D01*
X024771Y012087D01*
X024904Y012087D01*
X024971Y012021D01*
X025164Y012021D02*
X025231Y012087D01*
X025364Y012087D01*
X025431Y012021D01*
X025431Y011754D01*
X025364Y011687D01*
X025231Y011687D01*
X025164Y011754D01*
X024971Y011687D02*
X024704Y011954D01*
X024814Y012547D02*
X025081Y012547D01*
X024814Y012814D01*
X024814Y012881D01*
X024881Y012947D01*
X025014Y012947D01*
X025081Y012881D01*
X025274Y012881D02*
X025341Y012947D01*
X025474Y012947D01*
X025541Y012881D01*
X025541Y012614D01*
X025474Y012547D01*
X025341Y012547D01*
X025274Y012614D01*
X024620Y012614D02*
X024554Y012547D01*
X024420Y012547D01*
X024354Y012614D01*
X024354Y012881D01*
X024420Y012947D01*
X024554Y012947D01*
X024620Y012881D01*
X024620Y012814D01*
X024554Y012747D01*
X024354Y012747D01*
X024460Y013407D02*
X024594Y013407D01*
X024660Y013474D01*
X024394Y013741D01*
X024394Y013474D01*
X024460Y013407D01*
X024660Y013474D02*
X024660Y013741D01*
X024594Y013807D01*
X024460Y013807D01*
X024394Y013741D01*
X024854Y013741D02*
X024854Y013674D01*
X024921Y013607D01*
X024854Y013540D01*
X024854Y013474D01*
X024921Y013407D01*
X025054Y013407D01*
X025121Y013474D01*
X024987Y013607D02*
X024921Y013607D01*
X024854Y013741D02*
X024921Y013807D01*
X025054Y013807D01*
X025121Y013741D01*
X025314Y013741D02*
X025381Y013807D01*
X025514Y013807D01*
X025581Y013741D01*
X025581Y013474D01*
X025514Y013407D01*
X025381Y013407D01*
X025314Y013474D01*
X026673Y013481D02*
X026673Y013214D01*
X026739Y013147D01*
X026873Y013147D01*
X026940Y013214D01*
X026873Y013347D02*
X026673Y013347D01*
X026673Y013481D02*
X026739Y013547D01*
X026873Y013547D01*
X026940Y013481D01*
X026940Y013414D01*
X026873Y013347D01*
X027133Y013214D02*
X027200Y013147D01*
X027333Y013147D01*
X027400Y013214D01*
X027400Y013481D01*
X027333Y013547D01*
X027200Y013547D01*
X027133Y013481D01*
X028162Y013733D02*
X028398Y013733D01*
X028398Y014193D02*
X028162Y014193D01*
X028176Y014437D02*
X028176Y014837D01*
X028310Y014704D01*
X028503Y014771D02*
X028503Y014637D01*
X028570Y014570D01*
X028770Y014570D01*
X028770Y014437D02*
X028770Y014837D01*
X028570Y014837D01*
X028503Y014771D01*
X028637Y014570D02*
X028503Y014437D01*
X028310Y014437D02*
X028043Y014437D01*
X027849Y014437D02*
X027849Y014504D01*
X027582Y014771D01*
X027582Y014837D01*
X027849Y014837D01*
X029052Y013303D02*
X029088Y013303D01*
X029088Y012813D02*
X029052Y012813D01*
X029052Y012483D02*
X029088Y012483D01*
X029088Y011983D02*
X029052Y011983D01*
X029052Y011643D02*
X029088Y011643D01*
X029088Y011143D02*
X029052Y011143D01*
X029052Y010813D02*
X029088Y010813D01*
X029088Y010313D02*
X029052Y010313D01*
X030114Y010404D02*
X030180Y010337D01*
X030314Y010337D01*
X030380Y010404D01*
X030380Y010537D02*
X030247Y010604D01*
X030180Y010604D01*
X030114Y010537D01*
X030114Y010404D01*
X030380Y010537D02*
X030380Y010737D01*
X030114Y010737D01*
X030574Y010671D02*
X030641Y010737D01*
X030774Y010737D01*
X030841Y010671D01*
X031034Y010671D02*
X031101Y010737D01*
X031234Y010737D01*
X031301Y010671D01*
X031301Y010404D01*
X031234Y010337D01*
X031101Y010337D01*
X031034Y010404D01*
X030841Y010337D02*
X030574Y010604D01*
X030574Y010671D01*
X030574Y010337D02*
X030841Y010337D01*
X030871Y011237D02*
X030804Y011304D01*
X030871Y011237D02*
X031004Y011237D01*
X031071Y011304D01*
X031071Y011571D01*
X031004Y011637D01*
X030871Y011637D01*
X030804Y011571D01*
X030611Y011571D02*
X030544Y011637D01*
X030411Y011637D01*
X030344Y011571D01*
X030344Y011504D01*
X030611Y011237D01*
X030344Y011237D01*
X030150Y011437D02*
X029884Y011437D01*
X029950Y011237D02*
X029950Y011637D01*
X030150Y011437D01*
X030164Y012097D02*
X030030Y012097D01*
X029964Y012164D01*
X029964Y012230D01*
X030030Y012297D01*
X030230Y012297D01*
X030230Y012164D01*
X030164Y012097D01*
X030230Y012297D02*
X030097Y012431D01*
X029964Y012497D01*
X029990Y012857D02*
X029924Y012924D01*
X029924Y012990D01*
X029990Y013057D01*
X030190Y013057D01*
X030190Y012924D01*
X030124Y012857D01*
X029990Y012857D01*
X030190Y013057D02*
X030057Y013191D01*
X029924Y013257D01*
X030384Y013191D02*
X030451Y013257D01*
X030584Y013257D01*
X030651Y013191D01*
X030844Y013191D02*
X030911Y013257D01*
X031044Y013257D01*
X031111Y013191D01*
X031111Y012924D01*
X031044Y012857D01*
X030911Y012857D01*
X030844Y012924D01*
X030651Y012857D02*
X030384Y013124D01*
X030384Y013191D01*
X030384Y012857D02*
X030651Y012857D01*
X030557Y012497D02*
X030557Y012097D01*
X030424Y012097D02*
X030691Y012097D01*
X030884Y012164D02*
X030951Y012097D01*
X031084Y012097D01*
X031151Y012164D01*
X031151Y012431D01*
X031084Y012497D01*
X030951Y012497D01*
X030884Y012431D01*
X030691Y012364D02*
X030557Y012497D01*
X028124Y012709D02*
X028124Y012745D01*
X027634Y012745D02*
X027634Y012709D01*
X027384Y011704D02*
X027117Y011704D01*
X027050Y011637D01*
X027050Y011503D01*
X027117Y011437D01*
X027384Y011704D01*
X027450Y011637D01*
X027450Y011503D01*
X027384Y011437D01*
X027117Y011437D01*
X027050Y011243D02*
X027050Y010976D01*
X027317Y011243D01*
X027384Y011243D01*
X027450Y011176D01*
X027450Y011043D01*
X027384Y010976D01*
X027384Y010783D02*
X027250Y010783D01*
X027183Y010716D01*
X027183Y010516D01*
X027050Y010516D02*
X027450Y010516D01*
X027450Y010716D01*
X027384Y010783D01*
X027183Y010649D02*
X027050Y010783D01*
X027644Y010999D02*
X027644Y011235D01*
X028094Y011235D02*
X028094Y010999D01*
X029777Y008634D02*
X030044Y008634D01*
X030110Y008567D01*
X030110Y008433D01*
X030044Y008367D01*
X029977Y008367D01*
X029910Y008433D01*
X029910Y008634D01*
X029777Y008634D02*
X029710Y008567D01*
X029710Y008433D01*
X029777Y008367D01*
X029710Y008173D02*
X029843Y008040D01*
X029843Y008106D02*
X029843Y007906D01*
X029710Y007906D02*
X030110Y007906D01*
X030110Y008106D01*
X030044Y008173D01*
X029910Y008173D01*
X029843Y008106D01*
X030334Y008359D02*
X030334Y008595D01*
X030784Y008595D02*
X030784Y008359D01*
X028460Y006077D02*
X028260Y006077D01*
X028193Y006011D01*
X028193Y005877D01*
X028260Y005810D01*
X028460Y005810D01*
X028460Y005677D02*
X028460Y006077D01*
X028327Y005810D02*
X028193Y005677D01*
X028000Y005677D02*
X027733Y005677D01*
X027866Y005677D02*
X027866Y006077D01*
X028000Y005944D01*
X027539Y005877D02*
X027539Y005744D01*
X027472Y005677D01*
X027339Y005677D01*
X027272Y005744D01*
X027272Y005810D01*
X027339Y005877D01*
X027539Y005877D01*
X027406Y006011D01*
X027272Y006077D01*
X028092Y005453D02*
X028328Y005453D01*
X028328Y005003D02*
X028092Y005003D01*
X027300Y004391D02*
X027300Y004124D01*
X027233Y004057D01*
X027100Y004057D01*
X027033Y004124D01*
X026840Y004057D02*
X026573Y004057D01*
X026706Y004057D02*
X026706Y004457D01*
X026840Y004324D01*
X027033Y004391D02*
X027100Y004457D01*
X027233Y004457D01*
X027300Y004391D01*
X027576Y004075D02*
X027576Y004039D01*
X028066Y004039D02*
X028066Y004075D01*
X028992Y004013D02*
X029028Y004013D01*
X029028Y003673D02*
X028992Y003673D01*
X028992Y003173D02*
X029028Y003173D01*
X029028Y002833D02*
X028992Y002833D01*
X028992Y002343D02*
X029028Y002343D01*
X029028Y001953D02*
X028992Y001953D01*
X028992Y001453D02*
X029028Y001453D01*
X029954Y001564D02*
X030020Y001497D01*
X030154Y001497D01*
X030220Y001564D01*
X030220Y001697D02*
X030087Y001764D01*
X030020Y001764D01*
X029954Y001697D01*
X029954Y001564D01*
X030220Y001697D02*
X030220Y001897D01*
X029954Y001897D01*
X030030Y002337D02*
X030030Y002737D01*
X030230Y002537D01*
X029964Y002537D01*
X030424Y002337D02*
X030691Y002337D01*
X030557Y002337D02*
X030557Y002737D01*
X030691Y002604D01*
X030884Y002671D02*
X030951Y002737D01*
X031084Y002737D01*
X031151Y002671D01*
X031151Y002404D01*
X031084Y002337D01*
X030951Y002337D01*
X030884Y002404D01*
X030941Y001897D02*
X031074Y001897D01*
X031141Y001831D01*
X031141Y001564D01*
X031074Y001497D01*
X030941Y001497D01*
X030874Y001564D01*
X030681Y001497D02*
X030414Y001497D01*
X030547Y001497D02*
X030547Y001897D01*
X030681Y001764D01*
X030874Y001831D02*
X030941Y001897D01*
X030951Y003197D02*
X030884Y003264D01*
X030951Y003197D02*
X031084Y003197D01*
X031151Y003264D01*
X031151Y003531D01*
X031084Y003597D01*
X030951Y003597D01*
X030884Y003531D01*
X030691Y003464D02*
X030557Y003597D01*
X030557Y003197D01*
X030424Y003197D02*
X030691Y003197D01*
X030230Y003264D02*
X030164Y003197D01*
X030030Y003197D01*
X029964Y003264D01*
X029964Y003330D01*
X030030Y003397D01*
X030097Y003397D01*
X030030Y003397D02*
X029964Y003464D01*
X029964Y003531D01*
X030030Y003597D01*
X030164Y003597D01*
X030230Y003531D01*
X030240Y004077D02*
X029974Y004077D01*
X030240Y004077D02*
X029974Y004344D01*
X029974Y004411D01*
X030040Y004477D01*
X030174Y004477D01*
X030240Y004411D01*
X030567Y004477D02*
X030567Y004077D01*
X030434Y004077D02*
X030701Y004077D01*
X030894Y004144D02*
X030961Y004077D01*
X031094Y004077D01*
X031161Y004144D01*
X031161Y004411D01*
X031094Y004477D01*
X030961Y004477D01*
X030894Y004411D01*
X030701Y004344D02*
X030567Y004477D01*
X029028Y004503D02*
X028992Y004503D01*
X026379Y004391D02*
X026379Y004124D01*
X026112Y004391D01*
X026112Y004124D01*
X026179Y004057D01*
X026312Y004057D01*
X026379Y004124D01*
X026379Y004391D02*
X026312Y004457D01*
X026179Y004457D01*
X026112Y004391D01*
X024921Y004231D02*
X024921Y003964D01*
X024854Y003897D01*
X024721Y003897D01*
X024654Y003964D01*
X024461Y003897D02*
X024194Y003897D01*
X024327Y003897D02*
X024327Y004297D01*
X024461Y004164D01*
X024654Y004231D02*
X024721Y004297D01*
X024854Y004297D01*
X024921Y004231D01*
X024854Y003437D02*
X024921Y003371D01*
X024921Y003104D01*
X024854Y003037D01*
X024721Y003037D01*
X024654Y003104D01*
X024461Y003037D02*
X024194Y003037D01*
X024327Y003037D02*
X024327Y003437D01*
X024461Y003304D01*
X024654Y003371D02*
X024721Y003437D01*
X024854Y003437D01*
X024000Y003371D02*
X024000Y003304D01*
X023934Y003237D01*
X023734Y003237D01*
X023734Y003104D02*
X023734Y003371D01*
X023800Y003437D01*
X023934Y003437D01*
X024000Y003371D01*
X024000Y003104D02*
X023934Y003037D01*
X023800Y003037D01*
X023734Y003104D01*
X023947Y002547D02*
X023947Y002147D01*
X024080Y002147D02*
X023814Y002147D01*
X024080Y002414D02*
X023947Y002547D01*
X024274Y002481D02*
X024341Y002547D01*
X024474Y002547D01*
X024541Y002481D01*
X024734Y002481D02*
X024801Y002547D01*
X024934Y002547D01*
X025001Y002481D01*
X025001Y002214D01*
X024934Y002147D01*
X024801Y002147D01*
X024734Y002214D01*
X024541Y002147D02*
X024274Y002414D01*
X024274Y002481D01*
X024274Y002147D02*
X024541Y002147D01*
X024621Y001817D02*
X024754Y001817D01*
X024821Y001751D01*
X025014Y001751D02*
X025081Y001817D01*
X025214Y001817D01*
X025281Y001751D01*
X025281Y001484D01*
X025214Y001417D01*
X025081Y001417D01*
X025014Y001484D01*
X024821Y001417D02*
X024554Y001684D01*
X024554Y001751D01*
X024621Y001817D01*
X024360Y001751D02*
X024294Y001817D01*
X024160Y001817D01*
X024094Y001751D01*
X024094Y001684D01*
X024360Y001417D01*
X024094Y001417D01*
X024554Y001417D02*
X024821Y001417D01*
X022818Y001331D02*
X022782Y001331D01*
X022792Y001821D02*
X022828Y001821D01*
X022828Y002151D02*
X022792Y002151D01*
X022792Y002641D02*
X022828Y002641D01*
X022828Y003021D02*
X022792Y003021D01*
X022792Y003511D02*
X022828Y003511D01*
X022828Y003861D02*
X022792Y003861D01*
X022792Y004351D02*
X022828Y004351D01*
X022538Y004721D02*
X022302Y004721D01*
X022302Y005171D02*
X022538Y005171D01*
X022510Y005447D02*
X022243Y005447D01*
X022049Y005447D02*
X021782Y005714D01*
X021782Y005781D01*
X021849Y005847D01*
X021982Y005847D01*
X022049Y005781D01*
X022243Y005781D02*
X022309Y005847D01*
X022443Y005847D01*
X022510Y005781D01*
X022703Y005781D02*
X022703Y005647D01*
X022770Y005580D01*
X022970Y005580D01*
X022970Y005447D02*
X022970Y005847D01*
X022770Y005847D01*
X022703Y005781D01*
X022837Y005580D02*
X022703Y005447D01*
X022510Y005447D02*
X022243Y005714D01*
X022243Y005781D01*
X022049Y005447D02*
X021782Y005447D01*
X021070Y004155D02*
X021004Y004155D01*
X020737Y003888D01*
X020670Y003888D01*
X020670Y003694D02*
X020670Y003427D01*
X020670Y003561D02*
X021070Y003561D01*
X020937Y003427D01*
X021004Y003234D02*
X021070Y003167D01*
X021070Y003034D01*
X021004Y002967D01*
X020737Y002967D01*
X020670Y003034D01*
X020670Y003167D01*
X020737Y003234D01*
X021294Y003539D02*
X021294Y003575D01*
X021070Y003888D02*
X021070Y004155D01*
X021804Y003575D02*
X021804Y003539D01*
X021004Y002594D02*
X020937Y002594D01*
X020870Y002527D01*
X020803Y002594D01*
X020737Y002594D01*
X020670Y002527D01*
X020670Y002393D01*
X020737Y002327D01*
X020870Y002460D02*
X020870Y002527D01*
X021004Y002594D02*
X021070Y002527D01*
X021070Y002393D01*
X021004Y002327D01*
X021004Y002133D02*
X021070Y002066D01*
X021070Y001933D01*
X021004Y001866D01*
X021004Y001673D02*
X020870Y001673D01*
X020803Y001606D01*
X020803Y001406D01*
X020670Y001406D02*
X021070Y001406D01*
X021070Y001606D01*
X021004Y001673D01*
X020803Y001539D02*
X020670Y001673D01*
X020670Y001866D02*
X020937Y002133D01*
X021004Y002133D01*
X020670Y002133D02*
X020670Y001866D01*
X021324Y001789D02*
X021324Y002025D01*
X021794Y002025D02*
X021794Y001789D01*
X023800Y003897D02*
X023934Y003897D01*
X024000Y003964D01*
X024000Y004030D01*
X023934Y004097D01*
X023800Y004097D01*
X023734Y004030D01*
X023734Y003964D01*
X023800Y003897D01*
X023800Y004097D02*
X023734Y004164D01*
X023734Y004231D01*
X023800Y004297D01*
X023934Y004297D01*
X024000Y004231D01*
X024000Y004164D01*
X023934Y004097D01*
X026970Y002607D02*
X027037Y002674D01*
X027304Y002674D01*
X027370Y002607D01*
X027370Y002473D01*
X027304Y002407D01*
X027237Y002407D01*
X027170Y002473D01*
X027170Y002674D01*
X026970Y002607D02*
X026970Y002473D01*
X027037Y002407D01*
X026970Y002213D02*
X026970Y001946D01*
X026970Y002080D02*
X027370Y002080D01*
X027237Y001946D01*
X027304Y001753D02*
X027170Y001753D01*
X027103Y001686D01*
X027103Y001486D01*
X026970Y001486D02*
X027370Y001486D01*
X027370Y001686D01*
X027304Y001753D01*
X027103Y001619D02*
X026970Y001753D01*
X027584Y002399D02*
X027584Y002635D01*
X028064Y002635D02*
X028064Y002399D01*
X033680Y002187D02*
X033680Y002053D01*
X033747Y001987D01*
X033880Y002120D02*
X033880Y002187D01*
X033813Y002254D01*
X033747Y002254D01*
X033680Y002187D01*
X033880Y002187D02*
X033947Y002254D01*
X034014Y002254D01*
X034080Y002187D01*
X034080Y002053D01*
X034014Y001987D01*
X034014Y001793D02*
X034080Y001726D01*
X034080Y001593D01*
X034014Y001526D01*
X034014Y001333D02*
X034080Y001266D01*
X034080Y001133D01*
X034014Y001066D01*
X033747Y001066D01*
X033680Y001133D01*
X033680Y001266D01*
X033747Y001333D01*
X033680Y001526D02*
X033947Y001793D01*
X034014Y001793D01*
X033680Y001793D02*
X033680Y001526D01*
X035262Y000883D02*
X035898Y000883D01*
X037750Y003216D02*
X038150Y003216D01*
X038150Y003416D01*
X038084Y003483D01*
X037950Y003483D01*
X037883Y003416D01*
X037883Y003216D01*
X037883Y003349D02*
X037750Y003483D01*
X037750Y003676D02*
X037750Y003943D01*
X037750Y003810D02*
X038150Y003810D01*
X038017Y003676D01*
X038314Y003739D02*
X038314Y003975D01*
X038150Y004137D02*
X037950Y004137D01*
X038017Y004270D01*
X038017Y004337D01*
X037950Y004404D01*
X037817Y004404D01*
X037750Y004337D01*
X037750Y004203D01*
X037817Y004137D01*
X038150Y004137D02*
X038150Y004404D01*
X038764Y003975D02*
X038764Y003739D01*
X035898Y003453D02*
X035262Y003453D01*
X035594Y010259D02*
X035594Y010495D01*
X036054Y010495D02*
X036054Y010259D01*
X036394Y010259D02*
X036394Y010495D01*
X036854Y010495D02*
X036854Y010259D01*
X037194Y010259D02*
X037194Y010495D01*
X037654Y010495D02*
X037654Y010259D01*
X037994Y010259D02*
X037994Y010495D01*
X038464Y010495D02*
X038464Y010259D01*
X038480Y011127D02*
X038080Y011127D01*
X038213Y011127D02*
X038213Y011327D01*
X038280Y011394D01*
X038414Y011394D01*
X038480Y011327D01*
X038480Y011127D01*
X038213Y011260D02*
X038080Y011394D01*
X038080Y011587D02*
X038347Y011854D01*
X038414Y011854D01*
X038480Y011788D01*
X038480Y011654D01*
X038414Y011587D01*
X038080Y011587D02*
X038080Y011854D01*
X038080Y012048D02*
X038147Y012048D01*
X038414Y012315D01*
X038480Y012315D01*
X038480Y012048D01*
X037680Y011788D02*
X037680Y011654D01*
X037614Y011587D01*
X037614Y011394D02*
X037480Y011394D01*
X037413Y011327D01*
X037413Y011127D01*
X037280Y011127D02*
X037680Y011127D01*
X037680Y011327D01*
X037614Y011394D01*
X037413Y011260D02*
X037280Y011394D01*
X037280Y011587D02*
X037547Y011854D01*
X037614Y011854D01*
X037680Y011788D01*
X037480Y012048D02*
X037480Y012248D01*
X037413Y012315D01*
X037347Y012315D01*
X037280Y012248D01*
X037280Y012115D01*
X037347Y012048D01*
X037480Y012048D01*
X037614Y012181D01*
X037680Y012315D01*
X037280Y011854D02*
X037280Y011587D01*
X036880Y011654D02*
X036814Y011587D01*
X036880Y011654D02*
X036880Y011788D01*
X036814Y011854D01*
X036747Y011854D01*
X036480Y011587D01*
X036480Y011854D01*
X036547Y012048D02*
X036480Y012115D01*
X036480Y012248D01*
X036547Y012315D01*
X036680Y012315D01*
X036747Y012248D01*
X036747Y012181D01*
X036680Y012048D01*
X036880Y012048D01*
X036880Y012315D01*
X035980Y012248D02*
X035780Y012048D01*
X035780Y012315D01*
X035580Y012248D02*
X035980Y012248D01*
X035914Y011854D02*
X035980Y011788D01*
X035980Y011654D01*
X035914Y011587D01*
X035914Y011394D02*
X035780Y011394D01*
X035713Y011327D01*
X035713Y011127D01*
X035580Y011127D02*
X035980Y011127D01*
X035980Y011327D01*
X035914Y011394D01*
X035713Y011260D02*
X035580Y011394D01*
X035580Y011587D02*
X035847Y011854D01*
X035914Y011854D01*
X035580Y011854D02*
X035580Y011587D01*
X036480Y011394D02*
X036613Y011260D01*
X036613Y011327D02*
X036613Y011127D01*
X036480Y011127D02*
X036880Y011127D01*
X036880Y011327D01*
X036814Y011394D01*
X036680Y011394D01*
X036613Y011327D01*
X023338Y011661D02*
X023302Y011661D01*
X023302Y012161D02*
X023338Y012161D01*
X023348Y012471D02*
X023312Y012471D01*
X023312Y012971D02*
X023348Y012971D01*
X023318Y013361D02*
X023282Y013361D01*
X023282Y013851D02*
X023318Y013851D01*
X022336Y013165D02*
X022336Y012929D01*
X021866Y012929D02*
X021866Y013165D01*
X021650Y013097D02*
X021650Y013297D01*
X021584Y013364D01*
X021450Y013364D01*
X021383Y013297D01*
X021383Y013097D01*
X021250Y013097D02*
X021650Y013097D01*
X021383Y013230D02*
X021250Y013364D01*
X021250Y013557D02*
X021517Y013824D01*
X021584Y013824D01*
X021650Y013758D01*
X021650Y013624D01*
X021584Y013557D01*
X021250Y013557D02*
X021250Y013824D01*
X021250Y014018D02*
X021250Y014285D01*
X021250Y014151D02*
X021650Y014151D01*
X021517Y014018D01*
X014017Y017542D02*
X014017Y017942D01*
X013817Y017942D01*
X013750Y017876D01*
X013750Y017742D01*
X013817Y017675D01*
X014017Y017675D01*
X013883Y017675D02*
X013750Y017542D01*
X013556Y017542D02*
X013289Y017542D01*
X013423Y017542D02*
X013423Y017942D01*
X013556Y017809D01*
X011669Y018267D02*
X011331Y018267D01*
X011819Y018721D02*
X011819Y018933D01*
X011669Y019387D02*
X011331Y019387D01*
X009806Y019325D02*
X009806Y019089D01*
X009334Y019089D02*
X009334Y019325D01*
X010402Y017543D02*
X010638Y017543D01*
X010638Y017071D02*
X010402Y017071D01*
X011233Y016511D02*
X011233Y016444D01*
X011299Y016377D01*
X011433Y016377D01*
X011500Y016444D01*
X011500Y016511D01*
X011433Y016577D01*
X011299Y016577D01*
X011233Y016511D01*
X011299Y016377D02*
X011233Y016310D01*
X011233Y016244D01*
X011299Y016177D01*
X011433Y016177D01*
X011500Y016244D01*
X011500Y016310D01*
X011433Y016377D01*
X011693Y016244D02*
X011760Y016177D01*
X011893Y016177D01*
X011960Y016244D01*
X011960Y016511D01*
X011893Y016577D01*
X011760Y016577D01*
X011693Y016511D01*
X012174Y015971D02*
X009856Y015971D01*
X008610Y016001D02*
X008544Y015934D01*
X008277Y015934D01*
X008210Y016001D01*
X008210Y016134D01*
X008277Y016201D01*
X008210Y016394D02*
X008210Y016661D01*
X008210Y016528D02*
X008610Y016528D01*
X008477Y016394D01*
X008544Y016201D02*
X008610Y016134D01*
X008610Y016001D01*
X008610Y015760D02*
X008610Y015627D01*
X008610Y015694D02*
X008210Y015694D01*
X008210Y015760D02*
X008210Y015627D01*
X008030Y015107D02*
X008030Y017467D01*
X005450Y017467D02*
X005450Y015107D01*
X008030Y015107D01*
X009856Y014683D02*
X012174Y014683D01*
X002710Y018347D02*
X002710Y019587D01*
X002710Y019597D02*
X000710Y019597D01*
X000710Y019587D02*
X000710Y019167D01*
X000710Y018767D01*
X000710Y018347D01*
X000712Y018324D01*
X000717Y018301D01*
X000726Y018279D01*
X000739Y018259D01*
X000754Y018241D01*
X000772Y018226D01*
X000792Y018213D01*
X000814Y018204D01*
X000837Y018199D01*
X000860Y018197D01*
X002560Y018197D01*
X002583Y018199D01*
X002606Y018204D01*
X002628Y018213D01*
X002648Y018226D01*
X002666Y018241D01*
X002681Y018259D01*
X002694Y018279D01*
X002703Y018301D01*
X002708Y018324D01*
X002710Y018347D01*
X002710Y019587D02*
X002708Y019610D01*
X002703Y019633D01*
X002694Y019655D01*
X002681Y019675D01*
X002666Y019693D01*
X002648Y019708D01*
X002628Y019721D01*
X002606Y019730D01*
X002583Y019735D01*
X002560Y019737D01*
X000860Y019737D01*
X000837Y019735D01*
X000814Y019730D01*
X000792Y019721D01*
X000772Y019708D01*
X000754Y019693D01*
X000739Y019675D01*
X000726Y019655D01*
X000717Y019633D01*
X000712Y019610D01*
X000710Y019587D01*
X000710Y019167D02*
X000737Y019165D01*
X000764Y019160D01*
X000790Y019150D01*
X000814Y019138D01*
X000836Y019122D01*
X000856Y019104D01*
X000873Y019082D01*
X000888Y019059D01*
X000898Y019034D01*
X000906Y019008D01*
X000910Y018981D01*
X000910Y018953D01*
X000906Y018926D01*
X000898Y018900D01*
X000888Y018875D01*
X000873Y018852D01*
X000856Y018830D01*
X000836Y018812D01*
X000814Y018796D01*
X000790Y018784D01*
X000764Y018774D01*
X000737Y018769D01*
X000710Y018767D01*
X001390Y016997D02*
X001524Y016997D01*
X001590Y016931D01*
X001784Y016997D02*
X001784Y016664D01*
X001851Y016597D01*
X001984Y016597D01*
X002051Y016664D01*
X002051Y016997D01*
X001590Y016597D02*
X001323Y016864D01*
X001323Y016931D01*
X001390Y016997D01*
X001323Y016597D02*
X001590Y016597D01*
X005990Y023447D02*
X005990Y023847D01*
X006190Y023647D01*
X005923Y023647D01*
X006384Y023647D02*
X006384Y023781D01*
X006451Y023847D01*
X006651Y023847D01*
X006651Y023447D01*
X006651Y023580D02*
X006451Y023580D01*
X006384Y023647D01*
X006517Y023580D02*
X006384Y023447D01*
X007450Y023347D02*
X007550Y023347D01*
X007550Y023877D02*
X007450Y023877D01*
X007570Y024497D02*
X007970Y024497D01*
X007970Y024697D01*
X007904Y024764D01*
X007770Y024764D01*
X007703Y024697D01*
X007703Y024497D01*
X007703Y024630D02*
X007570Y024764D01*
X007390Y024797D02*
X007390Y024897D01*
X007570Y025024D02*
X007637Y024957D01*
X007570Y025024D02*
X007570Y025158D01*
X007637Y025224D01*
X007703Y025224D01*
X007770Y025158D01*
X007770Y025091D01*
X007770Y025158D02*
X007837Y025224D01*
X007904Y025224D01*
X007970Y025158D01*
X007970Y025024D01*
X007904Y024957D01*
X008166Y024872D02*
X008166Y025502D01*
X008323Y025659D01*
X008756Y025659D01*
X009000Y025587D02*
X009000Y024787D01*
X008756Y024715D02*
X008323Y024715D01*
X008166Y024872D01*
X008586Y024553D02*
X008743Y024553D01*
X008743Y024041D01*
X009294Y024041D01*
X009353Y023777D02*
X009487Y023711D01*
X009620Y023577D01*
X009420Y023577D01*
X009353Y023510D01*
X009353Y023444D01*
X009420Y023377D01*
X009554Y023377D01*
X009620Y023444D01*
X009620Y023577D01*
X009814Y023444D02*
X009814Y023711D01*
X009881Y023777D01*
X010081Y023777D01*
X010081Y023377D01*
X009881Y023377D01*
X009814Y023444D01*
X008743Y024041D02*
X008586Y024041D01*
X008743Y024553D02*
X009294Y024553D01*
X009544Y024715D02*
X010134Y024715D01*
X010134Y025659D01*
X009544Y025659D01*
X011070Y024517D02*
X011290Y024517D01*
X011290Y024067D02*
X011070Y024067D01*
X013070Y024067D02*
X013290Y024067D01*
X013290Y024517D02*
X013070Y024517D01*
X006840Y024787D02*
X006840Y024887D01*
X006440Y024897D02*
X006440Y024797D01*
X005920Y024797D02*
X005920Y024897D01*
X005730Y024903D02*
X005664Y024837D01*
X005730Y024903D02*
X005730Y025037D01*
X005664Y025104D01*
X005597Y025104D01*
X005330Y024837D01*
X005330Y025104D01*
X005330Y024643D02*
X005463Y024510D01*
X005463Y024576D02*
X005463Y024376D01*
X005330Y024376D02*
X005730Y024376D01*
X005730Y024576D01*
X005664Y024643D01*
X005530Y024643D01*
X005463Y024576D01*
D11*
X010214Y025366D02*
X010288Y025366D01*
X010214Y025439D01*
X010214Y025457D01*
X010233Y025476D01*
X010269Y025476D01*
X010288Y025457D01*
X010362Y025457D02*
X010380Y025476D01*
X010417Y025476D01*
X010435Y025457D01*
X010435Y025384D01*
X010417Y025366D01*
X010380Y025366D01*
X010362Y025384D01*
D12*
X009112Y019752D02*
X009059Y019752D01*
X009005Y019699D01*
X008952Y019752D01*
X008898Y019752D01*
X008845Y019699D01*
X008845Y019592D01*
X008898Y019539D01*
X009005Y019645D02*
X009005Y019699D01*
X009112Y019752D02*
X009165Y019699D01*
X009165Y019592D01*
X009112Y019539D01*
X009112Y019384D02*
X009059Y019384D01*
X009005Y019331D01*
X008952Y019384D01*
X008898Y019384D01*
X008845Y019331D01*
X008845Y019224D01*
X008898Y019170D01*
X009005Y019277D02*
X009005Y019331D01*
X009112Y019384D02*
X009165Y019331D01*
X009165Y019224D01*
X009112Y019170D01*
X009112Y019016D02*
X009165Y018962D01*
X009165Y018855D01*
X009112Y018802D01*
X008898Y018802D01*
X008845Y018855D01*
X008845Y018962D01*
X008898Y019016D01*
X009998Y016912D02*
X010158Y016752D01*
X009945Y016752D01*
X009998Y016592D02*
X009998Y016912D01*
X010313Y016859D02*
X010313Y016806D01*
X010366Y016752D01*
X010313Y016699D01*
X010313Y016645D01*
X010366Y016592D01*
X010473Y016592D01*
X010527Y016645D01*
X010420Y016752D02*
X010366Y016752D01*
X010313Y016859D02*
X010366Y016912D01*
X010473Y016912D01*
X010527Y016859D01*
X010681Y016859D02*
X010735Y016912D01*
X010842Y016912D01*
X010895Y016859D01*
X010895Y016645D01*
X010842Y016592D01*
X010735Y016592D01*
X010681Y016645D01*
D13*
X015340Y006116D03*
D14*
X006740Y014917D03*
D15*
X010763Y019572D02*
X010763Y019882D01*
X010918Y019727D01*
X010712Y019727D01*
X011080Y019572D02*
X011287Y019572D01*
X011183Y019572D02*
X011183Y019882D01*
X011287Y019779D01*
X011448Y019882D02*
X011448Y019624D01*
X011500Y019572D01*
X011603Y019572D01*
X011655Y019624D01*
X011655Y019882D01*
D16*
X000850Y024907D02*
X000852Y024957D01*
X000858Y025007D01*
X000868Y025057D01*
X000881Y025105D01*
X000898Y025153D01*
X000919Y025199D01*
X000943Y025243D01*
X000971Y025285D01*
X001002Y025325D01*
X001036Y025362D01*
X001073Y025397D01*
X001112Y025428D01*
X001153Y025457D01*
X001197Y025482D01*
X001243Y025504D01*
X001290Y025522D01*
X001338Y025536D01*
X001387Y025547D01*
X001437Y025554D01*
X001487Y025557D01*
X001538Y025556D01*
X001588Y025551D01*
X001638Y025542D01*
X001686Y025530D01*
X001734Y025513D01*
X001780Y025493D01*
X001825Y025470D01*
X001868Y025443D01*
X001908Y025413D01*
X001946Y025380D01*
X001981Y025344D01*
X002014Y025305D01*
X002043Y025264D01*
X002069Y025221D01*
X002092Y025176D01*
X002111Y025129D01*
X002126Y025081D01*
X002138Y025032D01*
X002146Y024982D01*
X002150Y024932D01*
X002150Y024882D01*
X002146Y024832D01*
X002138Y024782D01*
X002126Y024733D01*
X002111Y024685D01*
X002092Y024638D01*
X002069Y024593D01*
X002043Y024550D01*
X002014Y024509D01*
X001981Y024470D01*
X001946Y024434D01*
X001908Y024401D01*
X001868Y024371D01*
X001825Y024344D01*
X001780Y024321D01*
X001734Y024301D01*
X001686Y024284D01*
X001638Y024272D01*
X001588Y024263D01*
X001538Y024258D01*
X001487Y024257D01*
X001437Y024260D01*
X001387Y024267D01*
X001338Y024278D01*
X001290Y024292D01*
X001243Y024310D01*
X001197Y024332D01*
X001153Y024357D01*
X001112Y024386D01*
X001073Y024417D01*
X001036Y024452D01*
X001002Y024489D01*
X000971Y024529D01*
X000943Y024571D01*
X000919Y024615D01*
X000898Y024661D01*
X000881Y024709D01*
X000868Y024757D01*
X000858Y024807D01*
X000852Y024857D01*
X000850Y024907D01*
X000850Y001547D02*
X000852Y001597D01*
X000858Y001647D01*
X000868Y001697D01*
X000881Y001745D01*
X000898Y001793D01*
X000919Y001839D01*
X000943Y001883D01*
X000971Y001925D01*
X001002Y001965D01*
X001036Y002002D01*
X001073Y002037D01*
X001112Y002068D01*
X001153Y002097D01*
X001197Y002122D01*
X001243Y002144D01*
X001290Y002162D01*
X001338Y002176D01*
X001387Y002187D01*
X001437Y002194D01*
X001487Y002197D01*
X001538Y002196D01*
X001588Y002191D01*
X001638Y002182D01*
X001686Y002170D01*
X001734Y002153D01*
X001780Y002133D01*
X001825Y002110D01*
X001868Y002083D01*
X001908Y002053D01*
X001946Y002020D01*
X001981Y001984D01*
X002014Y001945D01*
X002043Y001904D01*
X002069Y001861D01*
X002092Y001816D01*
X002111Y001769D01*
X002126Y001721D01*
X002138Y001672D01*
X002146Y001622D01*
X002150Y001572D01*
X002150Y001522D01*
X002146Y001472D01*
X002138Y001422D01*
X002126Y001373D01*
X002111Y001325D01*
X002092Y001278D01*
X002069Y001233D01*
X002043Y001190D01*
X002014Y001149D01*
X001981Y001110D01*
X001946Y001074D01*
X001908Y001041D01*
X001868Y001011D01*
X001825Y000984D01*
X001780Y000961D01*
X001734Y000941D01*
X001686Y000924D01*
X001638Y000912D01*
X001588Y000903D01*
X001538Y000898D01*
X001487Y000897D01*
X001437Y000900D01*
X001387Y000907D01*
X001338Y000918D01*
X001290Y000932D01*
X001243Y000950D01*
X001197Y000972D01*
X001153Y000997D01*
X001112Y001026D01*
X001073Y001057D01*
X001036Y001092D01*
X001002Y001129D01*
X000971Y001169D01*
X000943Y001211D01*
X000919Y001255D01*
X000898Y001301D01*
X000881Y001349D01*
X000868Y001397D01*
X000858Y001447D01*
X000852Y001497D01*
X000850Y001547D01*
X038320Y001637D02*
X038322Y001687D01*
X038328Y001737D01*
X038338Y001787D01*
X038351Y001835D01*
X038368Y001883D01*
X038389Y001929D01*
X038413Y001973D01*
X038441Y002015D01*
X038472Y002055D01*
X038506Y002092D01*
X038543Y002127D01*
X038582Y002158D01*
X038623Y002187D01*
X038667Y002212D01*
X038713Y002234D01*
X038760Y002252D01*
X038808Y002266D01*
X038857Y002277D01*
X038907Y002284D01*
X038957Y002287D01*
X039008Y002286D01*
X039058Y002281D01*
X039108Y002272D01*
X039156Y002260D01*
X039204Y002243D01*
X039250Y002223D01*
X039295Y002200D01*
X039338Y002173D01*
X039378Y002143D01*
X039416Y002110D01*
X039451Y002074D01*
X039484Y002035D01*
X039513Y001994D01*
X039539Y001951D01*
X039562Y001906D01*
X039581Y001859D01*
X039596Y001811D01*
X039608Y001762D01*
X039616Y001712D01*
X039620Y001662D01*
X039620Y001612D01*
X039616Y001562D01*
X039608Y001512D01*
X039596Y001463D01*
X039581Y001415D01*
X039562Y001368D01*
X039539Y001323D01*
X039513Y001280D01*
X039484Y001239D01*
X039451Y001200D01*
X039416Y001164D01*
X039378Y001131D01*
X039338Y001101D01*
X039295Y001074D01*
X039250Y001051D01*
X039204Y001031D01*
X039156Y001014D01*
X039108Y001002D01*
X039058Y000993D01*
X039008Y000988D01*
X038957Y000987D01*
X038907Y000990D01*
X038857Y000997D01*
X038808Y001008D01*
X038760Y001022D01*
X038713Y001040D01*
X038667Y001062D01*
X038623Y001087D01*
X038582Y001116D01*
X038543Y001147D01*
X038506Y001182D01*
X038472Y001219D01*
X038441Y001259D01*
X038413Y001301D01*
X038389Y001345D01*
X038368Y001391D01*
X038351Y001439D01*
X038338Y001487D01*
X038328Y001537D01*
X038322Y001587D01*
X038320Y001637D01*
X038460Y024957D02*
X038462Y025007D01*
X038468Y025057D01*
X038478Y025107D01*
X038491Y025155D01*
X038508Y025203D01*
X038529Y025249D01*
X038553Y025293D01*
X038581Y025335D01*
X038612Y025375D01*
X038646Y025412D01*
X038683Y025447D01*
X038722Y025478D01*
X038763Y025507D01*
X038807Y025532D01*
X038853Y025554D01*
X038900Y025572D01*
X038948Y025586D01*
X038997Y025597D01*
X039047Y025604D01*
X039097Y025607D01*
X039148Y025606D01*
X039198Y025601D01*
X039248Y025592D01*
X039296Y025580D01*
X039344Y025563D01*
X039390Y025543D01*
X039435Y025520D01*
X039478Y025493D01*
X039518Y025463D01*
X039556Y025430D01*
X039591Y025394D01*
X039624Y025355D01*
X039653Y025314D01*
X039679Y025271D01*
X039702Y025226D01*
X039721Y025179D01*
X039736Y025131D01*
X039748Y025082D01*
X039756Y025032D01*
X039760Y024982D01*
X039760Y024932D01*
X039756Y024882D01*
X039748Y024832D01*
X039736Y024783D01*
X039721Y024735D01*
X039702Y024688D01*
X039679Y024643D01*
X039653Y024600D01*
X039624Y024559D01*
X039591Y024520D01*
X039556Y024484D01*
X039518Y024451D01*
X039478Y024421D01*
X039435Y024394D01*
X039390Y024371D01*
X039344Y024351D01*
X039296Y024334D01*
X039248Y024322D01*
X039198Y024313D01*
X039148Y024308D01*
X039097Y024307D01*
X039047Y024310D01*
X038997Y024317D01*
X038948Y024328D01*
X038900Y024342D01*
X038853Y024360D01*
X038807Y024382D01*
X038763Y024407D01*
X038722Y024436D01*
X038683Y024467D01*
X038646Y024502D01*
X038612Y024539D01*
X038581Y024579D01*
X038553Y024621D01*
X038529Y024665D01*
X038508Y024711D01*
X038491Y024759D01*
X038478Y024807D01*
X038468Y024857D01*
X038462Y024907D01*
X038460Y024957D01*
M02*
