%
M48
M72
T01C0.0236
T02C0.0354
T03C0.0400
T04C0.0440
T05C0.0551
T06C0.0591
T07C0.0748
T08C0.1300
%
T01
X1330Y6467
X1900Y6467
X2490Y6467
X7905Y6512
X11270Y8184
X15340Y5527
X15350Y4957
X17970Y3927
X17970Y3327
X19020Y5447
X21330Y7077
X21330Y7677
X21330Y8277
X19600Y8227
X22230Y10077
X27320Y8417
X24730Y6477
X24730Y5477
X24730Y4577
X26800Y5397
X26960Y3487
X30130Y6537
X30500Y7227
X30370Y9777
X27020Y12827
X23130Y15277
X23780Y16367
X25920Y17227
X26030Y17777
X23450Y18737
X19070Y22537
X19140Y23327
X18340Y25317
X19450Y25487
X15710Y24067
X13850Y20907
X13870Y19677
X12540Y19327
X10440Y18267
X8990Y18277
X8620Y17647
X11980Y17477
X8510Y15067
X6960Y14067
X5870Y14887
X9500Y20217
X10030Y20827
X9100Y21537
X1920Y21887
X25180Y23967
X29780Y23417
X30850Y23227
X33380Y23357
X38260Y23187
X38900Y23497
X35180Y17077
X37930Y16877
X30530Y16327
X29530Y15877
X39130Y9277
X38430Y7777
X38630Y7077
X38230Y5877
X38430Y5277
X39480Y3127
X22800Y6527
X20830Y977
X19900Y1027
T02
X16031Y18445
X15031Y18445
X15031Y19445
X16031Y19445
X16031Y20445
X15031Y20445
T03
X14670Y16617
X14670Y14837
X17230Y14837
X17230Y16617
X30880Y24787
X31880Y24787
X32880Y24787
X33880Y24787
T04
X31930Y7377
X31930Y6377
X31930Y5377
X31930Y4377
X31930Y3377
T05
X34580Y4617
X36580Y4617
X11970Y4087
X9970Y4087
X7380Y4087
X5380Y4087
X4130Y9427
X4130Y11427
T06
X4130Y14227
X4130Y16196
X4130Y18164
X4130Y20133
X4160Y22267
X6160Y22267
X8160Y22267
X11180Y22227
X13180Y22227
X15180Y22227
T07
X20623Y21450
X22276Y21450
X23930Y21450
X25584Y21450
X27237Y21450
X27237Y23104
X25584Y23104
X23930Y23104
X22276Y23104
X20623Y23104
T08
X1500Y1547
X1500Y24907
X39110Y24957
X38970Y1637
M30
