%
M48
M72
T01C0.0236
T02C0.0315
T03C0.0400
T04C0.0551
T05C0.0591
T06C0.2165
%
T01
X31430Y5094
X42930Y11744
X48800Y14014
X49190Y17454
X34480Y12744
X48180Y7444
T02
X37386Y5528
X36599Y5528
X35811Y5528
X35024Y5528
X34236Y5528
X33449Y5528
X32661Y5528
X31874Y5528
X31874Y4544
X32661Y4544
X33449Y4544
X34236Y4544
X35024Y4544
X35811Y4544
X36599Y4544
X37386Y4544
X29486Y4544
X28699Y4544
X27911Y4544
X27124Y4544
X26336Y4544
X25549Y4544
X24761Y4544
X23974Y4544
X23974Y5528
X24761Y5528
X25549Y5528
X26336Y5528
X27124Y5528
X27911Y5528
X28699Y5528
X29486Y5528
X21686Y5528
X20899Y5528
X20111Y5528
X19324Y5528
X18536Y5528
X17749Y5528
X16961Y5528
X16174Y5528
X16174Y4544
X16961Y4544
X17749Y4544
X18536Y4544
X19324Y4544
X20111Y4544
X20899Y4544
X21686Y4544
X13836Y4544
X13049Y4544
X12261Y4544
X11474Y4544
X10686Y4544
X9899Y4544
X9111Y4544
X8324Y4544
X8324Y5528
X9111Y5528
X9899Y5528
X10686Y5528
X11474Y5528
X12261Y5528
X13049Y5528
X13836Y5528
T03
X51030Y10244
X52030Y10144
X53030Y10244
X54030Y10144
X55830Y13544
X55830Y14644
X57130Y19544
X57230Y20544
X57130Y21544
X57230Y22544
T04
X42430Y21594
X40430Y21594
X40230Y27524
X42230Y27524
X41180Y33544
X39180Y33544
X36180Y33544
X34180Y33544
X31180Y33544
X29180Y33544
X26180Y33544
X24180Y33544
X21180Y33544
X19180Y33544
X16180Y33544
X14180Y33544
X11180Y33544
X9180Y33544
X6180Y34544
X6180Y32544
X6180Y29544
X6180Y27544
X6180Y24544
X6180Y22544
X6180Y19544
X6180Y17544
X6180Y14544
X6180Y12544
X6180Y9544
X6180Y7544
X44180Y33544
X46180Y33544
X49180Y33544
X51180Y33544
X54180Y33544
X56180Y33544
T05
X59680Y33544
X61680Y33544
X63680Y33544
X61030Y31044
X61030Y29044
X61030Y27044
X61080Y24044
X61080Y22044
X61080Y20044
X61080Y17044
X61080Y15044
X61080Y13044
X61030Y9994
X61030Y7994
X61030Y5994
X58230Y6044
X56230Y6044
X54230Y6044
X51130Y6044
X49130Y6044
X47130Y6044
X44130Y6044
X42130Y6044
X40130Y6044
X36080Y10044
X34080Y10044
X32080Y10044
X28180Y10044
X26180Y10044
X24180Y10044
X24180Y15694
X26180Y15694
X28180Y15694
X31830Y15694
X33830Y15694
X35830Y15694
X40030Y15444
X42030Y15444
X44030Y15444
X43980Y10544
X41980Y10544
X39980Y10544
X35880Y21744
X33880Y21744
X31880Y21744
X28180Y21694
X26180Y21694
X24180Y21694
X24180Y27644
X26180Y27644
X28180Y27644
X31930Y27594
X33930Y27594
X35930Y27594
X46380Y21644
X48380Y21644
X50380Y21644
X52380Y21644
T06
X3380Y3494
X55430Y28644
X63830Y2694
X4230Y37744
M30
