G75*
G70*
%OFA0B0*%
%FSLAX24Y24*%
%IPPOS*%
%LPD*%
%AMOC8*
5,1,8,0,0,1.08239X$1,22.5*
%
%ADD10R,0.0591X0.1772*%
%ADD11R,0.0500X0.0220*%
%ADD12R,0.0220X0.0500*%
%ADD13C,0.0740*%
%ADD14R,0.0472X0.0315*%
%ADD15R,0.0217X0.0472*%
%ADD16R,0.0591X0.0512*%
%ADD17R,0.0512X0.0591*%
%ADD18R,0.1614X0.0394*%
%ADD19R,0.0315X0.0472*%
%ADD20R,0.0472X0.0217*%
%ADD21R,0.0630X0.0551*%
%ADD22R,0.0551X0.0630*%
%ADD23R,0.0315X0.0315*%
%ADD24R,0.0630X0.0315*%
%ADD25R,0.0315X0.0630*%
%ADD26R,0.0472X0.0472*%
%ADD27R,0.0394X0.1811*%
%ADD28R,0.0630X0.1339*%
%ADD29R,0.0787X0.0945*%
%ADD30R,0.0197X0.0909*%
%ADD31OC8,0.0740*%
%ADD32C,0.3543*%
%ADD33C,0.2100*%
%ADD34C,0.0160*%
%ADD35C,0.0396*%
%ADD36C,0.0240*%
%ADD37C,0.0120*%
%ADD38C,0.0100*%
%ADD39C,0.0320*%
D10*
X012079Y008231D03*
X012866Y008231D03*
X013654Y008231D03*
X014441Y008231D03*
X028579Y008231D03*
X029366Y008231D03*
X030154Y008231D03*
X030941Y008231D03*
D11*
X022950Y008578D03*
X022950Y008893D03*
X022950Y009208D03*
X022950Y009523D03*
X022950Y009837D03*
X022950Y010152D03*
X022950Y010467D03*
X022950Y010782D03*
X019570Y010782D03*
X019570Y010467D03*
X019570Y010152D03*
X019570Y009837D03*
X019570Y009523D03*
X019570Y009208D03*
X019570Y008893D03*
X019570Y008578D03*
D12*
X020158Y007990D03*
X020473Y007990D03*
X020788Y007990D03*
X021103Y007990D03*
X021417Y007990D03*
X021732Y007990D03*
X022047Y007990D03*
X022362Y007990D03*
X022362Y011370D03*
X022047Y011370D03*
X021732Y011370D03*
X021417Y011370D03*
X021103Y011370D03*
X020788Y011370D03*
X020473Y011370D03*
X020158Y011370D03*
D13*
X016550Y012900D03*
X014770Y012900D03*
X014770Y015460D03*
X016550Y015460D03*
X024570Y015660D03*
X026350Y015660D03*
X026350Y013100D03*
X024570Y013100D03*
X032760Y013530D03*
X032760Y012540D03*
X032760Y011490D03*
X007760Y011490D03*
X007760Y012540D03*
X007760Y013530D03*
D14*
X009460Y017726D03*
X009460Y018434D03*
X018360Y018886D03*
X018360Y019594D03*
X019160Y019526D03*
X019160Y020234D03*
X018360Y022826D03*
X018360Y023534D03*
X018590Y012034D03*
X018590Y011326D03*
X021400Y006834D03*
X021400Y006126D03*
D15*
X021034Y013668D03*
X020660Y013668D03*
X020286Y013668D03*
X020286Y014692D03*
X020660Y014692D03*
X021034Y014692D03*
X027446Y018888D03*
X027820Y018888D03*
X028194Y018888D03*
X028194Y019912D03*
X027446Y019912D03*
D16*
X026320Y019535D03*
X026320Y018865D03*
X029220Y020465D03*
X029220Y021135D03*
X024260Y009515D03*
X024260Y008845D03*
D17*
X025885Y010040D03*
X026555Y010040D03*
X021475Y012820D03*
X020805Y012820D03*
X018785Y010460D03*
X018115Y010460D03*
X027285Y020800D03*
X027955Y020800D03*
D18*
X024560Y011871D03*
X024560Y011280D03*
X024560Y010689D03*
D19*
X021634Y016900D03*
X020926Y016900D03*
D20*
X020748Y018906D03*
X021772Y018906D03*
X021772Y019280D03*
X021772Y019654D03*
X020748Y019654D03*
D21*
X024800Y019839D03*
X024800Y020941D03*
X010760Y018631D03*
X010760Y017529D03*
D22*
X020739Y018020D03*
X021841Y018020D03*
D23*
X018360Y020025D03*
X018360Y020615D03*
X019160Y020785D03*
X019160Y021375D03*
X018590Y013365D03*
X018590Y012775D03*
D24*
X017258Y018082D03*
X017258Y018554D03*
X017258Y019026D03*
X017258Y019499D03*
X017258Y019971D03*
X017258Y020444D03*
X017258Y020916D03*
X017258Y021389D03*
X017258Y021861D03*
X017258Y022334D03*
X017258Y022806D03*
X017258Y023278D03*
X012062Y023278D03*
X012062Y022806D03*
X012062Y022334D03*
X012062Y021861D03*
X012062Y021389D03*
X012062Y020916D03*
X012062Y020444D03*
X012062Y019971D03*
X012062Y019499D03*
X012062Y019026D03*
X012062Y018554D03*
X012062Y018082D03*
D25*
X013037Y016979D03*
X013440Y016979D03*
X013912Y016979D03*
X014384Y016979D03*
X014936Y016979D03*
X015408Y016979D03*
X015880Y016979D03*
X016283Y016979D03*
X016550Y024381D03*
X015920Y024381D03*
X015290Y024381D03*
D26*
X026320Y021213D03*
X026320Y020387D03*
D27*
X024024Y022583D03*
X023236Y022583D03*
D28*
X022291Y024631D03*
X024969Y024631D03*
D29*
X026088Y024787D03*
X026088Y022622D03*
X029552Y022622D03*
X029552Y024787D03*
D30*
X028450Y022400D03*
X028135Y022400D03*
X027820Y022400D03*
X027505Y022400D03*
X027190Y022400D03*
D31*
X017050Y011600D03*
X016050Y011500D03*
X015050Y011600D03*
X015050Y010600D03*
X016050Y010500D03*
X017050Y010600D03*
D32*
X006630Y006270D03*
X036240Y006980D03*
D33*
X020900Y021410D03*
D34*
X005124Y003296D02*
X004204Y004124D01*
X003376Y005044D01*
X002648Y006046D01*
X002029Y007118D01*
X001526Y008249D01*
X001143Y009426D01*
X000886Y010637D01*
X000756Y011868D01*
X000740Y012487D01*
X000740Y012489D01*
X000740Y012583D01*
X000740Y012584D01*
X000695Y022405D01*
X001028Y022267D01*
X001392Y022267D01*
X001727Y022406D01*
X001984Y022663D01*
X002123Y022998D01*
X002123Y023362D01*
X001984Y023697D01*
X001727Y023954D01*
X001392Y024093D01*
X001028Y024093D01*
X000693Y023954D01*
X000688Y023949D01*
X000682Y025231D01*
X021816Y025257D01*
X021816Y023895D01*
X021910Y023801D01*
X022673Y023801D01*
X022766Y023895D01*
X022766Y025258D01*
X024494Y025260D01*
X024494Y023895D01*
X024587Y023801D01*
X025350Y023801D01*
X025444Y023895D01*
X025444Y025262D01*
X025534Y025262D01*
X025534Y024249D01*
X025628Y024155D01*
X026545Y024155D01*
X026380Y023990D01*
X026277Y023741D01*
X026277Y023472D01*
X026367Y023254D01*
X025628Y023254D01*
X025534Y023161D01*
X025534Y022083D01*
X025628Y021990D01*
X026548Y021990D01*
X026641Y022083D01*
X026641Y023003D01*
X026819Y022929D01*
X026927Y022929D01*
X026924Y022924D01*
X026912Y022878D01*
X026912Y022400D01*
X026912Y021922D01*
X026924Y021876D01*
X026945Y021840D01*
X026472Y021840D01*
X026384Y021803D01*
X026317Y021736D01*
X024381Y021736D01*
X024381Y021612D02*
X024381Y023555D01*
X024287Y023649D01*
X023761Y023649D01*
X023667Y023555D01*
X023667Y021612D01*
X023704Y021575D01*
X023704Y019140D01*
X022186Y019140D01*
X022188Y019148D01*
X022188Y019280D01*
X022188Y019412D01*
X022176Y019458D01*
X022165Y019476D01*
X022168Y019479D01*
X022168Y019829D01*
X022074Y019922D01*
X021856Y019922D01*
X021828Y019934D01*
X021238Y019934D01*
X021135Y019891D01*
X021108Y019864D01*
X021051Y019922D01*
X020446Y019922D01*
X020352Y019829D01*
X020352Y019479D01*
X020446Y019386D01*
X020980Y019386D01*
X020980Y019174D01*
X020832Y019174D01*
X020804Y019186D01*
X020692Y019186D01*
X020664Y019174D01*
X020446Y019174D01*
X020352Y019081D01*
X020352Y018731D01*
X020446Y018638D01*
X020468Y018638D01*
X020468Y018495D01*
X020397Y018495D01*
X020303Y018401D01*
X020303Y017639D01*
X020397Y017545D01*
X020467Y017545D01*
X020497Y017474D01*
X020688Y017282D01*
X020608Y017202D01*
X020608Y016598D01*
X020686Y016520D01*
X020686Y016330D01*
X017786Y016330D01*
X017814Y016357D01*
X017868Y016489D01*
X017868Y016631D01*
X017814Y016763D01*
X017713Y016864D01*
X017581Y016918D01*
X017468Y016918D01*
X017468Y017764D01*
X017640Y017764D01*
X017733Y017858D01*
X017733Y018305D01*
X017721Y018318D01*
X017733Y018330D01*
X017790Y018273D01*
X017790Y017133D01*
X017852Y017071D01*
X017852Y016939D01*
X017906Y016807D01*
X018007Y016706D01*
X018139Y016652D01*
X018281Y016652D01*
X018413Y016706D01*
X018514Y016807D01*
X018568Y016939D01*
X018568Y017081D01*
X018514Y017213D01*
X018413Y017314D01*
X018281Y017368D01*
X018210Y017368D01*
X018210Y018447D01*
X018109Y018548D01*
X018360Y018548D01*
X018360Y018886D01*
X018360Y019223D01*
X018100Y019223D01*
X018054Y019211D01*
X018013Y019187D01*
X017980Y019154D01*
X017956Y019113D01*
X017944Y019067D01*
X017944Y018886D01*
X018360Y018886D01*
X018360Y018886D01*
X018360Y019223D01*
X018620Y019223D01*
X018666Y019211D01*
X018707Y019187D01*
X018740Y019154D01*
X018764Y019113D01*
X018776Y019067D01*
X018776Y018886D01*
X018360Y018886D01*
X018360Y018886D01*
X018360Y018886D01*
X017944Y018886D01*
X017944Y018713D01*
X017893Y018764D01*
X017733Y018764D01*
X017733Y018778D01*
X017721Y018790D01*
X017733Y018803D01*
X017733Y019250D01*
X017721Y019263D01*
X017733Y019275D01*
X017733Y019723D01*
X017721Y019735D01*
X017733Y019748D01*
X017733Y020195D01*
X017721Y020208D01*
X017733Y020220D01*
X017733Y020668D01*
X017725Y020676D01*
X018043Y020676D01*
X018043Y020392D01*
X018114Y020320D01*
X018043Y020248D01*
X018043Y019897D01*
X017964Y019818D01*
X017964Y019371D01*
X018058Y019277D01*
X018662Y019277D01*
X018744Y019358D01*
X018744Y019344D01*
X018756Y019299D01*
X018780Y019258D01*
X018813Y019224D01*
X018854Y019200D01*
X018900Y019188D01*
X019160Y019188D01*
X019160Y019526D01*
X019160Y019863D01*
X018900Y019863D01*
X018854Y019851D01*
X018813Y019827D01*
X018780Y019794D01*
X018756Y019753D01*
X018756Y019818D01*
X018677Y019897D01*
X018677Y020248D01*
X018606Y020320D01*
X018677Y020392D01*
X018677Y020839D01*
X018584Y020933D01*
X018547Y020933D01*
X018496Y020983D01*
X018360Y021120D01*
X018272Y021156D01*
X017725Y021156D01*
X017733Y021165D01*
X017733Y021612D01*
X017725Y021621D01*
X018865Y021621D01*
X018843Y021599D01*
X018843Y021152D01*
X018914Y021080D01*
X018843Y021008D01*
X018843Y020561D01*
X018855Y020549D01*
X018764Y020458D01*
X018764Y020011D01*
X018858Y019917D01*
X019462Y019917D01*
X019556Y020011D01*
X019556Y020458D01*
X019465Y020549D01*
X019477Y020561D01*
X019477Y021008D01*
X019406Y021080D01*
X019477Y021152D01*
X019477Y021599D01*
X019400Y021677D01*
X019400Y021828D01*
X019363Y021916D01*
X019296Y021983D01*
X019215Y022065D01*
X019127Y022101D01*
X018280Y022101D01*
X018349Y022130D01*
X018496Y022277D01*
X018563Y022344D01*
X018600Y022432D01*
X018600Y022508D01*
X018662Y022508D01*
X018756Y022602D01*
X018756Y023049D01*
X018662Y023143D01*
X018058Y023143D01*
X017964Y023049D01*
X017964Y022602D01*
X017992Y022574D01*
X017725Y022574D01*
X017733Y022582D01*
X017733Y023030D01*
X017721Y023042D01*
X017733Y023055D01*
X017733Y023502D01*
X017640Y023596D01*
X016877Y023596D01*
X016783Y023502D01*
X016783Y023055D01*
X016796Y023042D01*
X016783Y023030D01*
X016783Y022582D01*
X016796Y022570D01*
X016783Y022557D01*
X016783Y022110D01*
X016796Y022097D01*
X016783Y022085D01*
X016783Y021637D01*
X016796Y021625D01*
X016783Y021612D01*
X016783Y021165D01*
X016796Y021152D01*
X016783Y021140D01*
X016783Y020692D01*
X016796Y020680D01*
X016783Y020668D01*
X016783Y020220D01*
X016796Y020208D01*
X016783Y020195D01*
X016783Y019748D01*
X016796Y019735D01*
X016783Y019723D01*
X016783Y019275D01*
X016796Y019263D01*
X016783Y019250D01*
X016783Y018803D01*
X016796Y018790D01*
X016783Y018778D01*
X016783Y018330D01*
X016796Y018318D01*
X016783Y018305D01*
X016783Y017858D01*
X016877Y017764D01*
X017048Y017764D01*
X017048Y016725D01*
X017152Y016621D01*
X017152Y016489D01*
X017206Y016357D01*
X017234Y016330D01*
X013646Y016330D01*
X013583Y016394D01*
X013451Y016448D01*
X013309Y016448D01*
X013177Y016394D01*
X013114Y016330D01*
X013002Y016330D01*
X012914Y016293D01*
X012847Y016226D01*
X012527Y015906D01*
X012490Y015818D01*
X012490Y014109D01*
X012301Y013920D01*
X008900Y013920D01*
X008900Y018181D01*
X008914Y018194D01*
X009080Y018194D01*
X009158Y018117D01*
X009762Y018117D01*
X009856Y018211D01*
X009856Y018391D01*
X010285Y018391D01*
X010285Y018289D01*
X010379Y018196D01*
X011141Y018196D01*
X011235Y018289D01*
X011235Y018314D01*
X011582Y018314D01*
X011579Y018309D01*
X011567Y018263D01*
X011567Y018082D01*
X012062Y018082D01*
X012557Y018082D01*
X012557Y018263D01*
X012544Y018309D01*
X012533Y018327D01*
X012537Y018330D01*
X012537Y018778D01*
X012524Y018790D01*
X012537Y018803D01*
X012537Y019250D01*
X012524Y019263D01*
X012537Y019275D01*
X012537Y019723D01*
X012524Y019735D01*
X012537Y019748D01*
X012537Y020195D01*
X012524Y020208D01*
X012537Y020220D01*
X012537Y020668D01*
X012524Y020680D01*
X012537Y020692D01*
X012537Y021140D01*
X012524Y021152D01*
X012537Y021165D01*
X012537Y021612D01*
X012524Y021625D01*
X012537Y021637D01*
X012537Y022085D01*
X012524Y022097D01*
X012537Y022110D01*
X012537Y022557D01*
X012524Y022570D01*
X012537Y022582D01*
X012537Y023030D01*
X012533Y023033D01*
X012544Y023051D01*
X012557Y023097D01*
X012557Y023278D01*
X012062Y023278D01*
X012062Y023278D01*
X012557Y023278D01*
X012557Y023460D01*
X012544Y023505D01*
X012521Y023546D01*
X012487Y023580D01*
X012446Y023604D01*
X012400Y023616D01*
X012062Y023616D01*
X012062Y023278D01*
X011567Y023278D01*
X011567Y023097D01*
X011579Y023051D01*
X011590Y023033D01*
X011587Y023030D01*
X011587Y022582D01*
X011599Y022570D01*
X011587Y022557D01*
X011587Y022110D01*
X011599Y022097D01*
X011587Y022085D01*
X011587Y021637D01*
X011599Y021625D01*
X011587Y021612D01*
X011587Y021165D01*
X011599Y021152D01*
X011587Y021140D01*
X011587Y020692D01*
X011599Y020680D01*
X011587Y020668D01*
X011587Y020220D01*
X011599Y020208D01*
X011587Y020195D01*
X011587Y019748D01*
X011599Y019735D01*
X011587Y019723D01*
X011587Y019275D01*
X011599Y019263D01*
X011587Y019250D01*
X011587Y018803D01*
X011595Y018794D01*
X011235Y018794D01*
X011235Y018973D01*
X011141Y019067D01*
X010379Y019067D01*
X010285Y018973D01*
X010285Y018871D01*
X009609Y018871D01*
X009521Y018835D01*
X009438Y018752D01*
X009158Y018752D01*
X009080Y018674D01*
X008767Y018674D01*
X008678Y018638D01*
X008524Y018483D01*
X008457Y018416D01*
X008420Y018328D01*
X008420Y013920D01*
X008120Y013920D01*
X008060Y013979D01*
X007865Y014060D01*
X007655Y014060D01*
X007460Y013979D01*
X007311Y013830D01*
X007230Y013635D01*
X007230Y013425D01*
X007311Y013230D01*
X007460Y013081D01*
X007570Y013035D01*
X007460Y012989D01*
X007311Y012840D01*
X007230Y012645D01*
X007230Y012435D01*
X007311Y012240D01*
X007460Y012091D01*
X007622Y012023D01*
X007549Y012000D01*
X007472Y011960D01*
X007402Y011910D01*
X007340Y011848D01*
X007290Y011778D01*
X007250Y011701D01*
X007224Y011619D01*
X007210Y011533D01*
X007210Y011510D01*
X007740Y011510D01*
X007740Y011470D01*
X007780Y011470D01*
X007780Y011510D01*
X008310Y011510D01*
X008310Y011533D01*
X008296Y011619D01*
X008270Y011701D01*
X008230Y011778D01*
X008180Y011848D01*
X008118Y011910D01*
X008048Y011960D01*
X007971Y012000D01*
X007898Y012023D01*
X008060Y012091D01*
X008209Y012240D01*
X008234Y012300D01*
X013601Y012300D01*
X013652Y012248D01*
X013529Y012248D01*
X013397Y012194D01*
X013296Y012093D01*
X013242Y011961D01*
X013242Y011819D01*
X013296Y011687D01*
X013397Y011586D01*
X013414Y011580D01*
X013414Y009277D01*
X013292Y009277D01*
X013260Y009245D01*
X013228Y009277D01*
X013076Y009277D01*
X013076Y009322D01*
X013183Y009366D01*
X013284Y009467D01*
X013338Y009599D01*
X013338Y009741D01*
X013284Y009873D01*
X013183Y009974D01*
X013051Y010028D01*
X012909Y010028D01*
X012777Y009974D01*
X012676Y009873D01*
X012622Y009741D01*
X012622Y009599D01*
X012656Y009516D01*
X012656Y009277D01*
X012505Y009277D01*
X012487Y009259D01*
X012485Y009261D01*
X012444Y009285D01*
X012398Y009297D01*
X012147Y009297D01*
X012147Y008299D01*
X012011Y008299D01*
X012011Y008164D01*
X011604Y008164D01*
X011604Y007322D01*
X011616Y007276D01*
X011640Y007235D01*
X011673Y007201D01*
X011714Y007178D01*
X011760Y007165D01*
X012011Y007165D01*
X012011Y008164D01*
X012147Y008164D01*
X012147Y007165D01*
X012398Y007165D01*
X012444Y007178D01*
X012485Y007201D01*
X012487Y007203D01*
X012505Y007185D01*
X013228Y007185D01*
X013260Y007218D01*
X013292Y007185D01*
X014015Y007185D01*
X014047Y007218D01*
X014080Y007185D01*
X014803Y007185D01*
X014896Y007279D01*
X014896Y008021D01*
X019122Y008021D01*
X019230Y007913D01*
X019353Y007790D01*
X019888Y007790D01*
X019888Y007674D01*
X019971Y007591D01*
X019857Y007544D01*
X019756Y007443D01*
X019702Y007311D01*
X019702Y007169D01*
X019756Y007037D01*
X019857Y006936D01*
X019915Y006912D01*
X019880Y006877D01*
X019880Y006686D01*
X019786Y006593D01*
X019732Y006461D01*
X019732Y006319D01*
X019786Y006187D01*
X019887Y006086D01*
X020019Y006032D01*
X020161Y006032D01*
X020293Y006086D01*
X020394Y006187D01*
X020448Y006319D01*
X020448Y006461D01*
X020394Y006593D01*
X020300Y006686D01*
X020300Y006700D01*
X020477Y006700D01*
X020600Y006823D01*
X020750Y006973D01*
X020750Y006807D01*
X020640Y006697D01*
X020640Y006496D01*
X020546Y006403D01*
X020492Y006271D01*
X020492Y006129D01*
X020546Y005997D01*
X020647Y005896D01*
X020779Y005842D01*
X020921Y005842D01*
X021022Y005884D01*
X021098Y005808D01*
X021702Y005808D01*
X021796Y005902D01*
X021796Y005916D01*
X025003Y005916D01*
X025307Y006220D01*
X025395Y006308D01*
X025427Y006276D01*
X025559Y006222D01*
X025670Y006222D01*
X025670Y006122D01*
X025577Y006084D01*
X025476Y005983D01*
X025422Y005851D01*
X025422Y005709D01*
X025476Y005577D01*
X025577Y005476D01*
X025709Y005422D01*
X025851Y005422D01*
X025983Y005476D01*
X026084Y005577D01*
X026138Y005709D01*
X026138Y005851D01*
X026090Y005967D01*
X026090Y006113D01*
X026377Y006400D01*
X031727Y006400D01*
X031850Y006523D01*
X032240Y006913D01*
X032240Y011311D01*
X032250Y011279D01*
X032290Y011202D01*
X032340Y011132D01*
X032402Y011070D01*
X032472Y011020D01*
X032549Y010980D01*
X032631Y010954D01*
X032717Y010940D01*
X032740Y010940D01*
X032740Y011470D01*
X032780Y011470D01*
X032780Y011510D01*
X033310Y011510D01*
X033310Y011533D01*
X033296Y011619D01*
X033270Y011701D01*
X033230Y011778D01*
X033180Y011848D01*
X033118Y011910D01*
X033048Y011960D01*
X032971Y012000D01*
X032898Y012023D01*
X033060Y012091D01*
X033209Y012240D01*
X033290Y012435D01*
X033290Y012645D01*
X033209Y012840D01*
X033060Y012989D01*
X032950Y013035D01*
X033060Y013081D01*
X033209Y013230D01*
X033290Y013425D01*
X033290Y013635D01*
X033209Y013830D01*
X033060Y013979D01*
X032865Y014060D01*
X032655Y014060D01*
X032460Y013979D01*
X032311Y013830D01*
X032230Y013635D01*
X032230Y013425D01*
X032311Y013230D01*
X032460Y013081D01*
X032570Y013035D01*
X032460Y012989D01*
X032311Y012840D01*
X032230Y012645D01*
X032230Y012435D01*
X032311Y012240D01*
X032460Y012091D01*
X032622Y012023D01*
X032549Y012000D01*
X032472Y011960D01*
X032402Y011910D01*
X032340Y011848D01*
X032290Y011778D01*
X032250Y011701D01*
X032240Y011669D01*
X032240Y012237D01*
X032117Y012360D01*
X031217Y013260D01*
X028016Y013260D01*
X027923Y013354D01*
X027791Y013408D01*
X027649Y013408D01*
X027517Y013354D01*
X027416Y013253D01*
X027362Y013121D01*
X027362Y012979D01*
X027416Y012847D01*
X027517Y012746D01*
X027649Y012692D01*
X027791Y012692D01*
X027804Y012697D01*
X027752Y012571D01*
X027752Y012429D01*
X027806Y012297D01*
X027907Y012196D01*
X028039Y012142D01*
X028181Y012142D01*
X028270Y012178D01*
X028078Y012068D01*
X025527Y012068D01*
X025527Y012134D02*
X025433Y012227D01*
X023687Y012227D01*
X023593Y012134D01*
X023593Y012100D01*
X023039Y012100D01*
X022910Y011971D01*
X022730Y011791D01*
X022730Y011052D01*
X022634Y011052D01*
X022540Y010959D01*
X022540Y010392D01*
X022246Y010392D01*
X022196Y010413D01*
X022106Y010413D01*
X021849Y010671D01*
X021760Y010707D01*
X019980Y010707D01*
X019980Y010959D01*
X019886Y011052D01*
X019773Y011052D01*
X019763Y011076D01*
X019696Y011143D01*
X019636Y011203D01*
X019548Y011240D01*
X018986Y011240D01*
X018986Y011549D01*
X018892Y011643D01*
X018288Y011643D01*
X018194Y011549D01*
X018194Y011310D01*
X017538Y011310D01*
X017600Y011372D01*
X017600Y011580D01*
X017070Y011580D01*
X017070Y011620D01*
X017600Y011620D01*
X017600Y011828D01*
X017278Y012150D01*
X017070Y012150D01*
X017070Y011620D01*
X017030Y011620D01*
X017030Y012150D01*
X016822Y012150D01*
X016500Y011828D01*
X016500Y011800D01*
X016270Y012030D01*
X015830Y012030D01*
X015580Y011780D01*
X015580Y011820D01*
X015270Y012130D01*
X014830Y012130D01*
X014520Y011820D01*
X014520Y011380D01*
X014800Y011100D01*
X014520Y010820D01*
X014520Y010380D01*
X014830Y010070D01*
X015270Y010070D01*
X015520Y010320D01*
X015520Y010280D01*
X015830Y009970D01*
X016270Y009970D01*
X016580Y010280D01*
X016580Y010320D01*
X016830Y010070D01*
X017270Y010070D01*
X017580Y010380D01*
X017580Y010820D01*
X017510Y010890D01*
X017740Y010890D01*
X017715Y010866D01*
X017692Y010825D01*
X017679Y010779D01*
X017679Y010508D01*
X018067Y010508D01*
X018067Y010412D01*
X017679Y010412D01*
X017679Y010141D01*
X017692Y010095D01*
X017715Y010054D01*
X017749Y010021D01*
X017790Y009997D01*
X017836Y009985D01*
X018067Y009985D01*
X018067Y010412D01*
X018163Y010412D01*
X018163Y009985D01*
X018395Y009985D01*
X018441Y009997D01*
X018459Y010008D01*
X018462Y010005D01*
X019107Y010005D01*
X019160Y010058D01*
X019160Y009715D01*
X019152Y009702D01*
X019140Y009656D01*
X019140Y009523D01*
X019570Y009523D01*
X019570Y009523D01*
X020000Y009523D01*
X020000Y009656D01*
X019988Y009702D01*
X019980Y009715D01*
X019980Y010227D01*
X021613Y010227D01*
X021767Y010074D01*
X021767Y009984D01*
X021821Y009852D01*
X021860Y009814D01*
X021860Y009622D01*
X021897Y009534D01*
X021964Y009467D01*
X022112Y009319D01*
X022200Y009283D01*
X022520Y009283D01*
X022520Y009208D01*
X022950Y009208D01*
X022950Y009208D01*
X023380Y009208D01*
X023380Y009283D01*
X023805Y009283D01*
X023805Y009192D01*
X023808Y009189D01*
X023797Y009171D01*
X023785Y009125D01*
X023785Y008904D01*
X023701Y008938D01*
X023559Y008938D01*
X023427Y008884D01*
X023360Y008816D01*
X023360Y009015D01*
X023368Y009028D01*
X023380Y009074D01*
X023380Y009208D01*
X022950Y009208D01*
X022950Y009208D01*
X022520Y009208D01*
X022520Y009074D01*
X022532Y009028D01*
X022540Y009015D01*
X022540Y008401D01*
X022621Y008320D01*
X022619Y008320D01*
X022539Y008400D01*
X019981Y008400D01*
X019888Y008306D01*
X019888Y008210D01*
X019527Y008210D01*
X019429Y008308D01*
X019886Y008308D01*
X019980Y008401D01*
X019980Y009330D01*
X019988Y009343D01*
X020000Y009389D01*
X020000Y009523D01*
X019570Y009523D01*
X019570Y009523D01*
X019140Y009523D01*
X019140Y009389D01*
X019152Y009343D01*
X019160Y009330D01*
X019160Y009130D01*
X016870Y009130D01*
X016870Y009448D01*
X016833Y009536D01*
X016766Y009603D01*
X016576Y009793D01*
X016488Y009830D01*
X014599Y009830D01*
X014460Y009969D01*
X014460Y012068D01*
X014423Y012156D01*
X014356Y012223D01*
X013836Y012743D01*
X013748Y012780D01*
X008234Y012780D01*
X008209Y012840D01*
X008060Y012989D01*
X007950Y013035D01*
X008060Y013081D01*
X008209Y013230D01*
X008290Y013425D01*
X008290Y013440D01*
X012448Y013440D01*
X012536Y013477D01*
X012732Y013672D01*
X012732Y013579D01*
X012786Y013447D01*
X012887Y013346D01*
X013019Y013292D01*
X013161Y013292D01*
X013293Y013346D01*
X013386Y013440D01*
X014664Y013440D01*
X014641Y013436D01*
X014559Y013410D01*
X014482Y013370D01*
X014412Y013320D01*
X014350Y013258D01*
X014300Y013188D01*
X014260Y013111D01*
X014234Y013029D01*
X014220Y012943D01*
X014220Y012920D01*
X014750Y012920D01*
X014750Y012880D01*
X014790Y012880D01*
X014790Y012920D01*
X015320Y012920D01*
X015320Y012943D01*
X015306Y013029D01*
X015280Y013111D01*
X015240Y013188D01*
X015190Y013258D01*
X015128Y013320D01*
X015058Y013370D01*
X014981Y013410D01*
X014899Y013436D01*
X014876Y013440D01*
X015313Y013440D01*
X015460Y013293D01*
X015460Y012483D01*
X015583Y012360D01*
X015583Y012360D01*
X015650Y012293D01*
X015773Y012170D01*
X017777Y012170D01*
X017927Y012320D01*
X018050Y012443D01*
X018050Y013760D01*
X019560Y013760D01*
X019560Y011493D01*
X019760Y011293D01*
X019883Y011170D01*
X019888Y011170D01*
X019888Y011054D01*
X019981Y010960D01*
X022539Y010960D01*
X022632Y011054D01*
X022632Y011686D01*
X022539Y011780D01*
X020804Y011780D01*
X020828Y011839D01*
X020828Y011981D01*
X020791Y012070D01*
X021115Y012070D01*
X021136Y012017D01*
X021237Y011916D01*
X021369Y011862D01*
X021511Y011862D01*
X021643Y011916D01*
X021744Y012017D01*
X021798Y012149D01*
X021798Y012291D01*
X021774Y012350D01*
X021800Y012357D01*
X021841Y012381D01*
X021875Y012414D01*
X021898Y012455D01*
X021911Y012501D01*
X021911Y012772D01*
X021523Y012772D01*
X021523Y012868D01*
X021911Y012868D01*
X021911Y013139D01*
X021898Y013185D01*
X021875Y013226D01*
X021841Y013259D01*
X021800Y013283D01*
X021754Y013295D01*
X021659Y013295D01*
X021783Y013346D01*
X021884Y013447D01*
X021938Y013579D01*
X021938Y013721D01*
X021896Y013824D01*
X021949Y013802D01*
X022091Y013802D01*
X022223Y013856D01*
X022324Y013957D01*
X022378Y014089D01*
X022378Y014231D01*
X022324Y014363D01*
X022235Y014452D01*
X024330Y014452D01*
X024330Y013574D01*
X024270Y013549D01*
X024121Y013400D01*
X024040Y013205D01*
X024040Y012995D01*
X024121Y012800D01*
X024270Y012651D01*
X024465Y012570D01*
X024675Y012570D01*
X024870Y012651D01*
X025019Y012800D01*
X025100Y012995D01*
X025100Y013205D01*
X025019Y013400D01*
X024870Y013549D01*
X024810Y013574D01*
X024810Y015186D01*
X024870Y015211D01*
X025019Y015360D01*
X025100Y015555D01*
X025100Y015765D01*
X025019Y015960D01*
X024870Y016109D01*
X024675Y016190D01*
X024465Y016190D01*
X024270Y016109D01*
X024121Y015960D01*
X024040Y015765D01*
X024040Y015555D01*
X024121Y015360D01*
X024270Y015211D01*
X024330Y015186D01*
X024330Y014932D01*
X022212Y014932D01*
X022223Y014936D01*
X022324Y015037D01*
X022378Y015169D01*
X022378Y015311D01*
X022324Y015443D01*
X022223Y015544D01*
X022091Y015598D01*
X021949Y015598D01*
X021817Y015544D01*
X021784Y015510D01*
X021399Y015510D01*
X021166Y015744D01*
X021166Y016520D01*
X021243Y016598D01*
X021243Y017202D01*
X021180Y017266D01*
X021180Y017418D01*
X021143Y017506D01*
X021093Y017557D01*
X021174Y017639D01*
X021174Y018401D01*
X021081Y018495D01*
X021028Y018495D01*
X021028Y018638D01*
X021051Y018638D01*
X021128Y018716D01*
X021181Y018663D01*
X021284Y018620D01*
X021666Y018620D01*
X021762Y018580D01*
X023787Y018580D01*
X024579Y017789D01*
X024696Y017740D01*
X028074Y017740D01*
X028191Y017789D01*
X028281Y017879D01*
X028471Y018069D01*
X028520Y018186D01*
X028520Y018946D01*
X028471Y019063D01*
X028462Y019072D01*
X028462Y019191D01*
X028369Y019284D01*
X028019Y019284D01*
X028016Y019281D01*
X027998Y019292D01*
X027952Y019304D01*
X027820Y019304D01*
X027688Y019304D01*
X027642Y019292D01*
X027624Y019281D01*
X027621Y019284D01*
X027271Y019284D01*
X027178Y019191D01*
X027178Y019128D01*
X026775Y019128D01*
X026775Y019188D01*
X026763Y019200D01*
X027187Y019200D01*
X027271Y019516D02*
X027178Y019609D01*
X027178Y019841D01*
X027082Y019937D01*
X027045Y020025D01*
X027045Y020345D01*
X026963Y020345D01*
X026869Y020438D01*
X026869Y021162D01*
X026963Y021255D01*
X027608Y021255D01*
X027611Y021252D01*
X027629Y021263D01*
X027675Y021275D01*
X027907Y021275D01*
X027907Y020848D01*
X028003Y020848D01*
X028003Y021275D01*
X028234Y021275D01*
X028280Y021263D01*
X028320Y021240D01*
X028320Y021267D01*
X028227Y021360D01*
X026716Y021360D01*
X026716Y020911D01*
X026622Y020817D01*
X026018Y020817D01*
X025924Y020911D01*
X025924Y021516D01*
X026018Y021610D01*
X026190Y021610D01*
X026317Y021736D01*
X026317Y021736D01*
X026520Y021600D02*
X026320Y021400D01*
X026320Y021213D01*
X026716Y021261D02*
X027625Y021261D01*
X027907Y021261D02*
X028003Y021261D01*
X028003Y021102D02*
X027907Y021102D01*
X027907Y020944D02*
X028003Y020944D01*
X028003Y020752D02*
X028003Y020325D01*
X028234Y020325D01*
X028280Y020337D01*
X028320Y020360D01*
X028320Y020308D01*
X028019Y020308D01*
X027926Y020214D01*
X027926Y020096D01*
X027923Y020093D01*
X027874Y019976D01*
X027874Y019848D01*
X027923Y019731D01*
X027926Y019728D01*
X027926Y019609D01*
X028019Y019516D01*
X028369Y019516D01*
X028433Y019580D01*
X028594Y019580D01*
X028711Y019629D01*
X028801Y019719D01*
X028911Y019829D01*
X028960Y019946D01*
X028960Y020029D01*
X029172Y020029D01*
X029172Y020417D01*
X029268Y020417D01*
X029268Y020029D01*
X029539Y020029D01*
X029585Y020042D01*
X029626Y020065D01*
X029659Y020099D01*
X029683Y020140D01*
X029695Y020186D01*
X029695Y020417D01*
X029268Y020417D01*
X029268Y020513D01*
X029695Y020513D01*
X029695Y020745D01*
X029683Y020791D01*
X029672Y020809D01*
X029675Y020812D01*
X029675Y021457D01*
X029582Y021551D01*
X028924Y021551D01*
X028911Y021581D01*
X028830Y021663D01*
X028830Y022324D01*
X028781Y022441D01*
X028708Y022514D01*
X028708Y022921D01*
X028699Y022929D01*
X028821Y022929D01*
X028999Y023003D01*
X028999Y022083D01*
X029092Y021990D01*
X030012Y021990D01*
X030106Y022083D01*
X030106Y023161D01*
X030012Y023254D01*
X029273Y023254D01*
X029363Y023472D01*
X029363Y023741D01*
X029260Y023990D01*
X029095Y024155D01*
X030012Y024155D01*
X030106Y024249D01*
X030106Y025267D01*
X039814Y025279D01*
X039820Y023957D01*
X039492Y024093D01*
X039128Y024093D01*
X038793Y023954D01*
X038536Y023697D01*
X038397Y023362D01*
X038397Y022998D01*
X038536Y022663D01*
X038793Y022406D01*
X039128Y022267D01*
X039492Y022267D01*
X039826Y022406D01*
X039872Y011634D01*
X039868Y011625D01*
X039872Y011539D01*
X039873Y011453D01*
X039874Y011450D01*
X039882Y010945D01*
X039801Y009779D01*
X039591Y008628D01*
X039253Y007509D01*
X038793Y006435D01*
X038214Y005418D01*
X037526Y004473D01*
X036736Y003612D01*
X035854Y002843D01*
X034892Y002179D01*
X033862Y001626D01*
X032776Y001192D01*
X031649Y000883D01*
X030494Y000701D01*
X029917Y000660D01*
X027533Y000660D01*
X027597Y000724D01*
X027730Y001046D01*
X027730Y001393D01*
X027597Y001714D01*
X027351Y001960D01*
X027030Y002093D01*
X026683Y002093D01*
X026362Y001960D01*
X026116Y001714D01*
X025983Y001393D01*
X025983Y001046D01*
X026116Y000724D01*
X026180Y000660D01*
X012567Y000660D01*
X011948Y000676D01*
X011114Y000764D01*
X011230Y001046D01*
X011230Y001393D01*
X011097Y001714D01*
X010851Y001960D01*
X010530Y002093D01*
X010183Y002093D01*
X009862Y001960D01*
X009616Y001714D01*
X009483Y001393D01*
X009483Y001071D01*
X008329Y001446D01*
X007198Y001949D01*
X006126Y002568D01*
X005124Y003296D01*
X005064Y003350D02*
X036436Y003350D01*
X036618Y003509D02*
X004888Y003509D01*
X004712Y003667D02*
X036787Y003667D01*
X036932Y003826D02*
X004536Y003826D01*
X004360Y003984D02*
X037077Y003984D01*
X037222Y004143D02*
X004188Y004143D01*
X004045Y004301D02*
X037368Y004301D01*
X037513Y004460D02*
X007362Y004460D01*
X007378Y004465D02*
X007532Y004537D01*
X007680Y004622D01*
X007819Y004720D01*
X007950Y004830D01*
X008070Y004950D01*
X008180Y005081D01*
X008278Y005220D01*
X008363Y005368D01*
X008435Y005522D01*
X008493Y005683D01*
X008537Y005847D01*
X008567Y006015D01*
X008582Y006185D01*
X008582Y006190D01*
X006710Y006190D01*
X006710Y006350D01*
X008582Y006350D01*
X008582Y006355D01*
X008567Y006525D01*
X008537Y006693D01*
X008493Y006857D01*
X008435Y007018D01*
X008363Y007172D01*
X008278Y007320D01*
X008180Y007459D01*
X008070Y007590D01*
X007950Y007710D01*
X007819Y007820D01*
X007680Y007918D01*
X007532Y008003D01*
X007378Y008075D01*
X007217Y008133D01*
X007053Y008177D01*
X006885Y008207D01*
X006715Y008222D01*
X006710Y008222D01*
X006710Y006350D01*
X006550Y006350D01*
X006550Y008222D01*
X006545Y008222D01*
X006375Y008207D01*
X006207Y008177D01*
X006043Y008133D01*
X005882Y008075D01*
X005728Y008003D01*
X005580Y007918D01*
X005441Y007820D01*
X005310Y007710D01*
X005190Y007590D01*
X005080Y007459D01*
X004982Y007320D01*
X004897Y007172D01*
X004825Y007018D01*
X004767Y006857D01*
X004723Y006693D01*
X004693Y006525D01*
X004678Y006355D01*
X004678Y006350D01*
X006550Y006350D01*
X006550Y006190D01*
X006710Y006190D01*
X006710Y004318D01*
X006715Y004318D01*
X006885Y004333D01*
X007053Y004363D01*
X007217Y004407D01*
X007378Y004465D01*
X007672Y004618D02*
X037631Y004618D01*
X037747Y004777D02*
X007886Y004777D01*
X008055Y004935D02*
X037862Y004935D01*
X037977Y005094D02*
X036740Y005094D01*
X036663Y005073D02*
X036827Y005117D01*
X036988Y005175D01*
X037142Y005247D01*
X037290Y005332D01*
X037429Y005430D01*
X037560Y005540D01*
X037680Y005660D01*
X037790Y005791D01*
X037888Y005930D01*
X037973Y006078D01*
X038045Y006232D01*
X038103Y006393D01*
X038147Y006557D01*
X038177Y006725D01*
X038192Y006895D01*
X038192Y006900D01*
X036320Y006900D01*
X036320Y007060D01*
X038192Y007060D01*
X038192Y007065D01*
X038177Y007235D01*
X038147Y007403D01*
X038103Y007567D01*
X038045Y007728D01*
X037973Y007882D01*
X037888Y008030D01*
X037790Y008169D01*
X037680Y008300D01*
X037560Y008420D01*
X037429Y008530D01*
X037290Y008628D01*
X037142Y008713D01*
X036988Y008785D01*
X036827Y008843D01*
X036663Y008887D01*
X036495Y008917D01*
X036325Y008932D01*
X036320Y008932D01*
X036320Y007060D01*
X036160Y007060D01*
X036160Y008932D01*
X036155Y008932D01*
X035985Y008917D01*
X035817Y008887D01*
X035653Y008843D01*
X035492Y008785D01*
X035338Y008713D01*
X035190Y008628D01*
X035051Y008530D01*
X034920Y008420D01*
X034800Y008300D01*
X034690Y008169D01*
X034592Y008030D01*
X034507Y007882D01*
X034435Y007728D01*
X034377Y007567D01*
X034333Y007403D01*
X034303Y007235D01*
X034288Y007065D01*
X034288Y007060D01*
X036160Y007060D01*
X036160Y006900D01*
X036320Y006900D01*
X036320Y005028D01*
X036325Y005028D01*
X036495Y005043D01*
X036663Y005073D01*
X036320Y005094D02*
X036160Y005094D01*
X036160Y005028D02*
X036160Y006900D01*
X034288Y006900D01*
X034288Y006895D01*
X034303Y006725D01*
X034333Y006557D01*
X034377Y006393D01*
X034435Y006232D01*
X034507Y006078D01*
X034592Y005930D01*
X034690Y005791D01*
X034800Y005660D01*
X034920Y005540D01*
X035051Y005430D01*
X035190Y005332D01*
X035338Y005247D01*
X035492Y005175D01*
X035653Y005117D01*
X035817Y005073D01*
X035985Y005043D01*
X036155Y005028D01*
X036160Y005028D01*
X036160Y005252D02*
X036320Y005252D01*
X036320Y005411D02*
X036160Y005411D01*
X036160Y005569D02*
X036320Y005569D01*
X036320Y005728D02*
X036160Y005728D01*
X036160Y005886D02*
X036320Y005886D01*
X036320Y006045D02*
X036160Y006045D01*
X036160Y006203D02*
X036320Y006203D01*
X036320Y006362D02*
X036160Y006362D01*
X036160Y006520D02*
X036320Y006520D01*
X036320Y006679D02*
X036160Y006679D01*
X036160Y006837D02*
X036320Y006837D01*
X036320Y006996D02*
X039033Y006996D01*
X039101Y007154D02*
X038184Y007154D01*
X038163Y007313D02*
X039169Y007313D01*
X039237Y007471D02*
X038129Y007471D01*
X038081Y007630D02*
X039290Y007630D01*
X039338Y007788D02*
X038017Y007788D01*
X037936Y007947D02*
X039385Y007947D01*
X039433Y008105D02*
X037835Y008105D01*
X037711Y008264D02*
X039481Y008264D01*
X039529Y008422D02*
X037558Y008422D01*
X037357Y008581D02*
X039577Y008581D01*
X039611Y008739D02*
X037086Y008739D01*
X036604Y008898D02*
X039640Y008898D01*
X039669Y009056D02*
X032240Y009056D01*
X032240Y008898D02*
X035876Y008898D01*
X036160Y008898D02*
X036320Y008898D01*
X036320Y008739D02*
X036160Y008739D01*
X036160Y008581D02*
X036320Y008581D01*
X036320Y008422D02*
X036160Y008422D01*
X036160Y008264D02*
X036320Y008264D01*
X036320Y008105D02*
X036160Y008105D01*
X036160Y007947D02*
X036320Y007947D01*
X036320Y007788D02*
X036160Y007788D01*
X036160Y007630D02*
X036320Y007630D01*
X036320Y007471D02*
X036160Y007471D01*
X036160Y007313D02*
X036320Y007313D01*
X036320Y007154D02*
X036160Y007154D01*
X036160Y006996D02*
X032240Y006996D01*
X032240Y007154D02*
X034296Y007154D01*
X034317Y007313D02*
X032240Y007313D01*
X032240Y007471D02*
X034351Y007471D01*
X034399Y007630D02*
X032240Y007630D01*
X032240Y007788D02*
X034463Y007788D01*
X034544Y007947D02*
X032240Y007947D01*
X032240Y008105D02*
X034645Y008105D01*
X034769Y008264D02*
X032240Y008264D01*
X032240Y008422D02*
X034922Y008422D01*
X035123Y008581D02*
X032240Y008581D01*
X032240Y008739D02*
X035394Y008739D01*
X034293Y006837D02*
X032164Y006837D01*
X032005Y006679D02*
X034311Y006679D01*
X034343Y006520D02*
X031847Y006520D01*
X031373Y007160D02*
X025913Y007160D01*
X025691Y006938D01*
X025559Y006938D01*
X025430Y006885D01*
X025430Y008438D01*
X025519Y008222D01*
X025765Y007977D01*
X026086Y007844D01*
X026434Y007844D01*
X026755Y007977D01*
X027001Y008222D01*
X027134Y008544D01*
X027134Y008891D01*
X027001Y009212D01*
X026755Y009458D01*
X026497Y009565D01*
X026507Y009565D01*
X026507Y009992D01*
X026603Y009992D01*
X026603Y010088D01*
X026991Y010088D01*
X026991Y010359D01*
X026978Y010405D01*
X026955Y010446D01*
X026921Y010479D01*
X026880Y010503D01*
X026834Y010515D01*
X026603Y010515D01*
X026603Y010088D01*
X026507Y010088D01*
X026507Y010515D01*
X026275Y010515D01*
X026229Y010503D01*
X026211Y010492D01*
X026208Y010495D01*
X025563Y010495D01*
X025527Y010459D01*
X025527Y010953D01*
X025509Y010971D01*
X025511Y010973D01*
X025535Y011014D01*
X025547Y011059D01*
X025547Y011262D01*
X024578Y011262D01*
X024578Y011298D01*
X025547Y011298D01*
X025547Y011501D01*
X025535Y011546D01*
X025511Y011587D01*
X025509Y011589D01*
X025527Y011607D01*
X025527Y012134D01*
X025435Y012226D02*
X027878Y012226D01*
X027770Y012385D02*
X021845Y012385D01*
X021798Y012226D02*
X023685Y012226D01*
X023593Y011660D02*
X023221Y011660D01*
X023170Y011609D01*
X023170Y011052D01*
X023266Y011052D01*
X023360Y010959D01*
X023360Y010851D01*
X023429Y010920D01*
X023593Y010920D01*
X023593Y010953D01*
X023611Y010971D01*
X023609Y010973D01*
X023585Y011014D01*
X023573Y011059D01*
X023573Y011262D01*
X024542Y011262D01*
X024542Y011298D01*
X023573Y011298D01*
X023573Y011501D01*
X023585Y011546D01*
X023609Y011587D01*
X023611Y011589D01*
X023593Y011607D01*
X023593Y011660D01*
X023608Y011592D02*
X023170Y011592D01*
X023170Y011434D02*
X023573Y011434D01*
X023573Y011117D02*
X023170Y011117D01*
X023170Y011275D02*
X024542Y011275D01*
X024578Y011275D02*
X027650Y011275D01*
X027650Y011326D02*
X027650Y011034D01*
X027726Y010752D01*
X027872Y010498D01*
X028078Y010292D01*
X028332Y010146D01*
X028614Y010070D01*
X028906Y010070D01*
X029188Y010146D01*
X029442Y010292D01*
X029648Y010498D01*
X029794Y010752D01*
X029870Y011034D01*
X029870Y011326D01*
X029794Y011608D01*
X029648Y011862D01*
X029442Y012068D01*
X030945Y012068D01*
X030787Y012226D02*
X029145Y012226D01*
X029188Y012214D02*
X028906Y012290D01*
X028614Y012290D01*
X028332Y012214D01*
X028330Y012213D01*
X028406Y012290D01*
X030723Y012290D01*
X031380Y011633D01*
X031380Y009776D01*
X031353Y009804D01*
X031221Y009858D01*
X031079Y009858D01*
X030947Y009804D01*
X030846Y009703D01*
X030792Y009571D01*
X030792Y009439D01*
X030731Y009378D01*
X030731Y009277D01*
X030580Y009277D01*
X030547Y009245D01*
X030515Y009277D01*
X030400Y009277D01*
X030400Y009444D01*
X030464Y009507D01*
X030518Y009639D01*
X030518Y009781D01*
X030464Y009913D01*
X030363Y010014D01*
X030231Y010068D01*
X030089Y010068D01*
X029957Y010014D01*
X029856Y009913D01*
X029802Y009781D01*
X029802Y009639D01*
X029856Y009507D01*
X029920Y009444D01*
X029920Y009277D01*
X029792Y009277D01*
X029760Y009245D01*
X029728Y009277D01*
X029576Y009277D01*
X029576Y009581D01*
X029550Y009607D01*
X029427Y009730D01*
X027489Y009730D01*
X027421Y009758D01*
X027279Y009758D01*
X027147Y009704D01*
X027046Y009603D01*
X026992Y009471D01*
X026992Y009329D01*
X027046Y009197D01*
X027147Y009096D01*
X027279Y009042D01*
X027421Y009042D01*
X027553Y009096D01*
X027654Y009197D01*
X027700Y009310D01*
X029156Y009310D01*
X029156Y009277D01*
X029005Y009277D01*
X028987Y009259D01*
X028985Y009261D01*
X028944Y009285D01*
X028898Y009297D01*
X028647Y009297D01*
X028647Y008299D01*
X028511Y008299D01*
X028511Y008164D01*
X028104Y008164D01*
X028104Y007322D01*
X028116Y007276D01*
X028140Y007235D01*
X028173Y007201D01*
X028214Y007178D01*
X028260Y007165D01*
X028511Y007165D01*
X028511Y008164D01*
X028647Y008164D01*
X028647Y007165D01*
X028898Y007165D01*
X028944Y007178D01*
X028985Y007201D01*
X028987Y007203D01*
X029005Y007185D01*
X029728Y007185D01*
X029760Y007218D01*
X029792Y007185D01*
X030515Y007185D01*
X030547Y007218D01*
X030580Y007185D01*
X031303Y007185D01*
X031380Y007263D01*
X031380Y007167D01*
X031373Y007160D01*
X030170Y008070D02*
X030170Y008110D01*
X030170Y008215D01*
X030154Y008231D01*
X030160Y008120D02*
X030150Y008110D01*
X030170Y008110D01*
X030160Y008120D02*
X030160Y009710D01*
X029830Y009849D02*
X026991Y009849D01*
X026991Y009721D02*
X026991Y009992D01*
X026603Y009992D01*
X026603Y009565D01*
X026834Y009565D01*
X026880Y009577D01*
X026921Y009601D01*
X026955Y009634D01*
X026978Y009675D01*
X026991Y009721D01*
X026982Y009690D02*
X027134Y009690D01*
X027017Y009532D02*
X026578Y009532D01*
X026603Y009690D02*
X026507Y009690D01*
X026507Y009849D02*
X026603Y009849D01*
X026603Y010007D02*
X029951Y010007D01*
X029802Y009690D02*
X029467Y009690D01*
X029550Y009607D02*
X029550Y009607D01*
X029576Y009532D02*
X029846Y009532D01*
X029920Y009373D02*
X029576Y009373D01*
X030400Y009373D02*
X030731Y009373D01*
X030792Y009532D02*
X030474Y009532D01*
X030518Y009690D02*
X030841Y009690D01*
X031056Y009849D02*
X030490Y009849D01*
X030369Y010007D02*
X031380Y010007D01*
X031380Y009849D02*
X031244Y009849D01*
X031380Y010166D02*
X029223Y010166D01*
X029474Y010324D02*
X031380Y010324D01*
X031380Y010483D02*
X029632Y010483D01*
X029730Y010641D02*
X031380Y010641D01*
X031380Y010800D02*
X029807Y010800D01*
X029850Y010958D02*
X031380Y010958D01*
X031380Y011117D02*
X029870Y011117D01*
X029870Y011275D02*
X031380Y011275D01*
X031380Y011434D02*
X029841Y011434D01*
X029799Y011592D02*
X031380Y011592D01*
X031262Y011751D02*
X029712Y011751D01*
X029601Y011909D02*
X031104Y011909D01*
X031934Y012543D02*
X032230Y012543D01*
X032251Y012385D02*
X032092Y012385D01*
X032240Y012226D02*
X032324Y012226D01*
X032240Y012068D02*
X032516Y012068D01*
X032401Y011909D02*
X032240Y011909D01*
X032240Y011751D02*
X032275Y011751D01*
X032780Y011470D02*
X032780Y010940D01*
X032803Y010940D01*
X032889Y010954D01*
X032971Y010980D01*
X033048Y011020D01*
X033118Y011070D01*
X033180Y011132D01*
X033230Y011202D01*
X033270Y011279D01*
X033296Y011361D01*
X033310Y011447D01*
X033310Y011470D01*
X032780Y011470D01*
X032780Y011434D02*
X032740Y011434D01*
X032740Y011275D02*
X032780Y011275D01*
X032780Y011117D02*
X032740Y011117D01*
X032740Y010958D02*
X032780Y010958D01*
X032903Y010958D02*
X039881Y010958D01*
X039879Y011117D02*
X033164Y011117D01*
X033268Y011275D02*
X039877Y011275D01*
X039874Y011434D02*
X033308Y011434D01*
X033301Y011592D02*
X039870Y011592D01*
X039871Y011751D02*
X033245Y011751D01*
X033119Y011909D02*
X039871Y011909D01*
X039870Y012068D02*
X033004Y012068D01*
X033196Y012226D02*
X039869Y012226D01*
X039869Y012385D02*
X033269Y012385D01*
X033290Y012543D02*
X039868Y012543D01*
X039867Y012702D02*
X033267Y012702D01*
X033190Y012860D02*
X039867Y012860D01*
X039866Y013019D02*
X032990Y013019D01*
X033157Y013177D02*
X039865Y013177D01*
X039865Y013336D02*
X033253Y013336D01*
X033290Y013494D02*
X039864Y013494D01*
X039863Y013653D02*
X033283Y013653D01*
X033217Y013811D02*
X039863Y013811D01*
X039862Y013970D02*
X033070Y013970D01*
X032450Y013970D02*
X024810Y013970D01*
X024810Y014128D02*
X039861Y014128D01*
X039861Y014287D02*
X024810Y014287D01*
X024810Y014445D02*
X039860Y014445D01*
X039859Y014604D02*
X024810Y014604D01*
X024810Y014762D02*
X039859Y014762D01*
X039858Y014921D02*
X024810Y014921D01*
X024810Y015079D02*
X039857Y015079D01*
X039857Y015238D02*
X026704Y015238D01*
X026708Y015240D02*
X026770Y015302D01*
X026820Y015372D01*
X026860Y015449D01*
X026886Y015531D01*
X026900Y015617D01*
X026900Y015640D01*
X026370Y015640D01*
X026370Y015680D01*
X026330Y015680D01*
X026330Y016210D01*
X026307Y016210D01*
X026221Y016196D01*
X026139Y016170D01*
X026062Y016130D01*
X025992Y016080D01*
X025930Y016018D01*
X025880Y015948D01*
X025840Y015871D01*
X025814Y015789D01*
X025800Y015703D01*
X025800Y015680D01*
X026330Y015680D01*
X026330Y015640D01*
X025800Y015640D01*
X025800Y015617D01*
X025814Y015531D01*
X025840Y015449D01*
X025880Y015372D01*
X025930Y015302D01*
X025992Y015240D01*
X026062Y015190D01*
X026139Y015150D01*
X026221Y015124D01*
X026307Y015110D01*
X026330Y015110D01*
X026330Y015640D01*
X026370Y015640D01*
X026370Y015110D01*
X026393Y015110D01*
X026479Y015124D01*
X026561Y015150D01*
X026638Y015190D01*
X026708Y015240D01*
X026833Y015396D02*
X039856Y015396D01*
X039855Y015555D02*
X026890Y015555D01*
X026900Y015680D02*
X026900Y015703D01*
X026886Y015789D01*
X026860Y015871D01*
X026820Y015948D01*
X026770Y016018D01*
X026708Y016080D01*
X026638Y016130D01*
X026561Y016170D01*
X026479Y016196D01*
X026393Y016210D01*
X026370Y016210D01*
X026370Y015680D01*
X026900Y015680D01*
X026898Y015713D02*
X039855Y015713D01*
X039854Y015872D02*
X026860Y015872D01*
X026758Y016030D02*
X039853Y016030D01*
X039853Y016189D02*
X026503Y016189D01*
X026370Y016189D02*
X026330Y016189D01*
X026197Y016189D02*
X024679Y016189D01*
X024461Y016189D02*
X021166Y016189D01*
X021166Y016347D02*
X039852Y016347D01*
X039851Y016506D02*
X021878Y016506D01*
X021861Y016496D02*
X021902Y016520D01*
X021936Y016553D01*
X021960Y016594D01*
X021972Y016640D01*
X021972Y016900D01*
X021972Y017160D01*
X021960Y017206D01*
X021936Y017247D01*
X021902Y017280D01*
X021861Y017304D01*
X021816Y017316D01*
X021634Y017316D01*
X021453Y017316D01*
X021407Y017304D01*
X021366Y017280D01*
X021333Y017247D01*
X021309Y017206D01*
X021297Y017160D01*
X021297Y016900D01*
X021297Y016640D01*
X021309Y016594D01*
X021333Y016553D01*
X021366Y016520D01*
X021407Y016496D01*
X021453Y016484D01*
X021634Y016484D01*
X021634Y016900D01*
X021297Y016900D01*
X021634Y016900D01*
X021634Y016900D01*
X021634Y016900D01*
X021634Y017316D01*
X021634Y016900D01*
X021634Y016900D01*
X021634Y016484D01*
X021816Y016484D01*
X021861Y016496D01*
X021972Y016664D02*
X039851Y016664D01*
X039850Y016823D02*
X021972Y016823D01*
X021972Y016900D02*
X021634Y016900D01*
X021972Y016900D01*
X021972Y016981D02*
X039849Y016981D01*
X039849Y017140D02*
X021972Y017140D01*
X021872Y017298D02*
X039848Y017298D01*
X039847Y017457D02*
X021164Y017457D01*
X021151Y017615D02*
X021410Y017615D01*
X021422Y017595D02*
X021455Y017561D01*
X021496Y017537D01*
X021542Y017525D01*
X021783Y017525D01*
X021783Y017962D01*
X021386Y017962D01*
X021386Y017681D01*
X021398Y017636D01*
X021422Y017595D01*
X021386Y017774D02*
X021174Y017774D01*
X021174Y017932D02*
X021386Y017932D01*
X021386Y018078D02*
X021783Y018078D01*
X021783Y017962D01*
X021899Y017962D01*
X021899Y017525D01*
X022140Y017525D01*
X022186Y017537D01*
X022227Y017561D01*
X022261Y017595D01*
X022285Y017636D01*
X022297Y017681D01*
X022297Y017962D01*
X021899Y017962D01*
X021899Y018078D01*
X021783Y018078D01*
X021783Y018515D01*
X021542Y018515D01*
X021496Y018503D01*
X021455Y018479D01*
X021422Y018445D01*
X021398Y018404D01*
X021386Y018359D01*
X021386Y018078D01*
X021386Y018091D02*
X021174Y018091D01*
X021174Y018249D02*
X021386Y018249D01*
X021400Y018408D02*
X021168Y018408D01*
X021028Y018566D02*
X023801Y018566D01*
X023960Y018408D02*
X022283Y018408D01*
X022285Y018404D02*
X022261Y018445D01*
X022227Y018479D01*
X022186Y018503D01*
X022140Y018515D01*
X021899Y018515D01*
X021899Y018078D01*
X022297Y018078D01*
X022297Y018359D01*
X022285Y018404D01*
X022297Y018249D02*
X024118Y018249D01*
X024277Y018091D02*
X022297Y018091D01*
X022297Y017932D02*
X024435Y017932D01*
X024615Y017774D02*
X022297Y017774D01*
X022273Y017615D02*
X039847Y017615D01*
X039846Y017774D02*
X028155Y017774D01*
X028335Y017932D02*
X039845Y017932D01*
X039845Y018091D02*
X028480Y018091D01*
X028520Y018249D02*
X039844Y018249D01*
X039843Y018408D02*
X028520Y018408D01*
X028520Y018566D02*
X039842Y018566D01*
X039842Y018725D02*
X028520Y018725D01*
X028520Y018883D02*
X039841Y018883D01*
X039840Y019042D02*
X028480Y019042D01*
X028453Y019200D02*
X039840Y019200D01*
X039839Y019359D02*
X026775Y019359D01*
X026775Y019212D02*
X026775Y019857D01*
X026682Y019951D01*
X026560Y019951D01*
X026560Y019990D01*
X026622Y019990D01*
X026716Y020084D01*
X026716Y020689D01*
X026622Y020783D01*
X026018Y020783D01*
X025924Y020689D01*
X025924Y020084D01*
X026018Y019990D01*
X026080Y019990D01*
X026080Y019951D01*
X025958Y019951D01*
X025865Y019857D01*
X025865Y019212D01*
X025877Y019200D01*
X024344Y019200D01*
X024344Y019042D02*
X025865Y019042D01*
X025865Y019188D02*
X025865Y018543D01*
X025958Y018449D01*
X026682Y018449D01*
X026775Y018543D01*
X026775Y018648D01*
X027178Y018648D01*
X027178Y018586D01*
X027271Y018492D01*
X027621Y018492D01*
X027624Y018495D01*
X027642Y018484D01*
X027688Y018472D01*
X027820Y018472D01*
X027880Y018472D01*
X027880Y018383D01*
X027877Y018380D01*
X024893Y018380D01*
X024344Y018929D01*
X024344Y019450D01*
X024375Y019419D01*
X024416Y019395D01*
X024461Y019383D01*
X024742Y019383D01*
X024742Y019781D01*
X024858Y019781D01*
X024858Y019897D01*
X024742Y019897D01*
X024742Y020294D01*
X024461Y020294D01*
X024416Y020282D01*
X024375Y020258D01*
X024344Y020228D01*
X024344Y020581D01*
X024419Y020506D01*
X025181Y020506D01*
X025275Y020599D01*
X025275Y021283D01*
X025181Y021377D01*
X024419Y021377D01*
X024344Y021302D01*
X024344Y021575D01*
X024381Y021612D01*
X024347Y021578D02*
X025985Y021578D01*
X025924Y021419D02*
X024344Y021419D01*
X024024Y021030D02*
X024113Y020941D01*
X024800Y020941D01*
X025275Y020944D02*
X025924Y020944D01*
X025924Y021102D02*
X025275Y021102D01*
X025275Y021261D02*
X025924Y021261D01*
X025275Y020785D02*
X026869Y020785D01*
X026869Y020627D02*
X026716Y020627D01*
X026716Y020468D02*
X026869Y020468D01*
X026716Y020310D02*
X027045Y020310D01*
X027045Y020151D02*
X026716Y020151D01*
X026625Y019993D02*
X027059Y019993D01*
X027178Y019834D02*
X026775Y019834D01*
X026775Y019676D02*
X027178Y019676D01*
X027270Y019517D02*
X026775Y019517D01*
X026775Y019212D02*
X026763Y019200D01*
X026343Y018888D02*
X026320Y018865D01*
X026343Y018888D02*
X027446Y018888D01*
X027820Y018888D02*
X027820Y019304D01*
X027820Y018888D01*
X027820Y018472D01*
X027820Y018888D01*
X027820Y018888D01*
X027820Y018888D01*
X027820Y018883D02*
X027820Y018883D01*
X027820Y018725D02*
X027820Y018725D01*
X027820Y018566D02*
X027820Y018566D01*
X027880Y018408D02*
X024865Y018408D01*
X024707Y018566D02*
X025865Y018566D01*
X025865Y018725D02*
X024548Y018725D01*
X024390Y018883D02*
X025865Y018883D01*
X025865Y019188D02*
X025877Y019200D01*
X025865Y019359D02*
X024344Y019359D01*
X024742Y019517D02*
X024858Y019517D01*
X024858Y019383D02*
X025139Y019383D01*
X025184Y019395D01*
X025225Y019419D01*
X025259Y019453D01*
X025283Y019494D01*
X025295Y019540D01*
X025295Y019781D01*
X024858Y019781D01*
X024858Y019383D01*
X024858Y019676D02*
X024742Y019676D01*
X024858Y019834D02*
X025865Y019834D01*
X025865Y019676D02*
X025295Y019676D01*
X025289Y019517D02*
X025865Y019517D01*
X026320Y019535D02*
X026320Y020387D01*
X025924Y020310D02*
X024344Y020310D01*
X024344Y020468D02*
X025924Y020468D01*
X025924Y020627D02*
X025275Y020627D01*
X025184Y020282D02*
X025139Y020294D01*
X024858Y020294D01*
X024858Y019897D01*
X025295Y019897D01*
X025295Y020138D01*
X025283Y020184D01*
X025259Y020225D01*
X025225Y020258D01*
X025184Y020282D01*
X025291Y020151D02*
X025924Y020151D01*
X026015Y019993D02*
X025295Y019993D01*
X024858Y019993D02*
X024742Y019993D01*
X024742Y020151D02*
X024858Y020151D01*
X023704Y020151D02*
X019556Y020151D01*
X019556Y020310D02*
X020350Y020310D01*
X020304Y020332D02*
X020429Y020272D01*
X020559Y020226D01*
X020694Y020195D01*
X020820Y020181D01*
X020820Y021330D01*
X020980Y021330D01*
X020980Y021490D01*
X022129Y021490D01*
X022115Y021616D01*
X022084Y021751D01*
X022038Y021881D01*
X021978Y022006D01*
X021905Y022123D01*
X021819Y022231D01*
X021721Y022329D01*
X021613Y022415D01*
X021496Y022488D01*
X021371Y022548D01*
X021241Y022594D01*
X021106Y022625D01*
X020980Y022639D01*
X020980Y021490D01*
X020820Y021490D01*
X020820Y022639D01*
X020694Y022625D01*
X020559Y022594D01*
X020429Y022548D01*
X020304Y022488D01*
X020187Y022415D01*
X020079Y022329D01*
X019981Y022231D01*
X019895Y022123D01*
X019822Y022006D01*
X019762Y021881D01*
X019716Y021751D01*
X019685Y021616D01*
X019671Y021490D01*
X020820Y021490D01*
X020820Y021330D01*
X019671Y021330D01*
X019685Y021204D01*
X019716Y021069D01*
X019762Y020939D01*
X019822Y020814D01*
X019895Y020697D01*
X019981Y020589D01*
X020079Y020491D01*
X020187Y020405D01*
X020304Y020332D01*
X020108Y020468D02*
X019546Y020468D01*
X019477Y020627D02*
X019952Y020627D01*
X019840Y020785D02*
X019477Y020785D01*
X019477Y020944D02*
X019760Y020944D01*
X019709Y021102D02*
X019428Y021102D01*
X019477Y021261D02*
X019679Y021261D01*
X019477Y021419D02*
X020820Y021419D01*
X020820Y021261D02*
X020980Y021261D01*
X020980Y021330D02*
X020980Y020181D01*
X021106Y020195D01*
X021241Y020226D01*
X021371Y020272D01*
X021496Y020332D01*
X021613Y020405D01*
X021721Y020491D01*
X021819Y020589D01*
X021905Y020697D01*
X021978Y020814D01*
X022038Y020939D01*
X022084Y021069D01*
X022115Y021204D01*
X022129Y021330D01*
X020980Y021330D01*
X020980Y021419D02*
X023704Y021419D01*
X023704Y021261D02*
X022121Y021261D01*
X022091Y021102D02*
X023704Y021102D01*
X023704Y020944D02*
X022040Y020944D01*
X021960Y020785D02*
X023704Y020785D01*
X023704Y020627D02*
X021848Y020627D01*
X021692Y020468D02*
X023704Y020468D01*
X023704Y020310D02*
X021450Y020310D01*
X020980Y020310D02*
X020820Y020310D01*
X020820Y020468D02*
X020980Y020468D01*
X020980Y020627D02*
X020820Y020627D01*
X020820Y020785D02*
X020980Y020785D01*
X020980Y020944D02*
X020820Y020944D01*
X020820Y021102D02*
X020980Y021102D01*
X020980Y021578D02*
X020820Y021578D01*
X020820Y021736D02*
X020980Y021736D01*
X020980Y021895D02*
X020820Y021895D01*
X020820Y022053D02*
X020980Y022053D01*
X020980Y022212D02*
X020820Y022212D01*
X020820Y022370D02*
X020980Y022370D01*
X020980Y022529D02*
X020820Y022529D01*
X020388Y022529D02*
X018683Y022529D01*
X018756Y022687D02*
X022859Y022687D01*
X022859Y022602D02*
X023218Y022602D01*
X023218Y023669D01*
X023016Y023669D01*
X022970Y023657D01*
X022929Y023633D01*
X022895Y023599D01*
X022872Y023558D01*
X022859Y023513D01*
X022859Y022602D01*
X022859Y022565D02*
X022859Y021654D01*
X022872Y021608D01*
X022895Y021567D01*
X022929Y021534D01*
X022970Y021510D01*
X023016Y021498D01*
X023218Y021498D01*
X023218Y022565D01*
X023255Y022565D01*
X023255Y022602D01*
X023613Y022602D01*
X023613Y023513D01*
X023601Y023558D01*
X023577Y023599D01*
X023544Y023633D01*
X023503Y023657D01*
X023457Y023669D01*
X023255Y023669D01*
X023255Y022602D01*
X023218Y022602D01*
X023218Y022565D01*
X022859Y022565D01*
X022859Y022529D02*
X021412Y022529D01*
X021669Y022370D02*
X022859Y022370D01*
X022859Y022212D02*
X021834Y022212D01*
X021949Y022053D02*
X022859Y022053D01*
X022859Y021895D02*
X022032Y021895D01*
X022087Y021736D02*
X022859Y021736D01*
X022889Y021578D02*
X022119Y021578D01*
X023218Y021578D02*
X023255Y021578D01*
X023255Y021498D02*
X023457Y021498D01*
X023503Y021510D01*
X023544Y021534D01*
X023577Y021567D01*
X023601Y021608D01*
X023613Y021654D01*
X023613Y022565D01*
X023255Y022565D01*
X023255Y021498D01*
X023255Y021736D02*
X023218Y021736D01*
X023218Y021895D02*
X023255Y021895D01*
X023255Y022053D02*
X023218Y022053D01*
X023218Y022212D02*
X023255Y022212D01*
X023255Y022370D02*
X023218Y022370D01*
X023218Y022529D02*
X023255Y022529D01*
X023255Y022687D02*
X023218Y022687D01*
X023218Y022846D02*
X023255Y022846D01*
X023255Y023004D02*
X023218Y023004D01*
X023218Y023163D02*
X023255Y023163D01*
X023255Y023321D02*
X023218Y023321D01*
X023218Y023480D02*
X023255Y023480D01*
X023255Y023638D02*
X023218Y023638D01*
X022938Y023638D02*
X018776Y023638D01*
X018776Y023716D02*
X018764Y023761D01*
X018740Y023802D01*
X018707Y023836D01*
X018666Y023860D01*
X018620Y023872D01*
X018360Y023872D01*
X018100Y023872D01*
X018054Y023860D01*
X018013Y023836D01*
X017980Y023802D01*
X017956Y023761D01*
X017944Y023716D01*
X017944Y023534D01*
X017944Y023353D01*
X017956Y023307D01*
X017980Y023266D01*
X018013Y023233D01*
X018054Y023209D01*
X018100Y023197D01*
X018360Y023197D01*
X018620Y023197D01*
X018666Y023209D01*
X018707Y023233D01*
X018740Y023266D01*
X018764Y023307D01*
X018776Y023353D01*
X018776Y023534D01*
X018360Y023534D01*
X018360Y023197D01*
X018360Y023534D01*
X018360Y023534D01*
X017944Y023534D01*
X018360Y023534D01*
X018360Y023534D01*
X018360Y023534D01*
X018776Y023534D01*
X018776Y023716D01*
X018744Y023797D02*
X026300Y023797D01*
X026277Y023638D02*
X024298Y023638D01*
X024381Y023480D02*
X026277Y023480D01*
X026339Y023321D02*
X024381Y023321D01*
X024381Y023163D02*
X025536Y023163D01*
X025534Y023004D02*
X024381Y023004D01*
X024381Y022846D02*
X025534Y022846D01*
X025534Y022687D02*
X024381Y022687D01*
X024381Y022529D02*
X025534Y022529D01*
X025534Y022370D02*
X024381Y022370D01*
X024381Y022212D02*
X025534Y022212D01*
X025564Y022053D02*
X024381Y022053D01*
X024381Y021895D02*
X026919Y021895D01*
X026912Y022053D02*
X026611Y022053D01*
X026641Y022212D02*
X026912Y022212D01*
X026912Y022370D02*
X026641Y022370D01*
X026641Y022529D02*
X026912Y022529D01*
X026912Y022400D02*
X027190Y022400D01*
X026912Y022400D01*
X027190Y022400D02*
X027190Y022400D01*
X027190Y022972D01*
X027190Y022400D01*
X027190Y022400D01*
X027190Y021840D01*
X027190Y021840D01*
X027190Y022400D01*
X027190Y022400D01*
X027247Y022400D01*
X027190Y022400D01*
X027190Y022400D01*
X027190Y022370D02*
X027190Y022370D01*
X027247Y022400D02*
X027247Y022400D01*
X027190Y022529D02*
X027190Y022529D01*
X027190Y022687D02*
X027190Y022687D01*
X027190Y022846D02*
X027190Y022846D01*
X027190Y022972D02*
X027190Y022972D01*
X026912Y022846D02*
X026641Y022846D01*
X026641Y022687D02*
X026912Y022687D01*
X027190Y022212D02*
X027190Y022212D01*
X027190Y022053D02*
X027190Y022053D01*
X027190Y021895D02*
X027190Y021895D01*
X026520Y021600D02*
X028440Y021600D01*
X028450Y021610D01*
X028830Y021736D02*
X039829Y021736D01*
X039830Y021578D02*
X028913Y021578D01*
X028830Y021895D02*
X039828Y021895D01*
X039828Y022053D02*
X030076Y022053D01*
X030106Y022212D02*
X039827Y022212D01*
X039826Y022370D02*
X039741Y022370D01*
X038879Y022370D02*
X030106Y022370D01*
X030106Y022529D02*
X038670Y022529D01*
X038526Y022687D02*
X030106Y022687D01*
X030106Y022846D02*
X038460Y022846D01*
X038397Y023004D02*
X030106Y023004D01*
X030104Y023163D02*
X038397Y023163D01*
X038397Y023321D02*
X029301Y023321D01*
X029363Y023480D02*
X038446Y023480D01*
X038511Y023638D02*
X029363Y023638D01*
X029340Y023797D02*
X038635Y023797D01*
X038795Y023955D02*
X029274Y023955D01*
X029136Y024114D02*
X039819Y024114D01*
X039818Y024272D02*
X030106Y024272D01*
X030106Y024431D02*
X039818Y024431D01*
X039817Y024589D02*
X030106Y024589D01*
X030106Y024748D02*
X039816Y024748D01*
X039816Y024906D02*
X030106Y024906D01*
X030106Y025065D02*
X039815Y025065D01*
X039814Y025223D02*
X030106Y025223D01*
X028999Y022846D02*
X028708Y022846D01*
X028708Y022687D02*
X028999Y022687D01*
X028999Y022529D02*
X028708Y022529D01*
X028811Y022370D02*
X028999Y022370D01*
X028999Y022212D02*
X028830Y022212D01*
X028830Y022053D02*
X029029Y022053D01*
X028510Y022260D02*
X028450Y022260D01*
X028450Y022400D01*
X029675Y021419D02*
X039830Y021419D01*
X039831Y021261D02*
X029675Y021261D01*
X029675Y021102D02*
X039832Y021102D01*
X039832Y020944D02*
X029675Y020944D01*
X029685Y020785D02*
X039833Y020785D01*
X039834Y020627D02*
X029695Y020627D01*
X029695Y020310D02*
X039835Y020310D01*
X039834Y020468D02*
X029268Y020468D01*
X029268Y020310D02*
X029172Y020310D01*
X029172Y020151D02*
X029268Y020151D01*
X028960Y019993D02*
X039836Y019993D01*
X039836Y020151D02*
X029686Y020151D01*
X028913Y019834D02*
X039837Y019834D01*
X039838Y019676D02*
X028758Y019676D01*
X028370Y019517D02*
X039838Y019517D01*
X032303Y013811D02*
X024810Y013811D01*
X024810Y013653D02*
X032237Y013653D01*
X032230Y013494D02*
X026734Y013494D01*
X026708Y013520D02*
X026638Y013570D01*
X026561Y013610D01*
X026479Y013636D01*
X026393Y013650D01*
X026370Y013650D01*
X026370Y013120D01*
X026330Y013120D01*
X026330Y013650D01*
X026307Y013650D01*
X026221Y013636D01*
X026139Y013610D01*
X026062Y013570D01*
X025992Y013520D01*
X025930Y013458D01*
X025880Y013388D01*
X025840Y013311D01*
X025814Y013229D01*
X025800Y013143D01*
X025800Y013120D01*
X026330Y013120D01*
X026330Y013080D01*
X025800Y013080D01*
X025800Y013057D01*
X025814Y012971D01*
X025840Y012889D01*
X025880Y012812D01*
X025930Y012742D01*
X025992Y012680D01*
X026062Y012630D01*
X026139Y012590D01*
X026221Y012564D01*
X026307Y012550D01*
X026330Y012550D01*
X026330Y013080D01*
X026370Y013080D01*
X026370Y013120D01*
X026900Y013120D01*
X026900Y013143D01*
X026886Y013229D01*
X026860Y013311D01*
X026820Y013388D01*
X026770Y013458D01*
X026708Y013520D01*
X026847Y013336D02*
X027499Y013336D01*
X027385Y013177D02*
X026895Y013177D01*
X026900Y013080D02*
X026370Y013080D01*
X026370Y012550D01*
X026393Y012550D01*
X026479Y012564D01*
X026561Y012590D01*
X026638Y012630D01*
X026708Y012680D01*
X026770Y012742D01*
X026820Y012812D01*
X026860Y012889D01*
X026886Y012971D01*
X026900Y013057D01*
X026900Y013080D01*
X026894Y013019D02*
X027362Y013019D01*
X027411Y012860D02*
X026845Y012860D01*
X026729Y012702D02*
X027626Y012702D01*
X027752Y012543D02*
X021911Y012543D01*
X021911Y012702D02*
X024219Y012702D01*
X024096Y012860D02*
X021523Y012860D01*
X021523Y012868D02*
X021523Y013292D01*
X021509Y013292D01*
X021377Y013346D01*
X021302Y013421D01*
X021302Y013366D01*
X021232Y013295D01*
X021427Y013295D01*
X021427Y012868D01*
X021523Y012868D01*
X021523Y013019D02*
X021427Y013019D01*
X021427Y013177D02*
X021523Y013177D01*
X021403Y013336D02*
X021272Y013336D01*
X021757Y013336D02*
X024094Y013336D01*
X024040Y013177D02*
X021900Y013177D01*
X021911Y013019D02*
X024040Y013019D01*
X024570Y013100D02*
X024570Y014780D01*
X024482Y014692D01*
X021034Y014692D01*
X020660Y014692D02*
X020660Y014692D01*
X020660Y015108D01*
X020528Y015108D01*
X020482Y015096D01*
X020464Y015085D01*
X020461Y015088D01*
X020111Y015088D01*
X020018Y014994D01*
X020018Y014932D01*
X016790Y014932D01*
X016790Y014986D01*
X016850Y015011D01*
X016999Y015160D01*
X017080Y015355D01*
X017080Y015565D01*
X016999Y015760D01*
X016910Y015850D01*
X020686Y015850D01*
X020686Y015597D01*
X020722Y015508D01*
X021097Y015134D01*
X021143Y015088D01*
X020859Y015088D01*
X020856Y015085D01*
X020838Y015096D01*
X020792Y015108D01*
X020660Y015108D01*
X020660Y014692D01*
X020660Y014762D02*
X020660Y014762D01*
X020660Y014921D02*
X020660Y014921D01*
X020660Y015079D02*
X020660Y015079D01*
X020835Y015396D02*
X017080Y015396D01*
X017080Y015555D02*
X020703Y015555D01*
X020686Y015713D02*
X017019Y015713D01*
X016550Y015460D02*
X016550Y014580D01*
X016662Y014692D01*
X020286Y014692D01*
X020018Y014452D02*
X020018Y014389D01*
X020111Y014296D01*
X020461Y014296D01*
X020464Y014299D01*
X020482Y014288D01*
X020495Y014284D01*
X020457Y014246D01*
X020420Y014158D01*
X020420Y014064D01*
X020111Y014064D01*
X020018Y013971D01*
X020018Y013366D01*
X020076Y013307D01*
X020076Y012317D01*
X020200Y012193D01*
X020223Y012170D01*
X020166Y012113D01*
X020112Y011981D01*
X020112Y011839D01*
X020136Y011780D01*
X019981Y011780D01*
X019980Y011779D01*
X019980Y013957D01*
X019857Y014080D01*
X019757Y014180D01*
X017873Y014180D01*
X017750Y014057D01*
X017630Y013937D01*
X017630Y012617D01*
X017603Y012590D01*
X016990Y012590D01*
X016999Y012600D01*
X017080Y012795D01*
X017080Y013005D01*
X016999Y013200D01*
X016850Y013349D01*
X016790Y013374D01*
X016790Y014452D01*
X020018Y014452D01*
X020018Y014445D02*
X016790Y014445D01*
X016790Y014287D02*
X020487Y014287D01*
X020420Y014128D02*
X019809Y014128D01*
X019967Y013970D02*
X020018Y013970D01*
X020018Y013811D02*
X019980Y013811D01*
X019980Y013653D02*
X020018Y013653D01*
X020018Y013494D02*
X019980Y013494D01*
X019980Y013336D02*
X020048Y013336D01*
X020076Y013177D02*
X019980Y013177D01*
X019980Y013019D02*
X020076Y013019D01*
X020076Y012860D02*
X019980Y012860D01*
X019980Y012702D02*
X020076Y012702D01*
X020076Y012543D02*
X019980Y012543D01*
X019980Y012385D02*
X020076Y012385D01*
X020167Y012226D02*
X019980Y012226D01*
X019980Y012068D02*
X020148Y012068D01*
X020112Y011909D02*
X019980Y011909D01*
X019560Y011909D02*
X018986Y011909D01*
X018986Y011811D02*
X018986Y012258D01*
X018892Y012352D01*
X018830Y012352D01*
X018830Y012473D01*
X018907Y012551D01*
X018907Y012998D01*
X018848Y013058D01*
X018858Y013064D01*
X018892Y013097D01*
X018915Y013138D01*
X018927Y013184D01*
X018927Y013365D01*
X018590Y013365D01*
X018253Y013365D01*
X018253Y013184D01*
X018265Y013138D01*
X018288Y013097D01*
X018322Y013064D01*
X018332Y013058D01*
X018273Y012998D01*
X018273Y012551D01*
X018350Y012473D01*
X018350Y012352D01*
X018288Y012352D01*
X018194Y012258D01*
X018194Y011811D01*
X018288Y011717D01*
X018892Y011717D01*
X018986Y011811D01*
X018926Y011751D02*
X019560Y011751D01*
X019560Y011592D02*
X018944Y011592D01*
X018986Y011434D02*
X019619Y011434D01*
X019778Y011275D02*
X018986Y011275D01*
X018590Y011326D02*
X018590Y011110D01*
X018590Y011090D01*
X018680Y011000D01*
X019500Y011000D01*
X019560Y010940D01*
X019560Y010792D01*
X019570Y010782D01*
X019570Y010467D02*
X021713Y010467D01*
X022125Y010055D01*
X022100Y010030D01*
X022100Y009670D01*
X022247Y009523D01*
X022950Y009523D01*
X024252Y009523D01*
X024260Y009515D01*
X024715Y009320D02*
X024715Y009192D01*
X024712Y009189D01*
X024723Y009171D01*
X024735Y009125D01*
X024735Y008893D01*
X024308Y008893D01*
X024308Y008797D01*
X024308Y008409D01*
X024579Y008409D01*
X024625Y008422D01*
X025010Y008422D01*
X025010Y008264D02*
X023802Y008264D01*
X023833Y008276D02*
X023934Y008377D01*
X023947Y008409D01*
X024212Y008409D01*
X024212Y008797D01*
X024308Y008797D01*
X024735Y008797D01*
X024735Y008566D01*
X024723Y008520D01*
X024699Y008479D01*
X024666Y008445D01*
X024625Y008422D01*
X024735Y008581D02*
X025010Y008581D01*
X025010Y008739D02*
X024735Y008739D01*
X024735Y008898D02*
X025010Y008898D01*
X025010Y009056D02*
X024735Y009056D01*
X024715Y009215D02*
X024909Y009215D01*
X025010Y009113D02*
X025010Y006517D01*
X024829Y006336D01*
X023038Y006336D01*
X023057Y006381D01*
X023079Y006372D01*
X023221Y006372D01*
X023353Y006426D01*
X023454Y006527D01*
X023508Y006659D01*
X023508Y006801D01*
X023454Y006933D01*
X023360Y007026D01*
X023360Y007377D01*
X023190Y007547D01*
X023067Y007670D01*
X022629Y007670D01*
X022632Y007674D01*
X022632Y007900D01*
X022724Y007900D01*
X022817Y007806D01*
X022949Y007752D01*
X023091Y007752D01*
X023223Y007806D01*
X023324Y007907D01*
X023378Y008039D01*
X023378Y008181D01*
X023324Y008313D01*
X023298Y008339D01*
X023329Y008370D01*
X023334Y008370D01*
X023427Y008276D01*
X023559Y008222D01*
X023701Y008222D01*
X023833Y008276D01*
X023458Y008264D02*
X023344Y008264D01*
X023378Y008105D02*
X025010Y008105D01*
X025010Y007947D02*
X023340Y007947D01*
X023178Y007788D02*
X025010Y007788D01*
X025010Y007630D02*
X023107Y007630D01*
X023266Y007471D02*
X025010Y007471D01*
X025010Y007313D02*
X023360Y007313D01*
X023360Y007154D02*
X025010Y007154D01*
X025010Y006996D02*
X023391Y006996D01*
X023493Y006837D02*
X025010Y006837D01*
X025010Y006679D02*
X023508Y006679D01*
X023446Y006520D02*
X025010Y006520D01*
X024855Y006362D02*
X023049Y006362D01*
X021780Y005886D02*
X025436Y005886D01*
X025422Y005728D02*
X008505Y005728D01*
X008544Y005886D02*
X020672Y005886D01*
X020527Y006045D02*
X020192Y006045D01*
X019988Y006045D02*
X008569Y006045D01*
X008581Y006362D02*
X019732Y006362D01*
X019756Y006520D02*
X008567Y006520D01*
X008540Y006679D02*
X019872Y006679D01*
X019880Y006837D02*
X008499Y006837D01*
X008443Y006996D02*
X019798Y006996D01*
X019708Y007154D02*
X008371Y007154D01*
X008282Y007313D02*
X011606Y007313D01*
X011604Y007471D02*
X008170Y007471D01*
X008031Y007630D02*
X011604Y007630D01*
X011604Y007788D02*
X007857Y007788D01*
X007630Y007947D02*
X009338Y007947D01*
X009265Y007977D02*
X009019Y008222D01*
X008886Y008544D01*
X008886Y008891D01*
X009019Y009212D01*
X009265Y009458D01*
X009586Y009591D01*
X009934Y009591D01*
X010255Y009458D01*
X010501Y009212D01*
X010634Y008891D01*
X010634Y008544D01*
X010501Y008222D01*
X010255Y007977D01*
X009934Y007844D01*
X009586Y007844D01*
X009265Y007977D01*
X009137Y008105D02*
X007295Y008105D01*
X006710Y008105D02*
X006550Y008105D01*
X006550Y007947D02*
X006710Y007947D01*
X006710Y007788D02*
X006550Y007788D01*
X006550Y007630D02*
X006710Y007630D01*
X006710Y007471D02*
X006550Y007471D01*
X006550Y007313D02*
X006710Y007313D01*
X006710Y007154D02*
X006550Y007154D01*
X006550Y006996D02*
X006710Y006996D01*
X006710Y006837D02*
X006550Y006837D01*
X006550Y006679D02*
X006710Y006679D01*
X006710Y006520D02*
X006550Y006520D01*
X006550Y006362D02*
X006710Y006362D01*
X006710Y006203D02*
X019780Y006203D01*
X020400Y006203D02*
X020492Y006203D01*
X020529Y006362D02*
X020448Y006362D01*
X020424Y006520D02*
X020640Y006520D01*
X020640Y006679D02*
X020308Y006679D01*
X020614Y006837D02*
X020750Y006837D01*
X019932Y007630D02*
X014896Y007630D01*
X014896Y007788D02*
X019888Y007788D01*
X019785Y007471D02*
X014896Y007471D01*
X014896Y007313D02*
X019702Y007313D01*
X019197Y007947D02*
X014896Y007947D01*
X014896Y008441D02*
X014896Y009183D01*
X014803Y009277D01*
X014080Y009277D01*
X014047Y009245D01*
X014015Y009277D01*
X013894Y009277D01*
X013894Y011677D01*
X013904Y011687D01*
X013958Y011819D01*
X013958Y011942D01*
X013980Y011921D01*
X013980Y009822D01*
X014017Y009734D01*
X014364Y009387D01*
X014452Y009350D01*
X016341Y009350D01*
X016390Y009301D01*
X016390Y008962D01*
X016427Y008874D01*
X016511Y008790D01*
X015818Y008790D01*
X015818Y008931D01*
X015764Y009063D01*
X015663Y009164D01*
X015531Y009218D01*
X015389Y009218D01*
X015257Y009164D01*
X015156Y009063D01*
X015102Y008931D01*
X015102Y008789D01*
X015156Y008657D01*
X015257Y008556D01*
X015290Y008543D01*
X015340Y008493D01*
X015392Y008441D01*
X014896Y008441D01*
X014896Y008581D02*
X015233Y008581D01*
X015122Y008739D02*
X014896Y008739D01*
X014896Y008898D02*
X015102Y008898D01*
X015154Y009056D02*
X014896Y009056D01*
X014865Y009215D02*
X015380Y009215D01*
X015540Y009215D02*
X016390Y009215D01*
X016390Y009056D02*
X015766Y009056D01*
X015818Y008898D02*
X016417Y008898D01*
X016630Y009010D02*
X016750Y008890D01*
X019567Y008890D01*
X019570Y008893D01*
X019980Y008898D02*
X022540Y008898D01*
X022525Y009056D02*
X019980Y009056D01*
X019980Y009215D02*
X022520Y009215D01*
X022540Y008739D02*
X019980Y008739D01*
X019980Y008581D02*
X022540Y008581D01*
X022540Y008422D02*
X019980Y008422D01*
X019888Y008264D02*
X019473Y008264D01*
X019160Y009215D02*
X016870Y009215D01*
X016870Y009373D02*
X019144Y009373D01*
X019140Y009532D02*
X016835Y009532D01*
X016766Y009603D02*
X016766Y009603D01*
X016679Y009690D02*
X019149Y009690D01*
X019160Y009849D02*
X014581Y009849D01*
X014460Y010007D02*
X015793Y010007D01*
X015635Y010166D02*
X015365Y010166D01*
X014735Y010166D02*
X014460Y010166D01*
X014460Y010324D02*
X014576Y010324D01*
X014520Y010483D02*
X014460Y010483D01*
X014460Y010641D02*
X014520Y010641D01*
X014520Y010800D02*
X014460Y010800D01*
X014460Y010958D02*
X014658Y010958D01*
X014784Y011117D02*
X014460Y011117D01*
X014460Y011275D02*
X014625Y011275D01*
X014520Y011434D02*
X014460Y011434D01*
X014460Y011592D02*
X014520Y011592D01*
X014520Y011751D02*
X014460Y011751D01*
X014460Y011909D02*
X014609Y011909D01*
X014460Y012068D02*
X014768Y012068D01*
X014750Y012350D02*
X014750Y012880D01*
X014220Y012880D01*
X014220Y012857D01*
X014234Y012771D01*
X014260Y012689D01*
X014300Y012612D01*
X014350Y012542D01*
X014412Y012480D01*
X014482Y012430D01*
X014559Y012390D01*
X014641Y012364D01*
X014727Y012350D01*
X014750Y012350D01*
X014750Y012385D02*
X014790Y012385D01*
X014790Y012350D02*
X014813Y012350D01*
X014899Y012364D01*
X014981Y012390D01*
X015058Y012430D01*
X015128Y012480D01*
X015190Y012542D01*
X015240Y012612D01*
X015280Y012689D01*
X015306Y012771D01*
X015320Y012857D01*
X015320Y012880D01*
X014790Y012880D01*
X014790Y012350D01*
X014963Y012385D02*
X015558Y012385D01*
X015650Y012293D02*
X015650Y012293D01*
X015717Y012226D02*
X014353Y012226D01*
X014195Y012385D02*
X014577Y012385D01*
X014750Y012543D02*
X014790Y012543D01*
X014790Y012702D02*
X014750Y012702D01*
X014750Y012860D02*
X014790Y012860D01*
X015284Y012702D02*
X015460Y012702D01*
X015460Y012860D02*
X015320Y012860D01*
X015308Y013019D02*
X015460Y013019D01*
X015460Y013177D02*
X015246Y013177D01*
X015106Y013336D02*
X015417Y013336D01*
X015757Y013590D02*
X015487Y013860D01*
X013386Y013860D01*
X013293Y013954D01*
X013161Y014008D01*
X013019Y014008D01*
X012970Y013988D01*
X012970Y015671D01*
X013131Y015832D01*
X013177Y015786D01*
X013309Y015732D01*
X013451Y015732D01*
X013583Y015786D01*
X013646Y015850D01*
X014382Y015850D01*
X014350Y015818D01*
X014300Y015748D01*
X014260Y015671D01*
X014234Y015589D01*
X014220Y015503D01*
X014220Y015480D01*
X014750Y015480D01*
X014750Y015440D01*
X014790Y015440D01*
X014790Y015480D01*
X015320Y015480D01*
X015320Y015503D01*
X015306Y015589D01*
X015280Y015671D01*
X015240Y015748D01*
X015190Y015818D01*
X015158Y015850D01*
X016190Y015850D01*
X016101Y015760D01*
X016020Y015565D01*
X016020Y015355D01*
X016101Y015160D01*
X016250Y015011D01*
X016310Y014986D01*
X016310Y013374D01*
X016250Y013349D01*
X016101Y013200D01*
X016020Y013005D01*
X016020Y012795D01*
X016101Y012600D01*
X016110Y012590D01*
X015947Y012590D01*
X015880Y012657D01*
X015880Y013467D01*
X015757Y013590D01*
X015694Y013653D02*
X016310Y013653D01*
X016310Y013811D02*
X015536Y013811D01*
X015853Y013494D02*
X016310Y013494D01*
X016236Y013336D02*
X015880Y013336D01*
X015880Y013177D02*
X016091Y013177D01*
X016025Y013019D02*
X015880Y013019D01*
X015880Y012860D02*
X016020Y012860D01*
X016059Y012702D02*
X015880Y012702D01*
X015460Y012543D02*
X015190Y012543D01*
X015332Y012068D02*
X016740Y012068D01*
X016581Y011909D02*
X016391Y011909D01*
X017030Y011909D02*
X017070Y011909D01*
X017070Y011751D02*
X017030Y011751D01*
X017070Y011592D02*
X018236Y011592D01*
X018254Y011751D02*
X017600Y011751D01*
X017519Y011909D02*
X018194Y011909D01*
X018194Y012068D02*
X017360Y012068D01*
X017070Y012068D02*
X017030Y012068D01*
X017041Y012702D02*
X017630Y012702D01*
X017630Y012860D02*
X017080Y012860D01*
X017075Y013019D02*
X017630Y013019D01*
X017630Y013177D02*
X017009Y013177D01*
X016864Y013336D02*
X017630Y013336D01*
X017630Y013494D02*
X016790Y013494D01*
X016790Y013653D02*
X017630Y013653D01*
X017630Y013811D02*
X016790Y013811D01*
X016790Y013970D02*
X017663Y013970D01*
X017821Y014128D02*
X016790Y014128D01*
X016310Y014128D02*
X012970Y014128D01*
X012970Y014287D02*
X016310Y014287D01*
X016310Y014445D02*
X012970Y014445D01*
X012970Y014604D02*
X016310Y014604D01*
X016310Y014762D02*
X012970Y014762D01*
X012970Y014921D02*
X014660Y014921D01*
X014641Y014924D02*
X014727Y014910D01*
X014750Y014910D01*
X014750Y015440D01*
X014220Y015440D01*
X014220Y015417D01*
X014234Y015331D01*
X014260Y015249D01*
X014300Y015172D01*
X014350Y015102D01*
X014412Y015040D01*
X014482Y014990D01*
X014559Y014950D01*
X014641Y014924D01*
X014750Y014921D02*
X014790Y014921D01*
X014790Y014910D02*
X014813Y014910D01*
X014899Y014924D01*
X014981Y014950D01*
X015058Y014990D01*
X015128Y015040D01*
X015190Y015102D01*
X015240Y015172D01*
X015280Y015249D01*
X015306Y015331D01*
X015320Y015417D01*
X015320Y015440D01*
X014790Y015440D01*
X014790Y014910D01*
X014880Y014921D02*
X016310Y014921D01*
X016181Y015079D02*
X015167Y015079D01*
X015274Y015238D02*
X016068Y015238D01*
X016020Y015396D02*
X015317Y015396D01*
X015312Y015555D02*
X016020Y015555D01*
X016081Y015713D02*
X015258Y015713D01*
X014790Y015396D02*
X014750Y015396D01*
X014750Y015238D02*
X014790Y015238D01*
X014790Y015079D02*
X014750Y015079D01*
X014373Y015079D02*
X012970Y015079D01*
X012970Y015238D02*
X014266Y015238D01*
X014223Y015396D02*
X012970Y015396D01*
X012970Y015555D02*
X014228Y015555D01*
X014282Y015713D02*
X013012Y015713D01*
X012730Y015770D02*
X013050Y016090D01*
X013380Y016090D01*
X020876Y016090D01*
X020926Y016140D01*
X020926Y015644D01*
X021300Y015270D01*
X021990Y015270D01*
X022020Y015240D01*
X022378Y015238D02*
X024243Y015238D01*
X024330Y015079D02*
X022341Y015079D01*
X022343Y015396D02*
X024106Y015396D01*
X024040Y015555D02*
X022196Y015555D01*
X021844Y015555D02*
X021355Y015555D01*
X021196Y015713D02*
X024040Y015713D01*
X024084Y015872D02*
X021166Y015872D01*
X021166Y016030D02*
X024190Y016030D01*
X024570Y015660D02*
X024570Y014780D01*
X024897Y015238D02*
X025996Y015238D01*
X025867Y015396D02*
X025034Y015396D01*
X025100Y015555D02*
X025810Y015555D01*
X025802Y015713D02*
X025100Y015713D01*
X025056Y015872D02*
X025840Y015872D01*
X025942Y016030D02*
X024950Y016030D01*
X026330Y016030D02*
X026370Y016030D01*
X026370Y015872D02*
X026330Y015872D01*
X026330Y015713D02*
X026370Y015713D01*
X026370Y015555D02*
X026330Y015555D01*
X026330Y015396D02*
X026370Y015396D01*
X026370Y015238D02*
X026330Y015238D01*
X024330Y014445D02*
X022241Y014445D01*
X022355Y014287D02*
X024330Y014287D01*
X024330Y014128D02*
X022378Y014128D01*
X022329Y013970D02*
X024330Y013970D01*
X024330Y013811D02*
X022113Y013811D01*
X021927Y013811D02*
X021901Y013811D01*
X021938Y013653D02*
X024330Y013653D01*
X024214Y013494D02*
X021903Y013494D01*
X022020Y014160D02*
X021980Y014200D01*
X020750Y014200D01*
X020660Y014110D01*
X020660Y013668D01*
X019560Y013653D02*
X018872Y013653D01*
X018858Y013667D02*
X018817Y013690D01*
X018771Y013703D01*
X018590Y013703D01*
X018409Y013703D01*
X018363Y013690D01*
X018322Y013667D01*
X018288Y013633D01*
X018265Y013592D01*
X018253Y013546D01*
X018253Y013365D01*
X018590Y013365D01*
X018590Y013365D01*
X018590Y013365D01*
X018927Y013365D01*
X018927Y013546D01*
X018915Y013592D01*
X018892Y013633D01*
X018858Y013667D01*
X018927Y013494D02*
X019560Y013494D01*
X019560Y013336D02*
X018927Y013336D01*
X018926Y013177D02*
X019560Y013177D01*
X019560Y013019D02*
X018887Y013019D01*
X018907Y012860D02*
X019560Y012860D01*
X019560Y012702D02*
X018907Y012702D01*
X018900Y012543D02*
X019560Y012543D01*
X019560Y012385D02*
X018830Y012385D01*
X018986Y012226D02*
X019560Y012226D01*
X019560Y012068D02*
X018986Y012068D01*
X018590Y012034D02*
X018590Y012775D01*
X018273Y012702D02*
X018050Y012702D01*
X018050Y012860D02*
X018273Y012860D01*
X018293Y013019D02*
X018050Y013019D01*
X018050Y013177D02*
X018254Y013177D01*
X018253Y013336D02*
X018050Y013336D01*
X018050Y013494D02*
X018253Y013494D01*
X018308Y013653D02*
X018050Y013653D01*
X018590Y013653D02*
X018590Y013653D01*
X018590Y013703D02*
X018590Y013365D01*
X018590Y013365D01*
X018590Y013703D01*
X018590Y013494D02*
X018590Y013494D01*
X018280Y012543D02*
X018050Y012543D01*
X017992Y012385D02*
X018350Y012385D01*
X018194Y012226D02*
X017833Y012226D01*
X017600Y011434D02*
X018194Y011434D01*
X017685Y010800D02*
X017580Y010800D01*
X017580Y010641D02*
X017679Y010641D01*
X017580Y010483D02*
X018067Y010483D01*
X018067Y010324D02*
X018163Y010324D01*
X018163Y010166D02*
X018067Y010166D01*
X018067Y010007D02*
X018163Y010007D01*
X018458Y010007D02*
X018460Y010007D01*
X018785Y010460D02*
X019563Y010460D01*
X019570Y010467D01*
X019980Y010166D02*
X021675Y010166D01*
X021767Y010007D02*
X019980Y010007D01*
X019980Y009849D02*
X021825Y009849D01*
X021860Y009690D02*
X019991Y009690D01*
X020000Y009532D02*
X021899Y009532D01*
X022058Y009373D02*
X019996Y009373D01*
X019160Y010007D02*
X019109Y010007D01*
X019980Y010800D02*
X022540Y010800D01*
X022540Y010958D02*
X019980Y010958D01*
X019888Y011117D02*
X019723Y011117D01*
X020828Y011909D02*
X021255Y011909D01*
X021116Y012068D02*
X020792Y012068D01*
X021625Y011909D02*
X022848Y011909D01*
X022730Y011751D02*
X022568Y011751D01*
X022632Y011592D02*
X022730Y011592D01*
X022730Y011434D02*
X022632Y011434D01*
X022632Y011275D02*
X022730Y011275D01*
X022730Y011117D02*
X022632Y011117D01*
X022540Y010641D02*
X021878Y010641D01*
X022037Y010483D02*
X022540Y010483D01*
X022222Y010152D02*
X022125Y010055D01*
X022222Y010152D02*
X022950Y010152D01*
X022958Y010160D01*
X023400Y010160D01*
X023500Y010260D01*
X025000Y010260D01*
X025220Y010040D01*
X025885Y010040D01*
X025469Y009800D02*
X025469Y009678D01*
X025563Y009585D01*
X026071Y009585D01*
X025765Y009458D01*
X025519Y009212D01*
X025430Y008997D01*
X025430Y009287D01*
X025100Y009617D01*
X024977Y009740D01*
X024715Y009740D01*
X024715Y009837D01*
X024622Y009931D01*
X023898Y009931D01*
X023805Y009837D01*
X023805Y009763D01*
X023380Y009763D01*
X023380Y009837D01*
X022950Y009837D01*
X022520Y009837D01*
X022520Y009763D01*
X022347Y009763D01*
X022343Y009766D01*
X022429Y009852D01*
X022454Y009912D01*
X022520Y009912D01*
X022520Y009837D01*
X022950Y009837D01*
X022950Y009837D01*
X022950Y009837D01*
X023380Y009837D01*
X023380Y009920D01*
X023448Y009920D01*
X023536Y009957D01*
X023599Y010020D01*
X024901Y010020D01*
X025084Y009837D01*
X025172Y009800D01*
X025469Y009800D01*
X025469Y009690D02*
X025027Y009690D01*
X025072Y009849D02*
X024704Y009849D01*
X024914Y010007D02*
X023586Y010007D01*
X023380Y009849D02*
X023816Y009849D01*
X024715Y009320D02*
X024803Y009320D01*
X025010Y009113D01*
X025344Y009373D02*
X025680Y009373D01*
X025522Y009215D02*
X025430Y009215D01*
X025430Y009056D02*
X025455Y009056D01*
X025185Y009532D02*
X025942Y009532D01*
X026507Y010166D02*
X026603Y010166D01*
X026603Y010324D02*
X026507Y010324D01*
X026507Y010483D02*
X026603Y010483D01*
X026916Y010483D02*
X027888Y010483D01*
X027790Y010641D02*
X025527Y010641D01*
X025527Y010483D02*
X025550Y010483D01*
X025527Y010800D02*
X027713Y010800D01*
X027670Y010958D02*
X025522Y010958D01*
X025547Y011117D02*
X027650Y011117D01*
X027650Y011326D02*
X027726Y011608D01*
X027872Y011862D01*
X028078Y012068D01*
X027919Y011909D02*
X025527Y011909D01*
X025527Y011751D02*
X027808Y011751D01*
X027721Y011592D02*
X025512Y011592D01*
X025547Y011434D02*
X027679Y011434D01*
X028342Y012226D02*
X028375Y012226D01*
X029188Y012214D02*
X029442Y012068D01*
X027941Y013336D02*
X032267Y013336D01*
X032363Y013177D02*
X031300Y013177D01*
X031458Y013019D02*
X032530Y013019D01*
X032330Y012860D02*
X031617Y012860D01*
X031775Y012702D02*
X032253Y012702D01*
X032240Y011275D02*
X032252Y011275D01*
X032240Y011117D02*
X032356Y011117D01*
X032240Y010958D02*
X032617Y010958D01*
X032240Y010800D02*
X039872Y010800D01*
X039861Y010641D02*
X032240Y010641D01*
X032240Y010483D02*
X039850Y010483D01*
X039839Y010324D02*
X032240Y010324D01*
X032240Y010166D02*
X039828Y010166D01*
X039817Y010007D02*
X032240Y010007D01*
X032240Y009849D02*
X039806Y009849D01*
X039785Y009690D02*
X032240Y009690D01*
X032240Y009532D02*
X039756Y009532D01*
X039727Y009373D02*
X032240Y009373D01*
X032240Y009215D02*
X039698Y009215D01*
X038965Y006837D02*
X038187Y006837D01*
X038169Y006679D02*
X038897Y006679D01*
X038829Y006520D02*
X038137Y006520D01*
X038092Y006362D02*
X038751Y006362D01*
X038661Y006203D02*
X038031Y006203D01*
X037953Y006045D02*
X038571Y006045D01*
X038480Y005886D02*
X037857Y005886D01*
X037737Y005728D02*
X038390Y005728D01*
X038300Y005569D02*
X037589Y005569D01*
X037401Y005411D02*
X038208Y005411D01*
X038093Y005252D02*
X037150Y005252D01*
X035740Y005094D02*
X008189Y005094D01*
X008296Y005252D02*
X035330Y005252D01*
X035079Y005411D02*
X008383Y005411D01*
X008452Y005569D02*
X025485Y005569D01*
X025538Y006045D02*
X025131Y006045D01*
X025290Y006203D02*
X025670Y006203D01*
X026090Y006045D02*
X034527Y006045D01*
X034449Y006203D02*
X026180Y006203D01*
X026338Y006362D02*
X034388Y006362D01*
X034623Y005886D02*
X026124Y005886D01*
X026138Y005728D02*
X034743Y005728D01*
X034891Y005569D02*
X026075Y005569D01*
X025749Y006996D02*
X025430Y006996D01*
X025430Y007154D02*
X025907Y007154D01*
X025430Y007313D02*
X028106Y007313D01*
X028104Y007471D02*
X025430Y007471D01*
X025430Y007630D02*
X028104Y007630D01*
X028104Y007788D02*
X025430Y007788D01*
X025430Y007947D02*
X025838Y007947D01*
X025637Y008105D02*
X025430Y008105D01*
X025430Y008264D02*
X025502Y008264D01*
X025437Y008422D02*
X025430Y008422D01*
X024308Y008422D02*
X024212Y008422D01*
X024212Y008581D02*
X024308Y008581D01*
X024308Y008739D02*
X024212Y008739D01*
X023785Y009056D02*
X023375Y009056D01*
X023380Y009215D02*
X023805Y009215D01*
X023461Y008898D02*
X023360Y008898D01*
X022862Y007788D02*
X022632Y007788D01*
X022520Y009849D02*
X022425Y009849D01*
X023360Y010958D02*
X023598Y010958D01*
X023006Y012068D02*
X021764Y012068D01*
X024921Y012702D02*
X025971Y012702D01*
X025855Y012860D02*
X025044Y012860D01*
X025100Y013019D02*
X025806Y013019D01*
X025805Y013177D02*
X025100Y013177D01*
X025046Y013336D02*
X025853Y013336D01*
X025966Y013494D02*
X024926Y013494D01*
X026330Y013494D02*
X026370Y013494D01*
X026370Y013336D02*
X026330Y013336D01*
X026330Y013177D02*
X026370Y013177D01*
X026370Y013019D02*
X026330Y013019D01*
X026330Y012860D02*
X026370Y012860D01*
X026370Y012702D02*
X026330Y012702D01*
X026991Y010324D02*
X028046Y010324D01*
X028297Y010166D02*
X026991Y010166D01*
X026992Y009373D02*
X026840Y009373D01*
X026998Y009215D02*
X027039Y009215D01*
X027065Y009056D02*
X027245Y009056D01*
X027131Y008898D02*
X028104Y008898D01*
X028104Y009056D02*
X027455Y009056D01*
X027661Y009215D02*
X028132Y009215D01*
X028140Y009228D02*
X028116Y009186D01*
X028104Y009141D01*
X028104Y008299D01*
X028511Y008299D01*
X028511Y009297D01*
X028260Y009297D01*
X028214Y009285D01*
X028173Y009261D01*
X028140Y009228D01*
X028511Y009215D02*
X028647Y009215D01*
X028647Y009056D02*
X028511Y009056D01*
X028511Y008898D02*
X028647Y008898D01*
X028647Y008739D02*
X028511Y008739D01*
X028511Y008581D02*
X028647Y008581D01*
X028647Y008422D02*
X028511Y008422D01*
X028511Y008264D02*
X027018Y008264D01*
X027083Y008422D02*
X028104Y008422D01*
X028104Y008581D02*
X027134Y008581D01*
X027134Y008739D02*
X028104Y008739D01*
X028104Y008105D02*
X026883Y008105D01*
X026682Y007947D02*
X028104Y007947D01*
X028511Y007947D02*
X028647Y007947D01*
X028647Y008105D02*
X028511Y008105D01*
X028511Y007788D02*
X028647Y007788D01*
X028647Y007630D02*
X028511Y007630D01*
X028511Y007471D02*
X028647Y007471D01*
X028647Y007313D02*
X028511Y007313D01*
X035440Y002558D02*
X006144Y002558D01*
X005922Y002716D02*
X035670Y002716D01*
X035890Y002875D02*
X005704Y002875D01*
X005486Y003033D02*
X036072Y003033D01*
X036254Y003192D02*
X005268Y003192D01*
X006419Y002399D02*
X035211Y002399D01*
X034982Y002241D02*
X006693Y002241D01*
X006968Y002082D02*
X010156Y002082D01*
X009825Y001924D02*
X007255Y001924D01*
X007611Y001765D02*
X009666Y001765D01*
X009571Y001607D02*
X007967Y001607D01*
X008323Y001448D02*
X009505Y001448D01*
X009483Y001290D02*
X008809Y001290D01*
X009297Y001131D02*
X009483Y001131D01*
X010557Y002082D02*
X026656Y002082D01*
X026325Y001924D02*
X010888Y001924D01*
X011046Y001765D02*
X026166Y001765D01*
X026071Y001607D02*
X011142Y001607D01*
X011207Y001448D02*
X026005Y001448D01*
X025983Y001290D02*
X011230Y001290D01*
X011230Y001131D02*
X025983Y001131D01*
X026013Y000973D02*
X011200Y000973D01*
X011134Y000814D02*
X026079Y000814D01*
X027634Y000814D02*
X031211Y000814D01*
X031976Y000973D02*
X027700Y000973D01*
X027730Y001131D02*
X032553Y001131D01*
X033020Y001290D02*
X027730Y001290D01*
X027707Y001448D02*
X033416Y001448D01*
X033813Y001607D02*
X027642Y001607D01*
X027546Y001765D02*
X034121Y001765D01*
X034416Y001924D02*
X027388Y001924D01*
X027057Y002082D02*
X034712Y002082D01*
X017773Y010007D02*
X016307Y010007D01*
X016465Y010166D02*
X016735Y010166D01*
X017365Y010166D02*
X017679Y010166D01*
X017679Y010324D02*
X017524Y010324D01*
X016630Y009400D02*
X016630Y009010D01*
X016630Y009400D02*
X016440Y009590D01*
X014500Y009590D01*
X014220Y009870D01*
X014220Y012020D01*
X013700Y012540D01*
X007760Y012540D01*
X007516Y012068D02*
X000751Y012068D01*
X000747Y012226D02*
X007324Y012226D01*
X007251Y012385D02*
X000743Y012385D01*
X000740Y012543D02*
X007230Y012543D01*
X007253Y012702D02*
X000739Y012702D01*
X000738Y012860D02*
X007330Y012860D01*
X007530Y013019D02*
X000738Y013019D01*
X000737Y013177D02*
X007363Y013177D01*
X007267Y013336D02*
X000736Y013336D01*
X000735Y013494D02*
X007230Y013494D01*
X007237Y013653D02*
X000735Y013653D01*
X000734Y013811D02*
X007303Y013811D01*
X007450Y013970D02*
X000733Y013970D01*
X000733Y014128D02*
X008420Y014128D01*
X008420Y013970D02*
X008070Y013970D01*
X007910Y013680D02*
X007760Y013530D01*
X007910Y013680D02*
X008660Y013680D01*
X012400Y013680D01*
X012730Y014010D01*
X012730Y015770D01*
X012512Y015872D02*
X008900Y015872D01*
X008900Y016030D02*
X012651Y016030D01*
X012809Y016189D02*
X008900Y016189D01*
X008900Y016347D02*
X013131Y016347D01*
X013213Y016497D02*
X013258Y016484D01*
X013440Y016484D01*
X013621Y016484D01*
X013666Y016497D01*
X013685Y016507D01*
X013688Y016504D01*
X014136Y016504D01*
X014148Y016517D01*
X014161Y016504D01*
X014608Y016504D01*
X014660Y016556D01*
X014712Y016504D01*
X015159Y016504D01*
X015172Y016517D01*
X015184Y016504D01*
X015632Y016504D01*
X015635Y016507D01*
X015654Y016497D01*
X015699Y016484D01*
X015880Y016484D01*
X015880Y016979D01*
X015880Y016979D01*
X015880Y017474D01*
X015699Y017474D01*
X015654Y017462D01*
X015635Y017451D01*
X015632Y017454D01*
X015184Y017454D01*
X015172Y017442D01*
X015159Y017454D01*
X014712Y017454D01*
X014660Y017402D01*
X014608Y017454D01*
X014161Y017454D01*
X014148Y017442D01*
X014136Y017454D01*
X013688Y017454D01*
X013685Y017451D01*
X013666Y017462D01*
X013621Y017474D01*
X013440Y017474D01*
X013440Y016979D01*
X013440Y016484D01*
X013440Y016979D01*
X013440Y016979D01*
X013440Y016979D01*
X013440Y017474D01*
X013258Y017474D01*
X013213Y017462D01*
X013199Y017454D01*
X012813Y017454D01*
X012720Y017360D01*
X012720Y016598D01*
X012813Y016504D01*
X013199Y016504D01*
X013213Y016497D01*
X013440Y016506D02*
X013440Y016506D01*
X013440Y016664D02*
X013440Y016664D01*
X013440Y016823D02*
X013440Y016823D01*
X013440Y016981D02*
X013440Y016981D01*
X013440Y017140D02*
X013440Y017140D01*
X013440Y017298D02*
X013440Y017298D01*
X013440Y017457D02*
X013440Y017457D01*
X013676Y017457D02*
X015644Y017457D01*
X015880Y017457D02*
X015880Y017457D01*
X015880Y017474D02*
X015880Y016979D01*
X015880Y016979D01*
X015880Y016484D01*
X016062Y016484D01*
X016107Y016497D01*
X016121Y016504D01*
X016507Y016504D01*
X016600Y016598D01*
X016600Y017360D01*
X016507Y017454D01*
X016121Y017454D01*
X016107Y017462D01*
X016062Y017474D01*
X015880Y017474D01*
X015880Y017298D02*
X015880Y017298D01*
X015880Y017140D02*
X015880Y017140D01*
X015880Y016981D02*
X015880Y016981D01*
X015880Y016823D02*
X015880Y016823D01*
X015880Y016664D02*
X015880Y016664D01*
X015880Y016506D02*
X015880Y016506D01*
X015638Y016506D02*
X015633Y016506D01*
X015183Y016506D02*
X015161Y016506D01*
X014711Y016506D02*
X014609Y016506D01*
X014159Y016506D02*
X014137Y016506D01*
X013687Y016506D02*
X013682Y016506D01*
X013629Y016347D02*
X017217Y016347D01*
X017152Y016506D02*
X016508Y016506D01*
X016600Y016664D02*
X017109Y016664D01*
X017048Y016823D02*
X016600Y016823D01*
X016600Y016981D02*
X017048Y016981D01*
X017048Y017140D02*
X016600Y017140D01*
X016600Y017298D02*
X017048Y017298D01*
X017048Y017457D02*
X016117Y017457D01*
X016868Y017774D02*
X012476Y017774D01*
X012487Y017780D02*
X012521Y017814D01*
X012544Y017855D01*
X012557Y017900D01*
X012557Y018082D01*
X012062Y018082D01*
X012062Y018082D01*
X012062Y017744D01*
X012400Y017744D01*
X012446Y017756D01*
X012487Y017780D01*
X012557Y017932D02*
X016783Y017932D01*
X016783Y018091D02*
X012557Y018091D01*
X012557Y018249D02*
X016783Y018249D01*
X016783Y018408D02*
X012537Y018408D01*
X012537Y018566D02*
X016783Y018566D01*
X016783Y018725D02*
X012537Y018725D01*
X012537Y018883D02*
X016783Y018883D01*
X016783Y019042D02*
X012537Y019042D01*
X012537Y019200D02*
X016783Y019200D01*
X016783Y019359D02*
X012537Y019359D01*
X012537Y019517D02*
X016783Y019517D01*
X016783Y019676D02*
X012537Y019676D01*
X012537Y019834D02*
X016783Y019834D01*
X016783Y019993D02*
X012537Y019993D01*
X012537Y020151D02*
X016783Y020151D01*
X016783Y020310D02*
X012537Y020310D01*
X012537Y020468D02*
X016783Y020468D01*
X016783Y020627D02*
X012537Y020627D01*
X012537Y020785D02*
X016783Y020785D01*
X016783Y020944D02*
X012537Y020944D01*
X012537Y021102D02*
X016783Y021102D01*
X016783Y021261D02*
X012537Y021261D01*
X012537Y021419D02*
X016783Y021419D01*
X016783Y021578D02*
X012537Y021578D01*
X012537Y021736D02*
X016783Y021736D01*
X016783Y021895D02*
X012537Y021895D01*
X012537Y022053D02*
X016783Y022053D01*
X016783Y022212D02*
X012537Y022212D01*
X012537Y022370D02*
X016783Y022370D01*
X016783Y022529D02*
X012537Y022529D01*
X012537Y022687D02*
X016783Y022687D01*
X016783Y022846D02*
X012537Y022846D01*
X012537Y023004D02*
X016783Y023004D01*
X016783Y023163D02*
X012557Y023163D01*
X012557Y023321D02*
X016783Y023321D01*
X016783Y023480D02*
X012551Y023480D01*
X012062Y023480D02*
X012062Y023480D01*
X012062Y023616D02*
X011723Y023616D01*
X011677Y023604D01*
X011636Y023580D01*
X011603Y023546D01*
X011579Y023505D01*
X011567Y023460D01*
X011567Y023278D01*
X012062Y023278D01*
X012062Y023278D01*
X012062Y023278D01*
X012062Y023616D01*
X012062Y023321D02*
X012062Y023321D01*
X011567Y023321D02*
X002123Y023321D01*
X002123Y023163D02*
X011567Y023163D01*
X011587Y023004D02*
X002123Y023004D01*
X002060Y022846D02*
X011587Y022846D01*
X011587Y022687D02*
X001994Y022687D01*
X001850Y022529D02*
X011587Y022529D01*
X011587Y022370D02*
X001641Y022370D01*
X000779Y022370D02*
X000695Y022370D01*
X000696Y022212D02*
X011587Y022212D01*
X011587Y022053D02*
X000697Y022053D01*
X000697Y021895D02*
X011587Y021895D01*
X011587Y021736D02*
X000698Y021736D01*
X000699Y021578D02*
X011587Y021578D01*
X011587Y021419D02*
X000699Y021419D01*
X000700Y021261D02*
X011587Y021261D01*
X011587Y021102D02*
X000701Y021102D01*
X000702Y020944D02*
X011587Y020944D01*
X011587Y020785D02*
X000702Y020785D01*
X000703Y020627D02*
X011587Y020627D01*
X011587Y020468D02*
X000704Y020468D01*
X000705Y020310D02*
X011587Y020310D01*
X011587Y020151D02*
X000705Y020151D01*
X000706Y019993D02*
X011587Y019993D01*
X011587Y019834D02*
X000707Y019834D01*
X000707Y019676D02*
X011587Y019676D01*
X011587Y019517D02*
X000708Y019517D01*
X000709Y019359D02*
X011587Y019359D01*
X011587Y019200D02*
X000710Y019200D01*
X000710Y019042D02*
X010354Y019042D01*
X010285Y018883D02*
X000711Y018883D01*
X000712Y018725D02*
X009130Y018725D01*
X008814Y018434D02*
X008660Y018280D01*
X008660Y013680D01*
X008900Y013970D02*
X012350Y013970D01*
X012490Y014128D02*
X008900Y014128D01*
X008900Y014287D02*
X012490Y014287D01*
X012490Y014445D02*
X008900Y014445D01*
X008900Y014604D02*
X012490Y014604D01*
X012490Y014762D02*
X008900Y014762D01*
X008900Y014921D02*
X012490Y014921D01*
X012490Y015079D02*
X008900Y015079D01*
X008900Y015238D02*
X012490Y015238D01*
X012490Y015396D02*
X008900Y015396D01*
X008900Y015555D02*
X012490Y015555D01*
X012490Y015713D02*
X008900Y015713D01*
X008420Y015713D02*
X000725Y015713D01*
X000726Y015555D02*
X008420Y015555D01*
X008420Y015396D02*
X000727Y015396D01*
X000728Y015238D02*
X008420Y015238D01*
X008420Y015079D02*
X000728Y015079D01*
X000729Y014921D02*
X008420Y014921D01*
X008420Y014762D02*
X000730Y014762D01*
X000730Y014604D02*
X008420Y014604D01*
X008420Y014445D02*
X000731Y014445D01*
X000732Y014287D02*
X008420Y014287D01*
X008253Y013336D02*
X012913Y013336D01*
X012767Y013494D02*
X012553Y013494D01*
X012712Y013653D02*
X012732Y013653D01*
X013254Y013970D02*
X016310Y013970D01*
X016550Y014580D02*
X016550Y012900D01*
X015709Y011909D02*
X015491Y011909D01*
X014350Y012543D02*
X014036Y012543D01*
X013878Y012702D02*
X014256Y012702D01*
X014220Y012860D02*
X008190Y012860D01*
X007990Y013019D02*
X014232Y013019D01*
X014294Y013177D02*
X008157Y013177D01*
X008196Y012226D02*
X011375Y012226D01*
X011332Y012214D02*
X011614Y012290D01*
X011906Y012290D01*
X012188Y012214D01*
X012442Y012068D01*
X013286Y012068D01*
X013242Y011909D02*
X012601Y011909D01*
X012648Y011862D02*
X012442Y012068D01*
X012648Y011862D02*
X012794Y011608D01*
X012870Y011326D01*
X012870Y011034D01*
X012794Y010752D01*
X012648Y010498D01*
X012442Y010292D01*
X012188Y010146D01*
X011906Y010070D01*
X011614Y010070D01*
X011332Y010146D01*
X011078Y010292D01*
X010872Y010498D01*
X010726Y010752D01*
X010650Y011034D01*
X010650Y011326D01*
X010726Y011608D01*
X010872Y011862D01*
X011078Y012068D01*
X008004Y012068D01*
X008119Y011909D02*
X010919Y011909D01*
X010808Y011751D02*
X008245Y011751D01*
X008301Y011592D02*
X010721Y011592D01*
X010679Y011434D02*
X008308Y011434D01*
X008310Y011447D02*
X008310Y011470D01*
X007780Y011470D01*
X007780Y010940D01*
X007803Y010940D01*
X007889Y010954D01*
X007971Y010980D01*
X008048Y011020D01*
X008118Y011070D01*
X008180Y011132D01*
X008230Y011202D01*
X008270Y011279D01*
X008296Y011361D01*
X008310Y011447D01*
X008268Y011275D02*
X010650Y011275D01*
X010650Y011117D02*
X008164Y011117D01*
X007903Y010958D02*
X010670Y010958D01*
X010713Y010800D02*
X000869Y010800D01*
X000852Y010958D02*
X007617Y010958D01*
X007631Y010954D02*
X007717Y010940D01*
X007740Y010940D01*
X007740Y011470D01*
X007210Y011470D01*
X007210Y011447D01*
X007224Y011361D01*
X007250Y011279D01*
X007290Y011202D01*
X007340Y011132D01*
X007402Y011070D01*
X007472Y011020D01*
X007549Y010980D01*
X007631Y010954D01*
X007740Y010958D02*
X007780Y010958D01*
X007780Y011117D02*
X007740Y011117D01*
X007740Y011275D02*
X007780Y011275D01*
X007780Y011434D02*
X007740Y011434D01*
X007356Y011117D02*
X000835Y011117D01*
X000819Y011275D02*
X007252Y011275D01*
X007212Y011434D02*
X000802Y011434D01*
X000785Y011592D02*
X007219Y011592D01*
X007275Y011751D02*
X000769Y011751D01*
X000755Y011909D02*
X007401Y011909D01*
X010790Y010641D02*
X000885Y010641D01*
X000919Y010483D02*
X010888Y010483D01*
X011046Y010324D02*
X000952Y010324D01*
X000986Y010166D02*
X011297Y010166D01*
X012223Y010166D02*
X013414Y010166D01*
X013414Y010324D02*
X012474Y010324D01*
X012632Y010483D02*
X013414Y010483D01*
X013414Y010641D02*
X012730Y010641D01*
X012807Y010800D02*
X013414Y010800D01*
X013414Y010958D02*
X012850Y010958D01*
X012870Y011117D02*
X013414Y011117D01*
X013414Y011275D02*
X012870Y011275D01*
X012841Y011434D02*
X013414Y011434D01*
X013392Y011592D02*
X012799Y011592D01*
X012712Y011751D02*
X013270Y011751D01*
X013600Y011890D02*
X013654Y011836D01*
X013654Y008231D01*
X013894Y009373D02*
X014397Y009373D01*
X014219Y009532D02*
X013894Y009532D01*
X013894Y009690D02*
X014061Y009690D01*
X013980Y009849D02*
X013894Y009849D01*
X013894Y010007D02*
X013980Y010007D01*
X013980Y010166D02*
X013894Y010166D01*
X013894Y010324D02*
X013980Y010324D01*
X013980Y010483D02*
X013894Y010483D01*
X013894Y010641D02*
X013980Y010641D01*
X013980Y010800D02*
X013894Y010800D01*
X013894Y010958D02*
X013980Y010958D01*
X013980Y011117D02*
X013894Y011117D01*
X013894Y011275D02*
X013980Y011275D01*
X013980Y011434D02*
X013894Y011434D01*
X013894Y011592D02*
X013980Y011592D01*
X013980Y011751D02*
X013930Y011751D01*
X013958Y011909D02*
X013980Y011909D01*
X013475Y012226D02*
X012145Y012226D01*
X011332Y012214D02*
X011078Y012068D01*
X013267Y013336D02*
X014434Y013336D01*
X016919Y015079D02*
X020102Y015079D01*
X020993Y015238D02*
X017032Y015238D01*
X017803Y016347D02*
X020686Y016347D01*
X020686Y016506D02*
X017868Y016506D01*
X017855Y016664D02*
X018109Y016664D01*
X018311Y016664D02*
X020608Y016664D01*
X020608Y016823D02*
X018520Y016823D01*
X018568Y016981D02*
X020608Y016981D01*
X020608Y017140D02*
X018544Y017140D01*
X018428Y017298D02*
X020673Y017298D01*
X020514Y017457D02*
X018210Y017457D01*
X018210Y017615D02*
X020327Y017615D01*
X020303Y017774D02*
X018210Y017774D01*
X018210Y017932D02*
X020303Y017932D01*
X020303Y018091D02*
X018210Y018091D01*
X018210Y018249D02*
X020303Y018249D01*
X020310Y018408D02*
X018210Y018408D01*
X018360Y018548D02*
X018620Y018548D01*
X018666Y018560D01*
X018707Y018584D01*
X018740Y018618D01*
X018764Y018659D01*
X018776Y018704D01*
X018776Y018886D01*
X018360Y018886D01*
X018360Y018548D01*
X018360Y018566D02*
X018360Y018566D01*
X018360Y018725D02*
X018360Y018725D01*
X018360Y018883D02*
X018360Y018883D01*
X018360Y018886D02*
X018360Y018886D01*
X018360Y019042D02*
X018360Y019042D01*
X018360Y019200D02*
X018360Y019200D01*
X018036Y019200D02*
X017733Y019200D01*
X017733Y019042D02*
X017944Y019042D01*
X017944Y018883D02*
X017733Y018883D01*
X017932Y018725D02*
X017944Y018725D01*
X017790Y018249D02*
X017733Y018249D01*
X017733Y018091D02*
X017790Y018091D01*
X017790Y017932D02*
X017733Y017932D01*
X017790Y017774D02*
X017649Y017774D01*
X017790Y017615D02*
X017468Y017615D01*
X017468Y017457D02*
X017790Y017457D01*
X017790Y017298D02*
X017468Y017298D01*
X017468Y017140D02*
X017790Y017140D01*
X017852Y016981D02*
X017468Y016981D01*
X017754Y016823D02*
X017900Y016823D01*
X017048Y017615D02*
X011255Y017615D01*
X011255Y017587D02*
X011255Y017828D01*
X011243Y017874D01*
X011219Y017915D01*
X011185Y017948D01*
X011144Y017972D01*
X011099Y017984D01*
X010818Y017984D01*
X010818Y017587D01*
X010702Y017587D01*
X010702Y017984D01*
X010421Y017984D01*
X010376Y017972D01*
X010335Y017948D01*
X010301Y017915D01*
X010277Y017874D01*
X010265Y017828D01*
X010265Y017587D01*
X010702Y017587D01*
X010702Y017471D01*
X010265Y017471D01*
X010265Y017230D01*
X010277Y017184D01*
X010301Y017143D01*
X010335Y017109D01*
X010376Y017085D01*
X010421Y017073D01*
X010702Y017073D01*
X010702Y017471D01*
X010818Y017471D01*
X010818Y017587D01*
X011255Y017587D01*
X011255Y017471D02*
X010818Y017471D01*
X010818Y017073D01*
X011099Y017073D01*
X011144Y017085D01*
X011185Y017109D01*
X011219Y017143D01*
X011243Y017184D01*
X011255Y017230D01*
X011255Y017471D01*
X011255Y017457D02*
X013203Y017457D01*
X012720Y017298D02*
X011255Y017298D01*
X011216Y017140D02*
X012720Y017140D01*
X012720Y016981D02*
X008900Y016981D01*
X008900Y016823D02*
X012720Y016823D01*
X012720Y016664D02*
X008900Y016664D01*
X008900Y016506D02*
X012812Y016506D01*
X012062Y017744D02*
X011723Y017744D01*
X011677Y017756D01*
X011636Y017780D01*
X011603Y017814D01*
X011579Y017855D01*
X011567Y017900D01*
X011567Y018082D01*
X012062Y018082D01*
X012062Y018082D01*
X012062Y018082D01*
X012062Y017744D01*
X012062Y017774D02*
X012062Y017774D01*
X012062Y017932D02*
X012062Y017932D01*
X011647Y017774D02*
X011255Y017774D01*
X011202Y017932D02*
X011567Y017932D01*
X011567Y018091D02*
X008900Y018091D01*
X008900Y017932D02*
X009051Y017932D01*
X009056Y017953D02*
X009044Y017907D01*
X009044Y017726D01*
X009460Y017726D01*
X009460Y018063D01*
X009200Y018063D01*
X009154Y018051D01*
X009113Y018027D01*
X009080Y017994D01*
X009056Y017953D01*
X009044Y017774D02*
X008900Y017774D01*
X009044Y017726D02*
X009044Y017544D01*
X009056Y017499D01*
X009080Y017458D01*
X009113Y017424D01*
X009154Y017400D01*
X009200Y017388D01*
X009460Y017388D01*
X009460Y017726D01*
X009460Y017726D01*
X009460Y018063D01*
X009720Y018063D01*
X009766Y018051D01*
X009807Y018027D01*
X009840Y017994D01*
X009864Y017953D01*
X009876Y017907D01*
X009876Y017726D01*
X009460Y017726D01*
X009460Y017726D01*
X009460Y017726D01*
X009044Y017726D01*
X009044Y017615D02*
X008900Y017615D01*
X008900Y017457D02*
X009081Y017457D01*
X008900Y017298D02*
X010265Y017298D01*
X010265Y017457D02*
X009839Y017457D01*
X009840Y017458D02*
X009864Y017499D01*
X009876Y017544D01*
X009876Y017726D01*
X009460Y017726D01*
X009460Y017388D01*
X009720Y017388D01*
X009766Y017400D01*
X009807Y017424D01*
X009840Y017458D01*
X009876Y017615D02*
X010265Y017615D01*
X010265Y017774D02*
X009876Y017774D01*
X009869Y017932D02*
X010318Y017932D01*
X010325Y018249D02*
X009856Y018249D01*
X009657Y018631D02*
X009460Y018434D01*
X008814Y018434D01*
X008607Y018566D02*
X000712Y018566D01*
X000713Y018408D02*
X008453Y018408D01*
X008420Y018249D02*
X000714Y018249D01*
X000715Y018091D02*
X008420Y018091D01*
X008420Y017932D02*
X000715Y017932D01*
X000716Y017774D02*
X008420Y017774D01*
X008420Y017615D02*
X000717Y017615D01*
X000717Y017457D02*
X008420Y017457D01*
X008420Y017298D02*
X000718Y017298D01*
X000719Y017140D02*
X008420Y017140D01*
X008420Y016981D02*
X000720Y016981D01*
X000720Y016823D02*
X008420Y016823D01*
X008420Y016664D02*
X000721Y016664D01*
X000722Y016506D02*
X008420Y016506D01*
X008420Y016347D02*
X000722Y016347D01*
X000723Y016189D02*
X008420Y016189D01*
X008420Y016030D02*
X000724Y016030D01*
X000725Y015872D02*
X008420Y015872D01*
X008900Y017140D02*
X010304Y017140D01*
X010702Y017140D02*
X010818Y017140D01*
X010818Y017298D02*
X010702Y017298D01*
X010702Y017457D02*
X010818Y017457D01*
X010818Y017615D02*
X010702Y017615D01*
X010702Y017774D02*
X010818Y017774D01*
X010818Y017932D02*
X010702Y017932D01*
X011195Y018249D02*
X011567Y018249D01*
X012062Y018554D02*
X010837Y018554D01*
X010760Y018631D01*
X009657Y018631D01*
X009460Y017932D02*
X009460Y017932D01*
X009460Y017774D02*
X009460Y017774D01*
X009460Y017726D02*
X009460Y017726D01*
X009460Y017615D02*
X009460Y017615D01*
X009460Y017457D02*
X009460Y017457D01*
X011235Y018883D02*
X011587Y018883D01*
X011587Y019042D02*
X011166Y019042D01*
X017258Y020916D02*
X018224Y020916D01*
X018360Y020780D01*
X018360Y020615D01*
X018677Y020627D02*
X018843Y020627D01*
X018843Y020785D02*
X018677Y020785D01*
X018536Y020944D02*
X018843Y020944D01*
X018892Y021102D02*
X018377Y021102D01*
X018843Y021261D02*
X017733Y021261D01*
X017733Y021419D02*
X018843Y021419D01*
X018843Y021578D02*
X017733Y021578D01*
X017258Y021861D02*
X019079Y021861D01*
X019160Y021780D01*
X019160Y021375D01*
X019477Y021578D02*
X019681Y021578D01*
X019713Y021736D02*
X019400Y021736D01*
X019372Y021895D02*
X019768Y021895D01*
X019851Y022053D02*
X019226Y022053D01*
X019296Y021983D02*
X019296Y021983D01*
X019966Y022212D02*
X018431Y022212D01*
X018574Y022370D02*
X020131Y022370D01*
X018756Y022846D02*
X022859Y022846D01*
X022859Y023004D02*
X018756Y023004D01*
X018768Y023321D02*
X022859Y023321D01*
X022859Y023163D02*
X017733Y023163D01*
X017733Y023321D02*
X017952Y023321D01*
X017944Y023480D02*
X017733Y023480D01*
X017944Y023638D02*
X002009Y023638D01*
X002074Y023480D02*
X011572Y023480D01*
X014952Y024042D02*
X014965Y023996D01*
X014988Y023955D01*
X015022Y023922D01*
X015063Y023898D01*
X015109Y023886D01*
X015290Y023886D01*
X015471Y023886D01*
X015517Y023898D01*
X015558Y023922D01*
X015591Y023955D01*
X015647Y023955D01*
X015612Y023990D02*
X015696Y023906D01*
X016144Y023906D01*
X016228Y023990D01*
X016248Y023955D01*
X016282Y023922D01*
X016323Y023898D01*
X016369Y023886D01*
X016550Y023886D01*
X016731Y023886D01*
X016777Y023898D01*
X016818Y023922D01*
X016851Y023955D01*
X021816Y023955D01*
X021816Y024114D02*
X016887Y024114D01*
X016887Y024042D02*
X016887Y024381D01*
X016887Y024719D01*
X016875Y024765D01*
X016851Y024806D01*
X016818Y024840D01*
X016777Y024863D01*
X016731Y024876D01*
X016550Y024876D01*
X016550Y024381D01*
X016550Y024381D01*
X016887Y024381D01*
X016550Y024381D01*
X016550Y024381D01*
X016550Y024876D01*
X016369Y024876D01*
X016323Y024863D01*
X016282Y024840D01*
X016248Y024806D01*
X016228Y024771D01*
X016144Y024856D01*
X015696Y024856D01*
X015612Y024771D01*
X015591Y024806D01*
X015558Y024840D01*
X015517Y024863D01*
X015471Y024876D01*
X015290Y024876D01*
X015290Y024381D01*
X015290Y024381D01*
X015290Y024876D01*
X015109Y024876D01*
X015063Y024863D01*
X015022Y024840D01*
X014988Y024806D01*
X014965Y024765D01*
X014952Y024719D01*
X014952Y024381D01*
X015290Y024381D01*
X015290Y024381D01*
X015290Y023886D01*
X015290Y024381D01*
X015290Y024381D01*
X014952Y024381D01*
X014952Y024042D01*
X014952Y024114D02*
X000687Y024114D01*
X000687Y024272D02*
X014952Y024272D01*
X014952Y024431D02*
X000686Y024431D01*
X000685Y024589D02*
X014952Y024589D01*
X014960Y024748D02*
X000684Y024748D01*
X000684Y024906D02*
X021816Y024906D01*
X021816Y024748D02*
X016880Y024748D01*
X016887Y024589D02*
X021816Y024589D01*
X021816Y024431D02*
X016887Y024431D01*
X016887Y024272D02*
X021816Y024272D01*
X021816Y025065D02*
X000683Y025065D01*
X000682Y025223D02*
X021816Y025223D01*
X022766Y025223D02*
X024494Y025223D01*
X024494Y025065D02*
X022766Y025065D01*
X022766Y024906D02*
X024494Y024906D01*
X024494Y024748D02*
X022766Y024748D01*
X022766Y024589D02*
X024494Y024589D01*
X024494Y024431D02*
X022766Y024431D01*
X022766Y024272D02*
X024494Y024272D01*
X024494Y024114D02*
X022766Y024114D01*
X022766Y023955D02*
X024494Y023955D01*
X023750Y023638D02*
X023535Y023638D01*
X023613Y023480D02*
X023667Y023480D01*
X023667Y023321D02*
X023613Y023321D01*
X023613Y023163D02*
X023667Y023163D01*
X023667Y023004D02*
X023613Y023004D01*
X023613Y022846D02*
X023667Y022846D01*
X023667Y022687D02*
X023613Y022687D01*
X023613Y022529D02*
X023667Y022529D01*
X023667Y022370D02*
X023613Y022370D01*
X023613Y022212D02*
X023667Y022212D01*
X023667Y022053D02*
X023613Y022053D01*
X023613Y021895D02*
X023667Y021895D01*
X023667Y021736D02*
X023613Y021736D01*
X023583Y021578D02*
X023701Y021578D01*
X023704Y019993D02*
X019538Y019993D01*
X019466Y019851D02*
X019420Y019863D01*
X019160Y019863D01*
X019160Y019526D01*
X019160Y019526D01*
X019576Y019526D01*
X019576Y019707D01*
X019564Y019753D01*
X019540Y019794D01*
X019507Y019827D01*
X019466Y019851D01*
X019495Y019834D02*
X020357Y019834D01*
X020352Y019676D02*
X019576Y019676D01*
X019576Y019526D02*
X019160Y019526D01*
X019160Y019526D01*
X019160Y019188D01*
X019420Y019188D01*
X019466Y019200D01*
X019507Y019224D01*
X019540Y019258D01*
X019564Y019299D01*
X019576Y019344D01*
X019576Y019526D01*
X019576Y019517D02*
X020352Y019517D01*
X020980Y019359D02*
X019576Y019359D01*
X019464Y019200D02*
X020980Y019200D01*
X020352Y019042D02*
X018776Y019042D01*
X018776Y018883D02*
X020352Y018883D01*
X020359Y018725D02*
X018776Y018725D01*
X018675Y018566D02*
X020468Y018566D01*
X020700Y017920D02*
X020700Y017610D01*
X020940Y017370D01*
X020940Y016914D01*
X020926Y016900D01*
X020926Y016140D01*
X021166Y016506D02*
X021391Y016506D01*
X021297Y016664D02*
X021243Y016664D01*
X021243Y016823D02*
X021297Y016823D01*
X021297Y016981D02*
X021243Y016981D01*
X021243Y017140D02*
X021297Y017140D01*
X021397Y017298D02*
X021180Y017298D01*
X021634Y017298D02*
X021634Y017298D01*
X021634Y017140D02*
X021634Y017140D01*
X021634Y016981D02*
X021634Y016981D01*
X021634Y016900D02*
X021634Y016900D01*
X021634Y016823D02*
X021634Y016823D01*
X021634Y016664D02*
X021634Y016664D01*
X021634Y016506D02*
X021634Y016506D01*
X021783Y017615D02*
X021899Y017615D01*
X021899Y017774D02*
X021783Y017774D01*
X021783Y017932D02*
X021899Y017932D01*
X021899Y018091D02*
X021783Y018091D01*
X021783Y018249D02*
X021899Y018249D01*
X021899Y018408D02*
X021783Y018408D01*
X021772Y019280D02*
X021772Y019280D01*
X022188Y019280D01*
X021772Y019280D01*
X022188Y019359D02*
X023704Y019359D01*
X023704Y019517D02*
X022168Y019517D01*
X022168Y019676D02*
X023704Y019676D01*
X023704Y019834D02*
X022163Y019834D01*
X022188Y019200D02*
X023704Y019200D01*
X026775Y018566D02*
X027197Y018566D01*
X027820Y019042D02*
X027820Y019042D01*
X027820Y019200D02*
X027820Y019200D01*
X027621Y019516D02*
X027271Y019516D01*
X027621Y019516D02*
X027714Y019609D01*
X027714Y020214D01*
X027621Y020308D01*
X027525Y020308D01*
X027525Y020345D01*
X027608Y020345D01*
X027611Y020348D01*
X027629Y020337D01*
X027675Y020325D01*
X027907Y020325D01*
X027907Y020752D01*
X028003Y020752D01*
X028003Y020627D02*
X027907Y020627D01*
X027907Y020468D02*
X028003Y020468D01*
X028320Y020310D02*
X027525Y020310D01*
X027714Y020151D02*
X027926Y020151D01*
X027881Y019993D02*
X027714Y019993D01*
X027714Y019834D02*
X027880Y019834D01*
X027926Y019676D02*
X027714Y019676D01*
X027622Y019517D02*
X028018Y019517D01*
X027446Y019912D02*
X027285Y020072D01*
X027285Y020800D01*
X026869Y020944D02*
X026716Y020944D01*
X026716Y021102D02*
X026869Y021102D01*
X028284Y021261D02*
X028320Y021261D01*
X026366Y023955D02*
X025444Y023955D01*
X025444Y024114D02*
X026504Y024114D01*
X025534Y024272D02*
X025444Y024272D01*
X025444Y024431D02*
X025534Y024431D01*
X025534Y024589D02*
X025444Y024589D01*
X025444Y024748D02*
X025534Y024748D01*
X025534Y024906D02*
X025444Y024906D01*
X025444Y025065D02*
X025534Y025065D01*
X025534Y025223D02*
X025444Y025223D01*
X022859Y023480D02*
X018776Y023480D01*
X018360Y023480D02*
X018360Y023480D01*
X018360Y023534D02*
X018360Y023872D01*
X018360Y023534D01*
X018360Y023534D01*
X018360Y023638D02*
X018360Y023638D01*
X018360Y023797D02*
X018360Y023797D01*
X017976Y023797D02*
X001885Y023797D01*
X001725Y023955D02*
X014989Y023955D01*
X015290Y023955D02*
X015290Y023955D01*
X015290Y024114D02*
X015290Y024114D01*
X015290Y024272D02*
X015290Y024272D01*
X015290Y024431D02*
X015290Y024431D01*
X015290Y024589D02*
X015290Y024589D01*
X015290Y024748D02*
X015290Y024748D01*
X015612Y023990D02*
X015591Y023955D01*
X016193Y023955D02*
X016249Y023955D01*
X016550Y023955D02*
X016550Y023955D01*
X016550Y023886D02*
X016550Y024381D01*
X016550Y024381D01*
X016550Y023886D01*
X016550Y024114D02*
X016550Y024114D01*
X016550Y024272D02*
X016550Y024272D01*
X016550Y024431D02*
X016550Y024431D01*
X016550Y024589D02*
X016550Y024589D01*
X016550Y024748D02*
X016550Y024748D01*
X016887Y024042D02*
X016875Y023996D01*
X016851Y023955D01*
X017733Y023004D02*
X017964Y023004D01*
X017964Y022846D02*
X017733Y022846D01*
X017733Y022687D02*
X017964Y022687D01*
X018360Y022826D02*
X018360Y022480D01*
X018214Y022334D01*
X017258Y022334D01*
X018360Y023321D02*
X018360Y023321D01*
X019160Y020785D02*
X019160Y020234D01*
X018764Y020310D02*
X018616Y020310D01*
X018677Y020468D02*
X018774Y020468D01*
X018764Y020151D02*
X018677Y020151D01*
X018677Y019993D02*
X018782Y019993D01*
X018740Y019834D02*
X018825Y019834D01*
X019160Y019834D02*
X019160Y019834D01*
X019160Y019676D02*
X019160Y019676D01*
X019160Y019526D02*
X019160Y019526D01*
X019160Y019517D02*
X019160Y019517D01*
X019160Y019359D02*
X019160Y019359D01*
X019160Y019200D02*
X019160Y019200D01*
X018856Y019200D02*
X018684Y019200D01*
X018360Y019594D02*
X018360Y020025D01*
X018043Y019993D02*
X017733Y019993D01*
X017733Y020151D02*
X018043Y020151D01*
X018104Y020310D02*
X017733Y020310D01*
X017733Y020468D02*
X018043Y020468D01*
X018043Y020627D02*
X017733Y020627D01*
X017733Y019834D02*
X017980Y019834D01*
X017964Y019676D02*
X017733Y019676D01*
X017733Y019517D02*
X017964Y019517D01*
X017976Y019359D02*
X017733Y019359D01*
X013414Y010007D02*
X013102Y010007D01*
X012858Y010007D02*
X001020Y010007D01*
X001053Y009849D02*
X012666Y009849D01*
X012622Y009690D02*
X001087Y009690D01*
X001121Y009532D02*
X009442Y009532D01*
X009180Y009373D02*
X001160Y009373D01*
X001212Y009215D02*
X009022Y009215D01*
X008955Y009056D02*
X001263Y009056D01*
X001315Y008898D02*
X008889Y008898D01*
X008886Y008739D02*
X001366Y008739D01*
X001418Y008581D02*
X008886Y008581D01*
X008937Y008422D02*
X001469Y008422D01*
X001521Y008264D02*
X009002Y008264D01*
X010182Y007947D02*
X011604Y007947D01*
X011604Y008105D02*
X010383Y008105D01*
X010518Y008264D02*
X012011Y008264D01*
X012011Y008299D02*
X011604Y008299D01*
X011604Y009141D01*
X011616Y009186D01*
X011640Y009228D01*
X011673Y009261D01*
X011714Y009285D01*
X011760Y009297D01*
X012011Y009297D01*
X012011Y008299D01*
X012011Y008422D02*
X012147Y008422D01*
X012147Y008581D02*
X012011Y008581D01*
X012011Y008739D02*
X012147Y008739D01*
X012147Y008898D02*
X012011Y008898D01*
X012011Y009056D02*
X012147Y009056D01*
X012147Y009215D02*
X012011Y009215D01*
X011632Y009215D02*
X010498Y009215D01*
X010565Y009056D02*
X011604Y009056D01*
X011604Y008898D02*
X010631Y008898D01*
X010634Y008739D02*
X011604Y008739D01*
X011604Y008581D02*
X010634Y008581D01*
X010583Y008422D02*
X011604Y008422D01*
X012011Y008105D02*
X012147Y008105D01*
X012147Y007947D02*
X012011Y007947D01*
X012011Y007788D02*
X012147Y007788D01*
X012147Y007630D02*
X012011Y007630D01*
X012011Y007471D02*
X012147Y007471D01*
X012147Y007313D02*
X012011Y007313D01*
X012656Y009373D02*
X010340Y009373D01*
X010078Y009532D02*
X012650Y009532D01*
X013189Y009373D02*
X013414Y009373D01*
X013414Y009532D02*
X013310Y009532D01*
X013338Y009690D02*
X013414Y009690D01*
X013414Y009849D02*
X013294Y009849D01*
X006710Y006045D02*
X006550Y006045D01*
X006550Y006190D02*
X006550Y004318D01*
X006545Y004318D01*
X006375Y004333D01*
X006207Y004363D01*
X006043Y004407D01*
X005882Y004465D01*
X005728Y004537D01*
X005580Y004622D01*
X005441Y004720D01*
X005310Y004830D01*
X005190Y004950D01*
X005080Y005081D01*
X004982Y005220D01*
X004897Y005368D01*
X004825Y005522D01*
X004767Y005683D01*
X004723Y005847D01*
X004693Y006015D01*
X004678Y006185D01*
X004678Y006190D01*
X006550Y006190D01*
X006550Y006203D02*
X002557Y006203D01*
X002466Y006362D02*
X004679Y006362D01*
X004693Y006520D02*
X002374Y006520D01*
X002283Y006679D02*
X004720Y006679D01*
X004761Y006837D02*
X002191Y006837D01*
X002100Y006996D02*
X004817Y006996D01*
X004889Y007154D02*
X002013Y007154D01*
X001942Y007313D02*
X004978Y007313D01*
X005090Y007471D02*
X001872Y007471D01*
X001801Y007630D02*
X005229Y007630D01*
X005403Y007788D02*
X001731Y007788D01*
X001660Y007947D02*
X005630Y007947D01*
X005965Y008105D02*
X001590Y008105D01*
X002649Y006045D02*
X004691Y006045D01*
X004716Y005886D02*
X002764Y005886D01*
X002879Y005728D02*
X004755Y005728D01*
X004808Y005569D02*
X002995Y005569D01*
X003110Y005411D02*
X004877Y005411D01*
X004964Y005252D02*
X003225Y005252D01*
X003340Y005094D02*
X005071Y005094D01*
X005205Y004935D02*
X003474Y004935D01*
X003617Y004777D02*
X005374Y004777D01*
X005588Y004618D02*
X003760Y004618D01*
X003902Y004460D02*
X005898Y004460D01*
X006550Y004460D02*
X006710Y004460D01*
X006710Y004618D02*
X006550Y004618D01*
X006550Y004777D02*
X006710Y004777D01*
X006710Y004935D02*
X006550Y004935D01*
X006550Y005094D02*
X006710Y005094D01*
X006710Y005252D02*
X006550Y005252D01*
X006550Y005411D02*
X006710Y005411D01*
X006710Y005569D02*
X006550Y005569D01*
X006550Y005728D02*
X006710Y005728D01*
X006710Y005886D02*
X006550Y005886D01*
X000695Y023955D02*
X000688Y023955D01*
D35*
X013380Y016090D03*
X013150Y014530D03*
X014080Y014420D03*
X013090Y013650D03*
X012630Y013000D03*
X013600Y011890D03*
X012980Y009670D03*
X015460Y008860D03*
X015920Y009030D03*
X017130Y009700D03*
X019000Y009460D03*
X020560Y009520D03*
X022125Y010055D03*
X022310Y009090D03*
X023020Y008110D03*
X023630Y008580D03*
X023570Y009130D03*
X024460Y007990D03*
X025480Y009430D03*
X027350Y009400D03*
X030160Y009710D03*
X031150Y009500D03*
X028110Y012500D03*
X027720Y013050D03*
X023370Y011370D03*
X021440Y012220D03*
X020470Y011910D03*
X021580Y013650D03*
X022020Y014160D03*
X022020Y015240D03*
X019490Y015440D03*
X017510Y016560D03*
X018210Y017010D03*
X017360Y015510D03*
X017200Y014270D03*
X017270Y013020D03*
X020060Y007240D03*
X020090Y006390D03*
X020850Y006200D03*
X021400Y007310D03*
X022710Y006480D03*
X023150Y006730D03*
X025630Y006580D03*
X025780Y005780D03*
X025030Y018980D03*
X027020Y019600D03*
X024870Y021950D03*
D36*
X021772Y019654D02*
X021294Y019654D01*
X021260Y019620D01*
X021260Y018980D01*
X021340Y018900D01*
X021766Y018900D01*
X021772Y018906D01*
X021818Y018860D01*
X023960Y018860D01*
X023987Y018860D01*
X024024Y018896D01*
X020748Y018906D02*
X020748Y017968D01*
X020700Y017920D01*
X020700Y017981D01*
X020739Y018020D01*
D37*
X020660Y013668D02*
X020660Y013210D01*
X020805Y013065D01*
X020805Y012820D01*
X022950Y011700D02*
X023130Y011880D01*
X024650Y011880D01*
X024660Y011870D01*
X024561Y011870D01*
X024560Y011871D01*
X024440Y010700D02*
X023520Y010700D01*
X023287Y010467D01*
X022950Y010467D01*
X022950Y010782D02*
X022950Y011700D01*
X024440Y010700D02*
X024460Y010680D01*
X024551Y010680D01*
X024560Y010689D01*
D38*
X024275Y009530D02*
X024260Y009515D01*
X024275Y009530D02*
X024890Y009530D01*
X025220Y009200D01*
X025220Y006430D01*
X024916Y006126D01*
X021400Y006126D01*
X020850Y006200D02*
X020850Y006610D01*
X020960Y006720D01*
X020960Y007400D01*
X021110Y007550D01*
X021110Y007983D01*
X021103Y007990D01*
X021400Y007973D02*
X021417Y007990D01*
X021400Y007973D02*
X021400Y007310D01*
X021400Y006834D01*
X020710Y007230D02*
X020390Y006910D01*
X020210Y006910D01*
X020090Y006790D01*
X020090Y006390D01*
X020060Y007240D02*
X020280Y007240D01*
X020470Y007430D01*
X020470Y007987D01*
X020473Y007990D01*
X020480Y007983D01*
X020788Y007990D02*
X020788Y007668D01*
X020710Y007590D01*
X020710Y007230D01*
X021732Y007468D02*
X022130Y007070D01*
X022610Y007070D01*
X022720Y006960D01*
X022720Y006490D01*
X022710Y006480D01*
X023150Y006730D02*
X023150Y007290D01*
X022980Y007460D01*
X022130Y007460D01*
X022050Y007540D01*
X022050Y007987D01*
X022047Y007990D01*
X021732Y007990D02*
X021732Y007468D01*
X022362Y007990D02*
X022482Y008110D01*
X023020Y008110D01*
X022950Y008578D02*
X022952Y008580D01*
X023630Y008580D01*
X025630Y006580D02*
X026000Y006950D01*
X031460Y006950D01*
X031590Y007080D01*
X031590Y011720D01*
X030810Y012500D01*
X028110Y012500D01*
X027720Y013050D02*
X031130Y013050D01*
X032030Y012150D01*
X032030Y007000D01*
X031640Y006610D01*
X026290Y006610D01*
X025880Y006200D01*
X025880Y005880D01*
X025780Y005780D01*
X029366Y008231D02*
X029366Y009494D01*
X029340Y009520D01*
X027470Y009520D01*
X027350Y009400D01*
X030941Y009291D02*
X030941Y008231D01*
X030941Y009291D02*
X031150Y009500D01*
X021580Y013650D02*
X021562Y013668D01*
X021034Y013668D01*
X020286Y013668D02*
X020286Y012404D01*
X020410Y012280D01*
X021380Y012280D01*
X021440Y012220D01*
X020470Y011910D02*
X020470Y011373D01*
X020473Y011370D01*
X020158Y011370D02*
X020148Y011380D01*
X019970Y011380D01*
X019770Y011580D01*
X019770Y013870D01*
X019670Y013970D01*
X017960Y013970D01*
X017840Y013850D01*
X017840Y012530D01*
X017690Y012380D01*
X015860Y012380D01*
X015670Y012570D01*
X015670Y013380D01*
X015400Y013650D01*
X013090Y013650D01*
X016050Y010940D02*
X016110Y011000D01*
X016580Y011000D01*
X016680Y011100D01*
X018570Y011100D01*
X018590Y011110D01*
X016050Y010940D02*
X016050Y010500D01*
X015460Y008860D02*
X015460Y008670D01*
X015550Y008580D01*
X019568Y008580D01*
X019570Y008578D01*
X019209Y008231D02*
X019440Y008000D01*
X020148Y008000D01*
X020158Y007990D01*
X020788Y007990D02*
X020790Y007988D01*
X019209Y008231D02*
X014441Y008231D01*
X012866Y008231D02*
X012866Y009556D01*
X012980Y009670D01*
X017510Y016560D02*
X017258Y016812D01*
X017258Y018082D01*
X017258Y018554D02*
X017806Y018554D01*
X018000Y018360D01*
X018000Y017220D01*
X018210Y017010D01*
D39*
X023960Y018860D02*
X024760Y018060D01*
X028010Y018060D01*
X028200Y018250D01*
X028200Y018882D01*
X028206Y019900D02*
X028194Y019912D01*
X028206Y019900D02*
X028530Y019900D01*
X028640Y020010D01*
X028640Y021150D01*
X028655Y021135D01*
X029220Y021135D01*
X028640Y021150D02*
X028640Y021400D01*
X028450Y021590D01*
X028450Y021610D01*
X028510Y021610D01*
X028510Y022260D01*
X024024Y022583D02*
X024024Y021030D01*
X024024Y018896D01*
M02*
