%
M48
M72
T01C0.0236
T02C0.0394
T03C0.0400
T04C0.0787
T05C0.0866
T06C0.1102
T07C0.1260
T08C0.2165
%
T01
X12980Y9670
X15460Y8860
X15920Y9030
X17130Y9700
X19000Y9460
X20560Y9520
X22125Y10055
X22310Y9090
X23020Y8110
X23630Y8580
X23570Y9130
X24460Y7990
X25480Y9430
X27350Y9400
X30160Y9710
X31150Y9500
X28110Y12500
X27720Y13050
X23370Y11370
X21440Y12220
X20470Y11910
X21580Y13650
X22020Y14160
X22020Y15240
X19490Y15440
X17510Y16560
X18210Y17010
X17360Y15510
X17200Y14270
X17270Y13020
X14080Y14420
X13150Y14530
X13090Y13650
X12630Y13000
X13600Y11890
X13380Y16090
X25030Y18980
X27020Y19600
X24870Y21950
X21400Y7310
X20060Y7240
X20090Y6390
X20850Y6200
X22710Y6480
X23150Y6730
X25630Y6580
X25780Y5780
T02
X26954Y23606
X28686Y23606
T03
X26350Y15660
X24570Y15660
X24570Y13100
X26350Y13100
X32760Y13530
X32760Y12540
X32760Y11490
X17050Y11600
X16050Y11500
X15050Y11600
X15050Y10600
X16050Y10500
X17050Y10600
X16550Y12900
X14770Y12900
X14770Y15460
X16550Y15460
X7760Y13530
X7760Y12540
X7760Y11490
T04
X9760Y8717
X10356Y1219
X26260Y8717
X26856Y1219
T05
X39310Y23180
X1210Y23180
T06
X20900Y21410
T07
X28760Y11180
X11760Y11180
T08
X6630Y6270
X36240Y6980
M30
